<svg id="Layer_3" enable-background="new 0 0 64 64" height="512" viewBox="0 0 64 64" width="512" xmlns="http://www.w3.org/2000/svg"><g><path d="m39 54v4c0 2.209-4.925 4-11 4s-11-1.791-11-4v-4" fill="#f7d881"/><path d="m24 21c0 2.209-4.925 4-11 4s-11-1.791-11-4v-6c0 2.209 4.925 4 11 4s11-1.791 11-4z" fill="#f2c351"/><path d="m24 27c0 2.209-4.925 4-11 4s-11-1.791-11-4v-6c0 2.209 4.925 4 11 4s11-1.791 11-4z" fill="#f7d881"/><path d="m24 33c0 2.209-4.925 4-11 4s-11-1.791-11-4v-6c0 2.209 4.925 4 11 4s11-1.791 11-4z" fill="#f2c351"/><path d="m24 39c0 2.209-4.925 4-11 4s-11-1.791-11-4v-6c0 2.209 4.925 4 11 4s11-1.791 11-4z" fill="#f7d881"/><path d="m24 45c0 2.209-4.925 4-11 4s-11-1.791-11-4v-6c0 2.209 4.925 4 11 4s11-1.791 11-4z" fill="#f2c351"/><ellipse cx="13" cy="15" fill="#78b75b" rx="11" ry="4"/><ellipse cx="11.5" cy="15" fill="#96cc7f" rx="9.5" ry="3.959"/><path d="m50 12c0 2.209-4.925 4-11 4s-11-1.791-11-4v-6c0 2.209 4.925 4 11 4s11-1.791 11-4z" fill="#f2c351"/><path d="m50 18c0 2.209-4.925 4-11 4s-11-1.791-11-4v-6c0 2.209 4.925 4 11 4s11-1.791 11-4z" fill="#f7d881"/><path d="m50 24c0 2.209-4.925 4-11 4s-11-1.791-11-4v-6c0 2.209 4.925 4 11 4s11-1.791 11-4z" fill="#f2c351"/><path d="m50 30c0 2.209-4.925 4-11 4s-11-1.791-11-4v-6c0 2.209 4.925 4 11 4s11-1.791 11-4z" fill="#f7d881"/><path d="m50 36c0 2.209-4.925 4-11 4s-11-1.791-11-4v-6c0 2.209 4.925 4 11 4s11-1.791 11-4z" fill="#f2c351"/><ellipse cx="39" cy="6" fill="#78b75b" rx="11" ry="4"/><ellipse cx="37.5" cy="6" fill="#96cc7f" rx="9.5" ry="3.959"/><ellipse cx="28" cy="54" fill="#78b75b" rx="11" ry="4"/><ellipse cx="26.5" cy="54" fill="#96cc7f" rx="9.5" ry="3.959"/><path d="m62 46v4c0 2.209-4.925 4-11 4s-11-1.791-11-4v-4" fill="#f7d881"/><ellipse cx="51" cy="46" fill="#78b75b" rx="11" ry="4"/><ellipse cx="49.5" cy="46" fill="#96cc7f" rx="9.5" ry="3.959"/></g></svg>