<svg xmlns="http://www.w3.org/2000/svg" viewBox="0 0 79 123"><defs><style>.cls-1{fill:#fff;stroke-width:1.5px;}.cls-1,.cls-2{stroke:#000;}.cls-2{fill:none;}</style></defs><title>10C</title><g id="Layer_2" data-name="Layer 2"><g id="Layer_1-2" data-name="Layer 1"><path class="cls-1" d="M78.25,117.25a5,5,0,0,1-5,5H5.75a5,5,0,0,1-5-5V5.75a5,5,0,0,1,5-5h67.5a5,5,0,0,1,5,5Z"/><g id="u"><path class="cls-2" d="M12.25,15.1a2.25,2.25,0,0,1-4.5,0V6.9a2.25,2.25,0,0,1,4.5,0Z"/><path class="cls-2" d="M4.75,4.25v13.5"/></g><g id="ah"><path class="cls-2" d="M74.25,118.75v-13.5"/><path class="cls-2" d="M66.75,107.9a2.25,2.25,0,0,1,4.5,0v8.2a2.25,2.25,0,0,1-4.5,0Z"/></g><path d="M9.64,24a3.47,3.47,0,0,0,1.25-2.38A2.3,2.3,0,0,0,8.5,19.5a2.3,2.3,0,0,0-2.39,2.16A3.47,3.47,0,0,0,7.36,24,2.38,2.38,0,0,0,3.5,25.86a2.3,2.3,0,0,0,2.27,2.28,2.88,2.88,0,0,0,2.39-1.82,4.2,4.2,0,0,1-1,3.18H9.86a4.2,4.2,0,0,1-1-3.18,2.88,2.88,0,0,0,2.39,1.82,2.3,2.3,0,0,0,2.27-2.28A2.38,2.38,0,0,0,9.64,24Z"/><path d="M69.36,99a3.47,3.47,0,0,0-1.25,2.38,2.4,2.4,0,0,0,4.78,0A3.47,3.47,0,0,0,71.64,99a2.38,2.38,0,0,0,3.86-1.82,2.3,2.3,0,0,0-2.27-2.28,2.88,2.88,0,0,0-2.39,1.82,4.2,4.2,0,0,1,1-3.18H69.14a4.2,4.2,0,0,1,1,3.18,2.88,2.88,0,0,0-2.39-1.82,2.3,2.3,0,0,0-2.27,2.28A2.38,2.38,0,0,0,69.36,99Z"/><path d="M25.66,20.64A6.6,6.6,0,0,0,28,16.1,4.36,4.36,0,0,0,23.5,12,4.36,4.36,0,0,0,19,16.1a6.6,6.6,0,0,0,2.37,4.54C18.7,18.58,14,20,14,24.09a4.36,4.36,0,0,0,4.32,4.32c3.16,0,4.53-3.46,4.53-3.46s.4,3.94-1.94,6.05h5.18C23.75,28.89,24.15,25,24.15,25s1.37,3.46,4.53,3.46A4.36,4.36,0,0,0,33,24.09C33,20,28.3,18.58,25.66,20.64Z"/><path d="M25.66,47.39A6.6,6.6,0,0,0,28,42.85a4.36,4.36,0,0,0-4.53-4.1A4.36,4.36,0,0,0,19,42.85a6.6,6.6,0,0,0,2.37,4.54C18.7,45.33,14,46.73,14,50.84a4.36,4.36,0,0,0,4.32,4.32c3.16,0,4.53-3.46,4.53-3.46s.4,3.94-1.94,6h5.18c-2.34-2.11-1.94-6-1.94-6s1.37,3.46,4.53,3.46A4.36,4.36,0,0,0,33,50.84C33,46.73,28.3,45.33,25.66,47.39Z"/><path d="M21.34,75.61A6.6,6.6,0,0,0,19,80.15a4.36,4.36,0,0,0,4.53,4.1A4.36,4.36,0,0,0,28,80.15a6.6,6.6,0,0,0-2.37-4.54c2.64,2.06,7.34.66,7.34-3.45a4.36,4.36,0,0,0-4.32-4.32c-3.16,0-4.53,3.46-4.53,3.46s-.4-3.94,1.94-6H20.91c2.34,2.11,1.94,6,1.94,6s-1.37-3.46-4.53-3.46A4.36,4.36,0,0,0,14,72.16C14,76.27,18.7,77.67,21.34,75.61Z"/><path d="M21.34,102.36A6.6,6.6,0,0,0,19,106.9,4.36,4.36,0,0,0,23.5,111,4.36,4.36,0,0,0,28,106.9a6.6,6.6,0,0,0-2.37-4.54C28.3,104.42,33,103,33,98.91a4.36,4.36,0,0,0-4.32-4.32c-3.16,0-4.53,3.46-4.53,3.46s-.4-3.94,1.94-6H20.91c2.34,2.11,1.94,6,1.94,6s-1.37-3.46-4.53-3.46A4.36,4.36,0,0,0,14,98.91C14,103,18.7,104.42,21.34,102.36Z"/><path d="M41.66,34A6.6,6.6,0,0,0,44,29.48a4.55,4.55,0,0,0-9.06,0A6.6,6.6,0,0,0,37.34,34C34.7,32,30,33.36,30,37.47a4.36,4.36,0,0,0,4.32,4.31c3.16,0,4.53-3.45,4.53-3.45s.4,3.94-1.94,6.05h5.18c-2.34-2.11-1.94-6.05-1.94-6.05s1.37,3.45,4.53,3.45A4.36,4.36,0,0,0,49,37.47C49,33.36,44.3,32,41.66,34Z"/><path d="M37.34,89A6.6,6.6,0,0,0,35,93.52a4.55,4.55,0,0,0,9.06,0A6.6,6.6,0,0,0,41.66,89C44.3,91,49,89.64,49,85.53a4.36,4.36,0,0,0-4.32-4.31c-3.16,0-4.53,3.45-4.53,3.45s-.4-3.94,1.94-6H36.91c2.34,2.1,1.94,6,1.94,6s-1.37-3.45-4.53-3.45A4.36,4.36,0,0,0,30,85.53C30,89.64,34.7,91,37.34,89Z"/><path d="M57.66,20.64A6.6,6.6,0,0,0,60,16.1a4.55,4.55,0,0,0-9.06,0,6.6,6.6,0,0,0,2.37,4.54C50.7,18.58,46,20,46,24.09a4.36,4.36,0,0,0,4.32,4.32c3.16,0,4.53-3.46,4.53-3.46s.4,3.94-1.94,6.05h5.18C55.75,28.89,56.15,25,56.15,25s1.37,3.46,4.53,3.46A4.36,4.36,0,0,0,65,24.09C65,20,60.3,18.58,57.66,20.64Z"/><path d="M57.66,47.39A6.6,6.6,0,0,0,60,42.85a4.55,4.55,0,0,0-9.06,0,6.6,6.6,0,0,0,2.37,4.54C50.7,45.33,46,46.73,46,50.84a4.36,4.36,0,0,0,4.32,4.32c3.16,0,4.53-3.46,4.53-3.46s.4,3.94-1.94,6h5.18c-2.34-2.11-1.94-6-1.94-6s1.37,3.46,4.53,3.46A4.36,4.36,0,0,0,65,50.84C65,46.73,60.3,45.33,57.66,47.39Z"/><path d="M53.34,75.61A6.6,6.6,0,0,0,51,80.15a4.55,4.55,0,0,0,9.06,0,6.6,6.6,0,0,0-2.37-4.54c2.64,2.06,7.34.66,7.34-3.45a4.36,4.36,0,0,0-4.32-4.32c-3.16,0-4.53,3.46-4.53,3.46s-.4-3.94,1.94-6H52.91c2.34,2.11,1.94,6,1.94,6s-1.37-3.46-4.53-3.46A4.36,4.36,0,0,0,46,72.16C46,76.27,50.7,77.67,53.34,75.61Z"/><path d="M53.34,102.36A6.6,6.6,0,0,0,51,106.9a4.55,4.55,0,0,0,9.06,0,6.6,6.6,0,0,0-2.37-4.54C60.3,104.42,65,103,65,98.91a4.36,4.36,0,0,0-4.32-4.32c-3.16,0-4.53,3.46-4.53,3.46s-.4-3.94,1.94-6H52.91c2.34,2.11,1.94,6,1.94,6s-1.37-3.46-4.53-3.46A4.36,4.36,0,0,0,46,98.91C46,103,50.7,104.42,53.34,102.36Z"/></g></g></svg>