<svg xmlns="http://www.w3.org/2000/svg" viewBox="0 0 79 123"><defs><style>.cls-1{fill:#fff;stroke-width:1.5px;}.cls-1,.cls-2{stroke:#000;}.cls-2{fill:none;}</style></defs><title>10S</title><g id="Layer_2" data-name="Layer 2"><g id="Layer_1-2" data-name="Layer 1"><path class="cls-1" d="M78.25,117.25a5,5,0,0,1-5,5H5.75a5,5,0,0,1-5-5V5.75a5,5,0,0,1,5-5h67.5a5,5,0,0,1,5,5Z"/><path class="cls-2" d="M12.25,15.1a2.25,2.25,0,0,1-4.5,0V6.9a2.25,2.25,0,0,1,4.5,0Z"/><path class="cls-2" d="M4.75,4.25v13.5"/><path class="cls-2" d="M74.25,118.75v-13.5"/><path class="cls-2" d="M66.75,107.9a2.25,2.25,0,0,1,4.5,0v8.2a2.25,2.25,0,0,1-4.5,0Z"/><path d="M13,26.13C12.86,24,8.64,20,8.5,19,8.36,20,4.14,24,4,26.13a1.84,1.84,0,0,0,1.9,2.12c1.37,0,1.77-1.37,1.91-1.75,0-.12.27-.12.27,0,.14.38-.9,3.5-1.22,3.5h3.26c-.32,0-1.36-3.12-1.22-3.5,0-.12.27-.12.27,0,.14.38.55,1.75,1.91,1.75A1.84,1.84,0,0,0,13,26.13Z"/><path d="M66,96.88C66.14,99,70.36,103,70.5,104c.14-1,4.36-5,4.49-7.12a1.84,1.84,0,0,0-1.9-2.13c-1.37,0-1.77,1.38-1.91,1.75,0,.13-.27.13-.27,0-.14-.37.9-3.5,1.22-3.5H68.87c.32,0,1.36,3.13,1.22,3.5,0,.13-.27.13-.27,0-.14-.37-.55-1.75-1.91-1.75A1.84,1.84,0,0,0,66,96.88Z"/><path d="M31.49,24.6c-.24-4.05-7.75-11.69-8-13.6-.24,1.91-7.75,9.55-8,13.6-.17,2.87,1.7,4.06,3.39,4.06,2.42,0,3.15-2.63,3.39-3.34,0-.24.48-.24.48,0C23,26,21.17,32,20.6,32h5.81c-.58,0-2.43-6-2.18-6.68,0-.24.48-.24.48,0,.24.71,1,3.34,3.39,3.34C29.8,28.66,31.66,27.47,31.49,24.6Z"/><path d="M31.49,51.35c-.24-4.05-7.75-11.69-8-13.6-.24,1.91-7.75,9.55-8,13.6-.17,2.87,1.7,4.06,3.39,4.06,2.42,0,3.15-2.63,3.39-3.34,0-.24.48-.24.48,0,.25.71-1.6,6.68-2.17,6.68h5.81c-.58,0-2.43-6-2.18-6.68,0-.24.48-.24.48,0,.24.71,1,3.34,3.39,3.34C29.8,55.41,31.66,54.22,31.49,51.35Z"/><path d="M15.51,71.65c.24,4,7.75,11.69,8,13.6.24-1.91,7.75-9.55,8-13.6.17-2.87-1.7-4.06-3.39-4.06-2.42,0-3.15,2.63-3.39,3.34,0,.24-.48.24-.48,0-.25-.71,1.6-6.68,2.17-6.68H20.59c.58,0,2.43,6,2.18,6.68,0,.24-.48.24-.48,0-.24-.71-1-3.34-3.39-3.34C17.2,67.59,15.34,68.78,15.51,71.65Z"/><path d="M15.51,98.4c.24,4,7.75,11.69,8,13.6.24-1.91,7.75-9.55,8-13.6.17-2.87-1.7-4.06-3.39-4.06-2.42,0-3.15,2.63-3.39,3.34,0,.24-.48.24-.48,0C24,97,25.83,91,26.4,91H20.59c.58,0,2.43,6,2.18,6.68,0,.24-.48.24-.48,0-.24-.71-1-3.34-3.39-3.34C17.2,94.34,15.34,95.53,15.51,98.4Z"/><path d="M47.49,38c-.24-4-7.75-11.69-8-13.6-.24,1.91-7.75,9.55-8,13.6C31.34,40.85,33.21,42,34.9,42c2.42,0,3.15-2.62,3.39-3.34,0-.24.48-.24.48,0,.25.72-1.6,6.68-2.17,6.68h5.81c-.58,0-2.43-6-2.18-6.68,0-.24.48-.24.48,0,.24.72,1,3.34,3.39,3.34C45.8,42,47.66,40.85,47.49,38Z"/><path d="M31.51,85c.24,4,7.75,11.69,8,13.6.24-1.91,7.75-9.55,8-13.6.17-2.87-1.7-4.06-3.39-4.06-2.42,0-3.15,2.62-3.39,3.34,0,.24-.48.24-.48,0-.25-.72,1.6-6.68,2.17-6.68H36.59c.58,0,2.43,6,2.18,6.68,0,.24-.48.24-.48,0-.24-.72-1-3.34-3.39-3.34C33.2,81,31.34,82.15,31.51,85Z"/><path d="M63.49,24.6c-.24-4.05-7.75-11.69-8-13.6-.24,1.91-7.75,9.55-8,13.6-.17,2.87,1.7,4.06,3.39,4.06,2.42,0,3.15-2.63,3.39-3.34,0-.24.48-.24.48,0C55,26,53.17,32,52.6,32h5.81c-.58,0-2.43-6-2.18-6.68,0-.24.48-.24.48,0,.24.71,1,3.34,3.39,3.34C61.8,28.66,63.66,27.47,63.49,24.6Z"/><path d="M63.49,51.35c-.24-4.05-7.75-11.69-8-13.6-.24,1.91-7.75,9.55-8,13.6-.17,2.87,1.7,4.06,3.39,4.06,2.42,0,3.15-2.63,3.39-3.34,0-.24.48-.24.48,0,.25.71-1.6,6.68-2.17,6.68h5.81c-.58,0-2.43-6-2.18-6.68,0-.24.48-.24.48,0,.24.71,1,3.34,3.39,3.34C61.8,55.41,63.66,54.22,63.49,51.35Z"/><path d="M47.51,71.65c.24,4,7.75,11.69,8,13.6.24-1.91,7.75-9.55,8-13.6.17-2.87-1.7-4.06-3.39-4.06-2.42,0-3.15,2.63-3.39,3.34,0,.24-.48.24-.48,0-.25-.71,1.6-6.68,2.17-6.68H52.59c.58,0,2.43,6,2.18,6.68,0,.24-.48.24-.48,0-.24-.71-1-3.34-3.39-3.34C49.2,67.59,47.34,68.78,47.51,71.65Z"/><path d="M47.51,98.4c.24,4,7.75,11.69,8,13.6.24-1.91,7.75-9.55,8-13.6.17-2.87-1.7-4.06-3.39-4.06-2.42,0-3.15,2.63-3.39,3.34,0,.24-.48.24-.48,0C56,97,57.83,91,58.4,91H52.59c.58,0,2.43,6,2.18,6.68,0,.24-.48.24-.48,0-.24-.71-1-3.34-3.39-3.34C49.2,94.34,47.34,95.53,47.51,98.4Z"/></g></g></svg>