<svg xmlns="http://www.w3.org/2000/svg" viewBox="0 0 79 123"><defs><style>.cls-1{fill:#fff;stroke-width:1.5px;}.cls-1,.cls-2{stroke:#000;}.cls-2{fill:none;}</style></defs><title>2C</title><g id="Layer_2" data-name="Layer 2"><g id="Layer_1-2" data-name="Layer 1"><path class="cls-1" d="M78.25,117.25a5,5,0,0,1-5,5H5.75a5,5,0,0,1-5-5V5.75a5,5,0,0,1,5-5h67.5a5,5,0,0,1,5,5Z"/><g id="t"><path class="cls-2" d="M12.25,15v2.25H4.75V16c0-3.25,7.5-3.75,7.5-7.75,0-2.75-1.25-3.5-3.75-3.5s-3.75,1.5-3.75,3"/></g><g id="ag"><path class="cls-2" d="M66.75,108v-2.25h7.5V107c0,3.25-7.5,3.75-7.5,7.75,0,2.75,1.25,3.5,3.75,3.5s3.75-1.5,3.75-3"/></g><path d="M9.64,24a3.47,3.47,0,0,0,1.25-2.38A2.3,2.3,0,0,0,8.5,19.5a2.3,2.3,0,0,0-2.39,2.16A3.47,3.47,0,0,0,7.36,24,2.38,2.38,0,0,0,3.5,25.86a2.3,2.3,0,0,0,2.27,2.28,2.88,2.88,0,0,0,2.39-1.82,4.2,4.2,0,0,1-1,3.18H9.86a4.2,4.2,0,0,1-1-3.18,2.88,2.88,0,0,0,2.39,1.82,2.3,2.3,0,0,0,2.27-2.28A2.38,2.38,0,0,0,9.64,24Z"/><path d="M69.36,99a3.47,3.47,0,0,0-1.25,2.38,2.4,2.4,0,0,0,4.78,0A3.47,3.47,0,0,0,71.64,99a2.38,2.38,0,0,0,3.86-1.82,2.3,2.3,0,0,0-2.27-2.28,2.88,2.88,0,0,0-2.39,1.82,4.2,4.2,0,0,1,1-3.18H69.14a4.2,4.2,0,0,1,1,3.18,2.88,2.88,0,0,0-2.39-1.82,2.3,2.3,0,0,0-2.27,2.28A2.38,2.38,0,0,0,69.36,99Z"/><path d="M41.66,20.64A6.6,6.6,0,0,0,44,16.1a4.55,4.55,0,0,0-9.06,0,6.6,6.6,0,0,0,2.37,4.54C34.7,18.58,30,20,30,24.09a4.36,4.36,0,0,0,4.32,4.32c3.16,0,4.53-3.46,4.53-3.46s.4,3.94-1.94,6.05h5.18C39.75,28.89,40.15,25,40.15,25s1.37,3.46,4.53,3.46A4.36,4.36,0,0,0,49,24.09C49,20,44.3,18.58,41.66,20.64Z"/><path d="M37.34,102.36A6.6,6.6,0,0,0,35,106.9a4.55,4.55,0,0,0,9.06,0,6.6,6.6,0,0,0-2.37-4.54C44.3,104.42,49,103,49,98.91a4.36,4.36,0,0,0-4.32-4.32c-3.16,0-4.53,3.46-4.53,3.46s-.4-3.94,1.94-6H36.91c2.34,2.11,1.94,6,1.94,6s-1.37-3.46-4.53-3.46A4.36,4.36,0,0,0,30,98.91C30,103,34.7,104.42,37.34,102.36Z"/></g></g></svg>