<svg xmlns="http://www.w3.org/2000/svg" viewBox="0 0 79 123"><defs><style>.cls-1{fill:#fff;stroke:#000;stroke-width:1.5px;}.cls-2{fill:none;stroke:#df0000;}.cls-3{fill:#df0000;}</style></defs><title>3H</title><g id="Layer_2" data-name="Layer 2"><g id="Layer_1-2" data-name="Layer 1"><path class="cls-1" d="M78.25,117.25a5,5,0,0,1-5,5H5.75a5,5,0,0,1-5-5V5.75a5,5,0,0,1,5-5h67.5a5,5,0,0,1,5,5Z"/><path class="cls-2" d="M4.75,7V4.75H11.5V5.5l-5,5.25a6.07,6.07,0,0,1,2.5-.5,3.3,3.3,0,0,1,3.25,3.25A3.68,3.68,0,0,1,8.5,17.25a3.85,3.85,0,0,1-3.75-2.5"/><path class="cls-2" d="M74.25,116v2.25H67.5v-.75l5-5.25a6.07,6.07,0,0,1-2.5.5,3.3,3.3,0,0,1-3.25-3.25,3.68,3.68,0,0,1,3.75-3.75,3.85,3.85,0,0,1,3.75,2.5"/><path class="cls-3" d="M10.57,19.5A2.16,2.16,0,0,0,8.5,21.43,2.16,2.16,0,0,0,6.43,19.5,2.36,2.36,0,0,0,4,22c0,2.16,4.05,5.94,4.5,7.5C9,27.94,13,24.16,13,22A2.35,2.35,0,0,0,10.57,19.5Z"/><path class="cls-3" d="M68.43,103.5a2.16,2.16,0,0,0,2.07-1.93,2.16,2.16,0,0,0,2.07,1.93A2.36,2.36,0,0,0,75,101c0-2.16-4-5.94-4.5-7.5C70,95.06,66,98.84,66,101A2.35,2.35,0,0,0,68.43,103.5Z"/><path class="cls-3" d="M43.18,12.5C39.93,12.5,39.5,16,39.5,16s-.43-3.48-3.68-3.48A4.21,4.21,0,0,0,31.5,17c0,3.89,7.19,10.69,8,13.5.81-2.81,8-9.61,8-13.5A4.21,4.21,0,0,0,43.18,12.5Z"/><path class="cls-3" d="M43.18,52.5C39.93,52.5,39.5,56,39.5,56s-.43-3.48-3.68-3.48A4.21,4.21,0,0,0,31.5,57c0,3.89,7.19,10.69,8,13.5.81-2.81,8-9.61,8-13.5A4.21,4.21,0,0,0,43.18,52.5Z"/><path class="cls-3" d="M35.82,110.5c3.25,0,3.68-3.48,3.68-3.48s.43,3.48,3.68,3.48A4.21,4.21,0,0,0,47.5,106c0-3.89-7.19-10.69-8-13.5-.81,2.81-8,9.61-8,13.5A4.21,4.21,0,0,0,35.82,110.5Z"/></g></g></svg>