<svg xmlns="http://www.w3.org/2000/svg" viewBox="0 0 79 123"><defs><style>.cls-1{fill:#fff;stroke-width:1.5px;}.cls-1,.cls-2{stroke:#000;}.cls-2{fill:none;}</style></defs><title>6C</title><g id="Layer_2" data-name="Layer 2"><g id="Layer_1-2" data-name="Layer 1"><path class="cls-1" d="M78.25,117.25a5,5,0,0,1-5,5H5.75a5,5,0,0,1-5-5V5.75a5,5,0,0,1,5-5h67.5a5,5,0,0,1,5,5Z"/><g id="p"><path class="cls-2" d="M11.75,13.5A3.25,3.25,0,1,0,8.5,16.75a3.26,3.26,0,0,0,3.25-3.25"/><path class="cls-2" d="M5.25,13.5V8A3,3,0,0,1,8.48,4.75,2.82,2.82,0,0,1,11.5,7"/></g><g id="ac"><path class="cls-2" d="M73.75,109.5V115a3,3,0,0,1-3.23,3.25,2.82,2.82,0,0,1-3-2.25"/><path class="cls-2" d="M73.75,109.5a3.25,3.25,0,1,0-3.25,3.25,3.26,3.26,0,0,0,3.25-3.25"/></g><path d="M9.64,24a3.47,3.47,0,0,0,1.25-2.38A2.3,2.3,0,0,0,8.5,19.5a2.3,2.3,0,0,0-2.39,2.16A3.47,3.47,0,0,0,7.36,24,2.38,2.38,0,0,0,3.5,25.86a2.3,2.3,0,0,0,2.27,2.28,2.88,2.88,0,0,0,2.39-1.82,4.2,4.2,0,0,1-1,3.18H9.86a4.2,4.2,0,0,1-1-3.18,2.88,2.88,0,0,0,2.39,1.82,2.3,2.3,0,0,0,2.27-2.28A2.38,2.38,0,0,0,9.64,24Z"/><path d="M69.36,99a3.47,3.47,0,0,0-1.25,2.38,2.4,2.4,0,0,0,4.78,0A3.47,3.47,0,0,0,71.64,99a2.38,2.38,0,0,0,3.86-1.82,2.3,2.3,0,0,0-2.27-2.28,2.88,2.88,0,0,0-2.39,1.82,4.2,4.2,0,0,1,1-3.18H69.14a4.2,4.2,0,0,1,1,3.18,2.88,2.88,0,0,0-2.39-1.82,2.3,2.3,0,0,0-2.27,2.28A2.38,2.38,0,0,0,69.36,99Z"/><path d="M25.66,20.64A6.6,6.6,0,0,0,28,16.1,4.36,4.36,0,0,0,23.5,12,4.36,4.36,0,0,0,19,16.1a6.6,6.6,0,0,0,2.37,4.54C18.7,18.58,14,20,14,24.09a4.36,4.36,0,0,0,4.32,4.32c3.16,0,4.53-3.46,4.53-3.46s.4,3.94-1.94,6.05h5.18C23.75,28.89,24.15,25,24.15,25s1.37,3.46,4.53,3.46A4.36,4.36,0,0,0,33,24.09C33,20,28.3,18.58,25.66,20.64Z"/><path d="M25.66,60.64A6.6,6.6,0,0,0,28,56.1,4.36,4.36,0,0,0,23.5,52,4.36,4.36,0,0,0,19,56.1a6.6,6.6,0,0,0,2.37,4.54C18.7,58.58,14,60,14,64.09a4.36,4.36,0,0,0,4.32,4.32c3.16,0,4.53-3.46,4.53-3.46s.4,3.94-1.94,6h5.18c-2.34-2.11-1.94-6-1.94-6s1.37,3.46,4.53,3.46A4.36,4.36,0,0,0,33,64.09C33,60,28.3,58.58,25.66,60.64Z"/><path d="M21.34,102.36A6.6,6.6,0,0,0,19,106.9,4.36,4.36,0,0,0,23.5,111,4.36,4.36,0,0,0,28,106.9a6.6,6.6,0,0,0-2.37-4.54C28.3,104.42,33,103,33,98.91a4.36,4.36,0,0,0-4.32-4.32c-3.16,0-4.53,3.46-4.53,3.46s-.4-3.94,1.94-6H20.91c2.34,2.11,1.94,6,1.94,6s-1.37-3.46-4.53-3.46A4.36,4.36,0,0,0,14,98.91C14,103,18.7,104.42,21.34,102.36Z"/><path d="M57.66,20.64A6.6,6.6,0,0,0,60,16.1a4.55,4.55,0,0,0-9.06,0,6.6,6.6,0,0,0,2.37,4.54C50.7,18.58,46,20,46,24.09a4.36,4.36,0,0,0,4.32,4.32c3.16,0,4.53-3.46,4.53-3.46s.4,3.94-1.94,6.05h5.18C55.75,28.89,56.15,25,56.15,25s1.37,3.46,4.53,3.46A4.36,4.36,0,0,0,65,24.09C65,20,60.3,18.58,57.66,20.64Z"/><path d="M57.66,60.64A6.6,6.6,0,0,0,60,56.1a4.55,4.55,0,0,0-9.06,0,6.6,6.6,0,0,0,2.37,4.54C50.7,58.58,46,60,46,64.09a4.36,4.36,0,0,0,4.32,4.32c3.16,0,4.53-3.46,4.53-3.46s.4,3.94-1.94,6h5.18c-2.34-2.11-1.94-6-1.94-6s1.37,3.46,4.53,3.46A4.36,4.36,0,0,0,65,64.09C65,60,60.3,58.58,57.66,60.64Z"/><path d="M53.34,102.36A6.6,6.6,0,0,0,51,106.9a4.55,4.55,0,0,0,9.06,0,6.6,6.6,0,0,0-2.37-4.54C60.3,104.42,65,103,65,98.91a4.36,4.36,0,0,0-4.32-4.32c-3.16,0-4.53,3.46-4.53,3.46s-.4-3.94,1.94-6H52.91c2.34,2.11,1.94,6,1.94,6s-1.37-3.46-4.53-3.46A4.36,4.36,0,0,0,46,98.91C46,103,50.7,104.42,53.34,102.36Z"/></g></g></svg>