<svg xmlns="http://www.w3.org/2000/svg" viewBox="0 0 79 123"><defs><style>.cls-1{fill:#fff;stroke:#000;stroke-width:1.5px;}.cls-2{fill:none;stroke:#df0000;}.cls-3{fill:#df0000;}</style></defs><title>7D</title><g id="Layer_2" data-name="Layer 2"><g id="Layer_1-2" data-name="Layer 1"><path class="cls-1" d="M78.25,117.25a5,5,0,0,1-5,5H5.75a5,5,0,0,1-5-5V5.75a5,5,0,0,1,5-5h67.5a5,5,0,0,1,5,5Z"/><path class="cls-2" d="M4.75,7V4.75h6.5L12,5.5A21.38,21.38,0,0,0,7.75,18"/><path class="cls-2" d="M74.25,116v2.25h-6.5L67,117.5A21.38,21.38,0,0,0,71.25,105"/><path class="cls-3" d="M10.49,21.88A25.28,25.28,0,0,1,8.5,19a25.28,25.28,0,0,1-2,2.88A20.83,20.83,0,0,1,4,24.5a21.85,21.85,0,0,1,2.52,2.63A26.41,26.41,0,0,1,8.5,30a25.73,25.73,0,0,1,2-2.87A21.36,21.36,0,0,1,13,24.5,20.83,20.83,0,0,1,10.49,21.88Z"/><path class="cls-3" d="M72.49,95.88a25.28,25.28,0,0,1-2-2.88,25.28,25.28,0,0,1-2,2.88A20.83,20.83,0,0,1,66,98.5a21.85,21.85,0,0,1,2.52,2.63,26.41,26.41,0,0,1,2,2.87,25.73,25.73,0,0,1,2-2.87A21.36,21.36,0,0,1,75,98.5,20.83,20.83,0,0,1,72.49,95.88Z"/><path class="cls-3" d="M27,16.49A50.12,50.12,0,0,1,23.5,11,50.12,50.12,0,0,1,20,16.49a39.41,39.41,0,0,1-4.47,5,39.41,39.41,0,0,1,4.47,5A51.24,51.24,0,0,1,23.5,32,51.24,51.24,0,0,1,27,26.51a39.41,39.41,0,0,1,4.47-5A39.41,39.41,0,0,1,27,16.49Z"/><path class="cls-3" d="M27,56.49A50.12,50.12,0,0,1,23.5,51,50.12,50.12,0,0,1,20,56.49a39.41,39.41,0,0,1-4.47,5,39.41,39.41,0,0,1,4.47,5A51.24,51.24,0,0,1,23.5,72,51.24,51.24,0,0,1,27,66.51a39.41,39.41,0,0,1,4.47-5A39.41,39.41,0,0,1,27,56.49Z"/><path class="cls-3" d="M27,96.49A50.12,50.12,0,0,1,23.5,91,50.12,50.12,0,0,1,20,96.49a39.41,39.41,0,0,1-4.47,5,39.41,39.41,0,0,1,4.47,5A51.24,51.24,0,0,1,23.5,112,51.24,51.24,0,0,1,27,106.51a39.41,39.41,0,0,1,4.47-5A39.41,39.41,0,0,1,27,96.49Z"/><path class="cls-3" d="M43,36.49A50.12,50.12,0,0,1,39.5,31,50.12,50.12,0,0,1,36,36.49a39.41,39.41,0,0,1-4.47,5,39.41,39.41,0,0,1,4.47,5A51.24,51.24,0,0,1,39.5,52,51.24,51.24,0,0,1,43,46.51a39.41,39.41,0,0,1,4.47-5A39.41,39.41,0,0,1,43,36.49Z"/><path class="cls-3" d="M59,16.49A50.12,50.12,0,0,1,55.5,11,50.12,50.12,0,0,1,52,16.49a39.41,39.41,0,0,1-4.47,5,39.41,39.41,0,0,1,4.47,5A51.24,51.24,0,0,1,55.5,32,51.24,51.24,0,0,1,59,26.51a39.41,39.41,0,0,1,4.47-5A39.41,39.41,0,0,1,59,16.49Z"/><path class="cls-3" d="M59,56.49A50.12,50.12,0,0,1,55.5,51,50.12,50.12,0,0,1,52,56.49a39.41,39.41,0,0,1-4.47,5,39.41,39.41,0,0,1,4.47,5A51.24,51.24,0,0,1,55.5,72,51.24,51.24,0,0,1,59,66.51a39.41,39.41,0,0,1,4.47-5A39.41,39.41,0,0,1,59,56.49Z"/><path class="cls-3" d="M59,96.49A50.12,50.12,0,0,1,55.5,91,50.12,50.12,0,0,1,52,96.49a39.41,39.41,0,0,1-4.47,5,39.41,39.41,0,0,1,4.47,5A51.24,51.24,0,0,1,55.5,112,51.24,51.24,0,0,1,59,106.51a39.41,39.41,0,0,1,4.47-5A39.41,39.41,0,0,1,59,96.49Z"/></g></g></svg>