<svg xmlns="http://www.w3.org/2000/svg" viewBox="0 0 79 123"><defs><style>.cls-1{fill:#fff;stroke:#000;stroke-width:1.5px;}.cls-2{fill:none;stroke:#df0000;}.cls-3{fill:#df0000;}</style></defs><title>7H</title><g id="Layer_2" data-name="Layer 2"><g id="Layer_1-2" data-name="Layer 1"><path class="cls-1" d="M78.25,117.25a5,5,0,0,1-5,5H5.75a5,5,0,0,1-5-5V5.75a5,5,0,0,1,5-5h67.5a5,5,0,0,1,5,5Z"/><path class="cls-2" d="M4.75,7V4.75h6.5L12,5.5A21.38,21.38,0,0,0,7.75,18"/><path class="cls-2" d="M74.25,116v2.25h-6.5L67,117.5A21.38,21.38,0,0,0,71.25,105"/><path class="cls-3" d="M10.57,19.5A2.16,2.16,0,0,0,8.5,21.43,2.16,2.16,0,0,0,6.43,19.5,2.36,2.36,0,0,0,4,22c0,2.16,4.05,5.94,4.5,7.5C9,27.94,13,24.16,13,22A2.35,2.35,0,0,0,10.57,19.5Z"/><path class="cls-3" d="M68.43,103.5a2.16,2.16,0,0,0,2.07-1.93,2.16,2.16,0,0,0,2.07,1.93A2.36,2.36,0,0,0,75,101c0-2.16-4-5.94-4.5-7.5C70,95.06,66,98.84,66,101A2.35,2.35,0,0,0,68.43,103.5Z"/><path class="cls-3" d="M27.18,12.5C23.93,12.5,23.5,16,23.5,16s-.43-3.48-3.68-3.48A4.21,4.21,0,0,0,15.5,17c0,3.89,7.19,10.69,8,13.5.81-2.81,8-9.61,8-13.5A4.21,4.21,0,0,0,27.18,12.5Z"/><path class="cls-3" d="M27.18,52.5C23.93,52.5,23.5,56,23.5,56s-.43-3.48-3.68-3.48A4.21,4.21,0,0,0,15.5,57c0,3.89,7.19,10.69,8,13.5.81-2.81,8-9.61,8-13.5A4.21,4.21,0,0,0,27.18,52.5Z"/><path class="cls-3" d="M19.82,110.5c3.25,0,3.68-3.48,3.68-3.48s.43,3.48,3.68,3.48A4.21,4.21,0,0,0,31.5,106c0-3.89-7.19-10.69-8-13.5-.81,2.81-8,9.61-8,13.5A4.21,4.21,0,0,0,19.82,110.5Z"/><path class="cls-3" d="M43.18,32.5C39.93,32.5,39.5,36,39.5,36s-.43-3.48-3.68-3.48A4.21,4.21,0,0,0,31.5,37c0,3.89,7.19,10.69,8,13.5.81-2.81,8-9.61,8-13.5A4.21,4.21,0,0,0,43.18,32.5Z"/><path class="cls-3" d="M59.18,12.5C55.93,12.5,55.5,16,55.5,16s-.43-3.48-3.68-3.48A4.21,4.21,0,0,0,47.5,17c0,3.89,7.19,10.69,8,13.5.81-2.81,8-9.61,8-13.5A4.21,4.21,0,0,0,59.18,12.5Z"/><path class="cls-3" d="M59.18,52.5C55.93,52.5,55.5,56,55.5,56s-.43-3.48-3.68-3.48A4.21,4.21,0,0,0,47.5,57c0,3.89,7.19,10.69,8,13.5.81-2.81,8-9.61,8-13.5A4.21,4.21,0,0,0,59.18,52.5Z"/><path class="cls-3" d="M51.82,110.5c3.25,0,3.68-3.48,3.68-3.48s.43,3.48,3.68,3.48A4.21,4.21,0,0,0,63.5,106c0-3.89-7.19-10.69-8-13.5-.81,2.81-8,9.61-8,13.5A4.21,4.21,0,0,0,51.82,110.5Z"/></g></g></svg>