<svg xmlns="http://www.w3.org/2000/svg" viewBox="0 0 79 123"><defs><style>.cls-1{fill:#fff;stroke-width:1.5px;}.cls-1,.cls-2{stroke:#000;}.cls-2{fill:none;}</style></defs><title>AC</title><g id="Layer_2" data-name="Layer 2"><g id="Layer_1-2" data-name="Layer 1"><path id="e" class="cls-1" d="M78.25,117.25a5,5,0,0,1-5,5H5.75a5,5,0,0,1-5-5V5.75a5,5,0,0,1,5-5h67.5a5,5,0,0,1,5,5Z"/><g id="v"><path class="cls-2" d="M4,17.25H7.5"/><path class="cls-2" d="M13,17.25H9.5"/><path class="cls-2" d="M5.5,17.25,8.5,4l3,13.25"/><path class="cls-2" d="M6.25,14h4.5"/></g><g id="ai"><path class="cls-2" d="M72.75,109h-4.5"/><path class="cls-2" d="M75,105.75H71.5"/><path class="cls-2" d="M66,105.75h3.5"/><path class="cls-2" d="M73.5,105.75,70.5,119l-3-13.25"/></g><path id="i" d="M9.64,24a3.47,3.47,0,0,0,1.25-2.38A2.3,2.3,0,0,0,8.5,19.5a2.3,2.3,0,0,0-2.39,2.16A3.47,3.47,0,0,0,7.36,24,2.38,2.38,0,0,0,3.5,25.86a2.3,2.3,0,0,0,2.27,2.28,2.88,2.88,0,0,0,2.39-1.82,4.2,4.2,0,0,1-1,3.18H9.86a4.2,4.2,0,0,1-1-3.18,2.88,2.88,0,0,0,2.39,1.82,2.3,2.3,0,0,0,2.27-2.28A2.38,2.38,0,0,0,9.64,24Z"/><path d="M69.36,99a3.47,3.47,0,0,0-1.25,2.38,2.4,2.4,0,0,0,4.78,0A3.47,3.47,0,0,0,71.64,99a2.38,2.38,0,0,0,3.86-1.82,2.3,2.3,0,0,0-2.27-2.28,2.88,2.88,0,0,0-2.39,1.82,4.2,4.2,0,0,1,1-3.18H69.14a4.2,4.2,0,0,1,1,3.18,2.88,2.88,0,0,0-2.39-1.82,2.3,2.3,0,0,0-2.27,2.28A2.38,2.38,0,0,0,69.36,99Z"/><path id="d" d="M41.66,60.64A6.6,6.6,0,0,0,44,56.1a4.55,4.55,0,0,0-9.06,0,6.6,6.6,0,0,0,2.37,4.54C34.7,58.58,30,60,30,64.09a4.36,4.36,0,0,0,4.32,4.32c3.16,0,4.53-3.46,4.53-3.46s.4,3.94-1.94,6h5.18c-2.34-2.11-1.94-6-1.94-6s1.37,3.46,4.53,3.46A4.36,4.36,0,0,0,49,64.09C49,60,44.3,58.58,41.66,60.64Z"/></g></g></svg>