<svg xmlns="http://www.w3.org/2000/svg" viewBox="0 0 79 123"><defs><style>.cls-1{fill:#fff;stroke:#000;stroke-width:1.5px;}.cls-2{fill:none;stroke:#df0000;}.cls-3{fill:#df0000;}</style></defs><title>AD</title><g id="Layer_2" data-name="Layer 2"><g id="Layer_1-2" data-name="Layer 1"><path class="cls-1" d="M78.25,117.25a5,5,0,0,1-5,5H5.75a5,5,0,0,1-5-5V5.75a5,5,0,0,1,5-5h67.5a5,5,0,0,1,5,5Z"/><path class="cls-2" d="M4,17.25H7.5"/><path class="cls-2" d="M13,17.25H9.5"/><path class="cls-2" d="M5.5,17.25,8.5,4l3,13.25"/><path class="cls-2" d="M6.25,14h4.5"/><path class="cls-2" d="M72.75,109h-4.5"/><path class="cls-2" d="M75,105.75H71.5"/><path class="cls-2" d="M66,105.75h3.5"/><path class="cls-2" d="M73.5,105.75,70.5,119l-3-13.25"/><path id="h" class="cls-3" d="M10.49,21.88A25.28,25.28,0,0,1,8.5,19a25.28,25.28,0,0,1-2,2.88A20.83,20.83,0,0,1,4,24.5a21.85,21.85,0,0,1,2.52,2.63A26.41,26.41,0,0,1,8.5,30a25.73,25.73,0,0,1,2-2.87A21.36,21.36,0,0,1,13,24.5,20.83,20.83,0,0,1,10.49,21.88Z"/><path class="cls-3" d="M72.49,95.88a25.28,25.28,0,0,1-2-2.88,25.28,25.28,0,0,1-2,2.88A20.83,20.83,0,0,1,66,98.5a21.85,21.85,0,0,1,2.52,2.63,26.41,26.41,0,0,1,2,2.87,25.73,25.73,0,0,1,2-2.87A21.36,21.36,0,0,1,75,98.5,20.83,20.83,0,0,1,72.49,95.88Z"/><path id="c" class="cls-3" d="M43,56.49A50.12,50.12,0,0,1,39.5,51,50.12,50.12,0,0,1,36,56.49a39.41,39.41,0,0,1-4.47,5,39.41,39.41,0,0,1,4.47,5A51.24,51.24,0,0,1,39.5,72,51.24,51.24,0,0,1,43,66.51a39.41,39.41,0,0,1,4.47-5A39.41,39.41,0,0,1,43,56.49Z"/></g></g></svg>