<svg xmlns="http://www.w3.org/2000/svg" viewBox="0 0 79 123"><defs><style>.cls-1{fill:#fff;stroke-width:1.5px;}.cls-1,.cls-2{stroke:#000;}.cls-2{fill:none;}</style></defs><title>AS</title><g id="Layer_2" data-name="Layer 2"><g id="Layer_1-2" data-name="Layer 1"><path class="cls-1" d="M78.25,117.25a5,5,0,0,1-5,5H5.75a5,5,0,0,1-5-5V5.75a5,5,0,0,1,5-5h67.5a5,5,0,0,1,5,5Z"/><path class="cls-2" d="M4,17.25H7.5"/><path class="cls-2" d="M13,17.25H9.5"/><path class="cls-2" d="M5.5,17.25,8.5,4l3,13.25"/><path class="cls-2" d="M6.25,14h4.5"/><path class="cls-2" d="M72.75,109h-4.5"/><path class="cls-2" d="M75,105.75H71.5"/><path class="cls-2" d="M66,105.75h3.5"/><path class="cls-2" d="M73.5,105.75,70.5,119l-3-13.25"/><path id="f" d="M13,26.13C12.86,24,8.64,20,8.5,19,8.36,20,4.14,24,4,26.13a1.84,1.84,0,0,0,1.9,2.12c1.37,0,1.77-1.37,1.91-1.75,0-.12.27-.12.27,0,.14.38-.9,3.5-1.22,3.5h3.26c-.32,0-1.36-3.12-1.22-3.5,0-.12.27-.12.27,0,.14.38.55,1.75,1.91,1.75A1.84,1.84,0,0,0,13,26.13Z"/><path d="M66,96.88C66.14,99,70.36,103,70.5,104c.14-1,4.36-5,4.49-7.12a1.84,1.84,0,0,0-1.9-2.13c-1.37,0-1.77,1.38-1.91,1.75,0,.13-.27.13-.27,0-.14-.37.9-3.5,1.22-3.5H68.87c.32,0,1.36,3.13,1.22,3.5,0,.13-.27.13-.27,0-.14-.37-.55-1.75-1.91-1.75A1.84,1.84,0,0,0,66,96.88Z"/><path id="a" d="M47.49,64.6c-.24-4-7.75-11.69-8-13.6-.24,1.91-7.75,9.55-8,13.6-.17,2.87,1.7,4.06,3.39,4.06,2.42,0,3.15-2.63,3.39-3.34,0-.24.48-.24.48,0C39,66,37.17,72,36.6,72h5.81c-.58,0-2.43-6-2.18-6.68,0-.24.48-.24.48,0,.24.71,1,3.34,3.39,3.34C45.8,68.66,47.66,67.47,47.49,64.6Z"/></g></g></svg>