<svg xmlns="http://www.w3.org/2000/svg" viewBox="0 0 79 123"><defs><style>.cls-1{fill:#fff;stroke-width:1.5px;}.cls-1,.cls-4{stroke:#000;}.cls-2{fill:#520;}.cls-3{fill:#e6e6e6;}.cls-4{fill:#b3b3b3;stroke-width:0.14px;}</style></defs><title>BC</title><g id="Layer_2" data-name="Layer 2"><g id="Layer_1-2" data-name="Layer 1"><path class="cls-1" d="M78.25,117.25a5,5,0,0,1-5,5H5.75a5,5,0,0,1-5-5V5.75a5,5,0,0,1,5-5h67.5a5,5,0,0,1,5,5Z"/><path class="cls-2" d="M7.13.82H71.8a6.53,6.53,0,0,1,6.37,6.67V116.2a6.52,6.52,0,0,1-6.37,6.67H7.13A6.53,6.53,0,0,1,.75,116.2h0V7.49A6.53,6.53,0,0,1,7.13.82"/><path class="cls-3" d="M42.54,87.17l-.49,1.21,1,.84-1.24.16-.21,1.3-.76-1.05-1.17.46.49-1.21-1-.84,1.24-.16.21-1.31.76,1.06Z"/><path class="cls-3" d="M48,87.06l-.49,1.22,1,.84-1.24.16-.21,1.3-.76-1L45.12,90l.49-1.22-1-.84,1.25-.16.2-1.3.76,1.06Z"/><path class="cls-3" d="M50.8,92.13l-.49,1.22,1,.84L50,94.35l-.21,1.3-.76-1.05-1.17.46.49-1.22-1-.84,1.24-.16.21-1.3.76,1Z"/><path class="cls-3" d="M48.05,97.12l-.49,1.21,1,.84-1.25.17-.21,1.3-.75-1.06-1.18.47.49-1.22-1-.84,1.25-.16.2-1.3.76,1Z"/><path class="cls-3" d="M42.54,97.11l-.49,1.21,1,.84-1.25.16-.2,1.31-.76-1.06-1.18.46.49-1.21-1-.84,1.24-.16.21-1.3.76,1Z"/><path class="cls-3" d="M39.77,92.13l-.49,1.21,1,.84L39,94.34l-.21,1.31L38,94.59l-1.18.46.49-1.21-1-.84,1.25-.16.21-1.3.75,1Z"/><path class="cls-4" d="M39.79,90.25l1-.1.92,1,.4-1.27.87-.32c.07,1.18-.73,2.43.38,3.44-2.63.3-3.6-1.33-3.54-2.77Z"/><path class="cls-4" d="M44.63,88.24l.58.81-.35,1.37,1.24-.3.71.61c-.92.67-2.36.6-2.6,2.12-1.61-2.21-.78-3.92.42-4.61Z"/><path class="cls-4" d="M43,98.93l-.56-.83.38-1.35L41.61,97l-.69-.63c.93-.65,2.37-.53,2.64-2,1.56,2.26.69,3.94-.53,4.6Z"/><path class="cls-4" d="M47.81,97l-1,.11-.93-1-.4,1.27-.86.33c-.08-1.18.72-2.44-.4-3.44,2.63-.32,3.6,1.3,3.55,2.74Z"/><path class="cls-4" d="M48.72,91.6l-.42.92-1.31.3.82,1-.19.94c-1-.55-1.59-1.92-3-1.45,1.13-2.52,2.95-2.53,4.09-1.73Z"/><path class="cls-4" d="M39,95.52l.4-.92,1.31-.33-.84-1,.17-1c1,.53,1.63,1.9,3,1.39C42,96.26,40.16,96.3,39,95.52Z"/><path class="cls-3" d="M50.83,102.19l-.49,1.21,1,.84-1.25.17-.21,1.3-.75-1.06-1.18.47.49-1.22-1-.84,1.25-.16.21-1.3.75,1.05Z"/><path class="cls-3" d="M48.07,107.18l-.49,1.21,1,.84-1.25.16-.2,1.3-.76-1-1.18.46.49-1.21-1-.84,1.24-.16.21-1.31.75,1.06Z"/><path class="cls-3" d="M42.56,107.17l-.49,1.21,1,.84-1.24.16-.21,1.3-.76-1.05-1.17.46.49-1.21-1-.84,1.25-.16.2-1.31.76,1.06Z"/><path class="cls-3" d="M39.79,102.19l-.49,1.21,1,.84L39,104.4l-.21,1.3-.76-1-1.17.46.49-1.21-1-.84,1.24-.16.21-1.31.76,1.06Z"/><path class="cls-4" d="M39.81,100.31l1-.1.93,1,.4-1.27.86-.32c.07,1.17-.73,2.43.38,3.43-2.63.31-3.59-1.32-3.54-2.76Z"/><path class="cls-4" d="M44.65,98.29l.59.82-.35,1.36,1.24-.29.7.61c-.92.67-2.35.6-2.59,2.12-1.62-2.21-.79-3.92.41-4.62Z"/><path class="cls-4" d="M43.05,109l-.56-.83.39-1.35-1.25.26-.69-.63c.93-.65,2.37-.54,2.65-2,1.56,2.25.68,3.94-.54,4.6Z"/><path class="cls-4" d="M47.84,107.05l-1,.11-.93-1-.39,1.27-.86.32c-.08-1.17.71-2.43-.41-3.43,2.63-.32,3.6,1.3,3.56,2.74Z"/><path class="cls-4" d="M48.74,101.66l-.42.91-1.31.31.82,1-.19.94c-1-.54-1.59-1.92-3-1.44,1.13-2.52,3-2.54,4.09-1.73Z"/><path class="cls-4" d="M39,105.58l.4-.92,1.31-.33-.84-1,.17-1c1,.53,1.63,1.89,3,1.39-1.08,2.54-2.91,2.59-4.06,1.81Z"/><path class="cls-3" d="M56.31,92.06l-.49,1.21,1,.84-1.25.16-.21,1.31-.75-1.06L53.4,95l.49-1.21-1-.84,1.25-.16.2-1.3.76,1Z"/><path class="cls-3" d="M59.09,97.13l-.49,1.21,1,.84-1.25.16-.21,1.31-.75-1.06-1.18.46.49-1.21-1-.84L57,97.84l.21-1.3.75,1Z"/><path class="cls-3" d="M56.33,102.12l-.49,1.21,1,.84-1.25.16-.2,1.3-.76-1-1.18.46.49-1.21-1-.84,1.25-.16.21-1.3.75,1Z"/><path class="cls-4" d="M48.07,95.25l1-.1.93,1,.4-1.27.86-.32c.07,1.17-.73,2.43.38,3.43-2.63.31-3.59-1.32-3.54-2.76Z"/><path class="cls-4" d="M52.91,93.23l.59.82-.35,1.36,1.24-.3.7.61c-.92.68-2.35.61-2.59,2.13-1.62-2.21-.79-3.92.41-4.62Z"/><path class="cls-4" d="M51.31,103.93l-.56-.83.38-1.35-1.24.26-.69-.63c.93-.65,2.37-.54,2.65-2,1.55,2.25.68,3.94-.54,4.6Z"/><path class="cls-4" d="M56.1,102l-1,.11-.93-1-.39,1.27-.86.32c-.08-1.17.71-2.43-.41-3.43,2.63-.32,3.6,1.3,3.56,2.74Z"/><path class="cls-4" d="M57,96.6l-.42.91-1.31.31.82,1-.19,1c-1-.55-1.59-1.93-3-1.45,1.13-2.52,3-2.54,4.09-1.73Z"/><path class="cls-4" d="M47.29,100.52l.4-.92L49,99.27l-.84-1,.17-1c1,.53,1.63,1.89,3,1.39-1.08,2.54-2.91,2.59-4.06,1.81Z"/><path class="cls-3" d="M59.11,107.19l-.49,1.21,1,.84-1.25.16-.2,1.3-.76-1-1.18.46.49-1.21-1-.84L57,107.9l.21-1.31.76,1.06Z"/><path class="cls-3" d="M56.35,112.17l-.49,1.22,1,.84-1.24.16-.21,1.3-.76-1-1.17.46.49-1.22L53,113l1.24-.16.21-1.3.76,1.06Z"/><path class="cls-3" d="M50.85,112.16l-.49,1.22,1,.84-1.25.16-.21,1.3-.75-1.05-1.18.46.49-1.22-1-.84,1.25-.16.2-1.3.76,1.05Z"/><path class="cls-4" d="M48.1,105.31l1-.11.93,1,.4-1.26.86-.32c.08,1.17-.73,2.43.39,3.43-2.64.31-3.6-1.32-3.54-2.76Z"/><path class="cls-4" d="M52.94,103.29l.58.82-.35,1.36,1.24-.3.71.61c-.92.68-2.36.61-2.6,2.12-1.61-2.2-.78-3.91.42-4.61Z"/><path class="cls-4" d="M51.34,114l-.56-.83.38-1.36-1.25.26-.69-.62c.94-.65,2.37-.54,2.65-2,1.56,2.25.69,3.94-.53,4.6Z"/><path class="cls-4" d="M56.12,112.05l-1,.11-.94-1-.39,1.27-.86.33c-.08-1.17.71-2.44-.4-3.43,2.63-.33,3.6,1.3,3.55,2.74Z"/><path class="cls-4" d="M57,106.65l-.42.92-1.31.3.82,1-.19.94c-1-.54-1.6-1.92-3-1.45,1.12-2.52,3-2.53,4.09-1.73Z"/><path class="cls-4" d="M47.31,110.58l.41-.93,1.3-.33-.84-1,.18-.94c1,.53,1.62,1.89,3,1.39-1.08,2.54-2.9,2.59-4.06,1.81Z"/><path class="cls-3" d="M59.09,87.19,58.6,88.4l1,.84-1.25.16-.2,1.3-.76-1-1.17.46.49-1.21-1-.84L57,87.9l.21-1.3.76,1.05Z"/><path class="cls-3" d="M64.57,87.08l-.49,1.22,1,.84-1.24.16-.21,1.3-.76-1L61.67,90l.49-1.22-1-.83,1.24-.17.21-1.3.76,1.06Z"/><path class="cls-3" d="M67.35,92.15l-.49,1.22,1,.84-1.24.16-.21,1.3-.76-1-1.17.46.49-1.22L64,93l1.24-.17.21-1.3.76,1.06Z"/><path class="cls-3" d="M64.6,97.14l-.49,1.22,1,.84-1.24.16-.21,1.3-.75-1-1.18.46.49-1.22-1-.84,1.25-.16.2-1.3.76,1Z"/><path class="cls-4" d="M56.34,90.27l1-.1.92,1,.4-1.27.87-.32c.07,1.18-.73,2.43.38,3.44-2.64.3-3.6-1.33-3.54-2.77Z"/><path class="cls-4" d="M61.18,88.26l.58.81-.35,1.37,1.24-.3.71.61c-.92.67-2.36.6-2.6,2.12-1.61-2.21-.78-3.92.42-4.61Z"/><path class="cls-4" d="M59.58,99,59,98.12l.38-1.35L58.16,97l-.7-.63c.94-.65,2.38-.53,2.65-2.05,1.56,2.26.69,3.94-.53,4.6Z"/><path class="cls-4" d="M64.36,97l-1,.1-.94-1-.39,1.27-.86.33c-.08-1.18.72-2.44-.4-3.43,2.63-.33,3.6,1.29,3.55,2.74Z"/><path class="cls-4" d="M65.27,91.62l-.42.92-1.31.3.82,1-.19.94c-1-.55-1.6-1.92-3-1.45,1.12-2.52,2.95-2.53,4.09-1.73Z"/><path class="cls-4" d="M55.55,95.55l.41-.93,1.3-.33-.83-1,.17-.94c1,.52,1.63,1.89,3,1.38-1.08,2.55-2.9,2.6-4.06,1.82Z"/><path class="cls-3" d="M67.38,102.21l-.49,1.21,1,.84-1.25.17-.21,1.3-.75-1.06-1.18.47.49-1.22-1-.84,1.25-.16.21-1.3.75,1Z"/><path class="cls-3" d="M64.62,107.2l-.49,1.21,1,.84-1.25.16-.21,1.3-.75-1-1.18.46.49-1.21-1-.84,1.25-.16.21-1.3.75,1Z"/><path class="cls-4" d="M56.36,100.33l1-.1.93,1,.4-1.27.86-.32c.07,1.18-.73,2.43.38,3.44-2.63.3-3.59-1.33-3.54-2.77Z"/><path class="cls-4" d="M61.2,98.32l.58.81-.34,1.36,1.23-.29.71.61c-.92.67-2.35.6-2.59,2.12-1.62-2.21-.79-3.92.41-4.61Z"/><path class="cls-4" d="M59.6,109l-.56-.83.39-1.35-1.25.26-.69-.63c.93-.65,2.37-.54,2.65-2,1.55,2.26.68,3.94-.54,4.6Z"/><path class="cls-4" d="M64.39,107.07l-1,.11-.93-1-.39,1.27-.86.32c-.08-1.17.71-2.43-.41-3.43,2.63-.32,3.6,1.3,3.56,2.74Z"/><path class="cls-4" d="M65.29,101.68l-.42.92-1.31.3.82,1-.19.94c-1-.55-1.59-1.93-3-1.45,1.13-2.52,3-2.53,4.09-1.73Z"/><path class="cls-4" d="M55.58,105.6l.4-.92,1.31-.33-.84-1,.17-.95c1,.53,1.63,1.89,3,1.39-1.08,2.54-2.91,2.59-4.06,1.81Z"/><path class="cls-3" d="M72.86,92.08l-.49,1.22,1,.84-1.24.16-.21,1.3-.75-1.06L70,95l.49-1.22-1-.84,1.25-.16.2-1.3.76,1.05Z"/><path class="cls-3" d="M75.64,97.15l-.49,1.22,1,.84-1.25.16-.21,1.3-.75-1.06-1.18.47.49-1.22-1-.84,1.25-.16.2-1.3.76,1Z"/><path class="cls-3" d="M72.88,102.14l-.49,1.21,1,.84-1.25.16-.21,1.3-.75-1.05-1.18.46.49-1.21-1-.84,1.25-.16.21-1.3.75,1Z"/><path class="cls-4" d="M64.62,95.27l1-.1.93,1,.4-1.27.86-.32c.07,1.18-.73,2.43.38,3.43-2.63.31-3.59-1.32-3.54-2.76Z"/><path class="cls-4" d="M69.46,93.26l.58.81-.34,1.36,1.23-.29.71.61c-.92.67-2.35.6-2.59,2.12-1.62-2.21-.79-3.92.41-4.61Z"/><path class="cls-4" d="M67.86,104l-.56-.83.38-1.35-1.24.26-.69-.63c.93-.65,2.37-.54,2.65-2.05,1.55,2.25.68,3.94-.54,4.6Z"/><path class="cls-4" d="M72.65,102l-1,.11-.93-1-.39,1.27-.86.32c-.09-1.17.71-2.43-.41-3.43,2.63-.32,3.6,1.3,3.56,2.74Z"/><path class="cls-4" d="M73.55,96.62l-.42.92-1.31.3.82,1-.19.94c-1-.55-1.59-1.93-3-1.45,1.13-2.52,3-2.53,4.09-1.73Z"/><path class="cls-4" d="M63.84,100.54l.4-.92,1.31-.33-.84-1,.17-1c1,.53,1.63,1.89,3,1.39-1.08,2.54-2.91,2.59-4.06,1.81Z"/><path class="cls-3" d="M75.66,107.21l-.49,1.21,1,.84-1.25.16-.2,1.3-.76-1-1.18.46.49-1.21-1-.84,1.24-.16.21-1.3.75,1Z"/><path class="cls-3" d="M72.9,112.2l-.49,1.21,1,.84-1.24.16-.21,1.3-.76-1-1.17.46.49-1.21-1-.84,1.24-.17.21-1.3.76,1.06Z"/><path class="cls-3" d="M67.4,112.18l-.49,1.22,1,.84-1.24.16-.21,1.3-.75-1-1.18.46.49-1.22-1-.84,1.25-.16.2-1.3.76,1Z"/><path class="cls-4" d="M64.65,105.33l1-.11.93,1,.4-1.26.86-.32c.08,1.17-.73,2.43.39,3.43-2.64.31-3.6-1.32-3.54-2.76Z"/><path class="cls-4" d="M69.49,103.31l.58.82-.35,1.36,1.24-.3.71.61c-.92.68-2.36.61-2.6,2.13-1.61-2.21-.79-3.92.42-4.62Z"/><path class="cls-4" d="M67.89,114l-.57-.83.39-1.36-1.25.27-.69-.63c.94-.65,2.37-.54,2.65-2,1.56,2.25.69,3.94-.53,4.6Z"/><path class="cls-4" d="M72.67,112.07l-1,.11-.94-1-.39,1.27-.86.32c-.08-1.17.71-2.43-.4-3.43,2.63-.32,3.6,1.3,3.55,2.74Z"/><path class="cls-4" d="M73.58,106.67l-.42.92-1.32.3.82,1-.19.94c-1-.54-1.59-1.92-3-1.44,1.12-2.53,3-2.54,4.09-1.74Z"/><path class="cls-4" d="M63.86,110.6l.41-.93,1.3-.32-.84-1,.18-.94c1,.53,1.62,1.89,3,1.39-1.08,2.54-2.9,2.59-4.06,1.81Z"/><path class="cls-3" d="M42.57,107.29l-.49,1.21,1,.84-1.25.16-.21,1.3-.75-1-1.18.46.49-1.21-1-.84,1.25-.16.21-1.31.75,1.06Z"/><path class="cls-3" d="M48.05,107.18l-.49,1.22,1,.84-1.25.16-.21,1.3-.75-1-1.18.46.49-1.22-1-.84,1.25-.16.21-1.3.75,1Z"/><path class="cls-3" d="M50.83,112.25l-.49,1.22,1,.84-1.25.16-.21,1.3-.75-1-1.18.46.49-1.22-1-.84,1.25-.16.21-1.3.75,1Z"/><path class="cls-3" d="M39.79,112.25l-.49,1.21,1,.84-1.24.16-.21,1.3-.76-1.05-1.17.46.49-1.21-1-.84,1.24-.16.21-1.3.76,1Z"/><path class="cls-4" d="M39.82,110.37l1-.1.93,1,.4-1.27.86-.32c.08,1.18-.73,2.43.38,3.44-2.63.3-3.59-1.33-3.53-2.77Z"/><path class="cls-4" d="M44.65,108.36l.59.81-.35,1.36,1.24-.29.7.61c-.91.67-2.35.6-2.59,2.12-1.62-2.21-.79-3.92.41-4.61Z"/><path class="cls-4" d="M43.05,119.05l-.56-.83.39-1.35-1.25.26-.69-.63c.93-.65,2.37-.53,2.65-2,1.56,2.26.68,3.94-.54,4.6Z"/><path class="cls-4" d="M47.84,117.11l-1,.11-.93-1-.39,1.27-.86.32c-.08-1.17.71-2.43-.41-3.43,2.63-.32,3.61,1.3,3.56,2.74Z"/><path class="cls-4" d="M48.75,111.72l-.43.92-1.31.3.82,1-.19.94c-1-.55-1.59-1.92-3-1.45,1.12-2.52,2.94-2.53,4.09-1.73Z"/><path class="cls-4" d="M39,115.65l.41-.93,1.3-.33-.84-1,.18-.94c1,.52,1.62,1.89,3,1.38-1.08,2.55-2.9,2.59-4.06,1.82Z"/><path class="cls-3" d="M56.33,112.18l-.49,1.21,1,.84-1.25.17-.2,1.3-.76-1.06-1.17.47.48-1.22-1-.84,1.24-.16.21-1.3.76,1Z"/><path class="cls-4" d="M48.1,115.37l1-.1.92,1,.4-1.27.87-.32c.07,1.17-.73,2.43.38,3.43-2.64.31-3.6-1.32-3.54-2.76Z"/><path class="cls-4" d="M52.94,113.35l.58.82-.35,1.36,1.24-.29.71.6c-.92.68-2.36.61-2.6,2.13-1.61-2.21-.78-3.92.42-4.62Z"/><path class="cls-3" d="M59.12,107.31l-.49,1.21,1,.84-1.25.16-.21,1.31-.75-1.06-1.18.46L56.7,109l-1-.84L57,108l.21-1.3.75,1Z"/><path class="cls-3" d="M64.6,107.2l-.49,1.22,1,.84-1.25.16-.21,1.3-.75-1-1.18.46.49-1.22-1-.83,1.25-.17.21-1.3.75,1.06Z"/><path class="cls-3" d="M67.38,112.27l-.49,1.22,1,.84-1.25.16-.21,1.3-.75-1.05-1.18.46L65,114l-1-.84,1.25-.17.21-1.3.75,1.06Z"/><path class="cls-4" d="M56.37,110.39l1-.1.93,1,.4-1.27.86-.32c.07,1.18-.73,2.43.38,3.44-2.63.3-3.59-1.33-3.53-2.77Z"/><path class="cls-4" d="M61.2,108.38l.59.81-.35,1.37,1.24-.3.7.61c-.91.67-2.35.6-2.59,2.12-1.62-2.21-.79-3.91.41-4.61Z"/><path class="cls-4" d="M59.6,119.07l-.56-.83.39-1.35-1.25.26-.69-.63c.93-.65,2.37-.53,2.65-2,1.55,2.26.68,3.94-.54,4.6Z"/><path class="cls-4" d="M64.39,117.14l-1,.1-.93-1-.39,1.27-.86.33c-.08-1.18.71-2.44-.41-3.43,2.63-.33,3.61,1.29,3.56,2.73Z"/><path class="cls-4" d="M65.29,111.74l-.42.92-1.31.3.82,1-.19.94c-1-.55-1.59-1.92-3-1.45,1.12-2.52,2.94-2.53,4.08-1.73Z"/><path class="cls-4" d="M55.58,115.67l.4-.93,1.31-.33-.84-1,.18-.94c1,.52,1.62,1.89,3,1.38-1.08,2.55-2.91,2.59-4.06,1.82Z"/><path class="cls-3" d="M72.88,112.2l-.49,1.21,1,.84-1.25.17-.2,1.3-.76-1.06-1.18.47.49-1.22-1-.84,1.24-.16.21-1.3.76,1Z"/><path class="cls-4" d="M64.65,115.39l1-.1.93,1,.4-1.27.87-.32c.07,1.17-.74,2.43.38,3.43-2.64.31-3.6-1.32-3.54-2.76Z"/><path class="cls-4" d="M69.49,113.38l.58.81-.35,1.36,1.24-.29.71.61c-.92.67-2.36.6-2.6,2.12-1.61-2.21-.78-3.92.42-4.61Z"/><path class="cls-3" d="M42.52,67.06,42,68.28l1,.84-1.25.16-.2,1.3-.76-1L39.62,70l.48-1.22-1-.83,1.24-.17.21-1.3.76,1.06Z"/><path class="cls-3" d="M48,67l-.49,1.21,1,.84-1.24.17L47,70.48l-.76-1.06-1.17.47.49-1.22-1-.84,1.24-.16.21-1.3.76,1Z"/><path class="cls-3" d="M50.78,72l-.49,1.21,1,.84L50,74.25l-.21,1.3-.76-1.06L47.88,75l.49-1.22-1-.84,1.25-.16.2-1.3.76,1Z"/><path class="cls-3" d="M48,77l-.49,1.21,1,.84-1.24.16-.21,1.3-.75-1-1.18.46.49-1.21-1-.84,1.25-.16.2-1.3.76,1Z"/><path class="cls-3" d="M42.52,77,42,78.22l1,.84-1.25.16-.2,1.3-.76-1-1.18.46.49-1.21-1-.84,1.24-.16.21-1.31.75,1.06Z"/><path class="cls-3" d="M39.75,72l-.49,1.21,1,.84L39,74.24l-.21,1.3L38,74.49,36.84,75l.49-1.21-1-.84,1.25-.16.21-1.31.75,1.06Z"/><path class="cls-4" d="M39.77,70.15l1-.1.93,1,.4-1.27.86-.32c.07,1.17-.73,2.43.38,3.43-2.63.31-3.59-1.32-3.54-2.76Z"/><path class="cls-4" d="M44.61,68.14l.58.81-.35,1.36L46.08,70l.71.61c-.92.67-2.36.6-2.6,2.12-1.61-2.21-.78-3.92.42-4.61Z"/><path class="cls-4" d="M43,78.83,42.45,78l.38-1.35-1.24.26-.69-.63c.93-.65,2.37-.54,2.65-2,1.55,2.25.68,3.94-.54,4.6Z"/><path class="cls-4" d="M47.79,76.89l-1,.11-.94-1-.39,1.27-.86.32c-.08-1.17.72-2.43-.4-3.43,2.63-.32,3.6,1.3,3.55,2.74Z"/><path class="cls-4" d="M48.7,71.5l-.42.92-1.31.3.82,1-.19.94c-1-.55-1.59-1.93-3-1.45,1.13-2.52,3-2.53,4.09-1.73Z"/><path class="cls-4" d="M39,75.42l.4-.92,1.31-.33-.84-1,.17-1c1,.53,1.63,1.89,3,1.39-1.08,2.54-2.9,2.59-4,1.81Z"/><path class="cls-3" d="M50.81,82.09l-.49,1.21,1,.84L50,84.3l-.21,1.3-.75-1L47.9,85l.49-1.21-1-.84,1.25-.16.21-1.3.75,1Z"/><path class="cls-3" d="M39.77,82.08l-.49,1.22,1,.84L39,84.3l-.2,1.3-.76-1L36.87,85l.49-1.22-1-.84,1.24-.16.21-1.3.76,1.06Z"/><path class="cls-4" d="M39.8,80.21l1-.1.93,1,.4-1.26.86-.32c.07,1.17-.73,2.43.38,3.43-2.63.31-3.59-1.32-3.53-2.76Z"/><path class="cls-4" d="M44.63,78.19l.59.82-.35,1.36,1.24-.3.7.61c-.91.68-2.35.61-2.59,2.13-1.62-2.21-.79-3.92.41-4.62Z"/><path class="cls-4" d="M43,88.89l-.56-.83.39-1.36L41.61,87l-.69-.63c.93-.65,2.37-.54,2.65-2,1.55,2.25.68,3.94-.54,4.6Z"/><path class="cls-4" d="M47.82,87l-1,.11-.93-1-.39,1.26-.86.33c-.08-1.17.71-2.44-.41-3.43,2.63-.33,3.61,1.3,3.56,2.74Z"/><path class="cls-4" d="M48.72,81.55l-.42.92-1.31.3.82,1-.19.94c-1-.54-1.59-1.92-3-1.44,1.12-2.53,2.94-2.54,4.08-1.74Z"/><path class="cls-4" d="M39,85.48l.4-.93,1.31-.32-.84-1,.18-.94c1,.53,1.62,1.89,3,1.39C42,86.21,40.16,86.26,39,85.48Z"/><path class="cls-3" d="M56.29,72l-.49,1.21,1,.84-1.25.16-.21,1.3-.75-1-1.18.46.49-1.21-1-.84,1.25-.16.21-1.3.75,1Z"/><path class="cls-3" d="M59.07,77l-.49,1.21,1,.84-1.25.16-.21,1.3-.75-1.05L56.16,80l.49-1.21-1-.84,1.25-.16.2-1.3.76,1Z"/><path class="cls-3" d="M56.31,82l-.49,1.22,1,.84-1.25.16-.21,1.3-.75-1-1.18.46.49-1.22-1-.84,1.25-.16.21-1.3.75,1.06Z"/><path class="cls-4" d="M48.05,75.15,49,75l.93,1,.4-1.26.86-.32c.07,1.17-.73,2.43.38,3.43-2.63.31-3.59-1.32-3.54-2.76Z"/><path class="cls-4" d="M52.89,73.13l.58.82-.34,1.36,1.23-.3.71.61c-.92.68-2.35.61-2.59,2.13-1.62-2.21-.79-3.92.41-4.62Z"/><path class="cls-4" d="M51.29,83.83,50.73,83l.38-1.36-1.24.27-.69-.63c.93-.65,2.37-.54,2.65-2,1.55,2.25.68,3.94-.54,4.6Z"/><path class="cls-4" d="M56.08,81.89l-1,.11-.93-1-.39,1.27-.86.33c-.09-1.17.71-2.44-.41-3.43,2.63-.33,3.6,1.3,3.56,2.74Z"/><path class="cls-4" d="M57,76.49l-.42.92-1.31.3.82,1-.19.94c-1-.54-1.59-1.92-3-1.44,1.13-2.53,3-2.54,4.09-1.74Z"/><path class="cls-4" d="M47.27,80.42l.4-.93L49,79.17l-.84-1,.17-.94c1,.53,1.63,1.89,3,1.39-1.08,2.54-2.91,2.59-4.06,1.81Z"/><path class="cls-4" d="M48.08,85.2l1-.1.93,1,.4-1.27.86-.32c.08,1.18-.73,2.43.39,3.44-2.64.3-3.6-1.33-3.54-2.77Z"/><path class="cls-4" d="M52.92,83.19l.58.81-.35,1.37,1.24-.3.71.61c-.92.67-2.36.6-2.6,2.12-1.61-2.21-.79-3.92.42-4.61Z"/><path class="cls-4" d="M51.32,93.88l-.57-.83.39-1.35L49.89,92l-.69-.63c.94-.65,2.37-.53,2.65-2,1.56,2.26.68,3.94-.53,4.6Z"/><path class="cls-4" d="M56.1,92l-1,.1-.94-1-.39,1.27-.86.33c-.08-1.18.71-2.44-.4-3.43,2.63-.33,3.6,1.29,3.55,2.74Z"/><path class="cls-4" d="M57,86.55l-.42.92-1.32.3.82,1-.19.94c-1-.55-1.59-1.92-3-1.45C54,85.76,55.87,85.75,57,86.55Z"/><path class="cls-4" d="M47.29,90.48l.41-.93,1.3-.33-.84-1,.18-.94c1,.52,1.62,1.89,3,1.38-1.08,2.55-2.9,2.6-4.06,1.82Z"/><path class="cls-3" d="M59.07,67.09l-.49,1.21,1,.84-1.25.16-.2,1.3-.76-1L56.16,70l.49-1.21-1-.84,1.24-.16.21-1.31.76,1.06Z"/><path class="cls-3" d="M64.55,67l-.49,1.22L65,69l-1.24.16-.21,1.3-.76-1-1.17.46.49-1.22-1-.84,1.24-.16.21-1.3.76,1Z"/><path class="cls-3" d="M67.33,72.05l-.49,1.22,1,.84-1.24.16-.21,1.3-.76-1L64.43,75l.49-1.22-1-.84,1.24-.16.21-1.3.76,1.05Z"/><path class="cls-3" d="M64.58,77l-.49,1.21,1,.84-1.24.16-.21,1.31-.76-1.06L61.67,80l.49-1.21-1-.84,1.25-.16.2-1.3.76,1Z"/><path class="cls-4" d="M56.32,70.17l1-.1.92,1,.4-1.27.87-.32c.07,1.18-.73,2.43.38,3.44-2.63.3-3.59-1.33-3.54-2.77Z"/><path class="cls-4" d="M61.16,68.16l.58.81-.35,1.36L62.63,70l.71.61c-.92.67-2.36.6-2.6,2.12-1.61-2.21-.78-3.92.42-4.61Z"/><path class="cls-4" d="M59.56,78.85,59,78l.38-1.35-1.24.26-.69-.63c.93-.65,2.37-.54,2.65-2,1.55,2.26.68,3.94-.54,4.6Z"/><path class="cls-4" d="M64.34,76.91l-1,.11-.94-1-.39,1.27-.86.32c-.08-1.17.72-2.43-.4-3.43,2.63-.32,3.6,1.3,3.55,2.74Z"/><path class="cls-4" d="M65.25,71.52l-.42.92-1.31.3.82,1-.19.94c-1-.55-1.59-1.92-3-1.45,1.13-2.52,3-2.53,4.09-1.73Z"/><path class="cls-4" d="M55.54,75.44l.4-.92,1.31-.33-.84-1,.17-1c1,.53,1.63,1.89,3,1.39-1.08,2.55-2.9,2.59-4.05,1.81Z"/><path class="cls-3" d="M67.36,82.11l-.49,1.21,1,.84-1.25.16-.21,1.31-.75-1.06L64.45,85l.49-1.21L64,83l1.25-.16.21-1.3.75,1Z"/><path class="cls-4" d="M56.35,80.23l1-.1.93,1,.4-1.26.86-.32c.07,1.17-.73,2.43.38,3.43-2.63.31-3.59-1.32-3.53-2.76Z"/><path class="cls-4" d="M61.18,78.21l.59.82-.35,1.36,1.24-.3.7.61c-.92.68-2.35.61-2.59,2.13-1.62-2.21-.79-3.92.41-4.62Z"/><path class="cls-4" d="M59.58,88.91,59,88.08l.38-1.36L58.16,87l-.69-.63c.93-.65,2.37-.54,2.65-2,1.55,2.25.68,3.94-.54,4.6Z"/><path class="cls-4" d="M64.37,87l-1,.11-.93-1-.39,1.27-.86.32c-.09-1.17.71-2.43-.41-3.43,2.63-.32,3.6,1.3,3.56,2.74Z"/><path class="cls-4" d="M65.27,81.57l-.42.92-1.31.3.82,1-.19.94c-1-.54-1.59-1.92-3-1.44,1.13-2.52,2.95-2.54,4.09-1.74Z"/><path class="cls-4" d="M55.56,85.5l.4-.93,1.31-.32-.84-1,.17-.94c1,.53,1.63,1.89,3,1.39-1.08,2.54-2.91,2.59-4.06,1.81Z"/><path class="cls-3" d="M72.84,72l-.49,1.21,1,.84-1.25.16-.21,1.31-.75-1.06-1.18.46.49-1.21-1-.84,1.25-.16.2-1.3.76,1Z"/><path class="cls-3" d="M75.62,77.05l-.49,1.21,1,.84-1.24.16-.21,1.31-.75-1.06L72.71,80l.49-1.21-1-.84,1.25-.16.2-1.3.76,1.05Z"/><path class="cls-3" d="M72.86,82l-.49,1.21,1,.84-1.25.16-.21,1.3-.75-1L70,85l.49-1.21-1-.84,1.25-.16.21-1.31.75,1.06Z"/><path class="cls-4" d="M64.6,75.17l1-.1.93,1,.4-1.26.86-.32c.07,1.17-.73,2.43.38,3.43-2.63.31-3.59-1.32-3.54-2.76Z"/><path class="cls-4" d="M69.44,73.15,70,74l-.34,1.36,1.23-.3.71.61c-.92.68-2.36.61-2.6,2.13-1.61-2.21-.78-3.92.42-4.62Z"/><path class="cls-4" d="M67.84,83.85,67.28,83l.38-1.35-1.24.26-.69-.63c.93-.65,2.37-.54,2.65-2,1.55,2.25.68,3.94-.54,4.6Z"/><path class="cls-4" d="M72.63,81.91l-1,.11-.93-1-.39,1.27-.86.32c-.09-1.17.71-2.43-.41-3.43,2.63-.32,3.6,1.3,3.56,2.74Z"/><path class="cls-4" d="M73.53,76.51l-.42.92-1.31.3.82,1-.19.94c-1-.54-1.59-1.92-3-1.44,1.13-2.53,3-2.54,4.09-1.74Z"/><path class="cls-4" d="M63.82,80.44l.4-.92,1.31-.33-.84-1,.17-1c1,.53,1.63,1.89,3,1.39-1.08,2.54-2.91,2.59-4.06,1.81Z"/><path class="cls-3" d="M75.64,87.11l-.49,1.21,1,.84-1.25.16-.2,1.3-.76-1.05L72.73,90l.49-1.21-1-.84,1.25-.16.21-1.31.75,1.06Z"/><path class="cls-4" d="M64.63,85.22l1-.1.93,1,.4-1.26.86-.32c.08,1.17-.73,2.43.38,3.43-2.63.3-3.59-1.33-3.53-2.77Z"/><path class="cls-4" d="M69.47,83.21l.58.82-.35,1.36,1.24-.3.7.61c-.91.68-2.35.6-2.59,2.12-1.61-2.21-.79-3.91.42-4.61Z"/><path class="cls-4" d="M67.87,93.91l-.57-.84.39-1.35L66.44,92l-.69-.63c.94-.64,2.37-.53,2.65-2,1.56,2.25.68,3.93-.53,4.6Z"/><path class="cls-4" d="M72.65,92l-1,.1-.94-1-.39,1.27-.86.33c-.08-1.18.71-2.44-.41-3.43,2.64-.33,3.61,1.29,3.56,2.74Z"/><path class="cls-4" d="M73.56,86.57l-.43.92-1.31.3.82,1-.19.94c-1-.54-1.59-1.92-3-1.45,1.12-2.52,3-2.53,4.09-1.73Z"/><path class="cls-4" d="M63.84,90.5l.41-.93,1.3-.33-.84-1,.18-.94c1,.52,1.62,1.89,3,1.39-1.08,2.54-2.9,2.59-4.06,1.81Z"/><path class="cls-3" d="M9.49,77.17,9,78.38l1,.84-1.25.16-.21,1.3-.75-1.05-1.18.46.49-1.21L6.1,78l1.25-.17.21-1.3.75,1.06Z"/><path class="cls-3" d="M15,77.06l-.49,1.22,1,.84-1.25.16-.2,1.3-.76-1L12.06,80l.49-1.22-1-.84,1.25-.16.21-1.3.75,1Z"/><path class="cls-3" d="M17.75,82.13l-.49,1.22,1,.84L17,84.35l-.2,1.3L16,84.6l-1.18.46.49-1.22-1-.84,1.24-.16.21-1.3.75,1Z"/><path class="cls-3" d="M15,87.12l-.49,1.21,1,.84-1.24.17L14,90.64l-.76-1.06L12.09,90l.49-1.21-1-.84,1.24-.16.21-1.3.76,1Z"/><path class="cls-3" d="M9.49,87.11,9,88.32l1,.84-1.25.16-.21,1.3-.75-1.05L6.58,90l.49-1.21L6.1,88l1.25-.16.2-1.3.76,1Z"/><path class="cls-3" d="M6.71,82.13l-.49,1.21,1,.84L6,84.34l-.21,1.3-.76-1-1.17.46.49-1.21-1-.84,1.25-.16.2-1.3.76,1Z"/><path class="cls-4" d="M6.74,80.25l1-.1.93,1L9,79.9l.86-.32C10,80.76,9.16,82,10.28,83c-2.64.3-3.6-1.33-3.54-2.77Z"/><path class="cls-4" d="M11.58,78.24l.58.81-.35,1.36,1.24-.29.71.61c-.92.67-2.36.6-2.6,2.12-1.61-2.21-.79-3.92.42-4.61Z"/><path class="cls-4" d="M10,88.93l-.56-.83.38-1.35L8.55,87l-.69-.63c.94-.65,2.37-.54,2.65-2,1.56,2.26.69,3.94-.53,4.6Z"/><path class="cls-4" d="M14.76,87l-1,.11-.94-1-.39,1.27-.86.33c-.08-1.18.71-2.44-.41-3.44,2.64-.32,3.61,1.3,3.56,2.74Z"/><path class="cls-4" d="M15.67,81.6l-.42.92-1.31.3.82,1-.19.94c-1-.55-1.6-1.92-3-1.45,1.12-2.52,2.95-2.53,4.09-1.73Z"/><path class="cls-4" d="M6,85.52l.41-.92,1.3-.33-.84-1,.18-1c1,.53,1.62,1.89,3,1.39C8.93,86.26,7.11,86.3,6,85.52Z"/><path class="cls-3" d="M17.77,92.19l-.49,1.21,1,.84L17,94.4l-.21,1.3-.76-1-1.17.46.49-1.21-1-.84,1.24-.16.21-1.3.76,1.05Z"/><path class="cls-3" d="M15,97.18l-.49,1.21,1,.84-1.24.16-.21,1.3-.75-1-1.18.46.49-1.21-1-.84,1.25-.16.2-1.31.76,1.06Z"/><path class="cls-3" d="M9.51,97.16,9,98.38l1,.84-1.25.16-.2,1.3-.76-1.05-1.18.46.49-1.22-1-.84,1.24-.16.21-1.3.75,1.06Z"/><path class="cls-3" d="M6.74,92.18,6.25,93.4l1,.84L6,94.4l-.21,1.3-.75-1-1.18.46.49-1.22-1-.84,1.25-.16.21-1.3.75,1Z"/><path class="cls-4" d="M6.76,90.31l1-.1.92,1L9.05,90l.87-.32c.07,1.17-.73,2.43.38,3.43-2.63.31-3.59-1.32-3.54-2.76Z"/><path class="cls-4" d="M11.6,88.29l.58.82-.35,1.36,1.24-.29.71.6c-.92.68-2.36.61-2.6,2.13-1.61-2.21-.78-3.92.42-4.62Z"/><path class="cls-4" d="M10,99l-.56-.83.38-1.35-1.24.26-.69-.63c.93-.65,2.37-.54,2.65-2,1.55,2.25.68,3.94-.54,4.6Z"/><path class="cls-4" d="M14.78,97.05l-1,.11-.93-1-.4,1.27-.86.32c-.08-1.17.72-2.43-.4-3.43,2.63-.32,3.6,1.3,3.55,2.74Z"/><path class="cls-4" d="M15.69,91.65l-.42.92-1.31.3.82,1-.19.94c-1-.54-1.59-1.92-3-1.44,1.13-2.52,3-2.54,4.09-1.74Z"/><path class="cls-4" d="M6,95.58l.4-.93,1.31-.32-.84-1L7,92.38c1,.53,1.63,1.89,3,1.39C9,96.31,7.13,96.36,6,95.58Z"/><path class="cls-3" d="M23.25,82.06l-.49,1.21,1,.84-1.24.16-.21,1.31-.76-1.06L20.35,85l.49-1.21-1-.84,1.24-.16.21-1.3.76,1Z"/><path class="cls-3" d="M26,87.13l-.49,1.21,1,.84-1.24.16-.21,1.31-.76-1.06-1.17.46.49-1.21-1-.84,1.24-.16.21-1.3.76,1Z"/><path class="cls-3" d="M23.28,92.11l-.49,1.22,1,.84-1.24.16-.21,1.3-.75-1L20.37,95l.49-1.21-1-.84,1.25-.17.2-1.3.76,1.06Z"/><path class="cls-4" d="M15,85.25l1-.1.92,1,.4-1.26.87-.32c.07,1.17-.73,2.43.38,3.43-2.64.31-3.6-1.32-3.54-2.76Z"/><path class="cls-4" d="M19.86,83.23l.58.82-.35,1.36,1.24-.3.71.61c-.92.68-2.36.61-2.6,2.13-1.61-2.21-.78-3.92.42-4.62Z"/><path class="cls-4" d="M18.26,93.93l-.56-.83.38-1.35L16.84,92l-.7-.63c.94-.65,2.38-.54,2.65-2,1.56,2.25.69,3.94-.53,4.6Z"/><path class="cls-4" d="M23,92l-1,.11-.94-1-.39,1.26-.86.33c-.08-1.17.72-2.43-.4-3.43,2.63-.32,3.6,1.3,3.55,2.74Z"/><path class="cls-4" d="M24,86.6l-.42.91-1.31.31.82,1-.19.94c-1-.54-1.6-1.92-3-1.44C21,85.81,22.81,85.79,24,86.6Z"/><path class="cls-4" d="M14.23,90.52l.41-.93,1.3-.32-.83-1,.17-1c1,.53,1.63,1.89,3,1.39-1.08,2.54-2.9,2.59-4.06,1.81Z"/><path class="cls-3" d="M26.06,97.19l-.49,1.21,1,.84-1.25.16-.21,1.3-.75-1-1.18.46.49-1.21-1-.84,1.25-.17.2-1.3.76,1.06Z"/><path class="cls-3" d="M23.3,102.17l-.49,1.22,1,.84-1.25.16-.21,1.3-.75-1-1.18.46.49-1.22-1-.84,1.25-.16.21-1.3.75,1Z"/><path class="cls-3" d="M17.79,102.16l-.49,1.22,1,.83-1.24.17-.21,1.3-.76-1.06-1.17.47.49-1.22-1-.84,1.24-.16.21-1.3.76,1.05Z"/><path class="cls-4" d="M15,95.3l1-.1.93,1,.4-1.27.86-.32c.07,1.18-.73,2.44.38,3.44C16,98.37,15,96.74,15,95.3Z"/><path class="cls-4" d="M19.88,93.29l.58.82-.34,1.36,1.23-.3.71.61c-.92.67-2.35.6-2.59,2.12-1.62-2.21-.79-3.91.41-4.61Z"/><path class="cls-4" d="M18.28,104l-.56-.83.38-1.35-1.24.26-.69-.63c.93-.64,2.37-.53,2.65-2,1.55,2.25.68,3.93-.54,4.59Z"/><path class="cls-4" d="M23.07,102.05l-1,.11-.93-1-.39,1.27-.86.33c-.09-1.17.71-2.44-.41-3.43,2.63-.33,3.6,1.3,3.56,2.74Z"/><path class="cls-4" d="M24,96.65l-.42.92-1.31.3.82,1-.19.94c-1-.55-1.59-1.92-3-1.45C21,95.86,22.83,95.85,24,96.65Z"/><path class="cls-4" d="M14.26,100.58l.4-.93L16,99.32l-.84-1,.17-.94c1,.52,1.63,1.89,3,1.39-1.08,2.54-2.91,2.59-4.06,1.81Z"/><path class="cls-3" d="M26,77.19l-.49,1.21,1,.84-1.25.16-.21,1.3-.75-1-1.18.46.49-1.21-1-.84,1.25-.16.21-1.3.75,1.05Z"/><path class="cls-3" d="M31.52,77.08,31,78.3l1,.84-1.25.16-.21,1.3-.75-1L28.61,80l.49-1.22-1-.84,1.25-.16.21-1.3.75,1.05Z"/><path class="cls-3" d="M34.3,82.15l-.49,1.22,1,.84-1.25.16-.2,1.3-.76-1-1.18.46.49-1.22-1-.84,1.24-.16.21-1.3.75,1Z"/><path class="cls-3" d="M31.54,87.14l-.49,1.21,1,.84-1.25.17-.2,1.3-.76-1.06-1.17.46.48-1.21-1-.84,1.24-.16.21-1.3.76,1Z"/><path class="cls-4" d="M23.29,80.27l1-.1.93,1,.4-1.27.86-.32c.08,1.18-.73,2.43.39,3.44-2.64.3-3.6-1.33-3.54-2.77Z"/><path class="cls-4" d="M28.12,78.26l.59.81-.35,1.37,1.24-.3.7.61c-.91.67-2.35.6-2.59,2.12-1.62-2.21-.79-3.92.41-4.61Z"/><path class="cls-4" d="M26.53,89,26,88.12l.39-1.35L25.1,87l-.69-.63c.94-.65,2.37-.53,2.65-2.05,1.56,2.26.68,3.94-.53,4.6Z"/><path class="cls-4" d="M31.31,87l-1,.11-.93-1L29,87.38l-.86.33c-.08-1.18.71-2.44-.41-3.44,2.63-.32,3.61,1.3,3.56,2.74Z"/><path class="cls-4" d="M32.22,81.62l-.42.92-1.32.3.82,1-.19.94c-1-.55-1.59-1.92-3-1.45,1.12-2.52,2.95-2.53,4.09-1.73Z"/><path class="cls-4" d="M22.5,85.55l.41-.93,1.3-.33-.84-1,.18-.94c1,.52,1.62,1.89,3,1.38-1.08,2.55-2.9,2.59-4.06,1.82Z"/><path class="cls-3" d="M34.32,92.21l-.49,1.21,1,.84-1.24.17-.21,1.3-.76-1.06-1.17.47.49-1.22-1-.84,1.24-.16.21-1.3.76,1Z"/><path class="cls-3" d="M31.57,97.2l-.49,1.21,1,.84-1.24.16-.21,1.3-.76-1-1.17.46.49-1.21-1-.84,1.25-.16.2-1.3.76,1Z"/><path class="cls-4" d="M23.31,90.33l1-.1.92,1L25.6,90l.87-.32c.07,1.17-.73,2.43.38,3.43-2.63.31-3.59-1.32-3.54-2.76Z"/><path class="cls-4" d="M28.15,88.31l.58.82-.35,1.36,1.24-.29.71.6c-.92.68-2.36.61-2.6,2.13-1.61-2.21-.78-3.92.42-4.62Z"/><path class="cls-4" d="M26.55,99,26,98.18l.38-1.35-1.24.26-.69-.63c.93-.65,2.37-.54,2.65-2,1.55,2.25.68,3.94-.54,4.6Z"/><path class="cls-4" d="M31.33,97.07l-1,.11-.94-1L29,97.44l-.86.32c-.08-1.17.72-2.43-.4-3.43,2.63-.32,3.6,1.3,3.55,2.74Z"/><path class="cls-4" d="M32.24,91.68l-.42.91-1.31.31.82,1-.19.94c-1-.55-1.59-1.93-3-1.45,1.13-2.52,3-2.54,4.09-1.73Z"/><path class="cls-4" d="M22.52,95.6l.41-.92,1.3-.33-.83-1,.17-.95c1,.53,1.63,1.89,3,1.39-1.08,2.54-2.9,2.59-4.06,1.81Z"/><path class="cls-4" d="M31.57,85.27l1-.1.92,1,.4-1.27.87-.32C34.8,85.77,34,87,35.11,88c-2.64.31-3.6-1.32-3.54-2.76Z"/><path class="cls-4" d="M36.41,83.26l.58.81-.35,1.36,1.24-.29.71.61c-.92.67-2.36.6-2.6,2.12-1.61-2.21-.78-3.92.42-4.61Z"/><path class="cls-4" d="M34.81,94l-.56-.83.38-1.35L33.38,92l-.69-.63c.94-.65,2.37-.54,2.65-2.05,1.56,2.25.69,3.94-.53,4.6Z"/><path class="cls-4" d="M39.59,92l-1,.11-.94-1-.39,1.27-.86.32c-.08-1.17.72-2.43-.4-3.43,2.63-.32,3.6,1.3,3.55,2.74Z"/><path class="cls-4" d="M40.5,86.62l-.42.91-1.31.31.82,1-.19.94c-1-.54-1.6-1.92-3-1.44,1.12-2.52,3-2.54,4.09-1.73Z"/><path class="cls-4" d="M30.78,90.54l.41-.92,1.3-.33-.83-1,.17-1c1,.53,1.63,1.89,3,1.39-1.08,2.54-2.9,2.59-4.06,1.81Z"/><path class="cls-3" d="M39.85,102.19l-.49,1.22,1,.84-1.25.16-.21,1.3-.75-1-1.18.46.49-1.22-1-.84,1.25-.16.21-1.3.75,1.05Z"/><path class="cls-3" d="M34.34,102.18l-.49,1.22,1,.84-1.25.16-.2,1.3-.76-1-1.17.46.48-1.22-1-.84,1.24-.16.21-1.3.76,1Z"/><path class="cls-4" d="M31.59,95.33l1-.11.93,1,.4-1.26.86-.32c.07,1.17-.73,2.43.38,3.43-2.63.31-3.59-1.32-3.54-2.77Z"/><path class="cls-4" d="M36.43,93.31l.58.82-.34,1.36,1.23-.3.71.61c-.92.68-2.36.6-2.6,2.12-1.61-2.2-.78-3.91.42-4.61Z"/><path class="cls-4" d="M34.83,104l-.56-.84.38-1.35-1.24.26-.69-.62c.93-.65,2.37-.54,2.65-2,1.55,2.25.68,3.93-.54,4.6Z"/><path class="cls-4" d="M39.62,102.07l-1,.11-.93-1-.39,1.27-.86.33c-.09-1.17.71-2.44-.41-3.43,2.63-.33,3.6,1.3,3.56,2.74Z"/><path class="cls-4" d="M40.52,96.67l-.42.92-1.31.3.82,1-.19.94c-1-.55-1.59-1.92-3-1.45,1.13-2.52,3-2.53,4.09-1.73Z"/><path class="cls-4" d="M30.81,100.6l.4-.93,1.31-.32-.84-1,.17-.94c1,.53,1.63,1.89,3,1.39-1.08,2.54-2.91,2.59-4.06,1.81Z"/><path class="cls-3" d="M9.51,97.29,9,98.5l1,.84-1.24.16-.21,1.3-.76-1-1.17.46L7.1,99l-1-.84L7.37,98l.21-1.31.76,1.06Z"/><path class="cls-3" d="M15,97.18l-.49,1.22,1,.84-1.24.16L14,100.7l-.76-1-1.17.46.49-1.22-1-.84,1.25-.16.2-1.3.76,1Z"/><path class="cls-3" d="M17.78,102.25l-.49,1.22,1,.83-1.24.17-.21,1.3L16,104.71l-1.17.47.49-1.22-1-.84,1.25-.16.2-1.3.76,1Z"/><path class="cls-3" d="M15,107.24l-.49,1.21,1,.84-1.25.16L14,110.76l-.75-1.06-1.18.46L12.6,109l-1-.84,1.25-.16.21-1.3.75,1Z"/><path class="cls-3" d="M9.51,107.23,9,108.44l1,.84-1.25.16-.2,1.3-.76-1-1.18.46.49-1.21-1-.84,1.24-.16.21-1.3.76,1Z"/><path class="cls-3" d="M6.74,102.25l-.49,1.21,1,.84L6,104.46l-.21,1.3L5,104.71l-1.18.46L4.32,104l-1-.84L4.6,103l.21-1.3.75,1Z"/><path class="cls-4" d="M6.76,100.37l1-.1.93,1,.4-1.27.86-.32c.07,1.18-.73,2.43.38,3.44-2.63.3-3.59-1.33-3.54-2.77Z"/><path class="cls-4" d="M11.6,98.36l.58.81-.34,1.36,1.23-.29.71.61c-.92.67-2.36.6-2.6,2.12-1.61-2.21-.78-3.92.42-4.61Z"/><path class="cls-4" d="M10,109.05l-.56-.83.38-1.35-1.24.26-.69-.63c.93-.65,2.37-.54,2.65-2,1.55,2.26.68,3.94-.54,4.6Z"/><path class="cls-4" d="M14.79,107.11l-1,.11-.93-1-.4,1.27-.86.32c-.08-1.17.72-2.43-.4-3.43,2.63-.32,3.6,1.3,3.56,2.74Z"/><path class="cls-4" d="M15.69,101.72l-.42.92-1.31.3.82,1-.19.94c-1-.55-1.59-1.93-3-1.45,1.13-2.52,3-2.53,4.09-1.73Z"/><path class="cls-4" d="M6,105.64l.4-.92,1.31-.33-.84-1,.17-1c1,.53,1.63,1.89,3,1.39-1.08,2.54-2.9,2.59-4,1.81Z"/><path class="cls-3" d="M17.8,112.31l-.49,1.21,1,.84-1.25.16-.21,1.31-.75-1.06-1.18.46.49-1.21-1-.84,1.25-.16.21-1.3.75,1Z"/><path class="cls-3" d="M6.76,112.3l-.49,1.22,1,.84L6,114.52l-.21,1.3-.76-1-1.17.46L4.35,114l-1-.83L4.62,113l.21-1.3.76,1.06Z"/><path class="cls-4" d="M6.79,110.43l1-.1.93,1,.4-1.26.86-.32c.08,1.17-.73,2.43.38,3.43-2.63.31-3.59-1.32-3.53-2.76Z"/><path class="cls-4" d="M11.62,108.41l.59.82-.35,1.36,1.24-.3.7.61c-.91.68-2.35.61-2.59,2.13-1.62-2.21-.79-3.92.41-4.62Z"/><path class="cls-4" d="M10,119.11l-.57-.83.39-1.36-1.25.27-.69-.63c.94-.65,2.37-.54,2.65-2,1.56,2.25.68,3.94-.53,4.6Z"/><path class="cls-4" d="M14.81,117.17l-1,.11-.93-1-.39,1.26-.86.33c-.08-1.17.71-2.43-.41-3.43,2.63-.32,3.61,1.3,3.56,2.74Z"/><path class="cls-4" d="M15.72,111.77l-.43.92L14,113l.82,1-.19.94c-1-.54-1.59-1.92-3-1.44,1.12-2.53,2.95-2.54,4.09-1.74Z"/><path class="cls-4" d="M6,115.7l.41-.93,1.3-.32-.84-1,.18-.94c1,.53,1.62,1.89,3,1.39C9,116.43,7.16,116.48,6,115.7Z"/><path class="cls-3" d="M23.28,102.18l-.49,1.21,1,.84-1.25.16-.21,1.3-.75-1-1.18.46.49-1.21-1-.84,1.25-.16.21-1.3.75,1Z"/><path class="cls-3" d="M26.06,107.25l-.49,1.21,1,.84-1.25.16-.21,1.3-.75-1.05-1.18.46.49-1.21-1-.84,1.25-.16.21-1.3.75,1Z"/><path class="cls-3" d="M23.3,112.24l-.49,1.21,1,.84-1.25.16-.2,1.3-.76-1-1.18.46.49-1.21-1-.84,1.24-.16.21-1.31.76,1.06Z"/><path class="cls-4" d="M15.05,105.37l1-.1.93,1,.4-1.26.86-.32c.07,1.17-.73,2.43.38,3.43-2.63.31-3.59-1.32-3.53-2.76Z"/><path class="cls-4" d="M19.88,103.35l.59.82-.35,1.36,1.24-.3.7.61c-.91.68-2.35.61-2.59,2.13-1.62-2.21-.79-3.92.41-4.62Z"/><path class="cls-4" d="M18.28,114.05l-.56-.83.39-1.35-1.25.26-.69-.63c.93-.65,2.37-.54,2.65-2,1.55,2.25.68,3.94-.54,4.6Z"/><path class="cls-4" d="M23.07,112.11l-1,.11-.93-1-.39,1.27-.86.32c-.08-1.17.71-2.43-.41-3.43,2.63-.32,3.61,1.3,3.56,2.74Z"/><path class="cls-4" d="M24,106.71l-.42.92-1.31.3.82,1-.19.94c-1-.54-1.59-1.92-3-1.44,1.12-2.52,2.94-2.54,4.08-1.74Z"/><path class="cls-4" d="M14.26,110.64l.4-.93,1.31-.32-.84-1,.18-.94c1,.53,1.62,1.89,3,1.39-1.08,2.54-2.91,2.59-4.06,1.81Z"/><path class="cls-4" d="M15.07,115.42l1-.1.93,1,.4-1.26.87-.32c.07,1.17-.74,2.43.38,3.43-2.64.3-3.6-1.33-3.54-2.77Z"/><path class="cls-4" d="M19.91,113.41l.58.82-.35,1.36,1.24-.3.71.61c-.92.68-2.36.6-2.6,2.12-1.61-2.21-.78-3.91.42-4.61Z"/><path class="cls-3" d="M26.06,97.31l-.49,1.21,1,.84-1.24.16-.21,1.3-.76-1-1.17.46L23.65,99l-1-.84L23.92,98l.21-1.31.76,1.06Z"/><path class="cls-3" d="M31.54,97.2l-.49,1.22,1,.84-1.24.16-.21,1.3-.76-1-1.17.46.49-1.22-1-.84,1.25-.16.2-1.3.76,1Z"/><path class="cls-3" d="M34.33,102.27l-.49,1.22,1,.84-1.24.16-.21,1.3-.76-1.05-1.17.46.49-1.22-1-.84,1.25-.16.2-1.3.76,1Z"/><path class="cls-3" d="M31.57,107.26l-.49,1.21,1,.84-1.25.17-.21,1.3-.75-1.06-1.18.47.49-1.22-1-.84,1.25-.16.2-1.3.76,1Z"/><path class="cls-4" d="M23.31,100.39l1-.1.93,1,.4-1.27.86-.32c.07,1.18-.73,2.43.38,3.44-2.63.3-3.59-1.33-3.54-2.77Z"/><path class="cls-4" d="M28.15,98.38l.58.81-.35,1.37,1.24-.3.71.61c-.92.67-2.36.6-2.6,2.12-1.61-2.21-.78-3.92.42-4.61Z"/><path class="cls-4" d="M26.55,109.07l-.56-.83.38-1.35-1.24.26-.69-.63c.93-.65,2.37-.53,2.65-2,1.55,2.26.68,3.94-.54,4.6Z"/><path class="cls-4" d="M31.33,107.13l-1,.11-.93-1L29,107.5l-.86.33c-.08-1.18.72-2.44-.4-3.43,2.63-.33,3.6,1.29,3.55,2.73Z"/><path class="cls-4" d="M32.24,101.74l-.42.92-1.31.3.82,1-.19.94c-1-.55-1.59-1.92-3-1.45,1.13-2.52,3-2.53,4.09-1.73Z"/><path class="cls-4" d="M22.53,105.67l.4-.93,1.31-.33-.84-1,.17-1c1,.53,1.63,1.9,3,1.39-1.08,2.55-2.9,2.59-4,1.82Z"/><path class="cls-3" d="M34.35,112.33l-.49,1.21,1,.84-1.25.16-.21,1.31-.75-1.06-1.18.46.49-1.21-1-.84,1.25-.16.21-1.3.75,1.05Z"/><path class="cls-4" d="M23.34,110.45l1-.1.93,1,.4-1.27.86-.32c.08,1.17-.73,2.43.38,3.43-2.63.31-3.59-1.32-3.53-2.76Z"/><path class="cls-4" d="M28.17,108.43l.59.82-.35,1.36,1.24-.29.7.61c-.91.67-2.35.6-2.59,2.12-1.62-2.21-.79-3.92.41-4.62Z"/><path class="cls-4" d="M26.57,119.13,26,118.3,26.4,117l-1.25.26-.69-.63c.93-.65,2.37-.54,2.65-2,1.56,2.25.68,3.94-.54,4.6Z"/><path class="cls-4" d="M31.36,117.19l-1,.11-.93-1-.39,1.27-.86.32c-.08-1.17.71-2.43-.41-3.43,2.63-.32,3.61,1.3,3.56,2.74Z"/><path class="cls-4" d="M32.27,111.8l-.43.91-1.31.31.82,1-.19.94c-1-.54-1.59-1.92-3-1.44,1.12-2.52,2.95-2.54,4.09-1.73Z"/><path class="cls-4" d="M22.55,115.72l.4-.93,1.31-.32-.84-1,.17-1c1,.53,1.63,1.89,3,1.39-1.08,2.54-2.91,2.59-4.06,1.81Z"/><path class="cls-4" d="M31.6,105.39l1-.1.93,1,.4-1.27.86-.32c.07,1.17-.73,2.43.38,3.43-2.63.31-3.59-1.32-3.53-2.76Z"/><path class="cls-4" d="M36.43,103.37l.59.82-.35,1.36,1.24-.29.7.6c-.92.68-2.35.61-2.59,2.13-1.62-2.21-.79-3.92.41-4.62Z"/><path class="cls-4" d="M34.83,114.07l-.56-.83.38-1.35-1.24.26-.69-.63c.93-.65,2.37-.54,2.65-2,1.55,2.25.68,3.94-.54,4.6Z"/><path class="cls-4" d="M39.62,112.13l-1,.11-.93-1-.39,1.27-.86.32c-.08-1.17.71-2.43-.41-3.43,2.63-.32,3.6,1.3,3.56,2.74Z"/><path class="cls-4" d="M40.52,106.74l-.42.91-1.31.31.82,1-.19,1c-1-.55-1.59-1.93-3-1.45,1.13-2.52,3-2.54,4.09-1.73Z"/><path class="cls-4" d="M30.81,110.66l.4-.92,1.31-.33-.84-1,.17-1c1,.53,1.63,1.89,3,1.39-1.08,2.54-2.91,2.59-4.06,1.81Z"/><path class="cls-4" d="M31.62,115.44l1-.1.93,1,.4-1.26.86-.32c.08,1.17-.73,2.43.39,3.43-2.64.3-3.6-1.33-3.54-2.77Z"/><path class="cls-4" d="M36.46,113.43l.58.82-.35,1.36,1.24-.3.71.61c-.92.68-2.36.6-2.6,2.12-1.61-2.21-.78-3.91.42-4.61Z"/><path class="cls-3" d="M9.47,57.06,9,58.28l1,.84-1.25.16-.21,1.3-.75-1L6.56,60l.49-1.22-1-.84,1.25-.16.21-1.3.75,1.06Z"/><path class="cls-3" d="M15,57l-.49,1.21,1,.84-1.25.17-.2,1.3-.76-1.06L12,59.88l.49-1.21-1-.84,1.25-.16.21-1.3.75,1.05Z"/><path class="cls-3" d="M17.73,62l-.49,1.21,1,.84L17,64.25l-.2,1.3L16,64.49,14.82,65l.49-1.21-1-.84,1.25-.16.21-1.3.75,1.05Z"/><path class="cls-3" d="M15,67l-.49,1.21,1,.84-1.24.16L14,70.53l-.76-1-1.17.46.49-1.21-1-.84,1.24-.16L13,66.42l.76,1.06Z"/><path class="cls-3" d="M9.47,67,9,68.22l1,.84-1.24.16-.21,1.3-.75-1-1.18.46.49-1.21-1-.84,1.25-.17.2-1.3.76,1.06Z"/><path class="cls-3" d="M6.69,62,6.2,63.24l1,.84-1.24.16-.21,1.3L5,64.49,3.79,65l.49-1.21-1-.84,1.24-.17.21-1.3.76,1.06Z"/><path class="cls-4" d="M6.72,60.15l1-.1.93,1L9,59.8l.86-.32c.08,1.17-.73,2.43.38,3.43-2.63.31-3.59-1.32-3.53-2.76Z"/><path class="cls-4" d="M11.56,58.13l.58.82-.35,1.36L13,60l.7.6c-.91.68-2.35.61-2.59,2.13-1.61-2.21-.79-3.92.42-4.62Z"/><path class="cls-4" d="M10,68.83,9.39,68l.39-1.35-1.25.26-.69-.63c.94-.65,2.37-.54,2.65-2,1.56,2.25.68,3.94-.53,4.6Z"/><path class="cls-4" d="M14.74,66.89l-1,.11-.94-1-.39,1.27-.86.32c-.08-1.17.71-2.43-.41-3.43,2.64-.32,3.61,1.3,3.56,2.74Z"/><path class="cls-4" d="M15.65,61.5l-.42.91-1.32.31.82,1-.19.94c-1-.55-1.59-1.93-3-1.45,1.12-2.52,2.95-2.54,4.09-1.73Z"/><path class="cls-4" d="M5.93,65.42l.41-.92,1.3-.33-.84-1,.18-1c1,.53,1.62,1.89,3,1.39-1.08,2.54-2.9,2.59-4.06,1.81Z"/><path class="cls-3" d="M17.75,72.09l-.49,1.21,1,.84L17,74.3l-.21,1.3-.76-1L14.85,75l.49-1.21-1-.84,1.24-.16.21-1.31.76,1.06Z"/><path class="cls-3" d="M6.72,72.08,6.23,73.3l1,.84L6,74.3l-.21,1.3L5,74.54,3.81,75l.49-1.22-1-.84,1.25-.16.21-1.3.75,1.05Z"/><path class="cls-4" d="M6.74,70.2l1-.1.92,1L9,69.86l.87-.32C10,70.71,9.17,72,10.28,73c-2.63.3-3.6-1.33-3.54-2.77Z"/><path class="cls-4" d="M11.58,68.19l.58.82-.35,1.36,1.24-.3.71.61c-.92.68-2.36.6-2.6,2.12-1.61-2.21-.78-3.91.42-4.61Z"/><path class="cls-4" d="M10,78.89l-.56-.84L9.8,76.7,8.56,77l-.69-.63c.93-.64,2.37-.53,2.65-2,1.55,2.25.68,3.93-.54,4.6Z"/><path class="cls-4" d="M14.76,77l-1,.11-.94-1-.39,1.27-.86.33c-.08-1.17.72-2.44-.4-3.43,2.63-.33,3.6,1.3,3.55,2.74Z"/><path class="cls-4" d="M15.67,71.55l-.42.92-1.31.3.82,1-.19.94c-1-.54-1.59-1.92-3-1.45,1.13-2.52,2.95-2.53,4.09-1.73Z"/><path class="cls-4" d="M6,75.48l.4-.93,1.31-.32-.84-1L7,72.28c1,.53,1.63,1.89,3,1.39-1.08,2.54-2.9,2.59-4,1.81Z"/><path class="cls-3" d="M23.23,62l-.49,1.21,1,.84-1.24.16-.21,1.3-.76-1-1.17.46.49-1.21-1-.84,1.24-.16.21-1.3.76,1.05Z"/><path class="cls-3" d="M26,67l-.49,1.21,1,.84-1.24.16L25,70.54l-.76-1.05L23.11,70l.49-1.21-1-.84,1.24-.16.21-1.3.76,1Z"/><path class="cls-3" d="M23.26,72l-.49,1.22,1,.84-1.24.16-.21,1.3-.76-1-1.17.46.49-1.22-1-.84,1.25-.16.2-1.3.76,1Z"/><path class="cls-4" d="M15,65.14l1-.1.92,1,.4-1.26.87-.32c.07,1.17-.74,2.43.38,3.43-2.64.31-3.6-1.32-3.54-2.77Z"/><path class="cls-4" d="M19.84,63.13l.58.82-.35,1.36,1.24-.3.71.61c-.92.68-2.36.6-2.6,2.12-1.61-2.2-.78-3.91.42-4.61Z"/><path class="cls-4" d="M18.24,73.83,17.68,73l.38-1.35-1.24.26-.69-.62c.93-.65,2.37-.54,2.64-2,1.56,2.25.69,3.93-.53,4.6Z"/><path class="cls-4" d="M23,71.89l-1,.11-.94-1-.39,1.27-.86.33c-.08-1.17.72-2.44-.4-3.43,2.63-.33,3.6,1.3,3.55,2.74Z"/><path class="cls-4" d="M23.93,66.49l-.42.92-1.31.3.82,1-.19.94c-1-.55-1.6-1.92-3-1.45,1.12-2.52,2.95-2.53,4.09-1.73Z"/><path class="cls-4" d="M14.21,70.42l.41-.93,1.3-.33-.83-1,.17-.94c1,.52,1.63,1.89,3,1.39-1.08,2.54-2.9,2.59-4.06,1.81Z"/><path class="cls-4" d="M15,75.2l1-.1.93,1,.4-1.27.86-.32c.07,1.18-.73,2.43.38,3.44-2.63.3-3.59-1.33-3.53-2.77Z"/><path class="cls-4" d="M19.86,73.19l.58.81-.34,1.37,1.23-.3.71.61c-.92.67-2.36.6-2.6,2.12-1.61-2.21-.78-3.92.42-4.61Z"/><path class="cls-4" d="M18.26,83.88l-.56-.83.38-1.35L16.84,82l-.69-.63c.93-.65,2.37-.53,2.65-2,1.55,2.26.68,3.94-.54,4.6Z"/><path class="cls-4" d="M23.05,81.94l-1,.11-.93-1-.39,1.27-.86.33c-.09-1.18.71-2.44-.41-3.44,2.63-.32,3.6,1.3,3.56,2.74Z"/><path class="cls-4" d="M24,76.55l-.42.92-1.31.3.82,1-.19.94c-1-.55-1.59-1.92-3-1.45C21,75.76,22.81,75.75,24,76.55Z"/><path class="cls-4" d="M14.24,80.48l.4-.93L16,79.22l-.84-1,.17-.94c1,.52,1.63,1.89,3,1.38-1.08,2.55-2.91,2.59-4.06,1.82Z"/><path class="cls-3" d="M26,57.08l-.49,1.22,1,.84-1.25.16L25,60.6l-.75-1.05L23.11,60l.49-1.21-1-.84,1.25-.17.2-1.3.76,1.06Z"/><path class="cls-3" d="M31.5,57,31,58.2,32,59l-1.25.16-.21,1.3-.75-1.06-1.18.47.49-1.22-1-.84,1.25-.16.21-1.3.75,1Z"/><path class="cls-3" d="M34.28,62.05l-.49,1.22,1,.84-1.25.16-.21,1.3-.75-1.06L31.37,65l.49-1.22-1-.84,1.25-.16.21-1.3.75,1Z"/><path class="cls-3" d="M31.52,67,31,68.25l1,.84-1.25.16-.2,1.3-.76-1L28.61,70l.49-1.21-1-.84,1.24-.16.21-1.3.76,1Z"/><path class="cls-4" d="M23.27,60.17l1-.1.93,1,.4-1.27.86-.32c.08,1.18-.73,2.43.38,3.43-2.63.31-3.59-1.32-3.53-2.76Z"/><path class="cls-4" d="M28.11,58.16l.58.81-.35,1.36L29.58,60l.7.61c-.91.67-2.35.6-2.59,2.12-1.61-2.21-.79-3.92.42-4.61Z"/><path class="cls-4" d="M26.51,68.85,25.94,68l.39-1.35-1.25.26-.69-.63c.94-.65,2.37-.54,2.65-2,1.56,2.26.68,3.94-.53,4.6Z"/><path class="cls-4" d="M31.29,66.91l-1,.11-.94-1L29,67.28l-.86.32c-.08-1.17.71-2.43-.41-3.43,2.64-.32,3.61,1.3,3.56,2.74Z"/><path class="cls-4" d="M32.2,61.52l-.43.91-1.31.31.82,1-.19.94c-1-.55-1.59-1.93-3-1.45,1.12-2.52,2.95-2.54,4.09-1.73Z"/><path class="cls-4" d="M22.48,65.44l.41-.92,1.3-.33-.84-1,.18-.95c1,.53,1.62,1.89,3,1.39-1.08,2.54-2.9,2.59-4.06,1.81Z"/><path class="cls-3" d="M34.3,72.11l-.49,1.21,1,.84-1.24.16-.21,1.3-.76-1.05L31.4,75l.49-1.21-1-.84,1.24-.16.21-1.3.76,1Z"/><path class="cls-4" d="M23.29,70.23l1-.1.92,1,.4-1.26.87-.32c.07,1.17-.73,2.43.38,3.43-2.63.31-3.6-1.32-3.54-2.76Z"/><path class="cls-4" d="M28.13,68.21l.58.82-.35,1.36,1.24-.3.71.61c-.92.68-2.36.61-2.6,2.13-1.61-2.21-.78-3.92.42-4.62Z"/><path class="cls-4" d="M26.53,78.91,26,78.08l.38-1.36L25.11,77l-.7-.63c.94-.65,2.38-.54,2.65-2,1.56,2.25.69,3.94-.53,4.6Z"/><path class="cls-4" d="M31.31,77l-1,.11-.94-1L29,77.33l-.86.33c-.08-1.17.72-2.44-.4-3.43,2.63-.33,3.6,1.3,3.55,2.74Z"/><path class="cls-4" d="M32.22,71.57l-.42.92-1.31.3.82,1-.19.94c-1-.54-1.6-1.92-3-1.45,1.12-2.52,2.95-2.53,4.09-1.73Z"/><path class="cls-4" d="M22.5,75.5l.41-.93,1.3-.32-.83-1,.17-.94c1,.53,1.63,1.89,3,1.39-1.08,2.54-2.9,2.59-4.06,1.81Z"/><path class="cls-3" d="M39.78,62l-.49,1.21,1,.84L39,64.19l-.21,1.3-.76-1-1.17.46.49-1.21-1-.84,1.24-.16.21-1.3.76,1Z"/><path class="cls-3" d="M42.56,67.05l-.49,1.21,1,.84-1.25.16-.2,1.3-.76-1L39.66,70l.48-1.21-1-.84,1.24-.16.21-1.3.76,1.05Z"/><path class="cls-3" d="M39.8,72l-.49,1.22,1,.84L39,74.25l-.21,1.3-.76-1L36.9,75l.49-1.21-1-.84,1.25-.17.2-1.3.76,1.06Z"/><path class="cls-4" d="M31.55,65.17l1-.11.93,1,.4-1.26.86-.32c.08,1.17-.73,2.43.39,3.43-2.64.31-3.6-1.32-3.54-2.76Z"/><path class="cls-4" d="M36.39,63.15,37,64l-.35,1.36,1.24-.3.71.61c-.92.68-2.36.61-2.6,2.13-1.61-2.21-.78-3.92.42-4.62Z"/><path class="cls-4" d="M34.79,73.85,34.23,73l.38-1.36-1.24.27-.7-.63c.94-.65,2.38-.54,2.65-2,1.56,2.25.69,3.94-.53,4.6Z"/><path class="cls-4" d="M39.57,71.91l-1,.11-.94-1-.39,1.26-.86.33c-.08-1.17.72-2.43-.4-3.43,2.63-.32,3.6,1.3,3.55,2.74Z"/><path class="cls-4" d="M40.48,66.51l-.42.92-1.31.3.82,1-.19.94c-1-.54-1.6-1.92-3-1.44,1.12-2.53,3-2.54,4.09-1.74Z"/><path class="cls-4" d="M30.76,70.44l.41-.93,1.3-.32-.83-1,.17-.94c1,.53,1.63,1.89,3,1.39-1.08,2.54-2.9,2.59-4.06,1.81Z"/><path class="cls-3" d="M42.59,77.1l-.49,1.22,1,.84-1.25.16-.21,1.3-.75-1.05L39.68,80l.49-1.21-1-.84,1.25-.17.21-1.3.75,1.06Z"/><path class="cls-4" d="M31.57,75.22l1-.1.93,1,.4-1.27.86-.32C34.8,75.73,34,77,35.11,78c-2.63.3-3.59-1.33-3.54-2.77Z"/><path class="cls-4" d="M36.41,73.21,37,74l-.34,1.36,1.23-.3.71.61c-.92.67-2.36.6-2.6,2.12-1.61-2.21-.78-3.91.42-4.61Z"/><path class="cls-4" d="M34.81,83.9l-.56-.83.38-1.35L33.39,82l-.69-.63c.93-.64,2.37-.53,2.65-2,1.55,2.25.68,3.93-.54,4.59Z"/><path class="cls-4" d="M39.6,82l-1,.1-.93-1-.4,1.27-.86.33c-.08-1.18.72-2.44-.4-3.43,2.63-.33,3.6,1.29,3.56,2.74Z"/><path class="cls-4" d="M40.5,76.57l-.42.92-1.31.3.82,1-.19.94c-1-.55-1.59-1.92-3-1.45,1.13-2.52,3-2.53,4.09-1.73Z"/><path class="cls-4" d="M30.79,80.5l.4-.93,1.31-.33-.84-1,.17-.94c1,.52,1.63,1.89,3,1.38-1.07,2.55-2.9,2.6-4.05,1.82Z"/><path class="cls-3" d="M42.44,26.94,42,28.16l1,.84-1.25.16-.2,1.3-.76-1.05-1.17.46L40,28.65l-1-.84,1.24-.16.21-1.3.76,1.06Z"/><path class="cls-3" d="M47.92,26.84l-.49,1.21,1,.84-1.24.17L47,30.36l-.76-1.06L45,29.77l.49-1.22-1-.84,1.24-.16.21-1.3.76,1.05Z"/><path class="cls-3" d="M50.7,31.91l-.49,1.21,1,.84-1.24.16-.21,1.31L49,34.37l-1.17.46.49-1.21-1-.84,1.24-.16.21-1.3.76,1Z"/><path class="cls-3" d="M48,36.9l-.49,1.21,1,.84-1.24.16L47,40.41l-.75-1L45,39.82l.49-1.21-1-.84,1.25-.16L46,36.3l.76,1.06Z"/><path class="cls-3" d="M42.44,36.89,42,38.1l1,.84-1.25.16-.2,1.3-.76-1-1.18.46L40,38.6l-1-.84,1.24-.16.21-1.31.75,1.06Z"/><path class="cls-3" d="M39.67,31.91l-.49,1.21,1,.84-1.25.16-.21,1.3-.75-1.05-1.18.46.49-1.21-1-.84,1.25-.17.21-1.3.75,1.06Z"/><path class="cls-4" d="M39.69,30l1-.1.92,1,.4-1.27.87-.32c.07,1.17-.73,2.43.38,3.43-2.64.31-3.6-1.32-3.54-2.76Z"/><path class="cls-4" d="M44.53,28l.58.82-.35,1.36L46,29.9l.71.61c-.92.67-2.36.6-2.6,2.12-1.61-2.21-.78-3.92.42-4.62Z"/><path class="cls-4" d="M42.93,38.71l-.56-.83.38-1.35-1.24.26-.7-.63c.94-.65,2.38-.54,2.65-2,1.56,2.25.69,3.94-.53,4.6Z"/><path class="cls-4" d="M47.71,36.77l-1,.11-.94-1-.39,1.27-.86.32c-.08-1.17.72-2.43-.4-3.43,2.63-.32,3.6,1.3,3.55,2.74Z"/><path class="cls-4" d="M48.62,31.38l-.42.91-1.31.31.82,1-.19.94c-1-.54-1.6-1.92-3-1.44,1.12-2.52,2.95-2.54,4.09-1.73Z"/><path class="cls-4" d="M38.9,35.3l.41-.93,1.3-.32-.83-1L40,32.1c1,.53,1.63,1.89,3,1.39-1.08,2.54-2.9,2.59-4.06,1.81Z"/><path class="cls-3" d="M50.73,42l-.49,1.21,1,.84L50,44.18l-.21,1.3-.75-1-1.18.46.49-1.21-1-.84,1.25-.16.21-1.31.75,1.06Z"/><path class="cls-3" d="M48,47l-.49,1.22,1,.84-1.25.16L47,50.47l-.75-1-1.18.46.49-1.22-1-.84,1.25-.16.21-1.3.75,1Z"/><path class="cls-3" d="M42.46,46.94,42,48.16l1,.84-1.24.16-.21,1.3-.76-1.05-1.17.46.49-1.22-1-.84,1.24-.16.21-1.3.76,1Z"/><path class="cls-3" d="M39.69,42l-.49,1.22,1,.84-1.25.16-.2,1.3-.76-1-1.17.46.49-1.22-1-.84,1.24-.16.21-1.3.76,1.05Z"/><path class="cls-4" d="M39.71,40.08l1-.1.93,1,.4-1.26.86-.32c.07,1.17-.73,2.43.38,3.43-2.63.31-3.59-1.32-3.54-2.77Z"/><path class="cls-4" d="M44.55,38.07l.58.82-.34,1.36L46,40l.71.61c-.92.68-2.35.6-2.59,2.12-1.62-2.2-.79-3.91.41-4.61Z"/><path class="cls-4" d="M43,48.77l-.56-.84.39-1.35-1.25.26-.69-.63c.93-.64,2.37-.53,2.65-2,1.55,2.25.68,3.93-.54,4.6Z"/><path class="cls-4" d="M47.74,46.83l-1,.1-.93-1-.39,1.27-.86.33c-.08-1.18.71-2.44-.41-3.43,2.63-.33,3.6,1.3,3.56,2.74Z"/><path class="cls-4" d="M48.64,41.43l-.42.92-1.31.3.82,1-.19.94c-1-.55-1.59-1.92-3-1.45,1.13-2.52,3-2.53,4.09-1.73Z"/><path class="cls-4" d="M38.93,45.36l.4-.93,1.31-.32-.84-1,.17-.94c1,.53,1.63,1.89,3,1.39-1.08,2.54-2.91,2.59-4.06,1.81Z"/><path class="cls-3" d="M56.21,31.84l-.49,1.21,1,.84-1.24.16-.21,1.3-.75-1.05-1.18.46.49-1.21-1-.84,1.25-.16.2-1.31L55,32.3Z"/><path class="cls-3" d="M59,36.91l-.49,1.21,1,.84-1.25.16L58,40.42l-.75-1.05-1.18.46.49-1.21-1-.84,1.25-.16.2-1.31.76,1.06Z"/><path class="cls-3" d="M56.23,41.89l-.49,1.22,1,.84-1.25.16-.21,1.3-.75-1-1.18.46.49-1.22-1-.84,1.25-.16.21-1.3.75,1.06Z"/><path class="cls-4" d="M48,35l1-.1.93,1,.4-1.26.86-.32c.07,1.17-.73,2.43.38,3.43-2.63.3-3.59-1.33-3.54-2.77Z"/><path class="cls-4" d="M52.81,33l.58.82-.34,1.36,1.23-.3.71.61c-.92.68-2.35.6-2.59,2.12-1.62-2.2-.79-3.91.41-4.61Z"/><path class="cls-4" d="M51.21,43.71l-.56-.83L51,41.52l-1.24.26-.69-.62c.93-.65,2.37-.54,2.65-2,1.55,2.25.68,3.94-.54,4.6Z"/><path class="cls-4" d="M56,41.77l-1,.11-.93-1-.39,1.27-.86.33c-.09-1.17.71-2.44-.41-3.43,2.63-.33,3.6,1.3,3.56,2.74Z"/><path class="cls-4" d="M56.9,36.37l-.42.92-1.31.3.82,1-.19.94c-1-.54-1.59-1.92-3-1.45,1.13-2.52,2.95-2.53,4.09-1.73Z"/><path class="cls-4" d="M47.19,40.3l.4-.93L48.9,39l-.84-1,.17-.94c1,.52,1.63,1.89,3,1.39-1.08,2.54-2.91,2.59-4.06,1.81Z"/><path class="cls-3" d="M59,47l-.49,1.22,1,.84-1.25.16-.2,1.3-.76-1-1.18.46.49-1.22-1-.84,1.24-.16.21-1.3.75,1.05Z"/><path class="cls-3" d="M56.25,52l-.49,1.21,1,.84-1.24.17-.21,1.3-.76-1.06-1.17.47.49-1.22-1-.84,1.24-.16.21-1.3.76,1Z"/><path class="cls-3" d="M50.75,51.94l-.49,1.21,1,.84L50,54.15l-.21,1.31L49,54.4l-1.18.46.49-1.21-1-.84,1.25-.16.2-1.3.76,1Z"/><path class="cls-4" d="M48,45.08l1-.1.93,1,.4-1.27.86-.32c.08,1.18-.73,2.43.39,3.44-2.64.3-3.6-1.33-3.54-2.77Z"/><path class="cls-4" d="M52.84,43.07l.58.81-.35,1.37,1.24-.3.71.61c-.92.67-2.36.6-2.6,2.12-1.61-2.21-.79-3.92.42-4.61Z"/><path class="cls-4" d="M51.24,53.76l-.57-.83.39-1.35-1.25.26-.69-.63c.94-.65,2.37-.53,2.65-2.05,1.56,2.26.69,3.94-.53,4.6Z"/><path class="cls-4" d="M56,51.82l-1,.11-.94-1-.39,1.27-.86.33c-.08-1.18.71-2.44-.4-3.44,2.63-.32,3.6,1.3,3.55,2.74Z"/><path class="cls-4" d="M56.93,46.43l-.42.92-1.32.3.82,1-.19.94c-1-.55-1.59-1.92-3-1.45,1.12-2.52,2.95-2.53,4.09-1.73Z"/><path class="cls-4" d="M47.21,50.35l.41-.92,1.3-.33-.84-1,.18-1c1,.53,1.62,1.9,3,1.39-1.08,2.55-2.9,2.59-4.06,1.81Z"/><path class="cls-3" d="M59,27l-.49,1.22,1,.84-1.25.16-.2,1.3-.76-1.05-1.18.46.49-1.22-1-.83,1.24-.17.21-1.3.76,1.06Z"/><path class="cls-3" d="M64.47,26.86,64,28.07l1,.84-1.24.17-.21,1.3-.76-1.06-1.17.47.49-1.22-1-.84,1.24-.16.21-1.3.76,1.05Z"/><path class="cls-3" d="M67.25,31.93l-.49,1.21,1,.84-1.24.17-.21,1.3-.76-1.06-1.17.47.49-1.22-1-.84,1.24-.16.21-1.3.76,1.05Z"/><path class="cls-3" d="M64.5,36.92,64,38.13,65,39l-1.24.16-.21,1.3-.76-1-1.17.46.49-1.21-1-.84,1.25-.16.2-1.3.76,1.05Z"/><path class="cls-4" d="M56.24,30.05l1-.1.92,1,.4-1.27.87-.32c.07,1.17-.73,2.43.38,3.43-2.64.31-3.6-1.32-3.54-2.76Z"/><path class="cls-4" d="M61.08,28l.58.81-.35,1.36,1.24-.29.71.61c-.92.67-2.36.6-2.6,2.12-1.61-2.21-.78-3.92.42-4.61Z"/><path class="cls-4" d="M59.48,38.73l-.56-.83.38-1.35-1.25.26-.69-.63c.94-.65,2.37-.54,2.65-2,1.56,2.25.69,3.94-.53,4.6Z"/><path class="cls-4" d="M64.26,36.79l-1,.11-.94-1L62,37.16l-.86.32c-.08-1.17.72-2.43-.4-3.43,2.63-.32,3.6,1.3,3.55,2.74Z"/><path class="cls-4" d="M65.17,31.4l-.42.92-1.31.3.82,1-.19.94c-1-.55-1.6-1.93-3-1.45,1.12-2.52,3-2.53,4.09-1.73Z"/><path class="cls-4" d="M55.45,35.32l.41-.92,1.3-.33-.83-1,.17-1c1,.53,1.63,1.89,3,1.39-1.08,2.54-2.9,2.59-4.06,1.81Z"/><path class="cls-3" d="M67.28,42l-.49,1.21,1,.84-1.24.16-.21,1.3-.75-1-1.18.46.49-1.21-1-.84,1.25-.16.2-1.31.76,1.06Z"/><path class="cls-3" d="M64.52,47,64,48.19,65,49l-1.25.16-.21,1.3-.75-1.05-1.18.46.49-1.21-1-.84,1.25-.17.21-1.3.75,1.06Z"/><path class="cls-4" d="M56.26,40.11l1-.1.93,1,.4-1.26.86-.32c.07,1.17-.73,2.43.38,3.43-2.63.31-3.59-1.32-3.54-2.76Z"/><path class="cls-4" d="M61.1,38.09l.58.82-.34,1.36,1.23-.3.71.61c-.92.68-2.36.61-2.6,2.13-1.61-2.21-.78-3.92.42-4.62Z"/><path class="cls-4" d="M59.5,48.79,58.94,48l.38-1.36-1.24.27-.69-.63c.93-.65,2.37-.54,2.65-2.05,1.55,2.25.68,3.94-.54,4.6Z"/><path class="cls-4" d="M64.29,46.85l-1,.11-.93-1L62,47.21l-.86.33c-.09-1.17.71-2.44-.41-3.43,2.63-.33,3.6,1.3,3.56,2.74Z"/><path class="cls-4" d="M65.19,41.45l-.42.92-1.31.3.82,1-.19.94c-1-.54-1.59-1.92-3-1.44,1.13-2.53,2.95-2.54,4.09-1.74Z"/><path class="cls-4" d="M55.48,45.38l.4-.93,1.31-.32-.84-1,.17-.94c1,.53,1.63,1.89,3,1.39-1.08,2.54-2.91,2.59-4.06,1.81Z"/><path class="cls-3" d="M72.76,31.86l-.49,1.21,1,.84L72,34.07l-.21,1.3-.76-1-1.17.46.49-1.21-1-.84,1.25-.16.2-1.3.76,1.05Z"/><path class="cls-3" d="M75.54,36.93l-.49,1.21L76,39l-1.24.16-.21,1.3-.75-1-1.18.46.49-1.21-1-.84,1.25-.16.2-1.3.76,1Z"/><path class="cls-3" d="M72.78,41.91l-.49,1.22,1,.84L72,44.13l-.21,1.3-.75-1-1.18.46.49-1.22-1-.84,1.25-.16.21-1.3.75,1.06Z"/><path class="cls-4" d="M64.52,35.05l1-.11.93,1,.4-1.26.86-.32c.07,1.17-.73,2.43.38,3.43-2.63.31-3.59-1.32-3.54-2.76Z"/><path class="cls-4" d="M69.36,33l.58.82-.34,1.36,1.23-.3.71.61c-.92.68-2.36.61-2.6,2.12-1.61-2.2-.78-3.91.42-4.61Z"/><path class="cls-4" d="M67.76,43.73l-.56-.83.38-1.36-1.24.27-.69-.63c.93-.65,2.37-.54,2.65-2,1.55,2.25.68,3.94-.54,4.6Z"/><path class="cls-4" d="M72.55,41.79l-1,.11-.93-1-.39,1.27-.86.33c-.09-1.17.71-2.44-.41-3.43,2.63-.33,3.6,1.3,3.56,2.74Z"/><path class="cls-4" d="M73.45,36.39l-.42.92-1.31.3.82,1-.19.94c-1-.54-1.59-1.92-3-1.44,1.13-2.53,3-2.54,4.09-1.74Z"/><path class="cls-4" d="M63.74,40.32l.4-.93,1.31-.32-.84-1,.17-.94c1,.53,1.63,1.89,3,1.39-1.08,2.54-2.91,2.59-4.06,1.81Z"/><path class="cls-3" d="M75.56,47l-.49,1.22L76,49l-1.25.16-.2,1.3-.76-1-1.18.46.49-1.22-1-.84,1.25-.16.21-1.3.75,1.06Z"/><path class="cls-3" d="M72.8,52l-.49,1.22,1,.84L72,54.19l-.21,1.3-.76-1.05-1.17.46.49-1.22-1-.84,1.24-.16.21-1.3.76,1Z"/><path class="cls-3" d="M67.3,52l-.49,1.21,1,.84-1.24.16-.21,1.31-.76-1.06-1.17.46.49-1.21-1-.84,1.25-.16.2-1.3.76,1.05Z"/><path class="cls-4" d="M64.55,45.1l1-.1.93,1,.4-1.27.86-.32c.08,1.18-.73,2.43.38,3.44-2.63.3-3.59-1.33-3.53-2.77Z"/><path class="cls-4" d="M69.39,43.09l.58.81-.35,1.37,1.24-.3.7.61c-.91.67-2.35.6-2.59,2.12-1.61-2.21-.79-3.92.42-4.61Z"/><path class="cls-4" d="M67.79,53.78,67.22,53l.39-1.35-1.25.26-.69-.63c.94-.65,2.37-.53,2.65-2,1.56,2.26.68,3.94-.53,4.6Z"/><path class="cls-4" d="M72.57,51.85l-1,.1-.94-1-.39,1.27-.86.33c-.08-1.18.71-2.44-.41-3.43,2.64-.33,3.61,1.29,3.56,2.74Z"/><path class="cls-4" d="M73.48,46.45l-.43.92-1.31.3.82,1-.19.94c-1-.55-1.59-1.92-3-1.45,1.12-2.52,3-2.53,4.09-1.73Z"/><path class="cls-4" d="M63.76,50.38l.41-.93,1.3-.33-.84-1,.18-.94c1,.52,1.62,1.89,3,1.38-1.08,2.55-2.9,2.6-4.06,1.82Z"/><path class="cls-3" d="M42.47,47.06,42,48.28l1,.84-1.25.16-.21,1.3-.75-1L39.56,50l.49-1.22-1-.84,1.25-.16.21-1.3.75,1.05Z"/><path class="cls-3" d="M48,47l-.49,1.21,1,.84-1.25.16L47,50.48l-.75-1.06L45,49.88l.49-1.21-1-.84,1.25-.16.21-1.3.75,1.05Z"/><path class="cls-3" d="M50.73,52l-.49,1.21,1,.84L50,54.24l-.21,1.31L49,54.49,47.82,55l.49-1.21-1-.84,1.25-.16.21-1.3.75,1.05Z"/><path class="cls-3" d="M48,57l-.49,1.21,1,.84-1.25.16-.2,1.3-.76-1.05-1.18.46.49-1.21-1-.84,1.24-.17.21-1.3.76,1.06Z"/><path class="cls-3" d="M42.47,57,42,58.22l1,.84-1.24.16-.21,1.3-.76-1.05-1.17.46.49-1.21-1-.84,1.25-.17.2-1.3.76,1.06Z"/><path class="cls-3" d="M39.69,52l-.49,1.22,1,.84-1.24.16-.21,1.3-.76-1L36.79,55l.49-1.22-1-.83,1.24-.17.21-1.3.76,1.06Z"/><path class="cls-4" d="M39.72,50.15l1-.1.93,1L42,49.8l.86-.32c.07,1.17-.73,2.43.38,3.43-2.63.31-3.59-1.32-3.53-2.76Z"/><path class="cls-4" d="M44.55,48.13l.59.82-.35,1.36L46,50l.7.61c-.91.68-2.35.61-2.59,2.13-1.62-2.21-.79-3.92.41-4.62Z"/><path class="cls-4" d="M43,58.83,42.39,58l.39-1.35-1.25.26-.69-.63c.93-.65,2.37-.54,2.65-2.05,1.55,2.25.68,3.94-.54,4.6Z"/><path class="cls-4" d="M47.74,56.89l-1,.11-.93-1-.39,1.27-.86.32c-.08-1.17.71-2.43-.41-3.43,2.63-.32,3.61,1.3,3.56,2.74Z"/><path class="cls-4" d="M48.64,51.5l-.42.91-1.31.31.82,1-.19.94c-1-.54-1.59-1.92-3-1.44,1.12-2.52,2.94-2.54,4.08-1.73Z"/><path class="cls-4" d="M38.93,55.42l.4-.92,1.31-.33-.84-1,.18-1c1,.53,1.62,1.89,3,1.39-1.08,2.54-2.91,2.59-4.06,1.81Z"/><path class="cls-3" d="M50.75,62.09l-.49,1.21,1,.84L50,64.3l-.2,1.3-.76-1L47.85,65l.49-1.21-1-.84,1.24-.16.21-1.31.76,1.06Z"/><path class="cls-3" d="M39.72,62.08l-.49,1.22,1,.83L39,64.3l-.21,1.3L38,64.54,36.81,65l.49-1.22-1-.84,1.25-.16.21-1.3.75,1Z"/><path class="cls-4" d="M39.74,60.2l1-.1.93,1,.4-1.27.87-.31c.07,1.17-.74,2.43.38,3.43-2.64.3-3.6-1.33-3.54-2.77Z"/><path class="cls-4" d="M44.58,58.19l.58.82-.35,1.36,1.24-.3.71.61c-.92.68-2.36.6-2.6,2.12-1.61-2.21-.78-3.91.42-4.61Z"/><path class="cls-4" d="M43,68.89l-.56-.84.38-1.35L41.55,67l-.69-.63c.94-.64,2.37-.53,2.65-2,1.56,2.25.69,3.93-.53,4.6Z"/><path class="cls-4" d="M47.76,67l-1,.11-.94-1-.39,1.27-.86.33c-.08-1.17.72-2.44-.4-3.43,2.63-.33,3.6,1.3,3.55,2.74Z"/><path class="cls-4" d="M48.67,61.55l-.42.92-1.31.3.82,1-.19.94c-1-.55-1.6-1.92-3-1.45,1.12-2.52,3-2.53,4.09-1.73Z"/><path class="cls-4" d="M39,65.48l.41-.93,1.3-.33-.83-1,.17-.94c1,.52,1.63,1.89,3,1.39-1.08,2.54-2.9,2.59-4.06,1.81Z"/><path class="cls-3" d="M56.23,52l-.49,1.21,1,.84-1.25.16-.2,1.3-.76-1-1.18.46.49-1.21-1-.84,1.24-.16.21-1.31.76,1.06Z"/><path class="cls-3" d="M59,57l-.49,1.21,1,.84-1.25.16-.2,1.3-.76-1L56.11,60l.49-1.21-1-.84,1.24-.16.21-1.31.76,1.06Z"/><path class="cls-3" d="M56.25,62l-.49,1.22,1,.84-1.24.16-.21,1.3-.76-1-1.17.46.49-1.22-1-.84,1.24-.16.21-1.3.76,1Z"/><path class="cls-4" d="M48,55.14l1-.1.93,1,.4-1.26.87-.32c.07,1.17-.74,2.43.38,3.43-2.64.3-3.6-1.32-3.54-2.77Z"/><path class="cls-4" d="M52.84,53.13l.58.82-.35,1.36,1.24-.3.71.61c-.92.68-2.36.6-2.6,2.12-1.61-2.2-.78-3.91.42-4.61Z"/><path class="cls-4" d="M51.24,63.83,50.68,63l.38-1.35-1.25.26-.69-.63c.94-.64,2.37-.53,2.65-2,1.56,2.25.69,3.93-.53,4.6Z"/><path class="cls-4" d="M56,61.89l-1,.1-.94-1-.39,1.27-.86.33c-.08-1.18.72-2.44-.4-3.43,2.63-.33,3.6,1.3,3.55,2.74Z"/><path class="cls-4" d="M56.93,56.49l-.42.92-1.31.3.82,1-.19.94c-1-.55-1.6-1.92-3-1.45,1.12-2.52,2.95-2.53,4.09-1.73Z"/><path class="cls-4" d="M47.21,60.42l.41-.93,1.3-.33-.83-1,.17-.94c1,.52,1.63,1.89,3,1.39-1.08,2.54-2.9,2.59-4.06,1.81Z"/><path class="cls-4" d="M48,65.2l1-.1.93,1,.4-1.27.86-.32c.07,1.18-.73,2.43.38,3.44-2.63.3-3.59-1.33-3.54-2.77Z"/><path class="cls-4" d="M52.86,63.19l.58.81-.34,1.36,1.23-.29.71.61c-.92.67-2.36.6-2.6,2.12-1.61-2.21-.78-3.92.42-4.61Z"/><path class="cls-4" d="M51.26,73.88l-.56-.83.38-1.35L49.84,72l-.69-.63c.93-.65,2.37-.53,2.65-2,1.55,2.26.68,3.94-.54,4.6Z"/><path class="cls-4" d="M56.05,71.94l-1,.11-.93-1-.39,1.27-.87.32c-.08-1.17.72-2.43-.4-3.43,2.63-.32,3.6,1.3,3.56,2.74Z"/><path class="cls-4" d="M57,66.55l-.42.92-1.31.3.82,1-.19.94c-1-.55-1.59-1.92-3-1.45,1.13-2.52,3-2.53,4.09-1.73Z"/><path class="cls-4" d="M47.24,70.48l.4-.93L49,69.22l-.84-1,.17-.94c1,.52,1.63,1.89,3,1.38-1.07,2.55-2.9,2.59-4,1.82Z"/><path class="cls-3" d="M59,47.08l-.49,1.22,1,.84-1.25.16L58,50.6l-.75-1.05L56.11,50l.49-1.21-1-.84,1.25-.17.2-1.3.76,1.06Z"/><path class="cls-3" d="M64.5,47,64,48.2,65,49l-1.25.17-.21,1.3-.75-1.06-1.18.47.49-1.22-1-.84,1.25-.16.21-1.3.75,1Z"/><path class="cls-3" d="M67.28,52.05l-.49,1.22,1,.83-1.25.17-.21,1.3-.75-1.06L64.37,55l.49-1.22-1-.84,1.25-.16.21-1.3.75,1Z"/><path class="cls-3" d="M64.52,57,64,58.25l1,.84-1.25.16-.2,1.3-.76-1L61.61,60l.49-1.21-1-.84,1.24-.16.21-1.3.75,1Z"/><path class="cls-4" d="M56.27,50.17l1-.1.93,1,.4-1.27.86-.32c.07,1.17-.73,2.43.38,3.43-2.63.31-3.59-1.32-3.53-2.76Z"/><path class="cls-4" d="M61.1,48.16l.59.81-.35,1.36L62.58,50l.7.61c-.92.67-2.35.6-2.59,2.12-1.62-2.21-.79-3.92.41-4.61Z"/><path class="cls-4" d="M59.5,58.85,58.94,58l.38-1.35-1.24.26-.69-.63c.93-.65,2.37-.54,2.65-2,1.55,2.25.68,3.94-.54,4.6Z"/><path class="cls-4" d="M64.29,56.91l-1,.11-.93-1L62,57.28l-.86.32c-.08-1.17.71-2.43-.41-3.43,2.63-.32,3.61,1.3,3.56,2.74Z"/><path class="cls-4" d="M65.19,51.52l-.42.91-1.31.31.82,1-.19.94c-1-.54-1.59-1.92-3-1.44,1.13-2.52,2.95-2.54,4.09-1.73Z"/><path class="cls-4" d="M55.48,55.44l.4-.92,1.31-.33-.84-1,.17-.95c1,.53,1.63,1.89,3,1.39-1.08,2.54-2.91,2.59-4.06,1.81Z"/><path class="cls-3" d="M67.3,62.11l-.49,1.21,1,.84-1.25.16-.2,1.3-.76-1.05L64.39,65l.49-1.21-1-.84,1.24-.16.21-1.3.76,1Z"/><path class="cls-4" d="M56.29,60.23l1-.11.93,1,.4-1.26.86-.32c.08,1.17-.73,2.43.39,3.43-2.64.31-3.6-1.32-3.54-2.76Z"/><path class="cls-4" d="M61.13,58.21l.58.82-.35,1.36,1.24-.3.71.61c-.92.68-2.36.6-2.6,2.12-1.61-2.2-.78-3.91.42-4.61Z"/><path class="cls-4" d="M59.53,68.91,59,68.07l.38-1.35L58.1,67l-.69-.62c.94-.65,2.37-.54,2.65-2,1.56,2.25.69,3.94-.53,4.6Z"/><path class="cls-4" d="M64.31,67l-1,.11-.94-1L62,67.33l-.86.33c-.08-1.17.72-2.44-.4-3.43,2.63-.33,3.6,1.3,3.55,2.74Z"/><path class="cls-4" d="M65.22,61.57l-.42.92-1.31.3.82,1-.19.94c-1-.54-1.6-1.92-3-1.44,1.12-2.53,2.95-2.54,4.09-1.74Z"/><path class="cls-4" d="M55.5,65.5l.41-.93,1.3-.32-.83-1,.17-.94c1,.53,1.62,1.89,3,1.39-1.08,2.54-2.9,2.59-4.06,1.81Z"/><path class="cls-3" d="M72.78,52l-.49,1.21,1,.84L72,54.19l-.2,1.3-.76-1.05-1.18.46.49-1.21-1-.84,1.24-.16.21-1.31.75,1.06Z"/><path class="cls-3" d="M75.56,57.05l-.49,1.21,1,.84-1.25.16-.2,1.3-.76-1.05L72.65,60l.49-1.21-1-.84,1.24-.16.21-1.31.76,1.06Z"/><path class="cls-3" d="M72.8,62l-.49,1.22,1,.84L72,64.25l-.21,1.3-.76-1L69.9,65l.49-1.22-1-.83,1.24-.17.21-1.3.76,1.06Z"/><path class="cls-4" d="M64.55,55.16l1-.1.93,1,.4-1.26.86-.32c.08,1.17-.73,2.43.39,3.43-2.64.31-3.6-1.32-3.54-2.77Z"/><path class="cls-4" d="M69.39,53.15,70,54l-.35,1.36,1.24-.3.71.61c-.92.68-2.36.61-2.6,2.13-1.61-2.21-.78-3.92.42-4.62Z"/><path class="cls-4" d="M67.79,63.85,67.23,63l.38-1.36-1.25.27-.69-.63c.94-.65,2.37-.54,2.65-2,1.56,2.25.69,3.94-.53,4.6Z"/><path class="cls-4" d="M72.57,61.91l-1,.11-.94-1-.39,1.27-.86.33c-.08-1.17.72-2.44-.4-3.43,2.63-.33,3.6,1.3,3.55,2.74Z"/><path class="cls-4" d="M73.48,56.51l-.42.92-1.31.3.82,1-.19.94c-1-.54-1.6-1.92-3-1.45,1.12-2.52,3-2.53,4.09-1.73Z"/><path class="cls-4" d="M63.76,60.44l.41-.93,1.3-.32-.83-1,.17-.94c1,.53,1.62,1.89,3,1.39-1.08,2.54-2.9,2.59-4.06,1.81Z"/><path class="cls-3" d="M75.59,67.1l-.49,1.22,1,.84-1.24.16-.21,1.3-.76-1.05L72.68,70l.49-1.22-1-.83,1.25-.17.2-1.3.76,1.06Z"/><path class="cls-4" d="M64.57,65.22l1-.1.93,1,.4-1.27.86-.32C67.8,65.73,67,67,68.11,68c-2.63.3-3.59-1.33-3.54-2.77Z"/><path class="cls-4" d="M69.41,63.21,70,64l-.35,1.37,1.24-.3.71.61c-.92.67-2.36.6-2.6,2.12-1.61-2.21-.78-3.92.42-4.61Z"/><path class="cls-4" d="M67.81,73.9l-.56-.83.38-1.35L66.39,72l-.69-.63c.93-.65,2.37-.53,2.65-2,1.55,2.26.68,3.94-.54,4.6Z"/><path class="cls-4" d="M72.6,72l-1,.11-.93-1-.4,1.27-.86.33c-.08-1.18.72-2.44-.4-3.43,2.63-.33,3.6,1.29,3.56,2.73Z"/><path class="cls-4" d="M73.5,66.57l-.42.92-1.31.3.82,1-.19.94c-1-.55-1.59-1.92-3-1.45,1.13-2.52,3-2.53,4.09-1.73Z"/><path class="cls-4" d="M63.79,70.5l.4-.93,1.31-.33-.84-1,.17-.94c1,.52,1.63,1.89,3,1.38-1.08,2.55-2.9,2.59-4.05,1.82Z"/><path class="cls-3" d="M42.42,6.84l-.49,1.22,1,.83-1.25.17-.2,1.3L40.69,9.3l-1.18.47L40,8.55l-1-.84,1.24-.16.21-1.3.76,1Z"/><path class="cls-3" d="M47.9,6.74,47.41,8l1,.84L47.14,9l-.21,1.3L46.17,9.2,45,9.66l.49-1.21-1-.84,1.24-.16L46,6.15l.76,1Z"/><path class="cls-3" d="M50.68,11.81,50.19,13l1,.84L49.92,14l-.21,1.3L49,14.27l-1.17.46.49-1.21-1-.84,1.24-.16.21-1.3.76,1Z"/><path class="cls-3" d="M47.93,16.79,47.44,18l1,.84L47.16,19,47,20.31l-.76-1L45,19.72l.49-1.22-1-.83,1.25-.17.2-1.3.76,1.06Z"/><path class="cls-3" d="M42.42,16.78,41.93,18l1,.84L41.65,19l-.21,1.3-.75-1.05-1.18.46L40,18.49l-1-.84,1.25-.16.21-1.3.75,1Z"/><path class="cls-3" d="M39.65,11.8,39.16,13l1,.84L38.88,14l-.21,1.3-.75-1.05-1.18.46.49-1.22-1-.84,1.25-.16.21-1.3.75,1Z"/><path class="cls-4" d="M39.67,9.93l1-.11.92,1L42,9.58l.87-.32c.07,1.17-.73,2.43.38,3.43-2.63.31-3.59-1.32-3.54-2.76Z"/><path class="cls-4" d="M44.51,7.91l.58.82-.35,1.36L46,9.79l.71.61c-.92.68-2.36.61-2.6,2.13-1.61-2.21-.78-3.92.42-4.62Z"/><path class="cls-4" d="M42.91,18.61l-.56-.83.38-1.36-1.24.27-.69-.63c.93-.65,2.37-.54,2.65-2,1.55,2.25.68,3.94-.54,4.6Z"/><path class="cls-4" d="M47.69,16.67l-1,.11-.94-1L45.4,17l-.86.33c-.08-1.17.72-2.44-.4-3.43,2.63-.33,3.6,1.3,3.55,2.74Z"/><path class="cls-4" d="M48.6,11.27l-.42.92-1.31.3.82,1-.19.94c-1-.54-1.59-1.92-3-1.45,1.13-2.52,3-2.53,4.09-1.73Z"/><path class="cls-4" d="M38.88,15.2l.41-.93,1.3-.32-.83-1,.17-.94c1,.53,1.63,1.89,3,1.39C41.86,15.93,40,16,38.88,15.2Z"/><path class="cls-3" d="M50.71,21.86l-.49,1.22,1,.84-1.25.16-.21,1.3L49,24.33l-1.18.46.49-1.22-1-.84,1.25-.16.21-1.3.75,1.05Z"/><path class="cls-3" d="M39.67,21.86l-.49,1.21,1,.84-1.25.17-.2,1.3-.76-1.06-1.18.47.49-1.22-1-.84,1.24-.16.21-1.3.76,1.05Z"/><path class="cls-4" d="M39.7,20l1-.1.93,1,.4-1.27.86-.32c.07,1.18-.73,2.43.38,3.44-2.63.3-3.59-1.33-3.53-2.77Z"/><path class="cls-4" d="M44.53,18l.59.81-.35,1.37,1.24-.3.7.61c-.92.67-2.35.6-2.59,2.12-1.62-2.21-.79-3.91.41-4.61Z"/><path class="cls-4" d="M42.93,28.66l-.56-.83.38-1.35-1.24.26-.69-.63c.93-.65,2.37-.53,2.65-2.05,1.55,2.26.68,3.94-.54,4.6Z"/><path class="cls-4" d="M47.72,26.73l-1,.1-.93-1-.39,1.27-.86.33c-.09-1.18.71-2.44-.41-3.43,2.63-.33,3.6,1.29,3.56,2.74Z"/><path class="cls-4" d="M48.62,21.33l-.42.92-1.31.3.82,1-.19.94c-1-.55-1.59-1.92-3-1.45,1.13-2.52,2.95-2.53,4.09-1.73Z"/><path class="cls-4" d="M38.91,25.26l.4-.93L40.62,24l-.84-1,.17-.94c1,.52,1.63,1.89,3,1.38C41.89,26,40.06,26,38.91,25.26Z"/><path class="cls-3" d="M56.19,11.73,55.7,13l1,.84L55.42,14l-.21,1.3-.75-1.05-1.18.46.49-1.22-1-.83,1.25-.17.2-1.3L55,12.2Z"/><path class="cls-3" d="M59,16.8,58.48,18l1,.84L58.2,19,58,20.32l-.75-1.05-1.18.46.49-1.22-1-.84,1.25-.16.2-1.3.76,1.06Z"/><path class="cls-3" d="M56.21,21.79,55.72,23l1,.84L55.44,24l-.21,1.3-.75-1.06-1.18.47.49-1.22-1-.84,1.25-.16.21-1.3L55,22.25Z"/><path class="cls-4" d="M48,14.92l1-.1.93,1,.4-1.27.86-.32c.07,1.18-.73,2.43.38,3.44-2.63.3-3.59-1.33-3.54-2.77Z"/><path class="cls-4" d="M52.79,12.91l.58.81L53,15.09l1.23-.3.71.61c-.92.67-2.36.6-2.6,2.12-1.61-2.21-.78-3.92.42-4.61Z"/><path class="cls-4" d="M51.19,23.6l-.56-.83L51,21.42l-1.24.26-.69-.63c.93-.65,2.37-.53,2.65-2.05,1.55,2.26.68,3.94-.54,4.6Z"/><path class="cls-4" d="M56,21.66l-1,.11-.93-1L53.69,22l-.86.33c-.09-1.18.71-2.44-.41-3.44,2.63-.32,3.6,1.3,3.56,2.74Z"/><path class="cls-4" d="M56.88,16.27l-.42.92-1.31.3.82,1-.19.94c-1-.55-1.59-1.92-3-1.45,1.13-2.52,3-2.53,4.09-1.73Z"/><path class="cls-4" d="M47.17,20.2l.4-.93,1.31-.33-.84-1,.17-.94c1,.52,1.63,1.89,3,1.38-1.08,2.55-2.91,2.6-4.06,1.82Z"/><path class="cls-4" d="M48,25l1-.1.93,1,.4-1.27.86-.32c.08,1.17-.73,2.43.38,3.43-2.63.31-3.59-1.32-3.53-2.76Z"/><path class="cls-4" d="M52.82,23l.58.81-.35,1.36,1.24-.29.7.61c-.91.67-2.35.6-2.59,2.12-1.61-2.21-.79-3.92.42-4.61Z"/><path class="cls-4" d="M51.22,33.66l-.57-.83L51,31.48l-1.25.26-.69-.63c.94-.65,2.37-.54,2.65-2.05,1.56,2.25.68,3.94-.53,4.6Z"/><path class="cls-4" d="M56,31.72l-1,.11-.94-1-.39,1.27-.86.32c-.08-1.17.71-2.43-.41-3.43,2.64-.32,3.61,1.3,3.56,2.74Z"/><path class="cls-4" d="M56.91,26.33l-.43.92-1.31.3.82,1-.19.94c-1-.55-1.59-1.93-3-1.45,1.12-2.52,3-2.53,4.09-1.73Z"/><path class="cls-4" d="M47.19,30.25l.41-.92L48.9,29l-.84-1,.18-.95c1,.53,1.62,1.89,3,1.39C50.17,31,48.35,31,47.19,30.25Z"/><path class="cls-3" d="M59,6.86l-.49,1.22,1,.84-1.25.16-.2,1.3-.76-1.05-1.18.46.49-1.22-1-.84,1.24-.16L57,6.27l.75,1.05Z"/><path class="cls-3" d="M64.45,6.76,64,8l1,.84L63.69,9l-.21,1.31-.76-1.06-1.17.46L62,8.47l-1-.84,1.24-.16.21-1.3.76,1Z"/><path class="cls-3" d="M67.23,11.83,66.74,13l1,.84L66.47,14l-.21,1.3-.76-1.05-1.17.46.49-1.21-1-.84,1.24-.16.21-1.3.76,1Z"/><path class="cls-3" d="M64.47,16.82,64,18l1,.84L63.71,19l-.21,1.3-.76-1-1.17.46.49-1.21-1-.84,1.25-.17.2-1.3.76,1.06Z"/><path class="cls-4" d="M56.22,10l1-.1.92,1,.4-1.26.87-.32c.07,1.17-.73,2.43.38,3.43-2.63.31-3.6-1.32-3.54-2.76Z"/><path class="cls-4" d="M61.06,7.93l.58.82-.35,1.36,1.24-.3.71.61c-.92.68-2.36.61-2.6,2.13-1.61-2.21-.78-3.92.42-4.62Z"/><path class="cls-4" d="M59.46,18.63l-.56-.83.38-1.36L58,16.71l-.7-.63c.94-.65,2.38-.54,2.65-2,1.56,2.25.69,3.94-.53,4.6Z"/><path class="cls-4" d="M64.24,16.69l-1,.11-.94-1L62,17.05l-.86.33c-.08-1.17.72-2.44-.4-3.43,2.63-.33,3.6,1.3,3.55,2.74Z"/><path class="cls-4" d="M65.15,11.29l-.42.92-1.31.3.82,1-.19.94c-1-.54-1.6-1.92-3-1.44,1.13-2.52,3-2.54,4.09-1.74Z"/><path class="cls-4" d="M55.43,15.22l.41-.93,1.3-.32-.83-1,.17-.94c1,.53,1.63,1.89,3,1.39C58.41,16,56.59,16,55.43,15.22Z"/><path class="cls-3" d="M67.26,21.88l-.49,1.22,1,.84-1.25.16-.21,1.3-.75-1-1.18.46.49-1.21-1-.84,1.25-.17.21-1.3.75,1.06Z"/><path class="cls-4" d="M56.24,20l1-.1.93,1,.4-1.27.86-.32c.07,1.18-.73,2.43.38,3.44-2.63.3-3.59-1.33-3.54-2.77Z"/><path class="cls-4" d="M61.08,18l.58.81-.34,1.37,1.23-.3.71.61c-.92.67-2.35.6-2.59,2.12-1.62-2.21-.79-3.91.41-4.61Z"/><path class="cls-4" d="M59.48,28.68l-.56-.83.38-1.35-1.24.26-.69-.63c.93-.65,2.37-.53,2.65-2.05,1.55,2.26.68,3.94-.54,4.6Z"/><path class="cls-4" d="M64.27,26.75l-1,.1-.93-1L62,27.11l-.87.33c-.08-1.18.72-2.44-.4-3.43,2.63-.33,3.6,1.3,3.56,2.74Z"/><path class="cls-4" d="M65.17,21.35l-.42.92-1.31.3.82,1-.19.94c-1-.55-1.59-1.92-3-1.45,1.13-2.52,3-2.53,4.09-1.73Z"/><path class="cls-4" d="M55.46,25.28l.4-.93L57.17,24l-.84-1,.17-.94c1,.52,1.63,1.89,3,1.39-1.08,2.54-2.91,2.59-4.06,1.81Z"/><path class="cls-3" d="M72.74,11.75,72.25,13l1,.84L72,14l-.21,1.3-.75-1-1.18.46.49-1.21-1-.84,1.25-.17.2-1.3.76,1.06Z"/><path class="cls-3" d="M75.52,16.82,75,18l1,.84L74.75,19l-.21,1.3-.76-1.05-1.17.46.49-1.21-1-.84,1.25-.17.2-1.3.76,1.06Z"/><path class="cls-3" d="M72.76,21.81,72.27,23l1,.84L72,24l-.21,1.3-.75-1-1.18.46.49-1.22-1-.84,1.25-.16.21-1.3.75,1.05Z"/><path class="cls-4" d="M64.5,14.94l1-.1.93,1,.4-1.27.86-.32c.07,1.18-.73,2.44.38,3.44-2.63.3-3.59-1.33-3.54-2.77Z"/><path class="cls-4" d="M69.34,12.93l.58.82-.34,1.36,1.23-.3.71.61c-.92.68-2.36.6-2.6,2.12-1.61-2.21-.78-3.91.42-4.61Z"/><path class="cls-4" d="M67.74,23.63l-.56-.84.38-1.35-1.24.26-.69-.63c.93-.64,2.37-.53,2.65-2,1.55,2.25.68,3.93-.54,4.6Z"/><path class="cls-4" d="M72.53,21.69l-1,.1-.93-1-.4,1.27-.86.33c-.08-1.18.72-2.44-.4-3.43,2.63-.33,3.6,1.29,3.56,2.74Z"/><path class="cls-4" d="M73.43,16.29l-.42.92-1.31.3.82,1-.19.94c-1-.55-1.59-1.92-3-1.45,1.13-2.52,3-2.53,4.09-1.73Z"/><path class="cls-4" d="M63.72,20.22l.4-.93L65.43,19l-.84-1,.17-.94c1,.52,1.63,1.89,3,1.39-1.07,2.54-2.9,2.59-4,1.81Z"/><path class="cls-3" d="M75.54,26.88l-.49,1.22,1,.84-1.25.16-.21,1.3-.75-1-1.18.46.49-1.22-1-.84,1.25-.16.21-1.3.75,1.05Z"/><path class="cls-4" d="M64.53,25l1-.1.93,1,.4-1.27.86-.32c.08,1.18-.73,2.43.38,3.44-2.63.3-3.59-1.33-3.53-2.77Z"/><path class="cls-4" d="M69.36,23l.59.81-.35,1.36,1.24-.29.7.61c-.91.67-2.35.6-2.59,2.12-1.62-2.21-.79-3.92.41-4.61Z"/><path class="cls-4" d="M67.76,33.68l-.56-.83.39-1.35-1.25.26-.69-.63c.93-.65,2.37-.54,2.65-2.05,1.56,2.26.68,3.94-.54,4.6Z"/><path class="cls-4" d="M72.55,31.74l-1,.11-.93-1-.39,1.27-.86.32C69.32,31.26,70.11,30,69,29c2.63-.32,3.61,1.3,3.56,2.74Z"/><path class="cls-4" d="M73.46,26.35l-.43.92-1.31.3.82,1-.19.94c-1-.55-1.59-1.92-3-1.45,1.12-2.52,2.94-2.53,4.09-1.73Z"/><path class="cls-4" d="M63.74,30.27l.41-.92,1.3-.33-.84-1,.18-.95c1,.53,1.62,1.89,3,1.39-1.08,2.55-2.9,2.59-4.06,1.81Z"/><path class="cls-3" d="M9.39,16.94,8.9,18.16l1,.84-1.25.16-.21,1.3-.75-1.05-1.18.46L7,18.65l-1-.84,1.25-.16.21-1.3.75,1Z"/><path class="cls-3" d="M14.87,16.84l-.49,1.21,1,.84-1.25.16-.21,1.31-.75-1.06L12,19.76l.49-1.21-1-.84,1.25-.16.21-1.3.75,1.05Z"/><path class="cls-3" d="M17.65,21.91l-.49,1.21,1,.84-1.25.16-.2,1.3-.76-1.05-1.18.46.49-1.21-1-.84,1.25-.16.21-1.3.75,1.05Z"/><path class="cls-3" d="M14.89,26.9l-.49,1.21,1,.84-1.25.16-.2,1.3-.76-1.05L12,29.82l.48-1.21-1-.84,1.24-.16L13,26.3l.76,1.06Z"/><path class="cls-3" d="M9.39,26.88,8.9,28.1l1,.84-1.24.16-.21,1.3-.75-1-1.18.46L7,28.59l-1-.84,1.25-.16.2-1.3.76,1.05Z"/><path class="cls-3" d="M6.61,21.9l-.49,1.22,1,.84-1.24.16-.21,1.3-.76-1.05-1.17.46.49-1.22-1-.84,1.24-.16.21-1.3.76,1.05Z"/><path class="cls-4" d="M6.64,20l1-.1.93,1,.4-1.26.86-.32c.08,1.17-.73,2.43.38,3.43C7.54,23.1,6.58,21.47,6.64,20Z"/><path class="cls-4" d="M11.48,18l.58.82-.35,1.36,1.24-.3.7.61c-.91.68-2.35.61-2.59,2.13-1.61-2.21-.79-3.92.42-4.62Z"/><path class="cls-4" d="M9.88,28.71l-.57-.83.39-1.36-1.25.27-.69-.63c.94-.65,2.37-.54,2.65-2.05,1.56,2.25.68,3.94-.53,4.6Z"/><path class="cls-4" d="M14.66,26.77l-1,.11-.94-1-.39,1.27-.86.32c-.08-1.17.71-2.43-.41-3.43,2.64-.32,3.61,1.3,3.56,2.74Z"/><path class="cls-4" d="M15.57,21.37l-.43.92-1.31.3.82,1-.19.94c-1-.54-1.59-1.92-3-1.44,1.12-2.52,2.94-2.54,4.09-1.74Z"/><path class="cls-4" d="M5.85,25.3l.41-.93,1.3-.32-.84-1,.18-.94c1,.53,1.62,1.89,3,1.39C8.83,26,7,26.08,5.85,25.3Z"/><path class="cls-3" d="M17.67,32l-.49,1.22,1,.84-1.24.16-.21,1.3-.76-1-1.17.46.49-1.22-1-.83,1.24-.17.21-1.3.76,1.06Z"/><path class="cls-3" d="M14.92,37l-.49,1.22,1,.84-1.24.16-.21,1.3-.76-1L12,39.88l.49-1.22-1-.84,1.25-.16.2-1.3.76,1Z"/><path class="cls-3" d="M9.41,36.94l-.49,1.21,1,.84-1.25.17-.21,1.3L7.68,39.4l-1.18.47L7,38.65l-1-.84,1.25-.16.21-1.3.75,1Z"/><path class="cls-3" d="M6.64,32l-.49,1.21,1,.84-1.25.17-.21,1.3-.75-1.06-1.18.46.49-1.21-1-.84,1.25-.16.21-1.3.75,1.05Z"/><path class="cls-4" d="M6.66,30.08l1-.1.92,1L9,29.74l.87-.32c.07,1.17-.73,2.43.38,3.43-2.63.3-3.6-1.33-3.54-2.77Z"/><path class="cls-4" d="M11.5,28.07l.58.82-.35,1.36L13,30l.71.61c-.92.68-2.36.6-2.6,2.12-1.61-2.21-.78-3.91.42-4.61Z"/><path class="cls-4" d="M9.9,38.77l-.56-.84.38-1.35-1.24.26-.7-.63c.94-.64,2.38-.53,2.65-2,1.56,2.25.69,3.93-.53,4.6Z"/><path class="cls-4" d="M14.68,36.83l-1,.1-.94-1-.39,1.27-.86.33c-.08-1.18.72-2.44-.4-3.43,2.63-.33,3.6,1.3,3.55,2.74Z"/><path class="cls-4" d="M15.59,31.43l-.42.92-1.31.3.82,1-.19.94c-1-.55-1.59-1.92-3-1.45,1.13-2.52,2.95-2.53,4.09-1.73Z"/><path class="cls-4" d="M5.87,35.36l.41-.93,1.3-.33-.83-1,.17-.94c1,.52,1.63,1.89,3,1.39C8.85,36.09,7,36.14,5.87,35.36Z"/><path class="cls-3" d="M23.15,21.83l-.49,1.22,1,.84-1.24.16-.21,1.3-.76-1.05-1.17.46.49-1.21-1-.84L21,22.54l.21-1.3L22,22.3Z"/><path class="cls-3" d="M25.93,26.9l-.49,1.22,1,.84-1.24.16L25,30.42l-.76-1.05L23,29.83l.49-1.21-1-.84,1.24-.17.21-1.3.76,1.06Z"/><path class="cls-3" d="M23.18,31.89l-.49,1.22,1,.84-1.24.16-.21,1.3-.76-1-1.17.46.49-1.22-1-.84L21,32.6l.2-1.3L22,32.35Z"/><path class="cls-4" d="M14.92,25l1-.1.92,1,.4-1.27.87-.32c.07,1.18-.74,2.44.38,3.44-2.64.3-3.6-1.33-3.54-2.77Z"/><path class="cls-4" d="M19.76,23l.58.82L20,25.19l1.24-.3.71.61c-.92.67-2.36.6-2.6,2.12-1.61-2.21-.78-3.91.42-4.61Z"/><path class="cls-4" d="M18.16,33.7l-.56-.83L18,31.52l-1.25.26L16,31.15c.94-.64,2.37-.53,2.65-2,1.56,2.25.69,3.93-.53,4.59Z"/><path class="cls-4" d="M22.94,31.77l-1,.1-.94-1-.39,1.27-.86.33c-.08-1.18.72-2.44-.4-3.43,2.63-.33,3.6,1.29,3.55,2.74Z"/><path class="cls-4" d="M23.85,26.37l-.42.92-1.31.3.82,1-.19.94c-1-.55-1.6-1.92-3-1.45,1.12-2.52,2.95-2.53,4.09-1.73Z"/><path class="cls-4" d="M14.13,30.3l.41-.93,1.3-.33L15,28l.17-.94c1,.52,1.63,1.89,3,1.39-1.08,2.54-2.9,2.59-4.06,1.81Z"/><path class="cls-3" d="M26,37l-.49,1.22,1,.84-1.24.16L25,40.48l-.75-1-1.18.46.49-1.22-1-.84,1.25-.16.2-1.3.76,1.05Z"/><path class="cls-3" d="M23.2,42l-.49,1.21,1,.84-1.25.16-.21,1.31-.75-1.06-1.18.46.49-1.21-1-.84,1.25-.16.21-1.3.75,1Z"/><path class="cls-3" d="M17.69,41.94l-.49,1.21,1,.84-1.24.16-.21,1.3L16,44.4l-1.17.46.49-1.21-1-.84,1.24-.16.21-1.3.76,1Z"/><path class="cls-4" d="M14.94,35.08l1-.1.93,1,.4-1.27.86-.32c.07,1.18-.73,2.43.38,3.43-2.63.31-3.59-1.32-3.54-2.76Z"/><path class="cls-4" d="M19.78,33.07l.58.81L20,35.24,21.25,35l.71.61c-.92.67-2.36.6-2.6,2.12-1.61-2.21-.78-3.92.42-4.61Z"/><path class="cls-4" d="M18.18,43.76l-.56-.83L18,41.58l-1.24.26-.69-.63c.93-.65,2.37-.54,2.65-2.05,1.55,2.26.68,3.94-.54,4.6Z"/><path class="cls-4" d="M23,41.82l-1,.11-.93-1-.39,1.27-.86.33c-.09-1.18.71-2.44-.41-3.44C22,38.76,23,40.38,23,41.82Z"/><path class="cls-4" d="M23.87,36.43l-.42.92-1.31.3.82,1-.19.94c-1-.55-1.59-1.92-3-1.45,1.13-2.52,2.95-2.53,4.09-1.73Z"/><path class="cls-4" d="M14.16,40.35l.4-.92,1.31-.33-.84-1,.17-1c1,.53,1.63,1.89,3,1.39-1.08,2.55-2.91,2.59-4.06,1.81Z"/><path class="cls-3" d="M25.94,17l-.49,1.22,1,.84-1.25.16L25,20.48l-.75-1.05L23,19.89l.49-1.22-1-.84,1.25-.16.21-1.3.75,1.05Z"/><path class="cls-3" d="M31.42,16.86l-.49,1.21,1,.84-1.25.17-.21,1.3-.75-1.06-1.18.46L29,18.57l-1-.84,1.25-.16.21-1.3.75,1.05Z"/><path class="cls-3" d="M34.2,21.93l-.49,1.21,1,.84-1.25.17-.2,1.3-.76-1.06-1.18.46.49-1.21-1-.84,1.25-.16.21-1.3L33,22.39Z"/><path class="cls-3" d="M31.44,26.92,31,28.13l1,.84-1.25.16-.2,1.3-.76-1.05-1.18.46L29,28.63l-1-.84,1.24-.16.21-1.31.76,1.06Z"/><path class="cls-4" d="M23.19,20.05l1-.1.93,1,.4-1.27.86-.32c.08,1.17-.73,2.43.38,3.43-2.63.31-3.59-1.32-3.53-2.76Z"/><path class="cls-4" d="M28,18l.59.82-.35,1.36,1.24-.29.7.6c-.91.68-2.35.61-2.59,2.13C26,20.44,26.82,18.73,28,18Z"/><path class="cls-4" d="M26.43,28.73l-.57-.83.39-1.35L25,26.81l-.69-.63c.94-.65,2.37-.54,2.65-2.05,1.56,2.25.68,3.94-.53,4.6Z"/><path class="cls-4" d="M31.21,26.79l-1,.11-.93-1-.39,1.27-.86.32c-.08-1.17.71-2.43-.41-3.43,2.63-.32,3.61,1.3,3.56,2.74Z"/><path class="cls-4" d="M32.11,21.4l-.42.91-1.31.31.82,1-.19.94c-1-.55-1.59-1.93-3-1.45,1.12-2.52,2.94-2.54,4.08-1.73Z"/><path class="cls-4" d="M22.4,25.32l.4-.92,1.31-.33-.84-1,.18-.95c1,.53,1.62,1.89,3,1.39-1.08,2.54-2.91,2.59-4.06,1.81Z"/><path class="cls-3" d="M34.22,32l-.49,1.21,1,.84-1.24.16-.21,1.3-.76-1-1.17.46.49-1.21-1-.84,1.24-.16.21-1.31.76,1.06Z"/><path class="cls-3" d="M31.46,37,31,38.19l1,.84-1.24.16-.21,1.3-.76-1.05-1.17.46.49-1.22-1-.83,1.25-.17.2-1.3.76,1.06Z"/><path class="cls-4" d="M23.21,30.1l1-.1.92,1,.4-1.26.87-.32c.07,1.17-.73,2.43.38,3.43-2.63.3-3.6-1.33-3.54-2.77Z"/><path class="cls-4" d="M28.05,28.09l.58.82-.35,1.36,1.24-.3.71.61c-.92.68-2.36.6-2.6,2.12-1.61-2.21-.78-3.91.42-4.61Z"/><path class="cls-4" d="M26.45,38.79,25.89,38l.38-1.35L25,36.86l-.7-.63c.94-.64,2.38-.53,2.65-2,1.56,2.25.69,3.93-.53,4.6Z"/><path class="cls-4" d="M31.23,36.85l-1,.11-.94-1-.39,1.27-.86.33c-.08-1.17.72-2.44-.4-3.43,2.63-.33,3.6,1.3,3.55,2.74Z"/><path class="cls-4" d="M32.14,31.45l-.42.92-1.31.3.82,1-.19.94c-1-.54-1.59-1.92-3-1.45,1.13-2.52,2.95-2.53,4.09-1.73Z"/><path class="cls-4" d="M22.42,35.38l.41-.93,1.3-.33-.83-1,.17-.94c1,.53,1.63,1.89,3,1.39-1.08,2.54-2.9,2.59-4.06,1.81Z"/><path class="cls-4" d="M31.47,25l1-.1.93,1,.4-1.26.86-.32c.08,1.17-.73,2.43.39,3.43-2.64.31-3.6-1.32-3.54-2.77Z"/><path class="cls-4" d="M36.31,23l.58.82-.35,1.36,1.24-.3.71.61c-.92.68-2.36.6-2.6,2.12-1.61-2.2-.78-3.91.42-4.61Z"/><path class="cls-4" d="M34.71,33.73l-.56-.84.38-1.35-1.25.26-.69-.62c.94-.65,2.37-.54,2.65-2.05,1.56,2.25.69,3.93-.53,4.6Z"/><path class="cls-4" d="M39.49,31.79l-1,.11-.94-1-.39,1.27-.86.33c-.08-1.17.72-2.44-.4-3.43,2.63-.33,3.6,1.3,3.55,2.74Z"/><path class="cls-4" d="M40.4,26.39l-.42.92-1.31.3.82,1-.19.94c-1-.55-1.6-1.92-3-1.45,1.12-2.52,2.95-2.53,4.09-1.73Z"/><path class="cls-4" d="M30.68,30.32l.41-.93,1.3-.33-.83-1,.17-.94c1,.52,1.63,1.89,3,1.39-1.08,2.54-2.9,2.59-4.06,1.81Z"/><path class="cls-3" d="M39.75,42l-.49,1.21,1,.84L39,44.19l-.21,1.3L38,44.43l-1.18.46.49-1.21-1-.84,1.25-.16.21-1.3.75,1Z"/><path class="cls-3" d="M34.24,42l-.49,1.21,1,.84-1.25.16-.2,1.31-.76-1.06-1.18.46.49-1.21-1-.84,1.24-.16.21-1.3.76,1.05Z"/><path class="cls-4" d="M31.49,35.1l1-.1.93,1,.4-1.27.86-.32c.07,1.18-.73,2.43.38,3.44-2.63.3-3.59-1.33-3.54-2.77Z"/><path class="cls-4" d="M36.33,33.09l.58.81-.34,1.37L37.8,35l.71.61c-.92.67-2.36.6-2.6,2.12-1.61-2.21-.78-3.92.42-4.61Z"/><path class="cls-4" d="M34.73,43.78,34.17,43l.38-1.35-1.24.26-.69-.63c.93-.65,2.37-.53,2.65-2,1.55,2.26.68,3.94-.54,4.6Z"/><path class="cls-4" d="M39.52,41.84l-1,.11-.93-1-.39,1.27-.87.33c-.08-1.18.72-2.44-.4-3.44,2.63-.32,3.6,1.3,3.56,2.74Z"/><path class="cls-4" d="M40.42,36.45l-.42.92-1.31.3.82,1-.19.94c-1-.55-1.59-1.92-3-1.45,1.13-2.52,3-2.53,4.09-1.73Z"/><path class="cls-4" d="M30.71,40.38l.4-.93,1.31-.33-.84-1,.17-.94c1,.52,1.63,1.89,3,1.38-1.07,2.55-2.9,2.59-4,1.82Z"/><path class="cls-3" d="M9.41,37.06l-.49,1.22,1,.84-1.24.16-.21,1.3-.76-1L6.51,40,7,38.77l-1-.84,1.24-.16.21-1.3.76,1.05Z"/><path class="cls-3" d="M14.89,37l-.49,1.21,1,.84-1.24.16-.21,1.31-.76-1.06L12,39.88l.49-1.21-1-.84,1.25-.16.2-1.3.76,1.05Z"/><path class="cls-3" d="M17.67,42l-.48,1.21,1,.84-1.24.16-.21,1.31-.76-1.06L14.77,45l.49-1.21-1-.84,1.25-.16.2-1.3.76,1.05Z"/><path class="cls-3" d="M14.92,47l-.49,1.22,1,.84-1.25.16-.21,1.3-.75-1.05L12,49.94l.49-1.21-1-.84,1.25-.17.21-1.3.75,1.06Z"/><path class="cls-3" d="M9.41,47l-.49,1.22,1,.84-1.25.16-.2,1.3-.76-1.05-1.18.46L7,48.71l-1-.83,1.24-.17.21-1.3.75,1.06Z"/><path class="cls-3" d="M6.64,42l-.49,1.22,1,.84-1.25.16-.21,1.3-.75-1L3.73,45l.49-1.22-1-.84,1.25-.16.21-1.3.75,1.06Z"/><path class="cls-4" d="M6.66,40.15l1-.1.93,1L9,39.8l.86-.32c.07,1.17-.73,2.43.38,3.43-2.63.31-3.59-1.32-3.54-2.76Z"/><path class="cls-4" d="M11.5,38.13l.58.82-.35,1.36L13,40l.71.61c-.92.68-2.36.61-2.6,2.13-1.61-2.21-.78-3.92.42-4.62Z"/><path class="cls-4" d="M9.9,48.83,9.34,48l.38-1.36-1.24.27-.69-.63c.93-.65,2.37-.54,2.65-2.05,1.55,2.25.68,3.94-.54,4.6Z"/><path class="cls-4" d="M14.69,46.89l-1,.11-.93-1-.4,1.26-.86.33c-.08-1.17.72-2.44-.4-3.43,2.63-.32,3.6,1.3,3.56,2.74Z"/><path class="cls-4" d="M15.59,41.49l-.42.92-1.31.3.82,1-.19.94c-1-.54-1.59-1.92-3-1.44,1.13-2.53,2.95-2.54,4.09-1.74Z"/><path class="cls-4" d="M5.88,45.42l.4-.93,1.31-.32-.84-1,.17-.94c1,.53,1.63,1.89,3,1.39-1.08,2.54-2.9,2.59-4,1.81Z"/><path class="cls-3" d="M17.7,52.08l-.49,1.22,1,.84-1.25.16-.21,1.3L16,54.55,14.79,55l.49-1.21-1-.84,1.25-.17.21-1.3.75,1.06Z"/><path class="cls-3" d="M6.66,52.08l-.49,1.21,1,.84L5.9,54.3l-.21,1.3-.76-1.06L3.76,55l.49-1.22-1-.84,1.24-.16.21-1.3.76,1Z"/><path class="cls-4" d="M6.69,50.2l1-.1.93,1L9,49.85l.86-.32c.08,1.18-.73,2.43.38,3.44-2.63.3-3.59-1.33-3.53-2.77Z"/><path class="cls-4" d="M11.52,48.19l.59.82-.35,1.36,1.24-.3.7.61c-.91.67-2.35.6-2.59,2.12-1.62-2.21-.79-3.91.41-4.61Z"/><path class="cls-4" d="M9.92,58.88l-.56-.83.39-1.35L8.5,57l-.69-.63c.93-.65,2.37-.53,2.65-2,1.56,2.25.68,3.93-.54,4.59Z"/><path class="cls-4" d="M14.71,57l-1,.1-.93-1-.39,1.27-.86.33c-.08-1.18.71-2.44-.41-3.43,2.63-.33,3.61,1.29,3.56,2.74Z"/><path class="cls-4" d="M15.62,51.55l-.43.92-1.31.3.82,1-.19.94c-1-.55-1.59-1.92-3-1.45,1.12-2.52,3-2.53,4.09-1.73Z"/><path class="cls-4" d="M5.9,55.48l.41-.93,1.3-.33-.84-1L7,52.28c1,.52,1.62,1.89,3,1.39-1.08,2.54-2.91,2.59-4.06,1.81Z"/><path class="cls-3" d="M23.18,42l-.49,1.22,1,.84-1.25.16-.21,1.3-.75-1-1.18.46.49-1.22-1-.83L21,42.66l.21-1.3L22,42.42Z"/><path class="cls-3" d="M26,47l-.49,1.22,1,.84-1.25.16L25,50.54l-.75-1L23.05,50l.49-1.22-1-.83,1.25-.17.21-1.3.75,1.06Z"/><path class="cls-3" d="M23.2,52l-.49,1.22,1,.84-1.25.16-.2,1.3-.76-1.05-1.18.46.49-1.22-1-.84,1.24-.16.21-1.3.75,1Z"/><path class="cls-4" d="M15,45.14l1-.1.93,1,.4-1.27.86-.32c.07,1.18-.73,2.43.38,3.44-2.63.3-3.59-1.33-3.53-2.77Z"/><path class="cls-4" d="M19.78,43.13l.59.82L20,45.31l1.24-.3.7.61c-.92.68-2.35.6-2.59,2.12-1.62-2.21-.79-3.91.41-4.61Z"/><path class="cls-4" d="M18.18,53.83,17.62,53,18,51.64l-1.24.26-.69-.63c.93-.64,2.37-.53,2.65-2,1.55,2.25.68,3.93-.54,4.6Z"/><path class="cls-4" d="M23,51.89,22,52l-.93-1-.39,1.27-.86.33c-.08-1.18.71-2.44-.41-3.43C22,48.82,23,50.45,23,51.89Z"/><path class="cls-4" d="M23.87,46.49l-.42.92-1.31.3.82,1-.19.94c-1-.55-1.59-1.92-3-1.45,1.13-2.52,2.95-2.53,4.09-1.73Z"/><path class="cls-4" d="M14.16,50.42l.4-.93,1.31-.33-.84-1,.17-.94c1,.52,1.63,1.89,3,1.39-1.08,2.54-2.91,2.59-4.06,1.81Z"/><path class="cls-4" d="M15,55.2l1-.1.93,1,.4-1.27.86-.32c.08,1.18-.73,2.43.39,3.44-2.64.3-3.6-1.33-3.54-2.77Z"/><path class="cls-4" d="M19.81,53.19l.58.81L20,55.36l1.24-.29.71.61c-.92.67-2.36.6-2.6,2.12-1.61-2.21-.78-3.92.42-4.61Z"/><path class="cls-4" d="M18.21,63.88l-.56-.83L18,61.7,16.78,62l-.69-.63c.94-.65,2.37-.54,2.65-2,1.56,2.26.69,3.94-.53,4.6Z"/><path class="cls-4" d="M23,61.94l-1,.11-.94-1-.39,1.27-.86.32c-.08-1.17.72-2.43-.4-3.43,2.63-.32,3.6,1.3,3.55,2.74Z"/><path class="cls-4" d="M23.9,56.55l-.42.92-1.31.3.82,1-.19.94c-1-.55-1.6-1.93-3-1.45,1.12-2.52,3-2.53,4.09-1.73Z"/><path class="cls-4" d="M14.18,60.47l.41-.92,1.3-.33-.83-1,.17-.95c1,.53,1.62,1.89,3,1.39-1.08,2.54-2.9,2.59-4.06,1.81Z"/><path class="cls-3" d="M26,37.08l-.49,1.22,1,.84-1.25.16L25,40.6l-.76-1.05L23.06,40l.49-1.22-1-.84,1.24-.16.21-1.3.76,1Z"/><path class="cls-3" d="M31.44,37,31,38.19l1,.84-1.24.16-.21,1.31-.76-1.06-1.17.46L29,38.69l-1-.84,1.24-.16.21-1.3.76,1Z"/><path class="cls-3" d="M34.22,42.05l-.48,1.21,1,.84-1.24.16-.21,1.31-.76-1.06L31.32,45l.49-1.21-1-.84,1.25-.16.2-1.3.76,1Z"/><path class="cls-3" d="M31.47,47,31,48.25l1,.84-1.24.16-.21,1.3-.75-1L28.56,50l.49-1.21-1-.84,1.25-.16.2-1.31.76,1.06Z"/><path class="cls-4" d="M23.21,40.17l1-.1.92,1,.4-1.26.87-.32c.07,1.17-.73,2.43.38,3.43-2.63.31-3.6-1.32-3.54-2.76Z"/><path class="cls-4" d="M28.05,38.15l.58.82-.35,1.36L29.52,40l.71.61c-.92.67-2.36.6-2.6,2.12-1.61-2.21-.78-3.92.42-4.62Z"/><path class="cls-4" d="M26.45,48.85,25.89,48l.38-1.35L25,46.93l-.69-.63c.93-.65,2.37-.54,2.65-2,1.55,2.25.68,3.94-.54,4.6Z"/><path class="cls-4" d="M31.23,46.91l-1,.11-.94-1-.39,1.27-.86.32c-.08-1.17.72-2.43-.4-3.43,2.63-.32,3.6,1.3,3.55,2.74Z"/><path class="cls-4" d="M32.14,41.52l-.42.91-1.31.31.82,1-.19.94c-1-.54-1.59-1.92-3-1.44,1.13-2.52,2.95-2.54,4.09-1.73Z"/><path class="cls-4" d="M22.42,45.44l.41-.93,1.3-.32-.83-1,.17-.94c1,.53,1.63,1.89,3,1.39-1.08,2.54-2.9,2.59-4.06,1.81Z"/><path class="cls-3" d="M34.25,52.1l-.49,1.22,1,.84-1.25.16-.21,1.3-.75-1L31.34,55l.49-1.21-1-.84,1.25-.17.21-1.3.75,1.06Z"/><path class="cls-4" d="M23.24,50.22l1-.1.93,1,.4-1.26.86-.32c.08,1.17-.73,2.43.38,3.43-2.63.31-3.59-1.32-3.53-2.77Z"/><path class="cls-4" d="M28.07,48.21l.58.82-.34,1.36,1.23-.3.71.61c-.92.68-2.35.6-2.59,2.12-1.62-2.2-.79-3.91.41-4.61Z"/><path class="cls-4" d="M26.47,58.91l-.56-.84.39-1.35L25.05,57l-.69-.63c.93-.64,2.37-.53,2.65-2,1.56,2.25.68,3.93-.54,4.6Z"/><path class="cls-4" d="M31.26,57l-1,.1-.93-1L29,57.33l-.86.33c-.08-1.18.71-2.44-.41-3.43,2.63-.33,3.6,1.3,3.56,2.74Z"/><path class="cls-4" d="M32.16,51.57l-.42.92-1.31.3.82,1-.19.94c-1-.55-1.59-1.92-3-1.45,1.12-2.52,2.94-2.53,4.08-1.73Z"/><path class="cls-4" d="M22.45,55.5l.4-.93,1.31-.33-.84-1,.17-.94c1,.52,1.63,1.89,3,1.39-1.08,2.54-2.91,2.59-4.06,1.81Z"/><path class="cls-4" d="M31.49,45.16l1-.1.93,1,.4-1.26.86-.32c.07,1.17-.73,2.43.38,3.43-2.63.3-3.59-1.33-3.54-2.77Z"/><path class="cls-4" d="M36.33,43.15l.58.82-.34,1.36L37.8,45l.71.61c-.92.68-2.35.6-2.59,2.12-1.62-2.21-.79-3.91.41-4.61Z"/><path class="cls-4" d="M34.73,53.85,34.17,53l.38-1.35-1.24.26-.69-.63c.93-.64,2.37-.53,2.65-2,1.55,2.25.68,3.93-.54,4.6Z"/><path class="cls-4" d="M39.52,51.91l-1,.1-.93-1-.39,1.27-.86.33c-.08-1.18.71-2.44-.41-3.43,2.63-.33,3.6,1.3,3.56,2.74Z"/><path class="cls-4" d="M40.42,46.51l-.42.92-1.31.3.82,1-.19.94c-1-.54-1.59-1.92-3-1.45,1.13-2.52,3-2.53,4.09-1.73Z"/><path class="cls-4" d="M30.71,50.44l.4-.93,1.31-.33-.84-1,.17-.94c1,.52,1.63,1.89,3,1.39-1.08,2.54-2.91,2.59-4.06,1.81Z"/><path class="cls-4" d="M31.52,55.22l1-.1.93,1,.4-1.27.86-.32c.08,1.18-.73,2.43.39,3.44-2.64.3-3.6-1.33-3.54-2.77Z"/><path class="cls-4" d="M36.36,53.21l.58.81-.35,1.37,1.24-.3.71.61c-.92.67-2.36.6-2.6,2.12-1.61-2.21-.79-3.92.42-4.61Z"/><path class="cls-4" d="M34.76,63.9l-.56-.83.38-1.35L33.33,62l-.69-.63c.94-.65,2.37-.54,2.65-2.05,1.56,2.26.69,3.94-.53,4.6Z"/><path class="cls-4" d="M39.54,62l-1,.11-.94-1-.39,1.27-.86.33c-.08-1.18.71-2.44-.4-3.44,2.63-.32,3.6,1.3,3.55,2.74Z"/><path class="cls-4" d="M40.45,56.57l-.42.92-1.31.3.81,1-.19.94c-1-.55-1.59-1.92-3-1.45,1.12-2.52,3-2.53,4.09-1.73Z"/><path class="cls-4" d="M30.73,60.49l.41-.92,1.3-.33-.84-1,.18-1c1,.53,1.62,1.9,3,1.39-1.08,2.55-2.9,2.59-4.06,1.81Z"/><path class="cls-3" d="M14.87,6.79,14.38,8l1,.84L14.1,9l-.2,1.3-.76-1.05L12,9.72l.49-1.22-1-.84,1.24-.16.21-1.3.76,1Z"/><path class="cls-3" d="M9.37,6.78,8.88,8l1,.84L8.6,9l-.21,1.3L7.63,9.25l-1.17.46L7,8.49,6,7.65l1.25-.16.2-1.3.76,1Z"/><path class="cls-4" d="M9.86,8.61l-.57-.84.39-1.35-1.25.26-.69-.63c.94-.64,2.37-.53,2.65-2,1.56,2.25.68,3.93-.53,4.6Z"/><path class="cls-4" d="M14.64,6.67l-1,.11-.93-1L12.35,7l-.86.33c-.08-1.18.71-2.44-.41-3.43,2.63-.33,3.61,1.3,3.56,2.74Z"/><path class="cls-3" d="M17.65,11.86l-.49,1.22,1,.84-1.24.16-.21,1.3-.76-1.05-1.17.46.49-1.22-1-.84,1.24-.16.21-1.3.76,1.05Z"/><path class="cls-3" d="M6.62,11.86l-.49,1.21,1,.84-1.25.16-.21,1.3-.75-1-1.18.46.49-1.21-1-.84,1.25-.16.21-1.3.75,1.05Z"/><path class="cls-4" d="M6.64,10l1-.1.92,1,.4-1.27.87-.32c.07,1.18-.73,2.43.38,3.44-2.64.3-3.6-1.33-3.54-2.77Z"/><path class="cls-4" d="M11.48,8l.58.81-.35,1.37L13,9.85l.71.61c-.92.67-2.36.6-2.6,2.12-1.61-2.21-.78-3.92.42-4.61Z"/><path class="cls-4" d="M9.88,18.66l-.56-.83.38-1.35-1.24.26-.7-.63c.94-.65,2.38-.53,2.65-2,1.56,2.26.69,3.94-.53,4.6Z"/><path class="cls-4" d="M14.66,16.72l-1,.11-.94-1-.39,1.27-.86.33c-.08-1.18.72-2.44-.4-3.43,2.63-.33,3.6,1.29,3.55,2.73Z"/><path class="cls-4" d="M15.57,11.33l-.42.92-1.31.3.82,1-.19.94c-1-.55-1.6-1.92-3-1.45,1.13-2.52,2.95-2.53,4.09-1.73Z"/><path class="cls-4" d="M5.85,15.26l.41-.93L7.56,14l-.83-1,.17-.95c1,.53,1.63,1.9,3,1.39C8.83,16,7,16,5.85,15.26Z"/><path class="cls-3" d="M25.91,6.8,25.42,8l1,.84L25.14,9l-.2,1.3-.76-1.05L23,9.73l.48-1.22-1-.84,1.24-.16L24,6.21l.76,1Z"/><path class="cls-3" d="M23.15,11.79,22.66,13l1,.84L22.39,14l-.21,1.3-.76-1.06-1.17.46.49-1.21-1-.84L21,12.5l.2-1.3L22,12.25Z"/><path class="cls-4" d="M14.9,4.92l1-.1.93,1,.4-1.27.86-.32c.08,1.18-.73,2.43.39,3.44-2.64.3-3.6-1.33-3.54-2.77Z"/><path class="cls-4" d="M19.74,2.91l.58.81L20,5.09l1.24-.3.71.61c-.92.67-2.36.6-2.6,2.12-1.61-2.21-.78-3.92.42-4.61Z"/><path class="cls-4" d="M18.14,13.6l-.56-.83L18,11.42l-1.25.26L16,11.05c.94-.65,2.37-.53,2.65-2.05,1.56,2.26.69,3.94-.53,4.6Z"/><path class="cls-4" d="M22.92,11.66l-1,.11-.94-1L20.63,12l-.86.33c-.08-1.18.72-2.44-.4-3.44,2.63-.32,3.6,1.3,3.55,2.74Z"/><path class="cls-4" d="M23.83,6.27l-.42.92-1.31.3.82,1-.19.94c-1-.55-1.6-1.92-3-1.45,1.12-2.52,3-2.53,4.09-1.73Z"/><path class="cls-4" d="M14.11,10.2l.41-.93,1.3-.33-.83-1,.17-1c1,.53,1.63,1.9,3,1.39-1.08,2.55-2.9,2.59-4.06,1.82Z"/><path class="cls-4" d="M14.92,15l1-.1.93,1,.4-1.27.86-.32c.07,1.17-.73,2.43.38,3.43-2.63.31-3.59-1.32-3.54-2.76Z"/><path class="cls-4" d="M19.76,13l.58.82L20,15.14l1.23-.29.71.6c-.92.68-2.36.61-2.6,2.13-1.61-2.21-.78-3.92.42-4.62Z"/><path class="cls-4" d="M18.16,23.66l-.56-.83L18,21.48l-1.24.26-.69-.63c.93-.65,2.37-.54,2.65-2.05,1.55,2.25.68,3.94-.54,4.6Z"/><path class="cls-4" d="M23,21.72l-1,.11-.93-1-.4,1.27-.86.32c-.08-1.17.72-2.43-.4-3.43C22,18.66,23,20.28,23,21.72Z"/><path class="cls-4" d="M23.85,16.33l-.42.91-1.31.31.82,1-.19.94c-1-.55-1.59-1.93-3-1.45,1.13-2.52,2.95-2.54,4.09-1.73Z"/><path class="cls-4" d="M14.14,20.25l.4-.92L15.85,19,15,18l.17-.95c1,.53,1.63,1.89,3,1.39C17.12,21,15.29,21,14.14,20.25Z"/><path class="cls-3" d="M31.42,6.81,30.93,8l1,.84L30.65,9l-.2,1.3-.76-1.05-1.18.46L29,8.52l-1-.83,1.24-.17.21-1.3.75,1.06Z"/><path class="cls-4" d="M26.4,8.63l-.56-.83.39-1.36L25,6.71l-.69-.63c.93-.65,2.37-.54,2.65-2,1.56,2.25.68,3.94-.54,4.6Z"/><path class="cls-4" d="M31.19,6.69l-1,.11-.93-1L28.9,7.05,28,7.38C28,6.21,28.75,4.94,27.63,4c2.63-.33,3.61,1.3,3.56,2.74Z"/><path class="cls-3" d="M34.2,11.88l-.49,1.22,1,.84-1.24.16-.21,1.3-.76-1.05-1.17.46.49-1.22-1-.84,1.24-.16.21-1.3L33,12.35Z"/><path class="cls-4" d="M23.19,10l1-.1.92,1,.4-1.27.87-.32c.07,1.18-.73,2.43.38,3.44-2.64.3-3.6-1.33-3.54-2.77Z"/><path class="cls-4" d="M28,8l.58.81-.35,1.37,1.24-.3.71.61c-.92.67-2.36.6-2.6,2.12C26,10.39,26.83,8.68,28,8Z"/><path class="cls-4" d="M26.43,18.68l-.56-.83.38-1.35L25,16.76l-.7-.63c.94-.65,2.37-.53,2.65-2,1.56,2.26.69,3.94-.53,4.6Z"/><path class="cls-4" d="M31.21,16.74l-1,.11-.94-1-.39,1.27-.86.33c-.08-1.18.72-2.44-.4-3.43,2.63-.33,3.6,1.29,3.55,2.73Z"/><path class="cls-4" d="M32.12,11.35l-.42.92-1.31.3.82,1-.19.94c-1-.55-1.6-1.92-3-1.45,1.12-2.52,2.95-2.53,4.09-1.73Z"/><path class="cls-4" d="M22.4,15.28l.41-.93,1.3-.33-.83-1,.17-.94c1,.52,1.63,1.89,3,1.38-1.08,2.55-2.9,2.6-4.06,1.82Z"/><path class="cls-3" d="M42.46,6.82,42,8l1,.84L41.69,9l-.2,1.3-.76-1.05-1.18.46L40,8.53l-1-.84,1.24-.16.21-1.3.76,1.06Z"/><path class="cls-3" d="M39.7,11.81,39.21,13l1,.83L38.94,14l-.21,1.3L38,14.27l-1.17.47.49-1.22-1-.84,1.24-.16.21-1.3.76,1Z"/><path class="cls-4" d="M31.45,4.94l1-.1.93,1,.4-1.27.86-.32c.08,1.18-.73,2.43.39,3.44-2.64.3-3.6-1.33-3.54-2.77Z"/><path class="cls-4" d="M36.29,2.93l.58.81-.35,1.37,1.24-.3.71.61c-.92.67-2.36.6-2.6,2.12-1.61-2.21-.78-3.92.42-4.61Z"/><path class="cls-4" d="M34.69,13.62l-.56-.83.38-1.35-1.25.26-.69-.63c.94-.65,2.37-.53,2.65-2.05,1.56,2.26.69,3.94-.53,4.6Z"/><path class="cls-4" d="M39.47,11.69l-1,.1-.94-1-.39,1.27-.86.33c-.08-1.18.71-2.44-.4-3.43,2.63-.33,3.6,1.29,3.55,2.74Z"/><path class="cls-4" d="M40.38,6.29,40,7.21l-1.31.3.82,1-.19.94c-1-.55-1.6-1.92-3-1.45,1.12-2.52,3-2.53,4.09-1.73Z"/><path class="cls-4" d="M30.66,10.22l.41-.93L32.37,9l-.84-1L31.71,7c1,.52,1.62,1.89,3,1.38-1.08,2.55-2.9,2.6-4.06,1.82Z"/><path class="cls-3" d="M42.48,16.88,42,18.1l1,.83-1.24.17-.21,1.3-.76-1.06-1.17.47.49-1.22-1-.84,1.25-.16.2-1.3.76,1.05Z"/><path class="cls-4" d="M31.47,15l1-.1.93,1,.4-1.27.86-.32c.07,1.17-.73,2.43.38,3.43-2.63.31-3.59-1.32-3.54-2.76Z"/><path class="cls-4" d="M36.31,13l.58.81-.35,1.36,1.24-.29.71.61c-.92.67-2.36.6-2.6,2.12-1.61-2.21-.78-3.92.42-4.61Z"/><path class="cls-4" d="M34.71,23.68l-.56-.83.38-1.35-1.24.26-.69-.63c.93-.65,2.37-.54,2.65-2.05,1.55,2.26.68,3.94-.54,4.6Z"/><path class="cls-4" d="M39.5,21.74l-1,.11-.93-1-.4,1.27-.86.32c-.08-1.17.72-2.43-.4-3.43,2.63-.32,3.6,1.3,3.56,2.74Z"/><path class="cls-4" d="M40.4,16.35l-.42.91-1.31.31.82,1-.19.94c-1-.55-1.59-1.93-3-1.45,1.13-2.52,2.95-2.54,4.09-1.73Z"/><path class="cls-4" d="M30.69,20.27l.4-.92L32.4,19l-.84-1,.17-.95c1,.53,1.63,1.89,3,1.39-1.08,2.54-2.9,2.59-4.05,1.81Z"/><path class="cls-4" d="M51.25,13.62l-.56-.83.38-1.35-1.24.26-.69-.63c.93-.65,2.37-.54,2.65-2.05,1.55,2.25.68,3.94-.54,4.6Z"/><path class="cls-4" d="M56,11.68l-1,.11-.93-1-.4,1.27-.86.32c-.08-1.17.72-2.43-.4-3.43,2.63-.32,3.6,1.3,3.56,2.74Z"/><path class="cls-4" d="M56.94,6.29l-.42.91-1.31.31.82,1-.19.94c-1-.54-1.59-1.92-3-1.44C54,5.5,55.8,5.48,56.94,6.29Z"/><path class="cls-4" d="M47.23,10.21l.4-.93L48.94,9,48.1,8l.17-1c1,.53,1.63,1.89,3,1.39-1.08,2.54-2.9,2.59-4.05,1.81Z"/><path class="cls-4" d="M43,8.66l-.56-.84.39-1.35-1.25.26-.69-.62c.93-.65,2.37-.54,2.65-2.05,1.55,2.25.68,3.94-.54,4.6Z"/><path class="cls-4" d="M47.81,6.72l-1,.11-.93-1-.39,1.27-.86.33C44.58,6.24,45.37,5,44.25,4c2.63-.33,3.61,1.3,3.56,2.74Z"/><path class="cls-4" d="M67.81,13.64l-.56-.84.38-1.35-1.25.26-.69-.63c.94-.64,2.37-.53,2.65-2,1.56,2.25.69,3.93-.53,4.6Z"/><path class="cls-4" d="M72.59,11.7l-1,.11-.94-1-.39,1.27-.86.33C69.36,11.22,70.15,10,69,9c2.63-.33,3.6,1.3,3.55,2.74Z"/><path class="cls-4" d="M63.78,10.23l.41-.93L65.49,9l-.84-1L64.83,7c1,.53,1.62,1.89,3,1.39C66.76,11,64.94,11,63.78,10.23Z"/><path class="cls-4" d="M48.05,4.9l1-.1.93,1,.4-1.27.86-.32c.08,1.18-.73,2.43.39,3.44C49,8,48,6.34,48.05,4.9Z"/><path class="cls-4" d="M52.89,2.89l.58.81-.35,1.37,1.24-.3.71.61c-.92.67-2.36.6-2.6,2.12-1.61-2.21-.79-3.92.42-4.61Z"/><path class="cls-4" d="M59.62,8.62l-.56-.84.38-1.35-1.24.26-.69-.62c.93-.65,2.37-.54,2.65-2.05,1.55,2.25.68,3.93-.54,4.6Z"/><path class="cls-4" d="M64.41,6.68l-1,.11-.93-1L62.12,7l-.86.33c-.09-1.17.71-2.44-.41-3.43,2.63-.33,3.6,1.3,3.56,2.74Z"/><path class="cls-4" d="M65.23,5.21l1-.1.93,1,.4-1.26.86-.32c.08,1.17-.73,2.43.39,3.43-2.64.31-3.6-1.32-3.54-2.76Z"/></g></g></svg>