<svg xmlns="http://www.w3.org/2000/svg" viewBox="0 0 79 123"><defs><style>.cls-1,.cls-6{fill:#fff;}.cls-1{stroke:#000;stroke-width:1.5px;}.cls-2{fill:none;stroke:#df0000;}.cls-3{fill:#df0000;}.cls-4{fill:maroon;}.cls-5{fill:green;}.cls-7{fill:#b3b3b3;}.cls-8{fill:red;}.cls-9{fill:#ff0;}.cls-10{fill:#e6e6e6;}.cls-11{fill:#333;}</style></defs><title>JH</title><g id="Layer_2" data-name="Layer 2"><g id="Layer_1-2" data-name="Layer 1"><path class="cls-1" d="M78.25,117.25a5,5,0,0,1-5,5H5.75a5,5,0,0,1-5-5V5.75a5,5,0,0,1,5-5h67.5a5,5,0,0,1,5,5Z"/><path class="cls-2" d="M4.75,14.25v.25s-.25,2.75,3,2.75,3-2.75,3-2.75v-9"/><path class="cls-2" d="M13,4.75H8.5"/><path class="cls-2" d="M74.25,108.75v-.25s.25-2.75-3-2.75-3,2.75-3,2.75v9"/><path class="cls-2" d="M66,118.25h4.5"/><path class="cls-3" d="M10.57,19.5A2.16,2.16,0,0,0,8.5,21.43,2.16,2.16,0,0,0,6.43,19.5,2.36,2.36,0,0,0,4,22c0,2.16,4.05,5.94,4.5,7.5C9,27.94,13,24.16,13,22A2.35,2.35,0,0,0,10.57,19.5Z"/><path class="cls-3" d="M68.43,103.5a2.16,2.16,0,0,0,2.07-1.93,2.16,2.16,0,0,0,2.07,1.93A2.36,2.36,0,0,0,75,101c0-2.16-4-5.94-4.5-7.5C70,95.06,66,98.84,66,101A2.35,2.35,0,0,0,68.43,103.5Z"/><path d="M64,103.82c-.09-.16-.25-.18-1.23-.15-1.58,0-19.22.06-20.19,0s-5.78,0-6.28,0a2.19,2.19,0,0,1-.67,0c-.06,0-14.61,0-15.35,0a1.13,1.13,0,0,1-.56-.06,29,29,0,0,0-3-.16c-1.62,0-3-.08-3.09-.11s-.16-.21-.15-.79a3,3,0,0,0-.08-.88c-.06-.08-.06-.14,0-.14a5.94,5.94,0,0,0-.08-2.21c-.09-.06-.09-.12,0-.26a9.41,9.41,0,0,0,.14-2.67,17.49,17.49,0,0,1,.1-2.64c.06-.09.06-.14,0-.14s-.1-.55-.08-1.76a9.55,9.55,0,0,0-.06-1.83.15.15,0,0,1,0-.18,46.89,46.89,0,0,0,0-5.31c-.06-.16-.05-.29,0-.33a10.85,10.85,0,0,0,.06-2.78,1.5,1.5,0,0,1,0-.64c.05,0,.05-.11,0-.18a7.46,7.46,0,0,1,0-1.4c0-.94,0-8.33,0-12.43a16.07,16.07,0,0,1,.11-2.2,2.3,2.3,0,0,0,0-.74,7.18,7.18,0,0,0,0-.75,18.68,18.68,0,0,1,0-2.06,4.16,4.16,0,0,0,0-1.07s-.06-.21,0-.47a6.94,6.94,0,0,0,.05-.91c0-.24,0-.86,0-1.37v-1.1c0-.7,0-2.09,0-4.35,0-1.45,0-2.86,0-3.13s0-2.77,0-5.56c0-5,0-7,0-9.42a7.84,7.84,0,0,1,0-1.24c.1.06.09-13.7,0-14s0-.3,0-.37S15.79,18,18.9,18c9.06,0,32.82,0,32.91.06s.09,0,.09-.06,0-.09.1-.06a36.55,36.55,0,0,0,4.57,0,.22.22,0,0,1,.28,0c0,.06.1.09.14.06A38.92,38.92,0,0,1,61.61,18a12.32,12.32,0,0,1,3.17.14,2.61,2.61,0,0,1,.1.85c0,1.42,0,5.32,0,10.12,0,2.69,0,5,0,5.17s0,.37,0,.49c0,1.41,0,4.82,0,4.87a.14.14,0,0,1,0,.14S64.78,44,64.75,49s-.07,12.1-.1,15.66-.06,8.28-.07,10.45c0,2.32,0,4-.11,4.1s-.06.14,0,.14.08,1.62.06,4.1c0,2.25,0,7.68-.07,12.07s-.07,8.09-.11,8.22Q64.22,104.21,64,103.82Z"/><path class="cls-4" d="M35.85,103a.51.51,0,0,1,.33,0q.12.09.12-.18a2.29,2.29,0,0,1,.71-1.19c.13-.13.22-.24.19-.25s.14-.26.83-1.09a3.2,3.2,0,0,0,.47-.66s.07-.08.15-.08.15,0,.15-.1a1.29,1.29,0,0,1,.06-.28c0-.12,0-.17-.13-.17s-.55.42-1.09,1.07-1.14,1.35-1.44,1.69-.6.72-.66.82-.16.17-.28.12-.16-.1-.06-.24.1-.16.06-.16,0-.09.12-.2.37-.46.62-.79.6-.74.78-.92a1.52,1.52,0,0,0,.32-.42,1.65,1.65,0,0,1,.37-.46c.24-.24.34-.43.3-.54s-.43-.12-.66.24c-.1.16-.43.56-.72.9s-.83,1-1.19,1.42-.73.89-.82,1a.59.59,0,0,0-.18.36c0,.16.08.19.48.16a2.18,2.18,0,0,1,.68,0c.1.05.21,0,.24,0a.42.42,0,0,1,.25-.12Z"/><path class="cls-4" d="M30,102.91c.2-.11,2.23-2.34,3.25-3.56.18-.21.14-.51-.07-.51a18.74,18.74,0,0,0-1.66,1.68c-.84.92-1.66,1.82-1.83,2s-.34.42-.23.54.25,0,.54-.14Z"/><path class="cls-4" d="M31.59,102.88a15.9,15.9,0,0,1,1.9-2.38,3.38,3.38,0,0,0,.51-.69.1.1,0,0,1,.1-.09,2.37,2.37,0,0,0,.7-.8s-.13-.07-.28-.06-.42.2-.78.65a2.6,2.6,0,0,1-.61.64.16.16,0,0,0-.13.16,4.24,4.24,0,0,1-.72.91c-.4.42-.82.89-.94,1a2.78,2.78,0,0,1-.44.46c-.29.23-.18.41.26.41.27,0,.36-.06.43-.25Z"/><path class="cls-4" d="M32.31,103c.14-.09.19-.08.19,0s0,.11.08,0,.17-.11.42,0,.36.09.9-.54c.69-.82,1.42-1.73,1.71-2.16.12-.18.38-.51.57-.73s.31-.46.28-.52-1.3,1.22-1.48,1.67c-.07.16-.18.3-.25.3a.12.12,0,0,0-.13.1c0,.11-.24.39-1,1.2-.29.3-.53.46-.62.42s-.07-.34.63-1.13a12.89,12.89,0,0,0,2-2.62,4.28,4.28,0,0,0-1,1l-1.75,2c-.9,1-1.09,1.38-.52,1Z"/><path class="cls-4" d="M37.4,103a.32.32,0,0,0,.1-.22,3.13,3.13,0,0,1,.63-.85c.34-.38.93-1.11,1.31-1.6a5.53,5.53,0,0,1,.78-.91c.1,0,.11-.33,0-.34L40,99a.4.4,0,0,0-.3,0c-.11.09-1.13,1.37-1.66,2.11-.2.27-.61.78-.92,1.13s-.5.63-.44.63.06,0,0,.11,0,.1.27.07a2,2,0,0,0,.53-.12Z"/><path class="cls-4" d="M39.24,103s.92-.93,1.93-2c1.5-1.67,1.78-2,1.59-2s-1,.82-1.5,1.54c-.12.18-.24.33-.28.33a11.28,11.28,0,0,0-1,1,4,4,0,0,1-1.11,1c-.14,0-.18,0-.14-.18a2.29,2.29,0,0,1,.73-.91,1.72,1.72,0,0,0,.5-.53,5.06,5.06,0,0,1,.69-.8,1.77,1.77,0,0,0,.48-.63.44.44,0,0,1,.26-.3.34.34,0,0,0,.2-.33c0-.21,0-.25-.22-.2s-.65.53-1.88,2c-.36.43-.86,1-1.13,1.28a1.86,1.86,0,0,0-.47.7c0,.17.08.19.62.16l.72-.06Z"/><path class="cls-4" d="M42.51,101a16.45,16.45,0,0,0,1.69-2c0-.1-.09-.16-.24-.16s-.48.26-1,.81a5.1,5.1,0,0,0-.76.92.18.18,0,0,1-.09.16,16,16,0,0,0-2,2.23c0,.08.65.12.68,0s.8-.92,1.73-1.95Z"/><path class="cls-4" d="M43.71,103c.12,0,.16-.08.13-.31s.08-.41.68-1C45.63,100.57,47,99.06,47,99a1.34,1.34,0,0,0-.31-.11c-.28-.07-.63.19-1.32,1-.11.14-.57.63-1,1.1-1.33,1.41-1.64,1.79-1.58,2s.15.15.42.1a3.58,3.58,0,0,1,.52-.07Z"/><path class="cls-4" d="M44.6,102.92a5.17,5.17,0,0,1,.55-.73,3.46,3.46,0,0,0,.55-.79.15.15,0,0,1,.15-.14c.08,0,.2-.1.27-.22s.17-.22.21-.22.37-.27,1-.91a.69.69,0,0,1,.29-.19s.15-.1.22-.22.18-.22.24-.22.14-.1.17-.22c.11-.46-.37-.24-1,.45-.34.37-.62.69-.62.71a14.44,14.44,0,0,1-1.51,1.6A5.52,5.52,0,0,0,44,103s.14.06.3,0,.3-.08.3-.12Z"/><path class="cls-4" d="M46,103a.19.19,0,0,0,.17-.18,1.19,1.19,0,0,1,.18-.46A19.35,19.35,0,0,1,48.62,100a2.06,2.06,0,0,0,.48-.51.79.79,0,0,1,.28-.35c.28-.25.26-.44-.05-.32a3.63,3.63,0,0,0-.7.58c-.74.76-1,1-1.13,1a7.5,7.5,0,0,0-.89.88,10.75,10.75,0,0,1-.89.89,1.32,1.32,0,0,0-.49.79c0,.08.18.13.33.12l.47,0Z"/><path class="cls-4" d="M48.55,101.17c.44-.44.85-.84.92-.88a1,1,0,0,0,.22-.38c.23-.65-.12-.35-2.35,2.08-.61.66-.79.93-.71,1s.25,0,.62-.46.86-.94,1.3-1.38Z"/><path class="cls-4" d="M48.35,103a6.33,6.33,0,0,0,1.72-1.73c.13-.22.13-.26,0-.41a.56.56,0,0,0-.29-.17,14.29,14.29,0,0,0-2.21,2.12c-.16.28-.19.27.78.19Z"/><path class="cls-4" d="M50.33,102.92a1.31,1.31,0,0,0,.12-.55c0-.39,0-.45-.18-.45s-1,.75-1,1,.05.2.47.14a1.53,1.53,0,0,0,.56-.17Z"/><path class="cls-4" d="M55.6,103s.06-.08.13-.07c.29,0,.57,0,.57-.12s-.09-.11-.2-.11-.2,0-.2-.11-.08-.11-.17-.11a1.29,1.29,0,0,1-.47-.17c-.16-.09-.31-.14-.34-.11s-.11,0-.19-.11-.49-.21-.58,0,.17,1,.34,1A2.4,2.4,0,0,0,55.6,103Z"/><path class="cls-4" d="M25.39,102.77c.05-.13.05-.26,0-.28s-.05-.11,0-.21,0-.17-.49-.1c-.7.09-.88.16-.88.36a.15.15,0,0,1-.15.15c-.18,0-.2.18,0,.26a3.92,3.92,0,0,0,.81.06C25.24,103,25.31,103,25.39,102.77Z"/><path class="cls-4" d="M42.39,102.55c.14-.19.9-1,1.68-1.91A14.33,14.33,0,0,0,45.43,99c-.21-.24-.72.24-3.09,2.9a8.57,8.57,0,0,0-.84,1c0,.23.65-.06.89-.4Z"/><path class="cls-4" d="M61.27,102.62a1.92,1.92,0,0,0,.33-.51s0-.06.1,0,.1,0,.1-.06.06-.22.82-1.1a4.9,4.9,0,0,0,.58-.73,3,3,0,0,1,.36-.56,1.32,1.32,0,0,0,.36-.89c0-.62,0-.63-.2-.35a10.87,10.87,0,0,1-.81,1A14.59,14.59,0,0,0,60.4,103s.12,0,.27,0,.38-.13.6-.4Z"/><path class="cls-4" d="M62.46,102.79a1.08,1.08,0,0,0,.39-.43,3.17,3.17,0,0,1,.56-.78c.27-.31.47-.6.44-.65a.12.12,0,0,1,0-.16c.12-.09.13-.72,0-.72s-.29.24-1,1.16l-.78,1c-.45.59-.46.68-.06.76A1.4,1.4,0,0,0,62.46,102.79Z"/><path class="cls-4" d="M63.88,102.76c.09-.1.1-.26,0-.56l-.08-.43-.27.36a1.32,1.32,0,0,0-.27.56.3.3,0,0,1-.13.26c-.06,0,0,0,.23,0a1,1,0,0,0,.48-.19Z"/><path class="cls-4" d="M15.86,102.17a22.76,22.76,0,0,1,1.8-2A7.28,7.28,0,0,0,18.61,99c.18-.37-.13-.2-.57.3-.23.27-.78.83-1.21,1.26-1.94,1.91-2.26,2.32-1.79,2.32.17,0,.41-.22.82-.74Z"/><path class="cls-4" d="M17.6,102.59c.19-.17.32-.35.28-.4s-.64.37-.72.58S17.24,102.93,17.6,102.59Z"/><path class="cls-4" d="M17.36,101.78C19.38,99.69,20,99,20,98.85s-.39-.08-1.38,1c-.56.59-1.23,1.3-1.5,1.57a2.21,2.21,0,0,0-.47.58,1.63,1.63,0,0,1-.38.46c-.37.36-.37.36-.11.37s.51-.25,1.25-1Z"/><path class="cls-4" d="M14.46,102.32c.14-.15.43-.42.63-.62a28,28,0,0,0,2.31-2.54s.07-.06.15,0,.15,0,.15-.1-.1-.19-.22-.23-.37.1-1,.84l-1.62,1.87a12.21,12.21,0,0,0-.85,1c0,.13.21,0,.46-.21Z"/><path class="cls-4" d="M29.75,101.91a1.34,1.34,0,0,1,.37-.44,12.63,12.63,0,0,0,1.48-1.62,1,1,0,0,1,.27-.3c.35-.31.26-.66-.15-.55a.63.63,0,0,0-.35.23,21.31,21.31,0,0,1-1.74,1.93c-.32.3-.45.57-.37.79a.27.27,0,0,0,.49,0Z"/><path class="cls-4" d="M18.14,101.86c0-.09,0-.16,0-.16s-.1.07-.1.16,0,.17,0,.17S18.1,102,18.14,101.86Z"/><path class="cls-4" d="M60.94,101.18A16.94,16.94,0,0,1,63,98.66c.28-.33.37-.59.24-.72s-.44,0-.44.13a4.23,4.23,0,0,1-.6.75,4,4,0,0,0-.6.77.23.23,0,0,1-.15.17.24.24,0,0,0-.15.18,1.08,1.08,0,0,1-.3.41,1.69,1.69,0,0,0-.6,1.25V102l.24-.29a1.47,1.47,0,0,0,.3-.48Z"/><path class="cls-4" d="M19.1,101.31a7.59,7.59,0,0,0,2-2.38c0-.34-.24-.22-.72.32-.25.29-.77.85-1.16,1.24a4.14,4.14,0,0,0-.72.84.23.23,0,0,1-.13.19c-.06,0,0,0,.18,0a2.58,2.58,0,0,0,.55-.2Z"/><path class="cls-4" d="M14.73,100.92a5.11,5.11,0,0,0,.67-.67c.08-.12.37-.47.64-.78.44-.49.48-.57.31-.63s-.55,0-.55.1a5.15,5.15,0,0,1-1,1.15,2.36,2.36,0,0,0-.8,1.14c0,.24.19.16.73-.31Z"/><path class="cls-4" d="M21.57,100.92c.53-.31,1.64-1.6,1.57-1.8s-.19-.21-.77.41c-.29.32-.72.76-.95,1-.63.62-.55.83.15.4Z"/><path class="cls-4" d="M20.74,100.7c0-.06,0-.1.11-.1a.28.28,0,0,0,.22-.19.6.6,0,0,1,.2-.28.34.34,0,0,0,.13-.25c0-.09,0-.16.08-.16a1.53,1.53,0,0,0,.62-.64.22.22,0,0,1,.13-.17c.08,0,.07-.06,0-.06a2.15,2.15,0,0,0-.69.54l-.82.8c-.34.29-.4.75-.09.66C20.71,100.82,20.77,100.75,20.74,100.7Z"/><path class="cls-5" d="M24.36,100.77c.1-.09.15-.16.1-.17s0-.06,0-.14-.08-.88-.23-.76c-.41.3-.61,1.23-.26,1.23a.73.73,0,0,0,.38-.16Z"/><path class="cls-4" d="M29.86,100.46a6.64,6.64,0,0,0,1-1.44s-.11-.07-.25-.07-.25.06-.25.14a2.13,2.13,0,0,1-.5.63c-.37.36-.5.56-.5.79s0,.31.05.31A2,2,0,0,0,29.86,100.46Z"/><path class="cls-4" d="M58,100.73c.09-.07.12-.27.09-.66s0-.57.11-.57.13,0,0-.13A.6.6,0,0,1,58.1,99a1,1,0,0,0-.1-.39c-.08-.13-.2-.05-.67.47-.63.68-.87.82-.54.31A1.24,1.24,0,0,0,57,99c0-.07,0-.12.1-.12s.1-.07.1-.16,0-.17.1-.17a1.18,1.18,0,0,0,.5-.49s-.09-.06-.2-.06-.2,0-.2.09a4.5,4.5,0,0,1-.58.79c-.4.47-.61.65-.66.56s0-.22.08-.33a.63.63,0,0,0,.16-.28,1,1,0,0,1,.26-.35c.27-.28.25-.48-.06-.48s-1.24,1-1.31,1.33,0,.32.06.28a.15.15,0,0,1,.19.1c.07.21.26.21.26,0s.05-.17.11-.17.08.09.05.2.32.67.51.6.13.06.16.18.15.23.38.26c.61.08.84.08,1,0Z"/><path class="cls-4" d="M60.53,100.35c.07-.07.38-.48.7-.91s.69-.89.82-1A1,1,0,0,0,62.3,98c0-.24-.5-.13-.78.17a6.46,6.46,0,0,0-1.25,2c-.05.35.06.44.26.2Z"/><path class="cls-4" d="M14.26,99.88c0-.09.1-.16.14-.16a2.21,2.21,0,0,0,.73-.8c0-.14,0-.19-.13-.19s-1,.85-1,1.12.18.27.26,0Z"/><path class="cls-6" d="M23.25,95.87c-.1,0-.21-.23-.32-.66a1.61,1.61,0,0,0-.25-.66s-.08-.08-.08-.19a4.4,4.4,0,0,0-.4-1.24.69.69,0,0,1-.09-.27.46.46,0,0,0-.12-.29c-.06,0-.07-.15,0-.25s0-.18,0-.18-.12-.2-.16-.44-.11-.44-.16-.44-.1-.07-.1-.16-.05-.17-.11-.17-.09-.06-.06-.14a.45.45,0,0,0-.09-.35c-.07-.11-.11-.24-.08-.29a1.11,1.11,0,0,0-.2-.51,4.55,4.55,0,0,1-.36-1.08,3.59,3.59,0,0,0-.52-1.47,1,1,0,0,1-.18-.51c0-.33-.16-.38-1.44-.5s-1.3-.14-2.24-1.19c-.37-.42-1-1-1.35-1.37-.66-.62-.67-.62-.76-.37S14,84.46,14,92.94c0,5.45-.06,5.18.73,5,.22,0,.42,0,.45,0a1.54,1.54,0,0,0,.53.07l2.05,0a11.72,11.72,0,0,0,1.64,0s.1,0,.16,0a12.14,12.14,0,0,0,1.54.1c.79,0,1.47,0,1.51.07a1.6,1.6,0,0,0,.57,0l.5-.07,0-.4c0-.34,0-.4.15-.36s.07,0-.06-.07a.73.73,0,0,1-.28-.39c0-.14-.11-.26-.18-.26s-.06,0,0-.09.1-.12,0-.23-.13-.19-.1-.24a.14.14,0,0,1,.09-.08"/><path class="cls-7" d="M23.32,96h.07a.3.3,0,0,1,.14.05.38.38,0,0,1,.11.11c.08.12.33.18.93.2a2,2,0,0,1,1,.18c.18.17.18.07,0,2.3l-.07.7.35-.06a.82.82,0,0,1,.49,0c.18.13.2.12.74,0s.54-.23.35-.37-.12-.27.05-.27.19-.16,0-.35S27.28,98,27.4,98s.26.39.35.73.33.41.51.2.12-.16.07-.16-.09-.09-.1-.19c0-.59,0-2.07,0-2.89.11-2,.18-3.72.18-4.4a8.64,8.64,0,0,0-.4-2.31,1.28,1.28,0,0,1-.07-.26.63.63,0,0,0-.18-.23.47.47,0,0,1-.18-.26.12.12,0,0,0-.11-.13s-.08,0,0-.1a.29.29,0,0,0-.07-.25,2.28,2.28,0,0,1-.4-.89s-.05-.11-.13-.15a.31.31,0,0,1-.15-.26C26.7,86,26.47,86,25,86s-1.61.08-1.3.77c.2.43.2.53,0,.53s-.15,0-.15.1.08.09.17.08.33.43.36,1a.64.64,0,0,0,.14.37.75.75,0,0,1,.13.42,1.68,1.68,0,0,0,.25.68,1.59,1.59,0,0,1,.25.6,1.13,1.13,0,0,0,.15.45,4.15,4.15,0,0,1,.3,1,3,3,0,0,0,.23.81c.13.1.23.38.36,1a1.07,1.07,0,0,0,.19.46,2.59,2.59,0,0,1,.37,1.11c0,.1.05.19.11.19s.09.11.05.27,0,.26.08.21.17,0,.22.25a1.93,1.93,0,0,0,.22.58c.11.19.12.29,0,.32s-.12.14-.12.27c0,.47-.2,0-.24-.57s-.16-.93-.16-.52c0,.11-.05.16-.11.12s-.08-.1-.05-.13,0-.18-.09-.33a.49.49,0,0,1-.1-.36c0-.06,0-.14-.1-.18s-.15-.16-.11-.38a.51.51,0,0,0,0-.38c-.06,0-.1,0-.1.13,0,.34-.13,0-.17-.37A.78.78,0,0,0,25.7,94c-.06,0-.1-.15-.1-.3s-.05-.27-.11-.29a1,1,0,0,1-.16-.5c0-.26-.09-.44-.13-.42s-.1-.19-.14-.49-.11-.55-.16-.55-.1-.1-.1-.22,0-.22-.09-.22-.11-.23-.15-.51a1.81,1.81,0,0,0-.19-.69,3.11,3.11,0,0,1-.43-1.32.13.13,0,0,0,0-.18.35.35,0,0,1-.08-.31c0-.13,0-.22-.09-.21s-.33-.54-.36-1a.33.33,0,0,0-.14-.28.16.16,0,0,1-.07-.21c.12-.35-.19-.39-2.35-.3-.3,0-.33,0-.26.26a5.77,5.77,0,0,1,.1.62.8.8,0,0,0,.17.46c.07,0,.1.1.06.1s0,.16,0,.36.17.65.26,1a2.23,2.23,0,0,0,.27.77.89.89,0,0,1,.14.39.67.67,0,0,0,.17.4.52.52,0,0,1,.15.36,1.12,1.12,0,0,0,.09.42,6.9,6.9,0,0,1,.41,1.14.59.59,0,0,0,.15.28.45.45,0,0,1,.1.38c0,.12,0,.21,0,.21s.11.12.11.27,0,.28.08.3a6.2,6.2,0,0,1,.52,1.78.39.39,0,0,1,0,.21.1.1,0,0,1-.05.06"/><path d="M27.25,97.6c0-.11-.05-.23,0-.27s.18,0,.13.26,0,.2-.12,0Z"/><path class="cls-4" d="M29.6,99.28a1,1,0,0,0,.18-.34,1.44,1.44,0,0,0-.86,0c-.1.09-.08.17.09.37S29.34,99.68,29.6,99.28Z"/><path class="cls-5" d="M54,99.28c0-.12.09-.19.13-.16s.21-.17.06-.34-.56-.22-.56,0a.13.13,0,0,1-.14.11c-.2,0-.29.18-.21.44s.65.31.72,0Z"/><path class="cls-5" d="M25.15,98.67a5.58,5.58,0,0,0,.11-1.1v-.66l-.44,0a2.34,2.34,0,0,0-.68,0c-.22.06-.23.07-.08.46a1,1,0,0,1,.1.48.12.12,0,0,0,.05.16.32.32,0,0,1,.1.22c0,.29.42,1,.58.92s.21-.23.27-.48Z"/><path class="cls-4" d="M55.26,98.63a1.26,1.26,0,0,0,.21-.53c0-.06-.26-.11-.52-.12s-.47,0-.52.15a.26.26,0,0,0,0,.25,2,2,0,0,1,.27.38,1.35,1.35,0,0,0,.22.3A1.88,1.88,0,0,0,55.26,98.63Z"/><path class="cls-4" d="M60.7,98.6c.46-.61.46-.81,0-.77s-.64.23-.55.78c0,.25.1.45.14.45a2.06,2.06,0,0,0,.41-.46Z"/><path class="cls-6" d="M32.3,98.33c.11,0,1.63,0,2.8,0l.72-.06c.35,0,.6,0,.64,0s.25.08.5,0,.44,0,.44,0a2.9,2.9,0,0,0,.92.06l4.18-.09,3.4-.07c.37,0,2.59,0,3,0a2.14,2.14,0,0,0,.67-.14c.38-.18.27-.48-.49-1.32A6.31,6.31,0,0,1,48.4,96a8,8,0,0,0-1.49-1.47.16.16,0,0,1-.13-.11c0-.07-.13-.13-.25-.14s-.21,0-.2-.08a2.32,2.32,0,0,0-.62-.71,3,3,0,0,1-.91-1,1.55,1.55,0,0,0-.3-.39,1,1,0,0,1-.3-.49.51.51,0,0,0-.15-.3,2.54,2.54,0,0,1-.51-1.19,3,3,0,0,0-.17-.62A6.25,6.25,0,0,1,43.06,88c-.05-.48-.19-.58-.64-.43a10.58,10.58,0,0,1-3,0c-.53-.2-.9-.4-.9-.48s-.06-.06-.14,0S37,86,37,85.71c0-.1,0-.18-.09-.18a2.59,2.59,0,0,1-.36-.82,3.19,3.19,0,0,1-.23-1.37c0-.35,0-.57-.06-.6s-.07-.09,0-.19a.54.54,0,0,0,.13-.29,3.28,3.28,0,0,1,.39-.77,2.5,2.5,0,0,1,1-1c.59-.35.72-.66.41-.94a.26.26,0,0,1-.1-.23s0-.14-.15-.21-.18-.16-.15-.21,0-.15-.1-.23a4.24,4.24,0,0,1-.37-1.93c0-1.19.1-1.12-2-1.09l-4.2,0-2.42,0-.38.73a19.84,19.84,0,0,0-1,2.16c-.41,1-.4,1.19,0,1.06a3.72,3.72,0,0,1,2.38.58,3,3,0,0,0,.62.29.4.4,0,0,1,.22.16c.07.09.16.14.21.11s.23,0,.41.11a1.4,1.4,0,0,0,.5.17.27.27,0,0,1,.24.16c0,.1.26.19.55.24a1.2,1.2,0,0,1,.54.16c.07.11-.27.47-1.1,1.15a11.75,11.75,0,0,0-1,1,3.85,3.85,0,0,1-.73.69.85.85,0,0,0-.33.25,3.51,3.51,0,0,1-2.5,1.09c-.15,0-.27,0-.27.09a.1.1,0,0,0,.1.11c.05,0,.1.1.1.22s.05.22.11.22.09.07.06.16a.18.18,0,0,0,.09.22c.08,0,.13.1.09.16a.14.14,0,0,0,.05.18.12.12,0,0,1,0,.17.23.23,0,0,0,.09.24,2.8,2.8,0,0,1,.57,1.11,2.12,2.12,0,0,0,.17.52,2.71,2.71,0,0,1,.21.6,14.86,14.86,0,0,1,.09,2.91c-.05.51-.09,2-.1,3.25l0,2.31.3,0a10.28,10.28,0,0,1,2.15.07,2,2,0,0,0,1.1-.06Z"/><path class="cls-7" d="M51.62,97.66a1.05,1.05,0,0,0,.28-.44c0-.27.15-.14.17.15s.15.51.46.38.25-.17.21-.27a.2.2,0,0,1,0-.22c.06,0,0-.29-.08-.65s-.24-.87-.31-1.24a6.12,6.12,0,0,0-.21-.93A5.19,5.19,0,0,1,52,93.5a.34.34,0,0,0-.06-.16,6.09,6.09,0,0,1-.18-1,4.07,4.07,0,0,0-.23-1.06.27.27,0,0,1-.05-.25.66.66,0,0,0-.09-.4A1.76,1.76,0,0,1,51.2,90a5.92,5.92,0,0,0-.41-1.59,3.34,3.34,0,0,1-.13-.78,3.28,3.28,0,0,0-.08-.66,3.76,3.76,0,0,1-.17-.65,6.79,6.79,0,0,0-.19-.71.76.76,0,0,1,0-.29,1.46,1.46,0,0,0-.18-.53,1,1,0,0,1-.15-.54c.12-.35-.17-.26-.67.2a7.66,7.66,0,0,1-1.36.94l-.84.44.07.52a1.82,1.82,0,0,0,.25.73.72.72,0,0,1,.19.35.46.46,0,0,0,.15.27c.09.08.13.16.11.19s.06.25.2.48a2.19,2.19,0,0,1,.24.54.11.11,0,0,0,.1.11c.06,0,.1.1.1.22s0,.22.09.22.13.11.16.25a1.91,1.91,0,0,0,.37.85s.08.08.08.17a.27.27,0,0,0,.15.23.29.29,0,0,1,.15.26.63.63,0,0,0,.13.35,2,2,0,0,1,.38.94.11.11,0,0,0,.11.14c.12,0,.42.61.93,1.88a4.27,4.27,0,0,0,.31.66,5.27,5.27,0,0,1,.33.83c.18.52.2.73.12.88s-.11.19-.17,0-.13-.25-.21-.25-.11,0-.08-.11,0-.11,0-.11-.11-.1-.11-.22a.8.8,0,0,0-.17-.42c-.26-.29-.46-.75-.39-.89s0-.12-.08-.12-.16-.09-.16-.21a2,2,0,0,0-.11-.53c-.06-.17-.1-.33-.11-.36a.58.58,0,0,0-.11-.2,4,4,0,0,1-.43-.82c0-.1-.11-.19-.16-.19s-.08-.07,0-.17,0-.16,0-.16-.17-.19-.27-.41a1.53,1.53,0,0,0-.29-.47.18.18,0,0,1-.07-.19c0-.08,0-.14-.08-.14s-.1-.07-.1-.16a.2.2,0,0,0-.12-.19.33.33,0,0,1-.14-.21,2.64,2.64,0,0,0-.41-1A.49.49,0,0,1,47.7,89c0-.14,0-.28-.09-.3a.31.31,0,0,1-.13-.19.94.94,0,0,0-.2-.36.74.74,0,0,1-.18-.42c0-.12-.05-.22-.11-.22s-.08-.05,0-.1,0-.12,0-.14a2.44,2.44,0,0,1-.36-.65L46.29,86l-.83,0a5.56,5.56,0,0,0-1.07,0,2.36,2.36,0,0,0-.84,1.06.23.23,0,0,1-.07.14.78.78,0,0,0,0,.43,5.64,5.64,0,0,1,.13.67c.11.88.18,1.16.26,1.16s.09.09.09.21a8.23,8.23,0,0,0,1,2.13.65.65,0,0,1,.19.29,7.72,7.72,0,0,0,1.29,1.44,1.39,1.39,0,0,1,.36.33c.16.18.34.33.41.33a2.92,2.92,0,0,1,.73.63l.73.76c.07.07.26.29.42.49s.26.41.17.56-.08.19.11.17.24,0,.29.25.08.23.08.16.08,0,.16.11.15.18.15.14.19,0,.43.19c.54.35.75.35,1.09,0Z"/><path class="cls-6" d="M56.35,97.47l1.32,0c.28,0,.33,0,.39-.39a2.46,2.46,0,0,0,0-1.16S58,95.79,58,95.7s0-.14.1-.1.1,0,.1-.1a.35.35,0,0,0-.1-.24.14.14,0,0,1,0-.19,2,2,0,0,0,0-.68c0-.31,0-1,0-1.63s0-1.07-.11-1.07-.07,0,0-.1a.18.18,0,0,0,0-.25,11.1,11.1,0,0,1-.11-1.85c0-.94,0-1.7,0-1.7s0-.57,0-1.27-.06-1.53-.09-1.85-.09-1.38-.12-2.36c-.09-3.24-.08-3.12-.35-3.42a1.35,1.35,0,0,0-.54-.35,1,1,0,0,1-.35-.15,1.29,1.29,0,0,0-.69-.34.32.32,0,0,1-.26-.11,1.09,1.09,0,0,0-.5-.23c-.25-.07-.42-.17-.39-.22s0-.1-.13-.1-.54-.4-.5-.69a6.08,6.08,0,0,1,.35-1,6,6,0,0,0,.32-.84,6.83,6.83,0,0,1,.31-.84c.41-1,.45-1.25.2-1.33a.42.42,0,0,1-.26-.26c0-.12-.13-.21-.21-.21a.23.23,0,0,1-.2-.16c0-.09-.1-.14-.14-.11s-.22-.1-.38-.28a1.32,1.32,0,0,0-.4-.33,1.42,1.42,0,0,1-.43-.33,2.14,2.14,0,0,0-.4-.33,12.91,12.91,0,0,1-1.29-1.26,1.13,1.13,0,0,0-.32-.28,1,1,0,0,1-.32-.25c-.39-.4-.55-.52-.65-.52s-.15-.1-.21-.22-.17-.22-.25-.22a.15.15,0,0,1-.15-.14c0-.15-.8-.88-.88-.8a1.41,1.41,0,0,0,.29.83c.05,0,.09.08.09.17a.27.27,0,0,0,.15.23.27.27,0,0,1,.15.22c0,.08,0,.15.1.15a.12.12,0,0,1,.1.13,6.8,6.8,0,0,0,1,1.6.85.85,0,0,1,.23.34,1.91,1.91,0,0,0,.35.53,2.12,2.12,0,0,1,.35.51.1.1,0,0,0,.1.08c.16,0,.6.55.61.76a.64.64,0,0,1-.24.67,1.11,1.11,0,0,1-.27.17,8.24,8.24,0,0,0-1.38.63c-.28.18-.32.27-.33.67,0,.25,0,.93,0,1.5s0,1.14,0,1.27a3.38,3.38,0,0,1-.13,1.21,2.07,2.07,0,0,0,0,1.16,5.62,5.62,0,0,1,.18,1,5.32,5.32,0,0,0,.16.88,3.41,3.41,0,0,1,.11.77,4.12,4.12,0,0,0,.11.82c.06.25.13.52.14.61s.12.59.23,1.1a8.33,8.33,0,0,1,.21,1.23.61.61,0,0,0,.1.37.13.13,0,0,1,.05.17s0,.1,0,.1.12.21.16.47.19,1,.35,1.62a25.06,25.06,0,0,1,.57,2.58,4.26,4.26,0,0,0,.26,1.13,3.44,3.44,0,0,1,.22,1c.11,1.09.27,1.3.92,1.25s.79.18.69.61a12.61,12.61,0,0,0-.25,1.8v.31l.72-.07c.4,0,1.18-.08,1.73-.1Z"/><path class="cls-5" d="M53.42,97.2a.43.43,0,0,1,.06-.27,2.34,2.34,0,0,0,.15-.72c.07-.64,0-.89-.34-.89s-.38.3-.3.7a3.84,3.84,0,0,1,0,.78,1.7,1.7,0,0,0,0,.53C53.15,97.47,53.45,97.36,53.42,97.2Z"/><path class="cls-6" d="M63.1,97.25l.61,0c.19,0,.23-.77.25-5,0-2.51,0-4.56,0-4.56s0-4.13,0-9.16c0-6.58,0-9.16-.07-9.16s-.08.16,0,.47,0,.41,0,.31-.1,0-.14.33a21.09,21.09,0,0,1-.32,2.14c-.48,2.48-.47,2.44-.75,2.91a5,5,0,0,0-.35.83,7.46,7.46,0,0,1-.46,1c-.15.27-.42.74-.58,1a9.68,9.68,0,0,1-1.51,1.85c-.19.18-.21.26-.14.77,0,.31.08,1,.09,1.45s0,1.47.09,2.2.09,2.35.12,3.63c.1,4.21.15,7.13.14,8s0,.85.27.91l.38.1a20.11,20.11,0,0,0,2.35-.1Z"/><path class="cls-8" d="M41.36,87.06a.29.29,0,0,1,.25-.1c.1,0,.19,0,.19-.11a.12.12,0,0,1,.12-.11c.24,0,.79-.75,1-1.32a3.25,3.25,0,0,0,0-2.15.67.67,0,0,1-.16-.37.56.56,0,0,0-.15-.34.4.4,0,0,1-.14-.2c0-.22,0-.34-.2-.4a.47.47,0,0,1-.24-.29.44.44,0,0,0-.26-.29c-.12,0-.19-.09-.16-.14s-.52-.64-.88-.75a4.73,4.73,0,0,0-3.14.74c-.3.26-.38.4-.73,1.23-.16.38,0,2.19.2,2.19,0,0,.1.09.12.19a3.12,3.12,0,0,1,.07.31.37.37,0,0,0,.1.16s.18.26.34.52a1.14,1.14,0,0,0,.52.53c.14,0,.22.12.19.18s0,.09.12.07a1,1,0,0,1,.59.23,2,2,0,0,0,1.1.31c.38,0,.71.07.73.08s.42-.07.48-.17Z"/><path d="M39,85.91a2.7,2.7,0,0,1-1.35-1.83c0-.11,0-.2-.08-.2s-.08-.18-.1-.4c0-.4.35-1.47.52-1.47s.16-.09.25-.2a3.2,3.2,0,0,1,1.56-.58c.33,0,1.15.22,1.15.35s.11.11.25.14a.3.3,0,0,1,.25.29c0,.12.07.22.15.22s.15.12.15.38,0,.39.11.39.1.28.07.91a2.1,2.1,0,0,1-.28,1.26,2,2,0,0,1-2.65.74Z"/><path class="cls-9" d="M40.4,85.61s.08-.08.17-.08.32-.18.49-.39a1.86,1.86,0,0,0,.34-1.63,1.33,1.33,0,0,1-.08-.38c0-.17-.17-.51-.56-.94s-.45-.45-.86-.45a2.59,2.59,0,0,0-1.68.7c-.2.24-.23.38-.21,1a1.86,1.86,0,0,0,.18,1,2.64,2.64,0,0,1,.53.76,4.48,4.48,0,0,0,1.45.5c.13,0,.23,0,.23-.09Z"/><path d="M39.22,83.82c-.11-.25-.09-.33.09-.61s.24-.32.29-.32a.82.82,0,0,0,.22-.06c.08,0,.24,0,.37.16a.49.49,0,0,1,.16.55c-.08.41-.21.51-.66.55-.3,0-.37,0-.47-.27Z"/><path class="cls-9" d="M43.4,86.43a3.12,3.12,0,0,0,.66-2.25A3.27,3.27,0,0,0,44,83.11c-.05,0-.09-.08-.09-.17a5.22,5.22,0,0,0-.52-1.53c-.07-.09-.22-.29-.33-.45a2.58,2.58,0,0,0-2-1.41c-.67-.08-1.19,0-1.23.31s0,.19.22.15a2.29,2.29,0,0,1,1.45.33,7,7,0,0,0,.89.77c.17.14.32.31.32.37a1.57,1.57,0,0,0,.22.46,3.17,3.17,0,0,1,.24.4,1.9,1.9,0,0,0,.27.79A3.92,3.92,0,0,1,43.51,85c-.06,0-.11.1-.11.23a4,4,0,0,1-.71,1.48c-.11.13-.16.27-.12.31s.51-.2.83-.57Z"/><path class="cls-8" d="M21.15,85.52a18.44,18.44,0,0,1,3-.11,5.85,5.85,0,0,0,2-.16.24.24,0,0,0-.13-.43c-.26-.06-1.78-.16-3.68-.23-3.31-.13-3.59-.15-3.79-.29a.32.32,0,0,1-.15-.42,1.85,1.85,0,0,0,.06-.39c0-.62,0-2.24,0-2.38a.64.64,0,0,1,.18-.37c.14-.16.33-.17,1.47-.11,4.83.26,5.68.27,5.9.07.4-.37-.14-.43-3.78-.46a6.07,6.07,0,0,1-1.3-.1A5.87,5.87,0,0,0,19.74,80a4,4,0,0,1-1-.1,1.84,1.84,0,0,0-1.21-.08,7.32,7.32,0,0,0,0,1.39c0,.7,0,1.57,0,1.93s0,1-.05,1.43v.77h.27c.16,0,.28,0,.28.07a2.71,2.71,0,0,0,.87.09c.48,0,.88,0,.89,0a4.68,4.68,0,0,0,1.39,0Z"/><path class="cls-8" d="M28.44,85.21a7.64,7.64,0,0,0,1.83-1.41c.27-.29.77-.76,1.11-1,.57-.48.74-.76.54-.89s-.83-.2-.8-.11-.38.79-.92,1.17a6.1,6.1,0,0,0-.75.63.64.64,0,0,1-.28.22,2.37,2.37,0,0,0-.55.24c-1.11.59-2.14.06-2.07-1.07,0-.18,0-.46,0-.62s.55-1.08.74-1.08a1.77,1.77,0,0,0,.41-.15c.6-.3,1-.4,1.11-.3a1.31,1.31,0,0,0,.51.18,1.49,1.49,0,0,1,.53.19c.1.09.16.08.21,0s.1-.1.14,0,.11.17.17.17.06-.08,0-.22-.19-.2-.3-.16-.18,0-.18,0a2,2,0,0,0-.85-.52,1.34,1.34,0,0,1-.3-.09c-.67-.29-.75-.31-1.28-.18a1.46,1.46,0,0,0-.74.36,2.42,2.42,0,0,0-.53,1,.22.22,0,0,1-.11.2c-.24.09,0,2.29.21,2.29.06,0,.1.07.1.14a.89.89,0,0,0,.19.38c.11.12.17.26.14.29s0,.07.09.07A.26.26,0,0,1,27,85c0,.1.1.15.15.11s.2,0,.35.09a.84.84,0,0,0,.9,0Z"/><path class="cls-9" d="M46.88,85.21c0-.07.14-.09.26-.06a.38.38,0,0,0,.4-.12c.09-.09.16-.15.16-.11s.7-.35,1.11-.82.66-1,.49-1.15a1.52,1.52,0,0,0-.58.33,9.58,9.58,0,0,1-2.34,1.3c-.05,0-.15,0-.23.07s-.18.11-.22.08a2.15,2.15,0,0,0-.68.08c-.51.11-.6.17-.63.39l0,.25,1.13-.06c.7,0,1.15-.1,1.17-.18Z"/><path class="cls-9" d="M16.86,84.18c-.08-.05-.08-.11,0-.16s.16-1.13,0-1.18a3.81,3.81,0,0,0-1.42-.08c-.3.09-.47.35-.23.35.07,0,.19.1.26.22s.16.22.22.22a1.38,1.38,0,0,1,.6.64c0,.07.11.16.25.19s.25.13.26.2,0,0,.08-.09,0-.26,0-.31Z"/><path class="cls-8" d="M46.45,84c1.21-.44,2.45-1.33,2.45-1.76a.49.49,0,0,1,.15-.27.24.24,0,0,0,.09-.24.31.31,0,0,1,.08-.28c.11-.15.11-.17,0-.09s-.13,0-.06-.11A1.8,1.8,0,0,0,49,80a3.2,3.2,0,0,0-1.75-.93,2.7,2.7,0,0,1-.65-.15.12.12,0,0,0-.18,0c0,.06-.18.11-.33.11a1.34,1.34,0,0,0-.6.22,1.35,1.35,0,0,1-.45.22.79.79,0,0,0-.34.26,2.37,2.37,0,0,1-.67.45c-.38.16-.45.23-.44.45s.39.51.46.28c0-.06.14-.12.27-.12a.39.39,0,0,0,.29-.1,5.43,5.43,0,0,1,1.86-.61c.87-.12,1.19-.13,1.13,0s0,.08.13.06.64.36.64.61-.25.74-.77,1.17a3.27,3.27,0,0,1-.63.44.1.1,0,0,0-.1.1c0,.16-.58.45-1.44.71-.69.21-.81.29-.89.55-.13.45,0,.62.67.61A5,5,0,0,0,46.45,84Z"/><path class="cls-9" d="M25.6,84c.08-.1.09-.16,0-.16s-.09-.07-.06-.16,0-.17,0-.17a2.83,2.83,0,0,1,0-1.48.41.41,0,0,0-.08-.6,12.7,12.7,0,0,0-2-.17l-3.06-.12-1.23-.07-.1.29a.64.64,0,0,0,0,.49.36.36,0,0,1,0,.3s0,0,.15-.11c.32-.3.57-.2.61.24s-.21.7-.56.61c-.17-.05-.22,0-.23.14s0,.34,0,.51,0,.33.09.36.88.07,1.8.09a13.88,13.88,0,0,1,1.72.08,8.89,8.89,0,0,0,1.49.08c1.17,0,1.46,0,1.56-.15Z"/><path d="M24.14,83.07c-.08-.24.15-.95.31-.95s.37.41.23.74S24.23,83.32,24.14,83.07Z"/><path d="M21.5,82.79c-.13-.29.26-.83.52-.72a.41.41,0,0,1,.06.71C21.79,83.05,21.63,83.05,21.5,82.79Z"/><path d="M22.89,82.82c-.09-.12-.09-.22,0-.43.18-.36.46-.35.54,0S23.14,83.16,22.89,82.82Z"/><path d="M20.3,82.67c-.13-.27.06-.8.3-.85s.5.66.38.9A.4.4,0,0,1,20.3,82.67Z"/><path class="cls-9" d="M28.65,83.52a2.47,2.47,0,0,0,.45-.29,2.18,2.18,0,0,1,.31-.21c.42-.24,1.05-.9.86-.9A.17.17,0,0,1,30.1,82c0-.14-.26-.3-.77-.45a2.73,2.73,0,0,0-1.61.11,1.51,1.51,0,0,0-.68.86,1.42,1.42,0,0,1-.09.3.41.41,0,0,0,.1.36c.09.1.13.18.08.18s.05.13.21.27c.34.3.64.28,1.31-.08Z"/><path class="cls-9" d="M45.6,82.66l.72-.37c.32-.15.58-.33.58-.39a.12.12,0,0,1,.12-.11,2.16,2.16,0,0,0,.78-1c0-.18-.23-.24-1-.25a4.1,4.1,0,0,0-2.11.51l-.54.3.06.64a3.88,3.88,0,0,0,.12.76,2,2,0,0,0,1.24-.14Z"/><path class="cls-6" d="M14.32,82.12a22.27,22.27,0,0,1,2-2.2,1,1,0,0,0,.26-.29,4.32,4.32,0,0,1,.34-.45c.17-.19.18-.42.09-2a8.85,8.85,0,0,0-.3-2.64c-.05,0-.05-.08,0-.19a.72.72,0,0,0,.05-.41c0-.13-.05-.72-.06-1.32,0-1.14-.09-1.44-.32-1.34-.07,0-.21,0-.31-.16a.57.57,0,0,0-.3-.21.42.42,0,0,1-.26-.14,3.53,3.53,0,0,0-.6-.4A1.31,1.31,0,0,1,14.4,70s-.07-.09-.15-.09-.15.1-.15.25,0,2.81,0,6,0,5.8,0,5.92.21.27.27.09Z"/><path class="cls-9" d="M16.93,82c.09-.05,0-.69-.07-.89s0-.13,0-.13.05-.41-.1-.59-.77.36-1.28.93c-.67.77-.59.91.53.81a5,5,0,0,0,.88-.13Z"/><path d="M31,81.57a.13.13,0,0,0-.14-.11.2.2,0,0,1-.19-.14c0-.08-.06-.07-.06.05s.11.28.32.3C31,81.68,31,81.63,31,81.57Z"/><path class="cls-9" d="M43.46,80a.26.26,0,0,1,.21-.16,3.3,3.3,0,0,0,1.13-.92c0-.1-.81-.07-.95,0a.37.37,0,0,1-.15.08,1.27,1.27,0,0,0-.36.07c-.62.14-.8.72-.3.94.3.14.36.13.42,0Z"/><path class="cls-8" d="M24.09,79.64c.05,0,.16,0,.25-.15a.43.43,0,0,0,.08-.46.64.64,0,0,1,0-.43,15.53,15.53,0,0,0,.34-2.53c.05-.79,0-1.25-.15-1.16s-.2,0-.35-.07c-.34-.17-.55,0-.6.64a21.32,21.32,0,0,0-.09,4.24s.14,0,.25,0a.32.32,0,0,1,.28-.06Z"/><path class="cls-5" d="M26.57,79.37c.12-.21.27-.44.33-.52a.56.56,0,0,0,.1-.27,4.19,4.19,0,0,1,.31-.81,7.2,7.2,0,0,0,.35-.92.89.89,0,0,1,.18-.39.73.73,0,0,0,.17-.69,6,6,0,0,0-1.26-.33c-1.38-.26-1.45-.23-1.45.6a1.93,1.93,0,0,1-.1.69,14,14,0,0,0-.34,2.45l-.06.64.77,0c.76,0,.78,0,1-.42Z"/><path class="cls-5" d="M22.73,79.58c.2-.1.25-.21.25-.56a1.66,1.66,0,0,1,.06-.5s0-.15-.05-.26-.06-.21,0-.21a2.09,2.09,0,0,0,.06-.83c0-.49,0-.82.07-.82s.09-.22.09-.48a1.76,1.76,0,0,1,0-.6c0-.07,0-.13-.06-.13s-.09,0,0-.08a.42.42,0,0,0,0-.56,1.16,1.16,0,0,0-.45-.16,1.46,1.46,0,0,1-.45-.15.64.64,0,0,0-.23-.1,4.33,4.33,0,0,1-1-.39,3,3,0,0,0-.72-.21.36.36,0,0,1-.28-.11.17.17,0,0,0-.2,0c-.12,0-.14.36-.1,1.89A20,20,0,0,0,20,79.13c.11.46.13.48.43.43a11.54,11.54,0,0,1,2,.12,1,1,0,0,0,.26-.1Z"/><path class="cls-8" d="M40.09,79.14c.71-.23.81-.38.7-1,0-.31-.15-1-.21-1.56l-.12-1-1.23,0a4.46,4.46,0,0,0-1.36.14A5.33,5.33,0,0,0,38,78.23a.27.27,0,0,1,.09.3c0,.1,0,.18.05.18a.12.12,0,0,1,.11.13,1.36,1.36,0,0,0,.37.49l.37.35.36-.2a4.37,4.37,0,0,1,.79-.34Z"/><path class="cls-7" d="M60.21,79.23c.07-.13.32-.53.56-.89a6.78,6.78,0,0,0,.56-.93,1.77,1.77,0,0,1,.24-.44.56.56,0,0,0,.13-.31,5.76,5.76,0,0,1,.36-1,8.34,8.34,0,0,0,.44-1.23c0-.21.15-.67.24-1,.2-.79.21-1.06,0-.87a.45.45,0,0,1-.28.13c-.16,0-.19-.49-.06-1a4.44,4.44,0,0,0,.1-.83c0-.32.07-.82.1-1.12.14-1.08.14-1.16,0-1.16s-.07,0,0-.15a1.07,1.07,0,0,0,.12-.47c0-.47.2-1.25.29-1.19s.37-.46.39-1a3,3,0,0,1,.07-.69c.09-.16-.13-.09-.26.08-.27.35-.35,0-.36-1.63,0-.86,0-2-.09-2.63-.07-1,0-1.85.25-1.85s.22.37.15.57.18.79.27.69a1.66,1.66,0,0,0,0-.57c0-.29-.06-1-.1-1.49,0-.72-.09-1-.2-1a.16.16,0,0,0-.14.17c0,.12-.07.16-.23.14s-.22-.08-.21-.14a1.84,1.84,0,0,0-.07-.43,4.87,4.87,0,0,1-.13-.72c-.19-1.48-.27-2.22-.32-2.64A2.8,2.8,0,0,0,62,53a1.58,1.58,0,0,1-.09-.53c0-.19,0-.34-.08-.34s-.06-.88.1-1.06.48-.11.5.59a12.22,12.22,0,0,0,.34,2.73c0,.12.09.59.14,1s.14,1,.19,1.21c.09.37.1.35.09-.22a18.32,18.32,0,0,0-.3-3.16.88.88,0,0,1-.07-.44,1.25,1.25,0,0,0-.09-.55,1.39,1.39,0,0,1-.12-.55,5.17,5.17,0,0,0-.41-1.62.53.53,0,0,1-.09-.3c0-.11-.05-.2-.1-.2s-.09-.06-.08-.12a.16.16,0,0,0-.1-.18.08.08,0,0,0-.12.07c0,.07-.09.12-.21.12s-.18-.05-.14-.1-.1-.36-.5-.83A2.81,2.81,0,0,1,60.5,48a1.57,1.57,0,0,0-.21-.38,1.94,1.94,0,0,1-.18-.41,2.88,2.88,0,0,0-.46-.74c-.37-.43-.52-.8-.38-1s1,.83,1,1.07c0,.08,0,.15.1.15s.1.07.1.17,0,.16.09.16.12.15.16.33.11.33.17.33.07-.69-.07-.79a.33.33,0,0,1-.11-.2c0-.06,0-.16,0-.22a.1.1,0,0,0-.14-.08c-.06,0-.11,0-.09-.12a.85.85,0,0,0-.23-.43,1.08,1.08,0,0,1-.25-.51c0-.23-.64-1-.74-.87s-.06,0-.06-.06a5.49,5.49,0,0,0-.94-1.52,5.05,5.05,0,0,1-.47-.61c-.1-.14-.2-.22-.24-.18s.05.53.21.53.14.09.14.2a.89.89,0,0,0,.19.43c.11.12.18.25.15.28s.06.18.2.34c.3.32.32.46.1.55s-.63-.26-.64-.5-.16-.35-.37-.26-.13.1,0,.32.41.95.23.95-.11-.07-.11-.16-.05-.17-.11-.17-.08.09,0,.21,0,.22-.21.26-.34,0-.58-.29a3.18,3.18,0,0,1-.43-.62,3.58,3.58,0,0,0-.73-1.07,1.12,1.12,0,0,1-.26-.4c0-.36-.05-.41-.14-.34s-.1,0-.1,0a.77.77,0,0,0-.25-.36.76.76,0,0,1-.25-.38c0-.08-.05-.15-.1-.15s-.1-.09-.1-.21.4-.56.71-.56a.27.27,0,0,0,.26-.22c0-.12.08-.22.12-.22a1.07,1.07,0,0,0,.25-.17c.2-.16.2-.16,0-.31a.81.81,0,0,0-.5-.13,10.63,10.63,0,0,0-2.49,1.51,3.17,3.17,0,0,1-.4.31,12.41,12.41,0,0,0-1.59,1.19c-.32.33-.34.5-.09.7a27.2,27.2,0,0,1,2.18,2.15c.46.49.86.85.89.8s-.14-.68-.25-.61-.1,0-.1-.1a1,1,0,0,0-.24-.45,1.15,1.15,0,0,1-.28-.45c0-.1-.08-.18-.13-.18a2.65,2.65,0,0,1-.85-1c0-.07-.1-.15-.22-.19s-.21-.07,0-.29l.18-.22.35.38a1.59,1.59,0,0,0,.44.39c.05,0,.06.05,0,.11s0,.08.07.05.18.09.27.33.18.39.24.39.18.1.25.22.16.22.22.22,0-.32-.14-.51a2.28,2.28,0,0,1-.46-.68,1,1,0,0,0-.2-.35c-.11-.14-.18-.28-.15-.33s-.07-.13-.2-.2-.24-.13-.08-.35a1.79,1.79,0,0,1,.2-.22,2.07,2.07,0,0,1,.25.69s.09.08.23.08.25.06.25.12a2.47,2.47,0,0,0,.4.65,2.69,2.69,0,0,1,.4.63,1.07,1.07,0,0,0,.25.4,1.25,1.25,0,0,1,.25.39.45.45,0,0,0,.15.23.31.31,0,0,1,.11.3.17.17,0,0,0,.09.21c.18.08.2.47,0,.49h-.3c-.11,0-.17,0-.17.21s-.05.22-.15.18c-.25-.1-.48,0-.34.21a.27.27,0,0,1,0,.27c0,.06,0,.11,0,.11s.11.07.11.17,0,.16.1.16.1.07.1.16a.3.3,0,0,0,.2.23c.11,0,.2.11.2.16s.47.88.53.82.07.07.11.22.11.28.16.28.1.08.1.18a.74.74,0,0,0,.17.39c.15.19.15.21,0,.37s-.16.15,0,.09.5.15.42.29a.12.12,0,0,0,0,.16.53.53,0,0,1,.1.34c0,.15,0,.27.1.27s.1.1.1.21a.43.43,0,0,0,.1.29,1.85,1.85,0,0,1,.36,1c0,.08,0,.14,0,.14s.4.66.47,1.07c0,.2.1.36.15.36a1.29,1.29,0,0,1,.15.58,5.26,5.26,0,0,0,.17.84,24.23,24.23,0,0,1,.3,2.87,1.63,1.63,0,0,0,.25.68.92.92,0,0,1,.19.51,25,25,0,0,0,0,2.94c0,.12,0,.34,0,.49s0,.55,0,.88c0,1-.12,1.43-.35,1.43s-.15-.12-.1-.66,0-.64-.09-.51a1.2,1.2,0,0,0-.17.56,1,1,0,0,1-.1.46A.11.11,0,0,0,58,66a.12.12,0,0,1-.05.16c-.15.11-.12.8,0,.86s.12.21.06.7-.1,1-.12,1.42-.07.86-.1,1l-.11.66c-.11.69-.16.82-.33.82s-.15-.28,0-1.84c0-.35,0-.58,0-.58a4,4,0,0,0-.53,1.24c0,.05-.2.6-.44,1.22a16.16,16.16,0,0,0-.56,1.62,2.43,2.43,0,0,1-.25.65,2.68,2.68,0,0,0-.36,1.26c.08.06.17-.12.72-1.42a5.26,5.26,0,0,1,.45-.91.54.54,0,0,0,.14-.31c0-.19.32-.3.63-.21s.24.11.17.37a2.73,2.73,0,0,1-.2.55,2.4,2.4,0,0,0-.15.48.73.73,0,0,1-.12.29,4.23,4.23,0,0,0-.35.78c-.56,1.54-.62,1.65-.84,1.65s-.2-.05-.16-.28,0-.3-.17-.35-.2-.12-.17-.21c.09-.24-.07-.17-.27.13a1.89,1.89,0,0,0-.23.67c0,.32,0,.4.16.45s.2.1.2.15.07.06.15,0,.15,0,.15.05.17.17.37.25a1.91,1.91,0,0,1,.54.28,1.81,1.81,0,0,0,.49.28,3.08,3.08,0,0,1,.68.38,1.36,1.36,0,0,0,.52.26.27.27,0,0,1,.24.17.22.22,0,0,0,.18.16.74.74,0,0,1,.34.23,1.76,1.76,0,0,0,1.16.42.37.37,0,0,0,.39-.24Z"/><path d="M60,77.8a2.83,2.83,0,0,1,.32-.69,5.81,5.81,0,0,0,.82-1.55c.42-.93.77-1.51.94-1.55s.26.29.1.5a4.56,4.56,0,0,0-.38.73,5.43,5.43,0,0,1-.4.83c-.09.15-.32.6-.51,1-.46,1-.69,1.32-.91,1.32s-.17,0,0-.58Z"/><path d="M59.07,78.1c-.07-.09,0-.36.23-.71a1.42,1.42,0,0,0,.2-.39,9.29,9.29,0,0,1,.7-1.37,8.56,8.56,0,0,0,.41-.88c.41-.94.65-1.24.75-.94a6.29,6.29,0,0,1-.77,1.93,2,2,0,0,0-.23.49A3.42,3.42,0,0,1,60,77a1.61,1.61,0,0,0-.3.5c-.08.28-.5.74-.59.65Z"/><path d="M58.4,77.64a3.39,3.39,0,0,1,.32-.86l.51-1.07a1,1,0,0,1,.27-.41s.11-.15.15-.33.1-.33.14-.33.13-.19.2-.41c.17-.54.29-.69.52-.69s.19,0,.19,0a17.6,17.6,0,0,1-1,2.1.39.39,0,0,0-.11.29c0,.11,0,.21-.09.21s-.14.14-.2.3c-.34,1-.91,1.68-.91,1.16Z"/><path d="M57.65,77.37a5.92,5.92,0,0,1,.46-1.3,2.56,2.56,0,0,0,.29-.52,1.31,1.31,0,0,1,.29-.47,2.6,2.6,0,0,0,.3-.66c.13-.36.28-.66.34-.66s.06-.08,0-.17,0-.2.21-.28a.75.75,0,0,1,.27-.08l.15.22c.11.17.09.23-.17.5a1.75,1.75,0,0,0-.37.58,1.5,1.5,0,0,1-.2.44,5.44,5.44,0,0,0-.45.82,6.14,6.14,0,0,1-1,1.7c-.14.09-.16.08-.13-.12Z"/><path d="M57,77.1a1.69,1.69,0,0,1,.32-.85A14.22,14.22,0,0,0,58,74.69c.53-1.25.67-1.52.84-1.67.38-.34.43,0,.1.66a5,5,0,0,1-.28.52,3.23,3.23,0,0,0-.25.6,2.45,2.45,0,0,1-.32.7,1.11,1.11,0,0,0-.19.41c0,.15-.11.27-.16.27s-.08.07,0,.16,0,.17,0,.17-.14.13-.21.28c-.19.39-.46.54-.54.31Z"/><path d="M56.1,76.89a16.54,16.54,0,0,1,1.11-2.53.12.12,0,0,0,0-.15s0-.16.1-.23.13-.17.1-.22,0-.15.1-.22a.47.47,0,0,0,.15-.26,1,1,0,0,1,.2-.4l.2-.27v.3a3.57,3.57,0,0,1-.48,1.35A5.62,5.62,0,0,0,57,75.92c0,.08,0,.14-.06.12a.11.11,0,0,0-.13.11.58.58,0,0,1-.12.27.46.46,0,0,0-.13.27.23.23,0,0,1-.16.19c-.2.09-.34.09-.34,0Z"/><path d="M61.5,72.19c0-.28.18-2.07.26-2.54a3.18,3.18,0,0,0,0-1.39c-.05,0-.07,0,0-.1a2.67,2.67,0,0,0,.07-.63c0-.7.07-.92.25-.92s.14.17.15.69a26.06,26.06,0,0,1-.05,3.11c0,.36-.09.9-.12,1.21,0,.49-.23.82-.46.82C61.54,72.44,61.5,72.33,61.5,72.19Z"/><path d="M60.65,72.22a5.56,5.56,0,0,1,.05-1.28,7.14,7.14,0,0,0,.06-1.22.18.18,0,0,1,0-.19,4.07,4.07,0,0,0,.15-1c.07-1.1.17-1.56.36-1.63s.14,0-.14,4.44a4.51,4.51,0,0,1-.11.85c-.08.21-.3.25-.4.08Z"/><path d="M58.12,72c-.09-.07-.1-.17,0-.37a3,3,0,0,0,.08-.81,4.92,4.92,0,0,1,.12-1,8.64,8.64,0,0,0,.16-1.43c0-1.11.11-1.45.32-1.36s.14.29.12,1.2a7.06,7.06,0,0,0,0,1.21.78.78,0,0,1,0,.4,3.66,3.66,0,0,0-.09.75,4.16,4.16,0,0,1-.53,1.53L58.12,72Z"/><path d="M59.89,72A4.67,4.67,0,0,1,60,70.91a.12.12,0,0,0,0-.16,8.11,8.11,0,0,1,.18-2.22,8.21,8.21,0,0,0,.11-1c0-.57.09-.77.25-.77s.14.23.09,1.57A12.93,12.93,0,0,1,60.18,72c-.12.15-.27.19-.29.06Z"/><path d="M59,71.64a8.46,8.46,0,0,1,.07-1.78,2.8,2.8,0,0,1,.12-.66,4.33,4.33,0,0,0,.08-.91c0-.38,0-.69.09-.69s.06-.11,0-.23c-.06-.27.17-.6.33-.48s.09.26.06.53-.08.88-.11,1.39a13.32,13.32,0,0,1-.3,2.78C59.27,71.81,59,71.84,59,71.64Z"/><path d="M59.18,65.75s0-1.44,0-3.1c0-2.88,0-3.3.27-3.3s.17.68.17,2-.06,4.11-.09,4.31-.31.21-.33.11Z"/><path d="M62.15,65.73c-.06-.11-.13-2.17-.18-5.23,0-1.31,0-1.7.23-1.7a10.58,10.58,0,0,1,.3,2.91c0,.67,0,1.72,0,2.35a5,5,0,0,1-.06,1.18.5.5,0,0,0-.09.33c0,.28-.14.36-.25.16Z"/><path d="M61.15,65.42a7.15,7.15,0,0,1,0-.91c0-.33,0-.9,0-1.28a2.18,2.18,0,0,1,0-.74,3.81,3.81,0,0,0,0-1c0-.5,0-1.18,0-1.49s-.05-.58-.1-.58-.06-.11,0-.25.17-.25.27-.25.19.11.21.5c.07,1,.06,5.67,0,6s-.24.38-.32,0Z"/><path d="M60.2,62.62c0-1.53,0-2.9,0-3s.18-.48.32-.39a40.84,40.84,0,0,1,.06,5.91c0,.16-.14.3-.22.3s-.15-.41-.16-2.78Z"/><path d="M58.92,58a5,5,0,0,1-.1-.69,8.85,8.85,0,0,0-.34-1.88,1.09,1.09,0,0,1-.14-.49A5,5,0,0,0,58.1,54c-.22-.51-.31-1.61-.14-1.67s.14,0,.17.16.15.47.26.8a3.62,3.62,0,0,1,.21.8c0,.1,0,.19.08.19a1.42,1.42,0,0,1,.2.57c.15.69.34,1,.3.45,0-.2,0-.36-.09-.36s-.06-.06-.06-.14a2.46,2.46,0,0,0-.27-1.1c-.08-.06-.07-.11,0-.18s.1-.14,0-.38a.83.83,0,0,1-.1-.62c.08-.4.15-.41.39-.06.1.15.23.25.28.21s0-.13,0-.23-.09-.19.06-.31.36-.12.36.12,0,.16.1.16.1.12.1.27.16.47.25.37a2.25,2.25,0,0,0-.06-.56,1.15,1.15,0,0,1,0-.75c.14-.25.31-.22.34.07,0,.12.11.59.22,1a6,6,0,0,1,.19,1c0,.13.09.88.21,1.68.26,1.79.26,1.78,0,1.71a.25.25,0,0,1-.2-.21.15.15,0,0,0-.14-.15c-.1,0-.13.11-.12.38a.7.7,0,0,1-.1.51c-.08.07-.15.1-.15.06s0-.12,0-.17c0-.22-.18-.28-.29-.11s-.62.19-.61-.1c0-.13,0-.24-.08-.24s-.1.41,0,.49,0,.38-.16.58-.21.18-.32-.38Z"/><path d="M60.1,56.54C60,56.12,60,56,59.88,56a.41.41,0,0,0,0,.37,2.37,2.37,0,0,1,.08.33.37.37,0,0,0,.08.15.61.61,0,0,1,.09.32c0,.12,0,.16.06.09A3.22,3.22,0,0,0,60.1,56.54Z"/><path d="M59.4,56.62c0-.16,0-.16-.1,0s-.13.36,0,.27A.34.34,0,0,0,59.4,56.62Z"/><path d="M60.8,56.63a.75.75,0,0,0-.1-.25c-.08-.13-.1-.12-.1.08s0,.25.1.25A.1.1,0,0,0,60.8,56.63Z"/><path d="M59.93,55.49c-.09-.35-.22-.35-.21,0s.05.3.13.27A.24.24,0,0,0,59.93,55.49Z"/><path d="M60.58,54.89a2,2,0,0,0-.1-.71,1,1,0,0,1-.13-.44,1.11,1.11,0,0,0-.17-.51c-.16-.11,0,1.5.18,1.8a1,1,0,0,1,.14.41c0,.09,0,.17,0,.17a2.55,2.55,0,0,0,0-.72Z"/><path d="M59.82,54.65c0-.17-.07-.24-.1-.16s0,.46.11.46S59.85,54.81,59.82,54.65Z"/><path d="M59.6,54.17c0-.24,0-.42-.09-.38a.27.27,0,0,0-.06.25,2.58,2.58,0,0,1,0,.39C59.51,54.82,59.6,54.6,59.6,54.17Z"/><path d="M59.47,53.19c-.12-.34-.21-.41-.31-.23s0,.13.09.16a.27.27,0,0,1,.15.23c0,.09,0,.17.09.17S59.53,53.37,59.47,53.19Z"/><path d="M61.77,57.48a1.17,1.17,0,0,1,0-.49c0-.1,0-.17,0-.17s-.11-.06-.1-.14a15.86,15.86,0,0,0-.26-2.31,2.5,2.5,0,0,1-.07-.74s0-.06-.06-.13a1.47,1.47,0,0,1-.12-.7,1.49,1.49,0,0,0-.11-.67c-.17-.19-.07-1,.13-1s.19,0,.53,2.17a12.15,12.15,0,0,0,.27,1.32,6.91,6.91,0,0,1,.14,1.22c0,.51.06,1.09.09,1.28.1.66-.27,1-.38.37Z"/><path d="M57.45,51.42a.17.17,0,0,1,0-.18s-.07-.15-.23-.26a1.1,1.1,0,0,1-.37-.45,4.1,4.1,0,0,0-.43-.8,4.37,4.37,0,0,1-.71-1.54.46.46,0,0,0-.15-.28c-.19-.18-.19-.44,0-.44a.16.16,0,0,1,.15.16c0,.1,0,.17.1.17s.1.06.1.14a.48.48,0,0,0,.2.28c.12.07.18.18.15.24s0,.11,0,.11.11.07.11.15a.62.62,0,0,0,.2.34.7.7,0,0,1,.2.29,2.13,2.13,0,0,0,.25.5,1.67,1.67,0,0,1,.25.55.76.76,0,0,0,.2.39.93.93,0,0,1,.2.5c0,.26-.14.34-.25.13Z"/><path d="M58.1,50.81a.72.72,0,0,1-.22-.43.71.71,0,0,0-.21-.39,3.44,3.44,0,0,1-.41-.65c-.09-.21-.26-.53-.36-.71a7.33,7.33,0,0,1-.34-.69c-.08-.2-.21-.36-.28-.36s-.1,0,0-.1.1-.11,0-.17-.13-.39,0-.39.18.1.21.22.09.19.14.16.09,0,.09.11,0,.25.51.83l.31.39-.06-.33a1.06,1.06,0,0,0-.28-.51c-.11-.11-.17-.24-.14-.29s0-.17-.15-.25-.25-.44,0-.44a.18.18,0,0,0,.15-.19c0-.11.09,0,.19.21a3.15,3.15,0,0,0,.35.59A2.72,2.72,0,0,1,58,48a1.16,1.16,0,0,0,.29.43.29.29,0,0,1,.14.2,2.17,2.17,0,0,0,.24.52,2.55,2.55,0,0,1,.31.7,1,1,0,0,0,.21.43c.16.15.19.43,0,.43a1.83,1.83,0,0,1-.7-.78c0-.16-.26-.43-.34-.35s-.06-.08-.06-.26c0-.41-.29-.74-.5-.58s-.12.13.07.29a1.3,1.3,0,0,1,.28.55c0,.2.1.36.14.36a2.37,2.37,0,0,1,.41,1c0,.25-.11.22-.4-.11Z"/><path d="M59.78,50.15A.21.21,0,0,0,59.9,50c0-.05-.06-.07-.14,0s-.79-.8-.7-1,0-.1-.1-.1a.18.18,0,0,1-.16-.19,2.26,2.26,0,0,0-.61-1.3,2.33,2.33,0,0,1-.52-.78l-.24-.58.21-.2a1.77,1.77,0,0,1,.5-.34c.34-.16.52,0,.61.43,0,.18.12.32.2.32s.16.12.19.28.13.27.21.27.19.16.18.52c0,.08.08.14.18.14s.19.05.19.11a4.89,4.89,0,0,0,.48.89,4.13,4.13,0,0,1,.45.85.9.9,0,0,0,.08.27.41.41,0,0,1,0,.36c-.07.15-.11.14-.27-.06a1,1,0,0,1-.2-.47c0-.13-.07-.23-.13-.22a4.51,4.51,0,0,1-.92-1.4,4.28,4.28,0,0,0-1.07-1.32c-.15,0-.17.18,0,.28s.1.16.1.28.07.21.15.21.15.1.15.23,0,.19.11.15.07,0,0,.17-.08.22,0,.17.41.18.41.36a.22.22,0,0,0,.16.17.19.19,0,0,1,.11.23.41.41,0,0,0,.13.34,1.48,1.48,0,0,1,.35,1,.2.2,0,0,1-.18.1c-.09,0-.09,0,0-.06Z"/><path d="M55.53,45.44c0-.14,0-.18-.07-.13s-.46-.25-.46-.45a.24.24,0,0,0-.15-.18.27.27,0,0,1-.15-.23.17.17,0,0,0-.15-.17.18.18,0,0,1-.15-.19,1.44,1.44,0,0,0-.35-.6A1.78,1.78,0,0,1,53.7,43a1.54,1.54,0,0,0-.35-.48c-.39-.43-.43-.59-.16-.68s.53,0,.45.17,0,.13.1.17a.28.28,0,0,1,.16.26c0,.27.16.38.24.16s0-.49-.18-.49-.16-.12-.22-.27-.09-.3,0-.39.55,0,.55.25a.87.87,0,0,0,.3.41,1.32,1.32,0,0,1,.3.34,1.72,1.72,0,0,0,.3.43,6.1,6.1,0,0,1,.61,1,4.36,4.36,0,0,0,.46.75c.11.1.12.18,0,.35s-.45.2-.61-.18c-.08-.2-.14-.24-.18-.15s0,.19,0,.22.16.65,0,.74-.1,0-.06-.11Z"/><path d="M55.3,44.06a.33.33,0,0,0-.15-.29.42.42,0,0,1-.2-.27c0-.12-.13-.21-.21-.21s-.14-.11-.14-.27-.06-.28-.16-.28-.14,0,0,.15.08.18,0,.21.21.41.36.41.09.08.06.17a.18.18,0,0,0,.09.23.27.27,0,0,1,.15.22c0,.08,0,.15.1.15S55.3,44.18,55.3,44.06Z"/><path class="cls-8" d="M19.33,78.59a32,32,0,0,0-.13-3.29,6.84,6.84,0,0,1,0-1.13c0-1,0-1.14-.19-1.32a.7.7,0,0,0-.36-.19,1.28,1.28,0,0,1-.45-.17,1.12,1.12,0,0,0-.4-.16c-.06,0-.17-.1-.24-.23-.19-.34-.34-.12-.36.52s.17,3.8.24,4c0,0,0,.3,0,.6a3.94,3.94,0,0,0,.08.91c.05.2.06.38,0,.42s0,.37.16.57a3.17,3.17,0,0,0,1.44.19c.24,0,.25,0,.23-.72Z"/><path class="cls-5" d="M42.7,78.86a2.44,2.44,0,0,0,.56-.38.1.1,0,0,1,.15,0c.05,0,.09,0,.09,0s.09-.13.2-.16a.29.29,0,0,0,.2-.31c0-.13,0-.21.07-.17a.51.51,0,0,1,.08.27c0,.15.12.18.7.21.39,0,.86.05,1.07.08s.38,0,.41-.09a10.23,10.23,0,0,0,.18-1.78c0-.06,0-.4,0-.77V75l-.48,0c-.27,0-.89.07-1.37.14s-1.45.15-2.13.17c-1.29.05-1.41.09-1.41.56,0,.26.27,2.51.35,2.87s.67.47,1.35.08Z"/><path d="M43.57,76.73c.06-.23.28-.3.38-.11s0,.11-.09.11-.16,0-.16.11a.1.1,0,0,1-.09.11S43.54,76.85,43.57,76.73Z"/><path d="M43.5,75.92a.47.47,0,0,1,.16-.3c.13-.12.17-.11.24,0a.31.31,0,0,1-.26.44.15.15,0,0,1-.14-.15Z"/><path class="cls-8" d="M49.15,78.46c0-.25.09-.9.11-1.44A6.63,6.63,0,0,1,49.35,76a1.55,1.55,0,0,0,0-.57c-.06-.3-.06-.49,0-.54s0-.14-.08-.24-.49-.17-1.43,0l-.62.14c-.21,0-.27.38-.29,1.87l0,1.65.24,0a2.31,2.31,0,0,1,.56.19,1.45,1.45,0,0,0,.56.16c.14,0,.29.05.32.11a.37.37,0,0,0,.29.11c.2,0,.25-.07.31-.47Z"/><path class="cls-9" d="M32,75.11a1.42,1.42,0,0,0,.13-.69c0-.52,0-.56-.29-.66a9,9,0,0,0-1.45-.17c-.63,0-1.46-.08-1.85-.12l-1.25-.1c-.3,0-.69-.06-.85-.09s-.76-.08-1.32-.13l-1-.08-.1.3a.6.6,0,0,0,0,.51.94.94,0,0,0,.73.44.58.58,0,0,1,.3.08,15.32,15.32,0,0,0,3.76.78A10.16,10.16,0,0,0,32,75.11Z"/><path class="cls-7" d="M36.15,75.14c1.21,0,2.22,0,2.25-.06a1.72,1.72,0,0,1,.65-.09c.56,0,.72-.16.58-.48a10.52,10.52,0,0,1-.39-1.8A4.23,4.23,0,0,0,39.1,72a.5.5,0,0,1,0-.17,2.91,2.91,0,0,0-.1-.55,6.13,6.13,0,0,1-.14-.63,2.52,2.52,0,0,0-.13-.45,5,5,0,0,1-.17-.8,1.21,1.21,0,0,0-.14-.52,3.63,3.63,0,0,0-1.09,0c-.23,0-.45,0-.48,0s-.11-.06-.17,0a10.53,10.53,0,0,1-2,.12c-2.33,0-2.19-.12-2.14,2,.07,3,.12,4,.24,4.1s.31.13.64.11,1.5,0,2.71-.07Z"/><path class="cls-9" d="M42.45,74.8l1.3-.06c.41,0,1.25-.34,1.25-.49s0-.16-.1-.16-.1-.12-.1-.26a.82.82,0,0,0-.23-.49c-.19-.19-.35-.23-.87-.23a5.84,5.84,0,0,0-1.05.1,9.35,9.35,0,0,1-.95.16c-1.23.14-1.5.2-1.61.35s-.09.19,0,.24a1.21,1.21,0,0,1,.18.56l.07.48.52-.07c.28,0,1-.09,1.61-.13Z"/><path class="cls-7" d="M46.6,74.29c0-.06.07-.08.16-.05a5.36,5.36,0,0,0,1.79-.3,3.43,3.43,0,0,0,.78-.27.62.62,0,0,1,.37-.08s.13,0,.19-.09a.9.9,0,0,1,.46-.23c.19,0,.35-.12.35-.18s0-.09.08-.06.18,0,.32-.1.2-.15.15-.16,0,0,0-.1.08-.19-.18-.55a1.51,1.51,0,0,0-.42-.45c-.06,0-.08,0-.06-.08s-.1-.26-.29-.46a1.3,1.3,0,0,1-.34-.58c0-.11-.06-.2-.13-.2s-.24-.24-.37-.52a3.06,3.06,0,0,0-.46-.75,1.79,1.79,0,0,1-.35-.63c-.07-.22-.18-.41-.25-.41a.38.38,0,0,1-.24-.17.66.66,0,0,0-.78-.06,4.16,4.16,0,0,1-.92.23c-.41.07-.91.17-1.11.23a5.78,5.78,0,0,1-1.09.1c-.54,0-.78,0-.92.18s-.24.54-.07.65a.22.22,0,0,1,0,.25c0,.1,0,.14,0,.1s.34.15.34.43.06.26.15.26.15.1.15.26a.63.63,0,0,0,.15.4,2,2,0,0,1,.29.71,4,4,0,0,0,.35.85,1.78,1.78,0,0,1,.26.65,1.32,1.32,0,0,0,.26.6c.1.13.16.26.13.3s0,.11.1.15.15.09.05.16.12.08.44.08.57,0,.57-.11Z"/><path class="cls-7" d="M23.44,73.37a3.66,3.66,0,0,0,.21-.6.46.46,0,0,1,.05-.16,1.41,1.41,0,0,0,.06-.33,10.43,10.43,0,0,1,.24-1,5,5,0,0,0,.2-.89.5.5,0,0,1,.07-.28,10.39,10.39,0,0,0,.47-1.33,1.46,1.46,0,0,1,.13-.33.7.7,0,0,0,.05-.39c-.07-.23-.35-.44-.49-.39a.15.15,0,0,1-.18,0c0-.06-.14-.07-.25,0s-.2,0-.2,0a.12.12,0,0,0-.13-.11A12.46,12.46,0,0,1,22.2,67a.49.49,0,0,0-.23-.06s-.1,0-.13-.14a.36.36,0,0,0-.34-.17.47.47,0,0,1-.32-.08,3.55,3.55,0,0,0-.88-.4c-.47-.18-1.18-.49-1.59-.69-.81-.42-1.21-.53-1.36-.4A11.06,11.06,0,0,0,16,67c-.06.13-.18.38-.27.55s-.27.59-.41.94a3.68,3.68,0,0,1-.36.69c-.17.12-.09.42.18.73a1,1,0,0,0,.4.31c.08,0,.11.05.07.13s0,.1.09.06a.19.19,0,0,1,.25.11.24.24,0,0,0,.3.11c.14,0,.22,0,.25.16s.12.2.19.18.21.06.31.2a.6.6,0,0,0,.38.26c.1,0,.19,0,.19.1s.1.14.22.18a6.41,6.41,0,0,1,1.1.5,1,1,0,0,0,.33.1c.08,0,.15,0,.15.09s.19.16.42.23a4.85,4.85,0,0,1,.6.24.7.7,0,0,0,.3.1,10.07,10.07,0,0,1,1.18.44,6.4,6.4,0,0,0,1.2.41,1,1,0,0,0,.34-.47Z"/><path class="cls-9" d="M32,73a8.57,8.57,0,0,0,.05-2.67,13.82,13.82,0,0,0-2.36-.26.49.49,0,0,1-.25-.08.64.64,0,0,0-.35-.09c-.25,0-2.12-.22-2.47-.29l-.85-.11-.67-.08-.16.41a2.53,2.53,0,0,0-.15.57,1.8,1.8,0,0,1-.14.51,3.51,3.51,0,0,0-.29,1.51,2.5,2.5,0,0,0,.68.14l1.1.12c.66.09,1.64.16,3.07.23a9.66,9.66,0,0,1,1.37.13A2.68,2.68,0,0,0,32,73Z"/><path d="M29.33,72.17c-.22-.13-.24-.61,0-.87s1.16-.09,1,.26c0,.06,0,.11.06.11s-.4.59-.61.61A.66.66,0,0,1,29.33,72.17Z"/><path d="M30.8,72.14c-.24-.12-.3-.19-.19-.22s.15-.12.12-.25a.54.54,0,0,1,.61-.58c.14,0,.24.09.21.14s0,.12.1.15.11.35-.18.7S31.25,72.37,30.8,72.14Z"/><path d="M27.22,71.72c-.12-.15-.17-.27-.12-.27s.1-.06.1-.14c0-.3.2-.39.61-.27s.39.15.39.38A.53.53,0,0,1,27.22,71.72Z"/><path d="M25.55,71.48c-.5-.13-.61-.61-.19-.82a.37.37,0,0,1,.45,0c.11.08.24.11.29.07s.12.54,0,.7S25.89,71.57,25.55,71.48Z"/><path class="cls-9" d="M40.9,73a24.12,24.12,0,0,0,2.49-.33c.64-.13.66-.15.67-.48s-.05-.37-.12-.4a.75.75,0,0,1-.2-.45c0-.21-.1-.36-.15-.33s-.09,0-.09-.11a.17.17,0,0,0-.15-.17c-.08,0-.15-.05-.15-.11a.11.11,0,0,1,.11-.11c.07,0,.08-.08,0-.19a1.3,1.3,0,0,1-.08-.33c0-.22-.29-.26-1-.15-.38.06-1.19.14-1.79.18a3.31,3.31,0,0,0-1.17.2.39.39,0,0,0,0,.31.6.6,0,0,1,.07.28,2.81,2.81,0,0,0,.1.53c.06.24.14.61.17.82.11.75.32,1.22.44,1A2.33,2.33,0,0,1,40.9,73Z"/><path d="M40,71.89c0-.06,0-.11.12-.12s.13,0,.06-.06-.15-.46.08-.59.48-.07.47.24C40.65,71.84,40.13,72.22,40,71.89Z"/><path d="M41.42,71.75c-.19-.25-.18-.76,0-.89s.21-.08.33.09a.73.73,0,0,1,0,.81C41.63,71.93,41.55,71.92,41.42,71.75Z"/><path d="M42.74,71.48a.79.79,0,0,1,0-.92l.17-.25.2.36C43.37,71.2,43.13,71.77,42.74,71.48Z"/><path class="cls-8" d="M55.79,71.82a1.5,1.5,0,0,0,.11-.43c0-.09.05-.16.11-.16s.09-.07.06-.16a.2.2,0,0,1,0-.23.19.19,0,0,0,0-.22.27.27,0,0,1,.09-.27.87.87,0,0,0,.19-.42c0-.16.26-1,.5-1.83a13.46,13.46,0,0,0,.67-2.89.45.45,0,0,1,.08-.3c.05,0,.06-.18,0-.33a.61.61,0,0,1,.05-.42,16.62,16.62,0,0,0,.17-2.5,21,21,0,0,0-.15-4.13c-.11-1-.22-1.88-.23-2a1,1,0,0,0-.14-.42.59.59,0,0,1-.13-.34.53.53,0,0,0-.09-.29,2.84,2.84,0,0,1-.2-.64,2.29,2.29,0,0,0-.26-.7.61.61,0,0,1-.15-.36.38.38,0,0,0-.11-.28.2.2,0,0,1-.05-.23c0-.08,0-.15,0-.15s-.11-.15-.15-.33-.11-.33-.16-.33-.09-.07-.09-.16a.37.37,0,0,0-.12-.25,1.21,1.21,0,0,1-.38-.74.17.17,0,0,0-.16-.17c-.08,0-.12,0-.08-.12s-.13-.59-.46-1a4.16,4.16,0,0,1-.75-1.14,1.07,1.07,0,0,0-.27-.4,1,1,0,0,1-.28-.4.24.24,0,0,0-.14-.18.41.41,0,0,1-.18-.31c0-.14-.09-.24-.16-.23s-.17-.09-.24-.24-.15-.28-.2-.28a4.88,4.88,0,0,1-.77-.77,4.34,4.34,0,0,0-.78-.77c-.06,0-.13-.07-.17-.16a.23.23,0,0,0-.21-.17c-.08,0-.15-.05-.15-.11s-.07-.11-.15-.11-.15,0-.15-.11a.13.13,0,0,0-.14-.11.23.23,0,0,1-.19-.15c0-.09-.23-.2-.44-.25s-.38-.17-.38-.26c0-.25-.37-.58-1.09-1l-.66-.36-.19.26a12.47,12.47,0,0,0-1,2.67c-.07.31-.25.93-.39,1.38a8.12,8.12,0,0,0-.31,1.27c0,.25-.09.68-.14,1A38.85,38.85,0,0,0,44.88,55c0,.45,0,1.2,0,1.65a4.91,4.91,0,0,0,.07.91,2.53,2.53,0,0,1,.08.44c.05.46.14,1.27.19,1.63a1.24,1.24,0,0,0,.09.39,1.55,1.55,0,0,1,.1.38,3.73,3.73,0,0,0,.43,1.36A.31.31,0,0,1,46,62c0,.06,0,.11,0,.11s.11.13.11.28a1.12,1.12,0,0,0,.25.58.69.69,0,0,1,.21.42.28.28,0,0,0,.1.27.29.29,0,0,1,.1.28c0,.08,0,.12.07.09s.13.06.13.22a1.12,1.12,0,0,0,.66.82c.16.09.24.21.21.3s0,.15.11.15a.16.16,0,0,1,.16.17c0,.09,0,.16.1.16a3,3,0,0,1,.67.6,3.6,3.6,0,0,0,.62.58,3.54,3.54,0,0,1,.6.55,3.47,3.47,0,0,0,.61.58c.17,0,.81.78.74.9s0,.1.09.06a.27.27,0,0,1,.28.09c.06.09.14.15.16.12a3.79,3.79,0,0,1,1,.84c.16.16.33.28.38.27a1.44,1.44,0,0,1,.48.39,2.06,2.06,0,0,0,.49.41s.15.1.23.22.2.22.26.22.15.08.18.17.1.14.16.11.13,0,.16.09.4.1.53-.22Z"/><path d="M63.3,70.84c0-.09,0-.16-.09-.16s-.22.17-.14.26S63.3,71,63.3,70.84Z"/><path class="cls-9" d="M32.08,69.5c0-.27-.08-.31-.53-.39l-1.32-.25A8.32,8.32,0,0,0,29,68.7a9.94,9.94,0,0,1-1.88-.27,2.68,2.68,0,0,1-1.05-.29c-.19-.16-.5,0-.63.28s-.08.48.55.52c.28,0,.49.07.47.11a2.34,2.34,0,0,0,.84.14,12.26,12.26,0,0,1,1.22.17,14.38,14.38,0,0,0,2.5.29,5.1,5.1,0,0,1,.89.11c.13.13.22,0,.19-.26Z"/><path class="cls-9" d="M40.85,69.37a1.05,1.05,0,0,1,.52-.07c.24,0,.43,0,.43-.08s.11,0,.25,0a.62.62,0,0,0,.52-.13l.27-.19-.23-.2c-.22-.2-.34-.21-1.23,0-.18,0-.71.08-1.18.12a7.72,7.72,0,0,0-1,.11c-.24.08-.12.58.15.63a4.91,4.91,0,0,0,1.51-.13Z"/><path class="cls-8" d="M14.55,68.8l.61-1.19a8.74,8.74,0,0,1,1.67-2.67,1,1,0,0,0,.17-.26,19.4,19.4,0,0,1,1.49-2.11,1.66,1.66,0,0,0,.31-.45,16.57,16.57,0,0,1,1.25-1.51c.69-.77,1.25-1.44,1.25-1.47s.1-.14.22-.23.42-.37.67-.61l.62-.6c.23-.23.12-.53-.23-.61a.53.53,0,0,1-.35-.23.24.24,0,0,0-.2-.15c-.1,0-.13-.09-.11-.3s0-.3-.17-.27a.81.81,0,0,0-.36.2.53.53,0,0,1-.22.15,9.28,9.28,0,0,0-1.77,1.44c0,.06-.08.1-.19.1a1.66,1.66,0,0,0-.62.41c-.68.64-1.41,1.28-1.76,1.55a16.61,16.61,0,0,0-2.53,2.65.17.17,0,0,1-.1.14,13.35,13.35,0,0,0-.11,2.68c0,3.54,0,3.9.09,3.9a1.86,1.86,0,0,0,.37-.56Z"/><path d="M64.17,68.28c0-.19,0-.35-.07-.35s-.1-.09-.12-.19,0,.06,0,.38c0,.62.2.75.23.16Z"/><path class="cls-8" d="M24.84,67.26l.08,0,.37.1c.52.15,1.14.3,1.57.38s1,.2,1.22.27a1.26,1.26,0,0,0,.5.07,1.53,1.53,0,0,1,.57.06l.85.16,1,.14.76.1a.29.29,0,0,0,.23-.13,5.24,5.24,0,0,0,.16-1.29c0-.63.07-1.27.1-1.42s.07-.6.09-1,.1-1,.15-1.26.16-.85.21-1.21.13-.8.16-1,0-.3,0-.3-.15.28-.22.63a7.27,7.27,0,0,1-.27,1,1,1,0,0,0-.11.5,2.79,2.79,0,0,1-.08.79l-.35,1.76c-.12.6-.25,1.25-.31,1.43a2.77,2.77,0,0,0-.09.53c0,.11-.06.18-.12.15a5.77,5.77,0,0,1,.13-2.63,1.25,1.25,0,0,0,.09-.46,5.94,5.94,0,0,1,.15-.91c.08-.36.16-.8.18-1a1.92,1.92,0,0,1,.09-.44c.13-.26.17-.49.09-.54a12.84,12.84,0,0,0-.91,2.91c-.63,2.4-.75,2.75-.92,2.75S30,67.4,30,67.17a.67.67,0,0,1,.1-.4.14.14,0,0,0,0-.18.14.14,0,0,1,0-.18,8.43,8.43,0,0,0,.49-1.83c0-.19.07-.4.09-.48s0-.11,0-.08a.81.81,0,0,0-.16.42,3.15,3.15,0,0,1-.14.47,4.14,4.14,0,0,0-.25.74,2.36,2.36,0,0,1-.27.69.49.49,0,0,0-.09.32.78.78,0,0,1-.17.45c-.16.18-.18.17-.27,0s-.06-.27,0-.32a2.93,2.93,0,0,0,.26-1.2c0-.08,0-.14.06-.14a1.8,1.8,0,0,0,.2-.66,2.76,2.76,0,0,1,.22-.72.36.36,0,0,0,.09-.25,2.22,2.22,0,0,1,.19-.61,3.4,3.4,0,0,0,.26-.86,2.89,2.89,0,0,1,.45-1.25.26.26,0,0,0,0-.27.71.71,0,0,1,0-.41c.15-.32.23-.91.12-.91s-.13.15-.16.33-.1.33-.14.33-.13.21-.2.47a10.63,10.63,0,0,1-.36,1,5.6,5.6,0,0,0-.54,1.52.31.31,0,0,1-.09.23.81.81,0,0,0-.16.42,3.86,3.86,0,0,1-.15.52,5.05,5.05,0,0,0-.43,1.16c-.16.93-.7,1.68-.65.88,0-.21.06-.39.09-.39a1.23,1.23,0,0,0,.19-.47c.07-.25.16-.56.2-.68s.16-.47.25-.77l.23-.72c.07-.23.08-.24.16-.58.05-.16.12-.3.16-.3a1.5,1.5,0,0,0,.24-.58c.09-.32.21-.67.26-.79a5.24,5.24,0,0,0,.55-1.91s-.07,0-.08,0-1.17,2.64-1.17,2.7a2.11,2.11,0,0,1-.14.41c-.08.19-.23.62-.34,1s-.34.94-.51,1.33a4.25,4.25,0,0,0-.31.89A2.36,2.36,0,0,1,28,66a5,5,0,0,0-.25.62c0,.11-.11.17-.17.13s0-.82.21-1.42a3.25,3.25,0,0,0,.2-.59,3.53,3.53,0,0,1,.21-.64c.24-.63.28-.74.63-1.69a6,6,0,0,0,.26-.85c0-.08,0-.14.1-.14s.1-.1.1-.22,0-.22.08-.22a1.43,1.43,0,0,0,.32-.69,1.29,1.29,0,0,1,.21-.42c.15-.24.18-.37.1-.51s-.1-.18-.17,0a2.14,2.14,0,0,1-.24.44,8.06,8.06,0,0,0-.55,1.21c-.2.54-.48,1.2-.61,1.46a2.34,2.34,0,0,0-.24.62.46.46,0,0,1-.15.28.3.3,0,0,0-.11.29c0,.08,0,.15,0,.15s-.1.07-.1.16a2.33,2.33,0,0,1-.25.65,2.88,2.88,0,0,0-.25.61,1.84,1.84,0,0,1-.24.5,4.71,4.71,0,0,0-.29.53c0,.07-.07.1-.11.06a1.11,1.11,0,0,1,0-.55,7.71,7.71,0,0,1,.54-1.55,4.16,4.16,0,0,0,.26-.79.24.24,0,0,1,.13-.2,1.16,1.16,0,0,0,.27-.54,2.64,2.64,0,0,1,.27-.65.63.63,0,0,0,.13-.31,2.63,2.63,0,0,1,.2-.59,2.5,2.5,0,0,0,.2-.6c0-.07,0-.14.08-.14s.14-.19.21-.41a2.17,2.17,0,0,1,.31-.63c.21-.26.37-.94.22-.94s-.21.21-.35.48a3.44,3.44,0,0,1-.41.61,3.79,3.79,0,0,0-.46.82,7.34,7.34,0,0,1-.5.9A8.3,8.3,0,0,0,27,63a5,5,0,0,1-.44.88,22.22,22.22,0,0,0-1.15,2.43,1,1,0,0,1-.28.4.11.11,0,0,1-.12,0"/><path class="cls-5" d="M36.65,68.41a7.07,7.07,0,0,1,1-.08c.38,0,.61,0,.6-.12a1,1,0,0,1,.06-.3,3.23,3.23,0,0,0,0-.88c0-.38-.08-1.12-.11-1.63a8.52,8.52,0,0,0-.19-2.07c0-.07,0-.13,0-.13s.08-.2.06-.45c0-.46-.09-.63-.2-.51s0,1.79,0,4.31c0,1,0,1-.2,1s-.24.29-.29-3.23a14.82,14.82,0,0,0-.13-2.25c-.09-.23-.1-.18-.1.38,0,.37,0,1.11-.05,1.65s-.07,1.57-.09,2.28c0,1.29-.13,1.63-.43,1.63-.12,0-.13-.22-.08-1.18,0-.65.07-1.73.09-2.4s.06-1.55.09-2c.06-.82-.06-1.25-.25-.91a6.62,6.62,0,0,0-.15,1.27c0,.59-.07,1.27-.09,1.51s-.07,1.09-.1,1.87c0,1.32-.11,1.59-.36,1.6A9.11,9.11,0,0,1,35.72,65a2,2,0,0,1,.09-.63,19.49,19.49,0,0,0,0-3.24c-.11-.08-.28.37-.35.93s-.15,3.32-.15,4.76c0,.37,0,.55-.15.59s-.19,0-.22,0a31.73,31.73,0,0,1,.09-5,2.22,2.22,0,0,0,.07-.79c0-.4,0-.66-.06-.57a.47.47,0,0,1-.14.22,1.52,1.52,0,0,0-.1.55,1.72,1.72,0,0,1-.12.63c-.06.09-.06.14,0,.14s.07.2,0,.58a18.69,18.69,0,0,0-.22,2.39c-.07,1.37-.13,1.71-.29,1.86s-.15.07-.18-.13A3.64,3.64,0,0,1,34,66.08a.14.14,0,0,0,0-.19.12.12,0,0,1-.06-.15A8.24,8.24,0,0,0,34.11,64a2.54,2.54,0,0,1,.06-.65,1.92,1.92,0,0,0,.09-.44c0-.19.05-.52.07-.73.2-1.65.2-1.65,0-1.65s-.27.23-.34.77c0,.21-.11.93-.2,1.59s-.17,1.56-.19,2,0,1.07-.1,1.43a5.58,5.58,0,0,0,0,.9.25.25,0,0,1-.18.29c-.12,0-.23,0-.25,0a7.12,7.12,0,0,1,0-1.22c0-.64.11-1.6.14-2.15a16.2,16.2,0,0,1,.26-2c.21-1.07.26-1.9.12-1.71a19.79,19.79,0,0,0-.76,3.68c0,.27-.08.62-.11.77a27.22,27.22,0,0,0-.09,3.64,19.7,19.7,0,0,0,4-.08Z"/><path class="cls-5" d="M44.39,67.74l1-.08a7.52,7.52,0,0,0,1.75-.43c.47-.15.57-.46.29-.93a1.08,1.08,0,0,1-.23-.57.11.11,0,0,0-.1-.11c-.06,0-.06.13,0,.34.11.4,0,.87-.25.87s-.14,0-.1-.1a.17.17,0,0,0-.09-.2.47.47,0,0,1-.19-.31,1.44,1.44,0,0,0-.14-.43.9.9,0,0,1-.08-.33c0-.07,0-.08,0,0s-.24.07-.18-.13-.12-.42-.27-.26-.05.28,0,.59c.17.69.2,1.4.07,1.49s-.14,0-.16-.05a1.06,1.06,0,0,0-.15-.27.66.66,0,0,1-.15-.35.53.53,0,0,0-.11-.28,1.12,1.12,0,0,1-.06-.52.94.94,0,0,0,0-.47s-.13-.12-.2-.27-.15-.26-.17-.24a5.54,5.54,0,0,0,.27,1.61.83.83,0,0,1,.12.44c0,.32,0,.39-.16.39a.35.35,0,0,1-.27-.17,7.45,7.45,0,0,1-.47-1.29.72.72,0,0,0-.1-.33c-.1-.2-.1-.25,0-.26s.1,0,0-.06a.3.3,0,0,1-.13-.26.54.54,0,0,0-.16-.34c-.28-.26-.37.15-.17.78a3.06,3.06,0,0,1,.09.44,9.06,9.06,0,0,0,.21,1.16,1.65,1.65,0,0,1,0,.57c0,.21-.06.23-.23.11A.55.55,0,0,1,43.7,67a1.15,1.15,0,0,0-.15-.55,1.15,1.15,0,0,1-.15-.55,1.31,1.31,0,0,0-.15-.58,1.75,1.75,0,0,1-.17-.74c0-.46,0-.55-.25-.47s-.13.56,0,.7a.25.25,0,0,1,0,.26.25.25,0,0,0,0,.25,2,2,0,0,1,.16.52,3.94,3.94,0,0,0,.2.91,1.37,1.37,0,0,1,0,.87c-.06.14,0,.19.16.22a.67.67,0,0,0,.32,0,3.2,3.2,0,0,1,.65-.1Z"/><path class="cls-9" d="M46.35,64.37c.12-.1.14-.17.07-.22a.37.37,0,0,1-.12-.28.56.56,0,0,0-.15-.34,1.11,1.11,0,0,1-.21-.51c0-.2-.09-.37-.13-.37a1.31,1.31,0,0,1-.26-.47,2.47,2.47,0,0,0-.25-.52,2.12,2.12,0,0,1-.18-.52c-.12-.45-.14-.47-.52-.47-.22,0-.4,0-.4-.08a3.22,3.22,0,0,0-.93-.4l-1.07-.38-.4-.1a2.71,2.71,0,0,1-.67-.25,2.92,2.92,0,0,0-.75-.26A12.47,12.47,0,0,1,38,58.35c-.06-.05-.14-.07-.17,0s-.16,0-.29-.11a.78.78,0,0,0-.4-.18c-.1,0-.18-.05-.18-.1s-.19-.14-.43-.18a6.33,6.33,0,0,1-.87-.24,3.64,3.64,0,0,0-.6-.19,1.7,1.7,0,0,1-.5-.19,8.37,8.37,0,0,0-2.07-.71s-.11,0-.17,0a1.54,1.54,0,0,0-1.22-.21,4,4,0,0,0-1.44,1.31c-.1.19.19.68.36.64a1.11,1.11,0,0,1,.66.31c.09.09.21.13.26.1s.15,0,.22.09a.23.23,0,0,0,.27.09c.1,0,.14,0,.1.05s.12.17.43.26.5.18.5.23.1.09.23.09a.5.5,0,0,1,.3.07.91.91,0,0,0,.39.11.71.71,0,0,1,.37.13,3.19,3.19,0,0,0,.66.28,10.27,10.27,0,0,1,1.2.51c.33.17.76.36,1,.44s.48.2.65.28a3.4,3.4,0,0,0,1.17.29s.12.08.18.21.18.2.25.17a4.4,4.4,0,0,1,1.63.61.08.08,0,0,0,.12,0,.9.9,0,0,1,.47.13,2.72,2.72,0,0,0,.48.21,1.15,1.15,0,0,1,.27.1,2.18,2.18,0,0,0,.61.16s0,.06,0,.12.06.11.24.11.33,0,.36.12a.17.17,0,0,0,.18.07.27.27,0,0,1,.24.09,1.32,1.32,0,0,0,.55.22,2.46,2.46,0,0,1,.52.13A1.29,1.29,0,0,0,45,64a.71.71,0,0,1,.42.15,1.42,1.42,0,0,0,.71.32s.13-.06.24-.14Z"/><path class="cls-8" d="M31,63.46c.15-.44,0-.53-.2-.13s-.17.59,0,.47A.91.91,0,0,0,31,63.46Z"/><path class="cls-8" d="M38.76,62.46s-.06,0,0,.14,0,.16.06.07A.25.25,0,0,0,38.76,62.46Zm.7,1.1s-.06,0-.05.14,0,.16.06.07A.25.25,0,0,0,39.46,63.56Zm-.7.22s-.06,0,0,.14,0,.16.06.07A.25.25,0,0,0,38.76,63.78Zm.71.27c0-.07,0,0,0,.14s0,.21,0,.14A.66.66,0,0,0,39.47,64.05Zm-.57.68c0-.06,0-.08-.1,0s-.13.17,0,.17A.11.11,0,0,0,38.9,64.73Zm2.64.15a1.58,1.58,0,0,0-.22-.69c-.13-.15-.14-.13-.08.11a4.14,4.14,0,0,1,.06.66c0,.29,0,.34.1.22s.1-.14.1,0,0,.19,0,.19A1.7,1.7,0,0,0,41.54,64.88Zm-2.64.46c0-.1,0-.14-.1-.1a.13.13,0,0,0,0,.17C38.84,65.56,38.9,65.53,38.9,65.34Zm3.45.07a3.67,3.67,0,0,1-.07-.6c0-.23-.07-.42-.16-.45s-.11-.1,0-.2.06-.2,0-.36-.15-.15-.09.61c0,.45.06.88.06,1a.21.21,0,0,0,.17.18l.21.07S42.39,65.53,42.35,65.41Zm-1.45.22a.22.22,0,0,0-.09-.17c-.06,0-.08-.17-.06-.29s0-.2-.09-.11-.11.19,0,.4S40.9,65.82,40.9,65.63ZM39,66a.32.32,0,0,0-.1-.22c-.06,0-.1.06-.1.22s0,.26.1.22A.29.29,0,0,0,39,66Zm3.5,0c-.12-.26-.3-.3-.3-.07s.33.57.38.41A.63.63,0,0,0,42.5,66ZM41.44,68a.54.54,0,0,1,.38,0s.15,0,.23-.07.15-.09.15,0,0,0,.11-.1,0-.24-.08-.4a5.45,5.45,0,0,1-.59-1.65c-.08-.33-.25-.09-.17.26.17.83.16.94-.11.94s-.24,0-.2-.16,0-.17-.06-.17-.1-.09-.07-.2-.09-.57-.23-.57-.06.1,0,.21a3.67,3.67,0,0,1,0,.83c0,.51-.07.62-.2.59s-.16-.13-.14-.28a.34.34,0,0,0-.08-.3.56.56,0,0,1-.1-.35c0-.21,0-.24-.13-.13a.63.63,0,0,0-.09.44c.05.38-.12.41-.39.06l-.18-.24v.38a1.46,1.46,0,0,1-.1.55c-.09.14-.11.14-.19,0s-.08-.2-.06-.23a1.85,1.85,0,0,0-.09-.56c-.13-.44-.14-.46-.2-.21a8.18,8.18,0,0,0,0,1.6A17.58,17.58,0,0,0,41.44,68Z"/><path class="cls-8" d="M31.36,62.15a.89.89,0,0,1,.15-.44.58.58,0,0,0,.09-.36,1.59,1.59,0,0,1,.14-.59c.12-.24.12-.28,0-.24s-.17.22-.21.41a4.76,4.76,0,0,1-.14.57l-.09.27s0,.22-.1.41-.06.36,0,.36S31.32,62.37,31.36,62.15Z"/><path class="cls-5" d="M21.69,59.85c.2-.24.46-.54.59-.67a.9.9,0,0,0,.22-.33.51.51,0,0,1,.18-.23c.09-.08.12-.14.05-.15a1.48,1.48,0,0,0-.46.44,2.54,2.54,0,0,1-.39.44,7.39,7.39,0,0,0-1.31,1.57c.06.1.51-.33,1.12-1.07Zm-1.61,1.83a1.71,1.71,0,0,0,.4-.59A7.31,7.31,0,0,0,19,62.78a3.56,3.56,0,0,1-.22.42c-.09.15.08,0,.37-.38s.73-.87,1-1.14Zm4.82,5,0-.07c0-.06,0-.11.06-.11s.09,0,.06-.07,0-.18.06-.31a3.25,3.25,0,0,0,.26-.63,5.35,5.35,0,0,1,.37-.88c.13-.26.32-.65.41-.86a2.15,2.15,0,0,1,.25-.44,1,1,0,0,0,.13-.36c0-.16.1-.3.14-.3A2.55,2.55,0,0,0,27,62a4,4,0,0,1,.52-.92,3.6,3.6,0,0,0,.44-.78,11.86,11.86,0,0,1,.55-1.06c.34-.55.49-.94.41-1s-.52.27-1,1.13a14.61,14.61,0,0,0-1.32,2.35c-.12.27-.25.57-.31.66s-.26.51-.45.93-.46,1-.6,1.21-.34.63-.45.86c-.2.39-.5.56-.5.27a15.67,15.67,0,0,1,1.07-2.39l.5-1.05c.06-.12.23-.5.39-.85a2.29,2.29,0,0,1,.35-.63s.11-.11.16-.25a3.77,3.77,0,0,1,.27-.47,5,5,0,0,0,.66-1.16s-.06-.1-.14-.1-.24.27-.36.6a1.5,1.5,0,0,1-.31.61c-.05,0-.15.14-.22.3a7.35,7.35,0,0,1-.49.91,3.78,3.78,0,0,0-.38.69,1.66,1.66,0,0,1-.26.41,5.47,5.47,0,0,0-.54.9c-.14.32-.38.78-.51,1s-.28.52-.32.61c-.18.44-.43.76-.59.77s-.1-.52,0-.57a2.48,2.48,0,0,0,.3-.53A13.14,13.14,0,0,1,24.51,63s.32-.55.64-1.16a8.12,8.12,0,0,1,1-1.6.74.74,0,0,0,.17-.31.49.49,0,0,1,.15-.23c.18-.17.2-.55,0-.55a2.4,2.4,0,0,0-.58.73c-.25.39-.62.92-.82,1.18a1.93,1.93,0,0,0-.38.59c0,.08,0,.14-.1.14s-.1.07-.1.16a2.24,2.24,0,0,1-.32.63,8.22,8.22,0,0,0-.53.92,7.55,7.55,0,0,1-.73,1.26,1,1,0,0,0-.18.27c-.19.38-.38.35-.31,0a1.44,1.44,0,0,1,.17-.48,4.43,4.43,0,0,0,.6-1.1,1,1,0,0,1,.21-.37A3.54,3.54,0,0,0,24,62a5.83,5.83,0,0,1,.55-.9,3.52,3.52,0,0,0,.45-.75.45.45,0,0,1,.16-.25c.2-.18.55-.93.47-1s-.33.15-.33.36a.73.73,0,0,1-.22.41,3.76,3.76,0,0,0-.68.87c0,.06-.11.22-.37.54a.62.62,0,0,0-.13.23,1.38,1.38,0,0,1-.23.42,23.94,23.94,0,0,0-1.25,2.31c-.41.82-.46.89-.67.8s-.13-.12-.06-.26l.29-.64c.11-.24.29-.61.41-.82s.24-.46.28-.55a3.2,3.2,0,0,1,.3-.51,1.3,1.3,0,0,0,.23-.44.6.6,0,0,1,.2-.29.61.61,0,0,0,.2-.35c0-.1,0-.17.09-.17a2.63,2.63,0,0,0,.45-.66,2.23,2.23,0,0,1,.47-.66c.05,0,.09-.1.09-.22a.32.32,0,0,1,.15-.29c.17-.07.21-.37,0-.37s-.1.07-.1.16,0,.17-.08.19A17,17,0,0,0,23,61.38a.75.75,0,0,1-.21.35,4.17,4.17,0,0,0-.53.71,10.74,10.74,0,0,1-1.62,2.19c-.19,0-.17-.14.06-.47a1.06,1.06,0,0,0,.2-.41.46.46,0,0,1,.13-.26c.06-.08.23-.3.37-.5a7.1,7.1,0,0,1,.48-.62,1.25,1.25,0,0,0,.22-.32,7.19,7.19,0,0,1,1-1.5,5.74,5.74,0,0,0,.57-.83,2.6,2.6,0,0,1,.4-.59c.25-.3.36-.52.31-.59s-1,.8-1.66,1.74a14.77,14.77,0,0,1-1.27,1.58c-.05,0-.08.1-.08.18a.63.63,0,0,1-.2.33.67.67,0,0,0-.2.33,2.92,2.92,0,0,1-.45.73c-.83,1.11-.88,1.16-1,.76,0-.12,0-.22,0-.22a2.31,2.31,0,0,0,.49-.63c.49-.75.71-1.08.91-1.33a3.66,3.66,0,0,0,.3-.5,2.28,2.28,0,0,1,.46-.61,2.69,2.69,0,0,0,.4-.48,17.44,17.44,0,0,1,1.23-1.58c.13-.14.2-.26.16-.26s0-.09.06-.19c.2-.29-.51.4-.86.84-.16.21-.7.84-1.2,1.4s-1.24,1.42-1.65,1.92c-1,1.19-1.22,1.42-1.37,1.42s-.13-.07-.13-.17,0-.16-.1-.16a.12.12,0,0,0-.1.13.68.68,0,0,1-.16.32c-.13.16-.13.23,0,.42s.18.23.25.23a1.28,1.28,0,0,1,.4.16,2.46,2.46,0,0,0,1,.4c.06,0,.12,0,.12.07s.15.15.33.24l.61.3a1.52,1.52,0,0,0,.55.15.86.86,0,0,1,.47.16,1.78,1.78,0,0,0,.57.23c.2,0,.37.12.37.18s.11.09.25.06.25,0,.25,0a2.36,2.36,0,0,0,.95.27.2.2,0,0,1,.15.07,1.11,1.11,0,0,0,.31.13l.15,0"/><path class="cls-8" d="M32,59.87s0-.06-.1,0a.35.35,0,0,0-.1.26c0,.16,0,.16.1,0A.84.84,0,0,0,32,59.87Z"/><path class="cls-5" d="M44.67,59c-.09-.44-.19-1-.22-1.25a1.69,1.69,0,0,0-.17-.57.22.22,0,0,1,0-.3,1.11,1.11,0,0,0,.06-.69c0-.29-.06-.77-.07-1.08,0-1,.21-4.88.36-5.88,0-.21.1-.78.15-1.27a26.63,26.63,0,0,1,.87-3.76c.17-.5.12-.8-.12-.8a1.61,1.61,0,0,1-.52-.22,1.65,1.65,0,0,0-.6-.22.35.35,0,0,1-.28-.11c0-.06-.1-.09-.15-.05a.32.32,0,0,1-.27,0A17.22,17.22,0,0,0,40.85,42l-.25-.08a3,3,0,0,0-1.54,0,1.27,1.27,0,0,0-.2.62c0,.27-.12.78-.2,1.12a12.54,12.54,0,0,0-.36,2.18,74.92,74.92,0,0,0,.05,8.74c0,.19.07.68.11,1.1a4,4,0,0,0,.21,1.08,3.49,3.49,0,0,1,.18.74,1.34,1.34,0,0,0,.17.59,3,3,0,0,0,1.21.48,2,2,0,0,1,.52.17c.11.07,1,.4,2,.75,2.17.75,2.15.75,1.92-.47Z"/><path class="cls-10" d="M26,58.35c0-.05-.13-.06-.21,0a.2.2,0,0,1-.24-.09c-.05-.08-.12-.11-.16-.07s.16.38.41.33.22-.1.2-.15Z"/><path class="cls-10" d="M27.55,58a1.71,1.71,0,0,0-.86-.54s-.22-.1-.4-.29-.39-.3-.46-.27a1,1,0,0,1-.26.06c-.07,0-.18.1-.24.21s-.08.24.21.44a1.23,1.23,0,0,0,.58.23.76.76,0,0,1,.44.17c.21.17,1,.17,1,0Z"/><path class="cls-6" d="M64.24,55.72c0-.76,0-1.42,0-1.49a.28.28,0,0,1,0-.16c0-.14.11-1.87.09-2.59,0-.12,0-2.37,0-5s0-5,0-5.23,0-.34,0-.24.08-2.76.08-6.38,0-7.15.05-7.86a10.38,10.38,0,0,0,0-1.6c0-.16,0-.31,0-.32s.06-1.38,0-3c0-2.39,0-3-.16-3.15s-.8-.15-4-.13l-4.08,0-3,0c-2.52,0-2.76,0-2.85.16s-.07.23,0,.32a1.83,1.83,0,0,1,.3.46,4.55,4.55,0,0,0,.79,1.13,2,2,0,0,1,.36.68c0,.28,0,.35-.47.74-.29.23-.55.45-.58.49a4.77,4.77,0,0,1-1.4.87.18.18,0,0,0-.2.19,2.14,2.14,0,0,0,.29,1s.13.17.21.39.17.38.22.38.08.07.08.17,0,.16.1.16a.08.08,0,0,1,.08.1c0,.05.09.25.25.44s.26.41.21.61c-.09.41-.25.5-1,.57-.41.05-.69.13-.72.22a2.05,2.05,0,0,0,.1.7,1.84,1.84,0,0,1,.06.91c0,.2-.11.55-.14.79a1.38,1.38,0,0,1-.41.79c-.37.38-.57.83-.45,1a2.12,2.12,0,0,1,.18.67,1.5,1.5,0,0,1-.07,1,2.22,2.22,0,0,1-1,1.07,4.45,4.45,0,0,0-.59.2,4.59,4.59,0,0,1-.9.2c-.74,0-.78.11-.72,1.18s.15,1.33.36,1.33a.75.75,0,0,1,.35.22c.12.13.22.2.22.16a2.84,2.84,0,0,1,.8.5l.42.33a3.1,3.1,0,0,1,.67.72c.28.42.58,1.33.47,1.45s.17.67.42.81a3.81,3.81,0,0,1,.6.48,2.29,2.29,0,0,0,.52.41c.2.08,1-.38,1.47-.88a1.68,1.68,0,0,1,.53-.4c.11,0,.2-.12.2-.16s.08-.12.18-.16a3.19,3.19,0,0,0,.47-.29l.6-.4A1.77,1.77,0,0,0,53.6,40a4.24,4.24,0,0,1,1.2-.72s.13,0,.29-.16c.32-.25.51-.29.51-.12a.09.09,0,0,0,.12.08c.07,0,.17.08.22.22a1,1,0,0,0,.36.38l.31.17s.09-.12.12-.32a3.56,3.56,0,0,1,.73-1.72c.33-.45.41-.64.38-.88s-.09-.31-.14-.33-.06-.14,0-.27a11,11,0,0,0,.06-1.62c0-.76,0-2.08,0-2.94,0-1.53,0-1.57-.23-1.56s-1,1-1,1.41a.65.65,0,0,1-.09.39,6.69,6.69,0,0,0,0,2.32c.06.09.08.16,0,.16s0,.13.09.28a.57.57,0,0,1,.11.38.12.12,0,0,0,.05.16.4.4,0,0,1,.1.28c0,.11.05.22.11.24s.09.1,0,.28-.16.22-.38.14a2.9,2.9,0,0,1-1.23-.66c0-.06-.07-.11-.15-.11s-.15,0-.15-.08-.15-.2-.34-.34a3.11,3.11,0,0,1-.61-.68,1.52,1.52,0,0,0-.46-.5c-.11,0-.19-.11-.19-.17a1.56,1.56,0,0,0-.21-.43,1.43,1.43,0,0,1-.24-.57c0-.41,0-.42-.2-.42s-.14,0-.13-.08a.68.68,0,0,0,0-.25,4.65,4.65,0,0,1-.18-1c0-.1,0-.21-.07-.23a11.59,11.59,0,0,1,.11-2.93c0-.09.13-.44.22-.77s.2-.68.23-.77.06-.23.08-.32a13.3,13.3,0,0,1,1-2.18c.42-.72.66-.85.92-.51a.89.89,0,0,1,.16.4,1,1,0,0,0,.15.38.72.72,0,0,1,.13.38.49.49,0,0,0,.16.32c.08.05.13.11.11.12a.74.74,0,0,0,.07.34,3,3,0,0,1,.11.37,7.17,7.17,0,0,0,.85,1.05c.59.59.82.75,1.06.75.47,0,.62-.42.37-1.07a2.72,2.72,0,0,1-.12-.38.37.37,0,0,0-.08-.15.58.58,0,0,1-.08-.34c0-.13,0-.28-.1-.31a.4.4,0,0,1-.1-.27,1,1,0,0,0-.3-.5A1.07,1.07,0,0,1,57.06,23a2.43,2.43,0,0,1,.23-.42,4.37,4.37,0,0,0,.3-.55c.14-.27.38-.7.55-.95l.46-.7c.27-.44.38-.52.64-.47s.26.09.26.13a6.22,6.22,0,0,0,.55.72,4.81,4.81,0,0,1,.55.75s.07.08.15.08.15.1.15.27a.46.46,0,0,0,.14.36,1.14,1.14,0,0,1,.36.8,7.84,7.84,0,0,1-.91,2.36,7.77,7.77,0,0,0-.59,1.64c0,.31,0,.32.37.25a.62.62,0,0,0,.41-.18.19.19,0,0,1,.17-.11,13.5,13.5,0,0,0,2.28-1.3c.18-.17.2-.17.37.06s.2.21.23.18,0,.11,0,.32a4.87,4.87,0,0,0,.07,1.14,8.27,8.27,0,0,1-.15,3.34c-.44,1.92-.85,2.56-1.26,2-.09-.12-.2-.23-.24-.23a2.16,2.16,0,0,1-.43-.38,1.72,1.72,0,0,0-.45-.39,2.29,2.29,0,0,1-.7-.81c0-.1-.11-.18-.17-.18s-.1-.08-.1-.17-.08-.16-.27-.14l-.28,0v2.33c0,1.29,0,2.34,0,2.34a3.56,3.56,0,0,0,1-.68l.49-.43.27.28c.24.26.26.35.27,1.21s0,1,.23,1.28.25.3.3.21.19.12.25,1a2.84,2.84,0,0,0,.2,1,1.43,1.43,0,0,1,.15.63,5.68,5.68,0,0,0,.15,1.11,1.6,1.6,0,0,1,0,1.11,1.7,1.7,0,0,0-.1.68,3.54,3.54,0,0,1-1,2.44c-.94,1.2-.94,1.19-.87,1.64,0,.21.11.36.15.33s.21.22.36.55A1.71,1.71,0,0,0,62,48c.05,0,.09.09.09.21a.5.5,0,0,0,.14.33,1.12,1.12,0,0,1,.22.49,2.08,2.08,0,0,0,.12.45.74.74,0,0,1,.08.22c0,.07.14.49.28,1a16.61,16.61,0,0,1,.41,1.93c.09.59.18,1.16.22,1.25a.68.68,0,0,1,0,.26.4.4,0,0,0,.09.24c.07.08.07.15,0,.18s-.05.27,0,.67.1.63,0,.63-.07.05,0,.14a2.41,2.41,0,0,1,.17.8c0,.36.09.78.12.93.11.48.19-.46.17-2Z"/><path class="cls-7" d="M38.25,57.59a.45.45,0,0,0,0-.31,10.89,10.89,0,0,1-.36-2.39,8.1,8.1,0,0,0-.12-1c-.22-.84,0-9.4.27-9.4,0,0,.07-.16.07-.36a9.2,9.2,0,0,1,.21-1.27c.27-1.18.17-1.51-.28-1a1.1,1.1,0,0,0-.22.74A7.51,7.51,0,0,1,37.66,44a3.87,3.87,0,0,0-.08.77,1.88,1.88,0,0,1-.08.57,27.73,27.73,0,0,0-.22,4.73c0,2.62,0,3.19.11,3.19a6.44,6.44,0,0,1,0,1.24c-.05,1.77,0,2.58.34,2.9s.39.32.49.15Z"/><path class="cls-10" d="M29,57.34l.29-.17-.39-.12a3.94,3.94,0,0,0-.5-.12c-.24,0-1-.37-1-.5s-.16-.17-.35-.21a.64.64,0,0,1-.42-.23c-.08-.24-.31-.19-.38.07s.54,1,1.21,1.2a1.76,1.76,0,0,1,.6.24c.07.12.54,0,.89-.16Z"/><path class="cls-10" d="M23.44,56.87c0-.09-.08-.16-.1-.16s0,.07,0,.16,0,.17.1.17S23.47,57,23.44,56.87Z"/><path class="cls-10" d="M24.6,56.71a.11.11,0,0,0-.11-.11s-.07,0,0,.11.08.11.11.11S24.6,56.77,24.6,56.71Z"/><path class="cls-10" d="M24.2,56.49a.14.14,0,0,0-.12-.12,1.56,1.56,0,0,1-.33,0c-.2,0-.2,0,0,.12S24.2,56.65,24.2,56.49Z"/><path class="cls-10" d="M29.63,56.45a.14.14,0,0,0,.17,0c.13-.09-.26-.6-.46-.6a.42.42,0,0,1-.26-.14,2.66,2.66,0,0,0-.8-.53c-.16-.07-.28-.17-.28-.22s-.06-.1-.13-.1a2,2,0,0,1-.6-.27c-.26-.15-.47-.24-.47-.21s-.07,0-.15-.07-.14-.11-.09,0a.37.37,0,0,0,.33.19c.14,0,.21,0,.15.06s-.1.15-.07.27a.51.51,0,0,1-.07.38c-.1.13-.09.21.06.41s.48.51.57.45.13,0,.2,0a3,3,0,0,0,1.73.34c.06,0,.14-.06.17,0Z"/><path class="cls-7" d="M33.53,55.66c0-.15,0-.3,0-.33a.21.21,0,0,1,0-.21.53.53,0,0,0-.05-.36,10.7,10.7,0,0,1-.26-2.17c0-.25-.06-.77-.1-1.16a5.41,5.41,0,0,1,0-1.66c0-.12,0-.21,0-.21S32.94,49,33,47c.08-1.47.14-2.46.24-3.42.11-1.15,0-1.36-.37-1.36a.42.42,0,0,0-.46.27c-.26.57-.26,6.57,0,9.63.1,1.14.12,1.42.14,1.48a1.41,1.41,0,0,1,0,.3.32.32,0,0,0,.13.31c.13.06.17.18.18.63a.32.32,0,0,0,.1.25.57.57,0,0,1,.09.37c0,.51.34.65.42.17Z"/><path class="cls-10" d="M22.84,55.66a.54.54,0,0,1,.35-.16,2.08,2.08,0,0,0,.91-.9c0-.19-.32-.08-.8.29a2.22,2.22,0,0,1-.6.39c-.12,0-.31.39-.23.48S22.67,55.84,22.84,55.66Z"/><path class="cls-8" d="M30.65,55.41c-.06-.07-.25.1-.25.21s.06,0,.14,0,.13-.16.11-.18Z"/><path class="cls-5" d="M32.5,55.57a4.64,4.64,0,0,0-.15-.68,4.84,4.84,0,0,1-.15-1c0-.27-.05-.47-.11-.47s-.08-.15,0-.45,0-.43,0-.4-.1-.24-.12-.6a7.37,7.37,0,0,0-.11-1.08A72.26,72.26,0,0,1,32,43.16c0-.39,0-.52-.1-.57s-.65.1-.65.23c-.05,1.07-.09,1.88-.16,3.06,0,.78-.07,1.6-.07,1.81s0,.93,0,1.6c0,1.08.32,4.77.45,5.42,0,.14.1.22.15.18s.1,0,.1,0a2.2,2.2,0,0,0,.71.8c.05,0,.09-.07.09-.15Z"/><path class="cls-9" d="M30.12,55.35a.77.77,0,0,1-.33-.81c0-.33-.2-.91-.36-.91a.12.12,0,0,1-.13-.11.11.11,0,0,0-.1-.11.77.77,0,0,1-.33-.23l-.37-.37a2,2,0,0,0-.43-.29c-.15-.07-.27-.18-.27-.23s-.62-.08-1,.18a1.78,1.78,0,0,1-.49.28s-.15.08-.22.18a1.1,1.1,0,0,1-.36.27c-.41.17-.28.41.19.38a1.06,1.06,0,0,1,.95.33,1.16,1.16,0,0,0,.53.21c.22.05.4.11.4.15a2.64,2.64,0,0,0,.85.46A1.4,1.4,0,0,1,29,55a1,1,0,0,0,.32.23.13.13,0,0,1,.12.06,1.47,1.47,0,0,0,.84.25c.06,0,0-.11-.12-.17Z"/><path class="cls-10" d="M25.16,55.2a.62.62,0,0,0-.68-.29.29.29,0,0,0-.08.21c0,.12.06.13.25.05s.26-.08.26-.05.06.27.08.33.19-.08.17-.25Z"/><path d="M36.1,55.06c0-.23-.05-.33-.16-.33s-.12,0-.09-.11,0-.11-.05-.11-.1-.07-.07-.15,0-.19-.21-.23-.31,0-.49.23c-.45.62-.24,1,.55,1C36.09,55.39,36.1,55.39,36.1,55.06Z"/><path class="cls-10" d="M26.08,54.74a.45.45,0,0,0-.42-.23c-.24,0-.31.15-.08.17s.52.19.52.3,0,.09.06.05S26.16,54.87,26.08,54.74Z"/><path class="cls-5" d="M30.84,53.68a3.72,3.72,0,0,0-.07-.55A57.78,57.78,0,0,1,30.61,46a2.05,2.05,0,0,0,0-.61,1.37,1.37,0,0,1,0-.6,6.51,6.51,0,0,0,0-1.91s-.2,0-.39.12-.33.24-.32.43a2.73,2.73,0,0,1-.05.61c0,.2,0,.39,0,.42a.23.23,0,0,1,.05.25c-.07.24-.19,3.48-.17,4.42.06,2.75.31,4.48.69,4.8s.36.13.35-.24Z"/><path class="cls-8" d="M14.6,53.14a1.08,1.08,0,0,0,.32-.25,3.84,3.84,0,0,1,.73-.56,26.67,26.67,0,0,0,2.63-1.9.16.16,0,0,1,.15-.1,22.44,22.44,0,0,0,2.39-1.5,1.54,1.54,0,0,1,.53-.26c.08,0,.15,0,.15-.11a.11.11,0,0,1,.11-.11,2.35,2.35,0,0,0,.61-.33c.62-.42.79-.41,1.15,0,.16.21.34.35.41.33s.12,0,.12,0a6.8,6.8,0,0,0,1.72,1.46c.27.14.48.33.48.41s.11.19.26.25a3.25,3.25,0,0,1,.72.64c.26.3.52.52.59.49a.17.17,0,0,1,.18.07.3.3,0,0,0,.26.12.18.18,0,0,1,.19.15c0,.08.15.22.32.3a1,1,0,0,1,.41.29c.12.22.47.17.47-.06a.57.57,0,0,0-.06-.27,9.76,9.76,0,0,1-.11-1.36,4.2,4.2,0,0,0-.16-1.38c-.09-.07-.09-.09,0-.09s.12-.18.12-.58c0-1.15.14-6.49.25-8.54,0-.72-.07-1-.37-1a.77.77,0,0,1-.33-.15,2,2,0,0,0-.7-.23c-.43-.06-.55,0-.77.15a.94.94,0,0,1-.36.23,3.79,3.79,0,0,0-.72.51,12.51,12.51,0,0,1-1,.75l-1.11.67a20.37,20.37,0,0,0-1.81,1.23,7,7,0,0,1-.92.6,1.23,1.23,0,0,0-.42.32c0,.05-.1.12-.23.16a2.69,2.69,0,0,0-.53.34,1.36,1.36,0,0,1-.41.26.36.36,0,0,0-.22.15.83.83,0,0,1-.39.23.66.66,0,0,0-.32.16,4.07,4.07,0,0,1-.5.41l-.92.68a3.32,3.32,0,0,1-.52.35,10.47,10.47,0,0,0-1.48,1.13,6.13,6.13,0,0,1-.84.63,1.26,1.26,0,0,0-.45.59c0,.41-.08,4.55,0,4.66s.1.18.45,0Z"/><path class="cls-5" d="M21.26,52.8a1.28,1.28,0,0,1,.43-.27.45.45,0,0,0,.23-.15,4.4,4.4,0,0,1,.73-.5,9.3,9.3,0,0,0,1-.68,3.39,3.39,0,0,1,.65-.44c.59-.26.73-.36.73-.5a.15.15,0,0,0-.15-.15c-.08,0-.15,0-.15.11a.1.1,0,0,1-.09.11c-.08,0-1.77,1.11-2.4,1.57a2.17,2.17,0,0,1-.44.26c-.09,0-.17.11-.17.16s-.06.1-.13.1-.84.66-.68.66a1.18,1.18,0,0,0,.47-.27Zm1.84.52a4,4,0,0,1,.58-.45,3.93,3.93,0,0,0,.52-.41c0-.08-.44.09-.5.18a4.94,4.94,0,0,1-1,.66c-.34.16-.29.35,0,.21a1.09,1.09,0,0,0,.33-.19ZM15,53.89a2.35,2.35,0,0,0,.69-.49.1.1,0,0,1,.11-.1,1.2,1.2,0,0,0,.43-.28,1.54,1.54,0,0,1,.4-.27,2.53,2.53,0,0,0,.74-.58.22.22,0,0,1,.18-.08c.08,0,.14,0,.14-.1s.12-.15.28-.22a5,5,0,0,0,.77-.45c.28-.18.66-.41.85-.5a2.39,2.39,0,0,0,.55-.37,4,4,0,0,1,1.08-.68c.15-.07.27-.16.27-.22s.19-.19.43-.31c.68-.36,1.06-.68,1.07-.92s-.32-.08-.62.16a10.85,10.85,0,0,1-1.12.68,8.56,8.56,0,0,0-1.46,1,3,3,0,0,1-.7.45,3.51,3.51,0,0,0-.57.38,1.58,1.58,0,0,1-.38.27,1.38,1.38,0,0,0-.38.25c-.32.24-1.59,1.11-2.27,1.53a4.1,4.1,0,0,0-1.3,1.14c0,.22,0,.21.81-.24Zm-.51,1.45a.37.37,0,0,1,.23-.17,1.38,1.38,0,0,0,.43-.27,1.29,1.29,0,0,1,.42-.28c.06,0,.12-.07.15-.15a2.93,2.93,0,0,1,.79-.56,5.77,5.77,0,0,0,.94-.62.65.65,0,0,1,.37-.21c.09,0,.17,0,.17-.1s.09-.14.21-.18a6.58,6.58,0,0,0,.85-.55,4,4,0,0,1,.73-.49,2.36,2.36,0,0,0,.52-.36c.24-.2.77-.58,1.18-.85l1.1-.74.68-.43c.32-.19.42-.41.24-.53s-.17,0-.27.13-.18.18-.18.16-.62.26-1.36.82a11.07,11.07,0,0,1-1.07.69,4.67,4.67,0,0,0-.74.51.36.36,0,0,1-.21.16,3.19,3.19,0,0,0-.63.38c-.3.21-.85.56-1.22.78a14.1,14.1,0,0,0-1.18.81,7.75,7.75,0,0,1-1.15.81,4.65,4.65,0,0,0-.64.44,1.57,1.57,0,0,1-.53.3c-.08,0-.13.13-.13.33,0,.36.11.42.3.17Zm0,1.47a.1.1,0,0,1,.1-.1,2.18,2.18,0,0,0,.78-.58.17.17,0,0,1,.14-.08,6.36,6.36,0,0,0,.95-.63c.47-.35,1.05-.76,1.29-.91s.44-.33.44-.41a.15.15,0,0,1,.15-.14c.08,0,.15,0,.15-.08s.09-.14.2-.2A23.62,23.62,0,0,0,21,52.12a2.85,2.85,0,0,1,.5-.37,3,3,0,0,0,.66-.43s.25-.17.5-.32a4.38,4.38,0,0,0,.65-.45,7.42,7.42,0,0,1,.68-.49c.4-.25.46-.32.36-.46a.54.54,0,0,0-.69.06,2.12,2.12,0,0,1-.45.28,8.34,8.34,0,0,0-.9.56c-.27.2-1.06.74-1.75,1.2a22.77,22.77,0,0,0-2.11,1.49,4,4,0,0,1-.64.44A9.3,9.3,0,0,0,16,54.85a2.14,2.14,0,0,1-.57.37c-.13,0-.23.12-.23.17a1.32,1.32,0,0,1-.46.38c-.46.3-.69.71-.59,1.06s.35.18.35,0Zm.74,1.39a3.2,3.2,0,0,0,.76-.61,1.33,1.33,0,0,1,.48-.33.11.11,0,0,0,.12-.1s.08-.13.18-.16a3.14,3.14,0,0,0,1-.71,1.57,1.57,0,0,1,.44-.35s.11-.07.15-.16.1-.17.16-.17a2.83,2.83,0,0,0,.66-.38,4,4,0,0,1,.6-.39,2.45,2.45,0,0,0,.43-.32,3.78,3.78,0,0,1,.67-.47A4.36,4.36,0,0,0,22,53.27a.2.2,0,0,1,.17-.08.36.36,0,0,0,.24-.16c.12-.15.25-.24,1.62-1a6.32,6.32,0,0,0,1.68-1.25c.19-.33-.2-.23-.75.19a2.44,2.44,0,0,1-.58.39,19.76,19.76,0,0,0-2.29,1.5,2.61,2.61,0,0,1-.57.37.44.44,0,0,0-.23.11c-.57.51-.76.66-.85.66s-.15.08-.22.17a2.3,2.3,0,0,1-.54.38,4.72,4.72,0,0,0-1.16.85,1.13,1.13,0,0,1-.36.25,2.63,2.63,0,0,0-.59.42c-.28.23-.65.51-.83.63s-.32.25-.32.3,0,.06-.11,0-.2,0-.32.14-.41.35-.64.52a1.37,1.37,0,0,0-.43.4.11.11,0,0,1-.12.1c-.22,0-.61.4-.54.54s.18.06.44-.12l.56-.36ZM15,61a15.61,15.61,0,0,1,2.1-1.95c.23-.19.41-.4.39-.48s0-.1.06-.07.18,0,.29-.14a3.1,3.1,0,0,1,.51-.39c.18-.09.32-.23.32-.29s.1-.16.22-.22a1.76,1.76,0,0,0,.8-.59,2.09,2.09,0,0,1,1-.61.22.22,0,0,0,.18-.08,3.37,3.37,0,0,1,1-.8c.07,0,.13,0,.13-.09s.18-.2.4-.34.4-.29.4-.35a.11.11,0,0,1,.12-.1A10.2,10.2,0,0,0,24.6,53.4a2,2,0,0,1,.37-.2,1.66,1.66,0,0,0,.49-.35.52.52,0,0,1,.28-.21.93.93,0,0,0,.38-.28,1,1,0,0,1,.36-.27c.17,0,.44-.41.32-.49s-.7,0-.7.16-.16.15-.35.22-.33.17-.3.22-.07.12-.21.16a2.41,2.41,0,0,0-1,.69.26.26,0,0,1-.18.14,16.4,16.4,0,0,0-2.45,1.61,5.44,5.44,0,0,1-.95.64A11.88,11.88,0,0,0,18.63,57a5.47,5.47,0,0,1-.5.4c-.15.11-.33.24-.38.29a15.42,15.42,0,0,1-1.41,1.07s-.12.08-.18.17-.28.29-1.39,1a1.35,1.35,0,0,0-.63.66,1.85,1.85,0,0,0,0,.92c.09.16.47-.08.87-.56Zm5.27-7.55s-.07-.05-.16-.05-.12.05-.09.11S20.3,53.57,20.3,53.46Zm-.51.35c.13-.08.2-.18.15-.21s-.21,0-.34.15c-.29.24-.17.27.19.06Zm-.81.51c.11-.12.11-.14,0-.14a1.73,1.73,0,0,0-.68.6C18.3,54.85,18.79,54.52,19,54.32Zm-1,.85c.15-.06.25-.14.22-.18s-.67.2-.67.32,0,.07.09,0A2.55,2.55,0,0,1,18,55.17Zm-2.18,1.6c.92-.65,1.33-1,1.33-1.16s0-.14-.13,0a.78.78,0,0,1-.32.25,1.9,1.9,0,0,0-.49.34,1,1,0,0,1-.4.28c-.12,0-.56.38-.56.49s.2.05.57-.21Zm6.63-3.09s0,0-.1,0-.1,0-.1.12,0,.08.1,0S22.4,53.71,22.4,53.68Zm-7.61,5.76a4,4,0,0,0,.41-.3,1.77,1.77,0,0,1,.32-.22,3.26,3.26,0,0,0,.55-.41,17,17,0,0,1,1.59-1.3A15.43,15.43,0,0,0,19.6,55.7c0-.19-.23-.05-1.66,1-.82.63-2,1.48-2.56,1.9a5.64,5.64,0,0,0-1.08.9c0,.19.07.18.49-.1Z"/><path d="M36,51.43c.16-.2.16-.22,0-.28a.31.31,0,0,1-.16-.26c0-.23-.36-.67-.55-.67s-.45.6-.45,1,.81.67,1.15.26Z"/><path d="M61.38,47.87c-.1-.08-.15-.18-.11-.22s0-.07-.05-.07-.15.3,0,.37S61.55,48,61.38,47.87Z"/><path class="cls-6" d="M34.64,18.4c0-.19-.89,0-1.51,0-.15,0-15.87.23-16.73.18a7.73,7.73,0,0,0-2,.11,4.89,4.89,0,0,0-.12,1.23c0,1.41-.05,9,0,9.16a.47.47,0,0,1,0,.16c-.06.18,0,9.89,0,10a.15.15,0,0,1,0,.18c-.05,0-.05.23,0,.44s0,.39,0,.39-.12,6.73,0,7,.19.2.7-.07c.24-.13.43-.27.43-.33s.07-.1.15-.1.15,0,.15-.08.08-.14.19-.2.56-.38,1-.72c1-.76,2.63-1.87,3.07-2.15.17-.11.32-.23.32-.27s.12-.11.26-.15a1.41,1.41,0,0,0,.52-.34,2.77,2.77,0,0,1,.62-.46,8.12,8.12,0,0,0,1.38-1,.42.42,0,0,1,.26-.14.59.59,0,0,0,.31-.22.58.58,0,0,1,.32-.22,1.48,1.48,0,0,0,.63-.33,2.1,2.1,0,0,1,.3-.2,4.5,4.5,0,0,0,.55-.35c.17-.12.39-.26.5-.32s.49-.32.84-.58c.71-.52.94-.95.68-1.24A2.39,2.39,0,0,1,27,36.06a1.41,1.41,0,0,1,.33-1,1.55,1.55,0,0,1,1.37-.49.61.61,0,0,0,.42,0A6.61,6.61,0,0,0,30,33.34a.63.63,0,0,0-.39-.39.12.12,0,0,1-.11-.12.71.71,0,0,0-.21-.33.43.43,0,0,1-.16-.43c0-.13,0-.22-.07-.22s-.13-1,.08-1.35a1,1,0,0,1,.37-.36c.1,0,.19-.11.19-.18s.24-.09.6-.06.64.1.74.24.15.17.21.07a9.48,9.48,0,0,0,.44-2.32v-.61L30.61,26l-1.52-1.78c-.24-.28-.47-.49-.51-.46s-.08,0-.08-.06a1.64,1.64,0,0,0-.33-.5c-.17-.21-.45-.55-.61-.76s-.35-.36-.41-.33-.26-.42-.1-.69a.85.85,0,0,1,.47-.32A2.17,2.17,0,0,0,28,21c.08-.05.33-.17.55-.27.72-.33.8-.36,1.17-.55a2.39,2.39,0,0,1,.5-.2.65.65,0,0,0,.23-.09,1.9,1.9,0,0,1,.4-.14.84.84,0,0,0,.36-.18.42.42,0,0,1,.3-.13.66.66,0,0,0,.35-.1c.07-.06.91-.31,1.17-.43.43-.18.56,0,.9-.26s.67,0,.71-.2Z"/><path class="cls-8" d="M32.88,19.46a20.48,20.48,0,0,0-2.78,1.07,4.77,4.77,0,0,1-1.71.7c-.05,0-.09,0-.09,0s-.15.14-.32.2-.34.17-.36.4,0,.3.07.3a4.09,4.09,0,0,1,1,1.08c.13.26.91.71,1,.59a10.25,10.25,0,0,1,1.76-.63,6.47,6.47,0,0,0,1-.3,9,9,0,0,1,.9-.19c.41-.08,1-.21,1.35-.3a6,6,0,0,1,1.83-.26c.28,0,.52,0,.52-.08a2.31,2.31,0,0,1,.8-.09,6.91,6.91,0,0,0,2.2-.34,6.24,6.24,0,0,1,1.7-.31,4.91,4.91,0,0,0,.8-.12,3.88,3.88,0,0,1,.6-.11c.25,0,.7-.1,1-.16s.56-.06.58,0,.17.07.35.06a25.54,25.54,0,0,1,3.5,0l2.28.09-.07-.32a.66.66,0,0,0-.16-.35.09.09,0,0,1,0-.13,2,2,0,0,0-.41-.62,4.12,4.12,0,0,1-.55-.78c0-.14-.15-.25-.24-.25s-.15,0-.15-.08-3.6-.08-8-.08a27.87,27.87,0,0,0-4.92.14,16.13,16.13,0,0,0-2,.35,9.45,9.45,0,0,0-1.52.48Z"/><path d="M36.07,47.21c.12-.13-.44-.66-.61-.58a.56.56,0,0,0-.11.64A1.06,1.06,0,0,0,36.07,47.21Z"/><path class="cls-8" d="M37,45.6c.07-.7.14-1.51.17-1.82a4.66,4.66,0,0,1,.12-.83,2.05,2.05,0,0,0,0-1.11,2.45,2.45,0,0,0-1.31.06.85.85,0,0,0,.11.44,2,2,0,0,1,.16.54.21.21,0,0,0,.12.21.9.9,0,0,1,.23.43.86.86,0,0,1-.09.81,2.29,2.29,0,0,1-.27.5A1.42,1.42,0,0,0,35.92,46c0,.26.12.45.16.43s.21.12.37.32.32.33.36.24A10.77,10.77,0,0,0,37,45.6Zm-.38,5.12c0-.16,0-.28,0-.28s-.06,0,0-.14a9.48,9.48,0,0,0,.14-2.44c0-.32,0-.32-.16-.12a1.58,1.58,0,0,0-.21.57c0,.19-.12.38-.2.41A.33.33,0,0,0,36,49c0,.12,0,.22-.1.22s-.12.35,0,.78a2.14,2.14,0,0,1,.13.47s.06.13.15.19a.39.39,0,0,1,.18.28c0,.25.17.08.22-.23Zm.28,3.66s-.06-.1-.13-.14-.09-.07,0-.12.09-.16,0-.3a2.36,2.36,0,0,1-.06-.63,8.36,8.36,0,0,0,0-1l0-.58-.19.27a1,1,0,0,0-.19.33,3.33,3.33,0,0,1-.26.51,1.11,1.11,0,0,0-.2.72q.06.26-.06.27c-.07,0,0,0,.09.1a.37.37,0,0,1,.23.28c0,.09,0,.14.1.1s.1,0,.1.15a.33.33,0,0,0,.12.27c.14.05.48-.14.48-.27Zm-2.41.16a1.56,1.56,0,0,0,.31-.61c0-.1,0-.19.09-.19s.11-.1.14-.23,0-.21-.09-.17-.14,0-.14-.15a.63.63,0,0,0-.13-.35,3,3,0,0,1-.27-.47,2.32,2.32,0,0,0-.28-.51c-.11-.16-.1-.24.08-.55a4.1,4.1,0,0,0,.26-.57c0-.1.1-.19.15-.19s.06-.08,0-.17a.3.3,0,0,1,.11-.3.66.66,0,0,0,.19-.38c0-.14.06-.25.12-.25s0-.06-.08-.12A.42.42,0,0,1,34.8,49a1,1,0,0,0-.34-.51c-.3-.3-.32-.35-.23-.65a5.37,5.37,0,0,1,.34-.77c.42-.78.55-1.19.49-1.52s-.25-.6-.41-.58-.11-.1-.13-.23a.75.75,0,0,0-.18-.38c-.28-.25-.11-.9.39-1.47.27-.33.45-.78.34-.9a1.49,1.49,0,0,0-.61,0l-.54.07-.06.52c0,.28-.08.81-.11,1.18s-.07,1-.1,1.32a42.91,42.91,0,0,0-.1,5.34,4.42,4.42,0,0,1,.11,1A11.48,11.48,0,0,0,34.11,55a1.52,1.52,0,0,0,.38-.41Zm-.06,1.79a.16.16,0,0,0-.08-.21c-.09,0-.11,0-.08.16S34.36,56.54,34.43,56.33Zm2.48.56a3.38,3.38,0,0,0,0-1.14.61.61,0,0,1-.06-.3c0-.19,0-.17-.17.11a1.38,1.38,0,0,1-.24.38.79.79,0,0,0-.14.36c0,.16-.11.3-.15.3s-.05.12,0,.27a.33.33,0,0,0,.32.3c.38.06.51,0,.52-.28Z"/><path d="M54.06,46.53A1.57,1.57,0,0,1,54,46.3s0,0-.1,0-.12.38.06.38S54.1,46.64,54.06,46.53Z"/><path d="M54.25,45.49c0-.06-.08-.11-.11-.11s0,0,0,.11a.11.11,0,0,0,.11.11S54.28,45.55,54.25,45.49Z"/><path class="cls-10" d="M61.4,45.13a2.34,2.34,0,0,1,.39-.55,4.57,4.57,0,0,0,.5-.72c.17-.35.24-1.09.11-1.17s-1.25,1.16-1.48,1.67a1.41,1.41,0,0,0-.09,1.1c.06.11.14.1.32-.05s.25-.23.25-.28Z"/><path class="cls-10" d="M60.74,43.9a8.36,8.36,0,0,1,.91-1.19,2.67,2.67,0,0,0,.85-1.39c.18-.83,0-1-.48-.38a8,8,0,0,0-1.67,3c-.09.49.14.48.39,0Z"/><path d="M36.08,43.59c.14-.12.17-.42,0-.38s-.17-.1-.29-.25-.22-.26-.47-.11-.62.62-.53.72a.88.88,0,0,0,.28.11.72.72,0,0,1,.28.1c.07.07.54-.05.7-.19Z"/><path class="cls-10" d="M60.15,43.16a6.12,6.12,0,0,1,.51-1,2.11,2.11,0,0,0,.28-.53c0-.14.11-.25.16-.25a4.69,4.69,0,0,0,.66-.78c.47-.64.58-.85.57-1.16a1.49,1.49,0,0,0-.07-.46c-.14-.14-1.61,1.85-2,2.77a4.17,4.17,0,0,0-.36,1c0,.22-.09.54-.11.71-.09.5.09.33.41-.38Z"/><path d="M57.37,43.13c-.48-.54-.57-.69-.6-1a.39.39,0,0,0-.18-.29.9.9,0,0,1-.3-.27c-.33-.45-.28,0,.06.57a3.06,3.06,0,0,1,.35.66c0,.06.09.14.2.17a.29.29,0,0,1,.2.23.38.38,0,0,0,.46.3c.08,0,0-.17-.19-.41Z"/><path class="cls-9" d="M46.07,42.74c.6-1.38.63-1.47.52-1.61a.36.36,0,0,0-.22-.15.87.87,0,0,1-.33-.27c-.13-.16-.27-.28-.32-.28a4.08,4.08,0,0,1-.58-.26,17.36,17.36,0,0,0-1.89-.89,2.07,2.07,0,0,0-.49-.12,2.45,2.45,0,0,1-.61-.21,2.59,2.59,0,0,0-.7-.21l-.4-.07a4.8,4.8,0,0,0-1.11-.18l-.61-.06-.07.7c-.16,1.66-.16,1.84.07,2a2.58,2.58,0,0,0,.87.14,2.11,2.11,0,0,1,.8.11.7.7,0,0,0,.25.12,1.07,1.07,0,0,1,.25.07,2.81,2.81,0,0,0,1.08.26s.11,0,.19.06.13.09.13.05.06,0,.13,0a1.68,1.68,0,0,0,.62.17,1.72,1.72,0,0,1,.59.15,2.57,2.57,0,0,0,.55.24.93.93,0,0,1,.48.29.15.15,0,0,0,.19.08c.08,0,.14,0,.14.06,0,.23.35.07.47-.21Z"/><path class="cls-10" d="M59,42.44c-.25-1.83-.05-3.31.56-4A.81.81,0,0,0,59.7,38a.13.13,0,0,1,.12-.14,4.13,4.13,0,0,0,1.35-1.52c.23-.53.21-1,0-.6a.87.87,0,0,0-.14.33,1.06,1.06,0,0,1-.31.44l-.62.61a1.58,1.58,0,0,1-.38.3,1.66,1.66,0,0,1-.39-.33,1.63,1.63,0,0,0-.4-.33,7.08,7.08,0,0,0-1.37,1.76c-.07.21-.18.48-.22.61a5.6,5.6,0,0,0-.2.78,1.1,1.1,0,0,0,.06.94,4.12,4.12,0,0,0,1.14,1.3c.06,0,.09.07,0,.16s0,.17,0,.17a.8.8,0,0,1,.31.22A1.27,1.27,0,0,0,59,43a1.73,1.73,0,0,0,0-.52Z"/><path class="cls-9" d="M30.66,42.32a3.17,3.17,0,0,0,.69-.18,14.66,14.66,0,0,1,2.52-.55,1.73,1.73,0,0,0,.51-.1,22.85,22.85,0,0,1,3-.23c.91,0,1.28-.19,1.3-.55,0-.65.07-1.38,0-1.38l-.73.38a2.37,2.37,0,0,1-1.21.39,3.13,3.13,0,0,0-.89.15,15.74,15.74,0,0,1-3.82,0c-.13-.05-.33-.1-.44-.13L30.82,40c-.78-.16-.81-.12-.83,1,0,.43,0,.92,0,1.1,0,.38.12.53.35.39a.64.64,0,0,1,.36-.09Z"/><path class="cls-10" d="M59.84,41.72a10,10,0,0,1,1.51-2.39c.57-.77.78-1.27.7-1.72s-.21-.48-.58-.48a6,6,0,0,0-1.75,1.73,4.2,4.2,0,0,0-.4,3c.13.78.23.76.52-.12Z"/><path d="M57.22,41.83c-.19-.2-.22-.21-.22,0a.4.4,0,0,0,.17.29C57.44,42.23,57.46,42.1,57.22,41.83Z"/><path d="M56,41.27c0-.24-.48-.75-.56-.6a.13.13,0,0,0,0,.18.17.17,0,0,1,.12.14c0,.13.22.42.33.43S56,41.35,56,41.27Z"/><path class="cls-9" d="M47.8,40.62c0-.48-.89-1.82-1.1-1.67s-.13,0-.16-.11a.26.26,0,0,0-.2-.17.23.23,0,0,1-.2-.16,1.14,1.14,0,0,0-.55-.34,1.79,1.79,0,0,1-.54-.27.15.15,0,0,0-.19,0,.92.92,0,0,1-.51-.12,2,2,0,0,0-.6-.17.44.44,0,0,1-.29-.08c-.07-.08,0-.07-1.05-.25-1.24-.22-2.61,0-2.61.38,0,.21.15.34.4.37a21.5,21.5,0,0,1,3.45.9,1.5,1.5,0,0,0,.45.17,1,1,0,0,1,.4.15,1.28,1.28,0,0,0,.7.34.28.28,0,0,1,.26.17.29.29,0,0,0,.25.16.3.3,0,0,1,.26.17.15.15,0,0,0,.19.12.24.24,0,0,1,.26.13.61.61,0,0,0,.33.22.8.8,0,0,1,.35.19.64.64,0,0,0,.42.16c.23,0,.28,0,.28-.25Z"/><path class="cls-10" d="M44.55,36a5.2,5.2,0,0,1,.11-1.3c.08-.15.26-.2.75-.23a4.27,4.27,0,0,0,.94-.15,2.88,2.88,0,0,0,1.34-.78A2.1,2.1,0,0,0,47.63,32a.92.92,0,0,1-.06-1.08.79.79,0,0,1,.36-.15c.18,0,.6-.63.52-.78s-.63,0-1.07.11a1.14,1.14,0,0,0-.59.52c-.29.52-.47.34-.3-.28.11-.41.3-.64.56-.66a6,6,0,0,0,1.52-.89c.08-.12.08-.23,0-.44a.87.87,0,0,1-.08-.48.74.74,0,0,0-.27-.52,1,1,0,0,1-.31-.54c0-.29.29-1,.41-1s.21.24.1.36a.65.65,0,0,0,0,.71c.08.09.19.08.41,0a1.12,1.12,0,0,1,.71-.05c.55.11.72,0,.53-.44a2,2,0,0,0-.4-.51.71.71,0,0,1-.26-.41.86.86,0,0,0-.2-.44.82.82,0,0,1-.2-.38,1.72,1.72,0,0,0-.15-.47,3.35,3.35,0,0,1-.16-1.82,1.18,1.18,0,0,0,0-.64,1.36,1.36,0,0,0-.64-.13,2.87,2.87,0,0,1-.63-.08,2.47,2.47,0,0,0-1.7.28.2.2,0,0,1-.22,0,.09.09,0,0,0-.13,0,2.7,2.7,0,0,1-.48.49c-.25.22-.7.65-1,1a2.43,2.43,0,0,1-.82.63.54.54,0,0,0-.35.24,10.36,10.36,0,0,0-.17,1.45c0,.38,0,.66.11.61s.06.28-.09.59-.07.28.13.24.08.15-.08.38-.14.17-.15.06,0-.13,0-.1a1.34,1.34,0,0,0,.16.53,1.44,1.44,0,0,1,.15.78c0,.24,0,.32.14.38s.26.23.08.3-.07.18.09.56.18.51.12.51-.08,0,0,.1a.13.13,0,0,1,0,.17c-.16.11-.12.5.06.5s.13,0,.09.11a.18.18,0,0,1-.22,0c-.12,0-.14,0-.08.09s0,.12,0,.06a.32.32,0,0,1-.1-.19c0-.05,0-.14,0-.19s-.31-.1-.31,0,0,.15.09.15.21.43.1.5a.32.32,0,0,0-.09.23c0,.14,0,.15.13.06s.45.09.49.72c0,.32,0,.58-.06.58s-.06.09.1.74c.05.2,0,.25-.14.25a.33.33,0,0,0-.26.09c-.06.11.3.57.44.57s.1.24-.1.3-.2.07,0,.26.14.21.1.21,0,.09,0,.21,0,.39-.13.23-.12,0-.13.12,0,.21.06.21a.81.81,0,0,1,.29.23c.12.12.26.2.3.17A.44.44,0,0,1,44,37a.94.94,0,0,0,.4.07c.18,0,.19-.12.2-1.12Z"/><path d="M44.45,26.35c-.39-.19-1.15-.93-1.15-1.12a19.7,19.7,0,0,1,2-2.7c.53-.58.72-.66,1.28-.6.24,0,.36.13.5.42s.26.37.35.37a.28.28,0,0,1,.2.43,4,4,0,0,0-.1,1,4.76,4.76,0,0,1-.07,1c0,.06,0,.13.1.17s.13.11.05.3c-.29.61-1.14,1.3-.94.76s.22-.52-.9-.54-1.16,0-.94.26a.34.34,0,0,1,.07.28c0,.14-.09.13-.43,0Z"/><path class="cls-6" d="M46.27,25.21a2.18,2.18,0,0,0,0-1.24,4.69,4.69,0,0,0-2.12.84c-.09.15.15.47.3.4a.29.29,0,0,1,.26.05,3.58,3.58,0,0,0,1.56-.05Z"/><path class="cls-10" d="M45.7,23.6a1.9,1.9,0,0,1,.59-.21c.68-.16.86-.3.69-.54s-.11-.16,0-.08.08,0,0-.14c-.36-.45-1.16-.24-1.73.45a1.48,1.48,0,0,0-.33.58c0,.15.06.17.38.11a1,1,0,0,0,.42-.17Z"/><path class="cls-9" d="M58.51,36.57l.45-.42a1,1,0,0,0,.39-.89c0-.14,0-.22.06-.22s.08,0,0-.16-.1-.21,0-.32.08-.18,0-.21a11.35,11.35,0,0,1-.08-1.8,7.42,7.42,0,0,0-.11-1.88c-.07-.07-.13-.11-.16-.09a1,1,0,0,1-.43,0,1,1,0,0,0-.45,0c-.06.07-.09,5.85,0,6.12s0,.24.34,0Z"/><path class="cls-10" d="M60.3,36.29c.19-.28.47-.65.62-.83A1.13,1.13,0,0,0,61.2,35c0-.34-.39-.13-1,.54-.5.52-.65.76-.63,1s0,.32.22.32.34-.23.53-.51Z"/><path d="M42.5,36.43a.3.3,0,0,1,.2-.32c.11,0,.2-.11.2-.17s-.19,0-.42.12-.44.25-.46.25a.39.39,0,0,0,0,.2C42.16,36.8,42.5,36.74,42.5,36.43Z"/><path d="M41.94,35.89c.05,0,0-.08-.07-.08a.18.18,0,0,0-.17.19c0,.11,0,.15.08.08A1.46,1.46,0,0,1,41.94,35.89Z"/><path d="M41.6,35.67c0-.23-.27-.59-.37-.48s0,.15.11.24.15.2.11.26,0,.12,0,.12a.13.13,0,0,0,.11-.14Z"/><path class="cls-7" d="M56.1,35.23c0-.26-.12-.63-.21-.63a3.08,3.08,0,0,1-.61-.61,7.28,7.28,0,0,1-1.34-2.54.2.2,0,0,0,0-.19c-.27-.3-.19-3.16.12-4.2.07-.24.16-.61.2-.82a3.15,3.15,0,0,1,.31-.79,1.4,1.4,0,0,0,.23-1.3c-.25-.61-.44-.41-1.12,1.13a7.56,7.56,0,0,0-.47,1.26.91.91,0,0,1-.14.42,10,10,0,0,0-.36,2.77A10.12,10.12,0,0,0,53,32.07a4.37,4.37,0,0,1,.3.55,5.52,5.52,0,0,0,1.22,1.6,1,1,0,0,1,.31.24c.59.63.92.91,1.1.91a.16.16,0,0,0,.18-.14Z"/><path d="M42.88,34.18c0-.1,0-.14-.14-.11a.33.33,0,0,0-.22.18c0,.1,0,.14.14.11A.33.33,0,0,0,42.88,34.18Z"/><path d="M42.6,33.88s-.12-.05-.27,0-.25,0-.08.09S42.6,34,42.6,33.88Z"/><path class="cls-7" d="M55.84,33.19a.75.75,0,0,0-.14-.44.19.19,0,0,1-.1-.18,1,1,0,0,0-.2-.42,1.12,1.12,0,0,1-.2-.54.72.72,0,0,0-.1-.38,13,13,0,0,1-.1-3.29c0-.3.11-.72.13-.93a4.37,4.37,0,0,1,.16-.69c.17-.49.14-.85-.08-.85s-.36.16-.6,1a11.1,11.1,0,0,0-.37,4.23c.08.26.17.64.21.85a4,4,0,0,0,.31.85A2.28,2.28,0,0,1,55,33a.17.17,0,0,0,.15.17.71.71,0,0,1,.37.27c.27.35.38.27.32-.25Z"/><path d="M41.83,33.08c-.06-.28-.25-.33-.21,0s.19.39.25.32A.71.71,0,0,0,41.83,33.08Z"/><path class="cls-7" d="M62.9,31.9c.11-.31,0-.77-.21-.65s-.09,0-.09-.12,0-.15-.09-.12-.19-.06-.31-.21a.79.79,0,0,0-.37-.27.12.12,0,0,1-.13-.12c0-.06,0-.09-.09-.05s-.15,0-.23-.08a2.46,2.46,0,0,0-.9-.63c-.18,0-.2.41,0,.48a.25.25,0,0,1,.14.2c0,.08.18.29.4.47a1.48,1.48,0,0,1,.4.41c0,.05.07.09.15.09s.17.12.21.27.09.26.14.23.16,0,.26.16C62.44,32.27,62.78,32.24,62.9,31.9Z"/><path class="cls-7" d="M56,31.47a.47.47,0,0,0-.07-.39,8.15,8.15,0,0,1,0-3.14c.15-1,.15-1.18,0-1.26-.28-.19-.46.08-.58.9a12.73,12.73,0,0,0,.08,3.5C55.68,31.86,55.92,32.05,56,31.47Z"/><path class="cls-7" d="M63.25,30.24c.08-.54,0-.57-1-.67-.74-.06-.74-.06-.63.17s.16.24.22.24a.94.94,0,0,1,.36.22.89.89,0,0,0,.45.22c.1,0,.17,0,.13.1s.27.36.36.25a1.74,1.74,0,0,0,.14-.53Z"/><path class="cls-7" d="M56.61,30.35a1.53,1.53,0,0,0,.1-.87,7.13,7.13,0,0,1,.1-1.32c.11-.52.1-.63,0-.72s-.27-.12-.4.13a10.77,10.77,0,0,0-.1,2.55c0,.44.11.51.32.23Z"/><path class="cls-7" d="M59.37,30a1.15,1.15,0,0,0,.41-.55,1.43,1.43,0,0,0,.1-1,1.17,1.17,0,0,0-.17-.55,1.77,1.77,0,0,1-.32-.25,1,1,0,0,0-1.22,0,1.28,1.28,0,0,0-.32,1.17.72.72,0,0,1,.06.33,1.25,1.25,0,0,0,.43.83c.21.19.51.18,1,0Z"/><path class="cls-7" d="M58.48,29.25c-.3-.09-.33-.48,0-.78s.27-.25.46-.12.2.21.15.48-.21.5-.34.48Z"/><path class="cls-7" d="M57.49,29.4c0-.13,0-.26,0-.28s-.06-.29,0-.59,0-.54-.08-.51-.26.65-.27,1.27C57.1,29.72,57.36,29.79,57.49,29.4Z"/><path class="cls-7" d="M63.41,28.66c.07-.59-.07-1-.3-.93a5.85,5.85,0,0,1-1.24.38c-.32,0-1.27.54-1.27.72s0,.14.1.1A.23.23,0,0,1,61,29c.1.09.18.09.32,0s.25-.1.46,0a2.34,2.34,0,0,0,.94.16h.68l.06-.5Z"/><path class="cls-7" d="M60.64,28.23a.81.81,0,0,1,.37-.16,3.83,3.83,0,0,0,.62-.22,6,6,0,0,1,.82-.28c.64-.17.88-.42.83-.87s0-.34-.28-.21l-.65.29a17,17,0,0,0-2,1.06.44.44,0,0,0,0,.26c.07.24.2.3.29.13Z"/><path d="M59.56,26.82a20.13,20.13,0,0,1,.83-2,13.21,13.21,0,0,0,.55-1.37c.16-.41.15-.44,0-.66a.85.85,0,0,1-.2-.37.37.37,0,0,0-.2-.24.39.39,0,0,1-.2-.27,2.14,2.14,0,0,0-1-1c-.18,0-.19.11-.21,3.08s0,3.08.17,3.08a.28.28,0,0,0,.26-.19Z"/><path class="cls-9" d="M32.66,26.32c.2-.19.66-.59,1-.87a24.12,24.12,0,0,1,2.2-1.63c.12,0,.51-.63.51-.82s-.19-.29-1.5-.07a17.27,17.27,0,0,0-2.8.67c-.41.12-.88.25-1,.28a2.27,2.27,0,0,0-1,.47c-.09.16.24.81.45.87a.64.64,0,0,1,.29.37c.07.18.18.32.24.32s.2.13.31.29c.39.57.81.61,1.31.12Z"/><path class="cls-9" d="M58.7,26.1c0-.25,0-1.46,0-2.67,0-1.88,0-2.2-.14-2.2s-.19.12-.25.25-.13.25-.17.25a3.24,3.24,0,0,0-.44.68,1.59,1.59,0,0,0,0,1.94,5.21,5.21,0,0,1,.62,1.85.38.38,0,0,0,.12.3l.15.06A3.26,3.26,0,0,0,58.7,26.1Z"/><path class="cls-11" d="M39.07,23.93c0-.12,0-.2-.08-.16s-.12.38,0,.38S39.06,24.05,39.07,23.93Zm-.27,2.18c0-.18,0-.21-.11-.12a.24.24,0,0,0,0,.24C38.75,26.41,38.8,26.37,38.8,26.11Zm-5.74,1.44c.13-.66.16-1,.06-.93s-.29,1.37-.18,1.26a.92.92,0,0,0,.12-.33Zm-.06.5s0-.05-.1-.05a.11.11,0,0,0-.1.12c0,.06.05.08.1,0S33,28.08,33,28.05Zm6.24,1.43A2,2,0,0,0,39.3,29a.76.76,0,0,1,.07-.38,5,5,0,0,0,.1-1,14.42,14.42,0,0,1,.13-1.44,1.73,1.73,0,0,0,0-.63,1.08,1.08,0,0,1,0-.51c.05-.23.12-.66.16-1A11,11,0,0,1,40,23c.14-.55.13-.71,0-.71s-.41.61-.35.68a.67.67,0,0,1,0,.37,21.42,21.42,0,0,0-.42,4.23,4.47,4.47,0,0,1-.1.85.85.85,0,0,0,0,.5.82.82,0,0,1,0,.49c-.05.14-.05.25,0,.25s.12-.08.15-.17Zm-2.36.07a.61.61,0,0,0,.18-.35c0-.15.1-.66.18-1.14a5.9,5.9,0,0,0,.1-1.13c0-.14,0-.25,0-.25s.09-.09.09-.19a14.58,14.58,0,0,1,.26-2.28c.14-.64.12-.94-.05-.94s-.41.61-.51,1.56A6.82,6.82,0,0,1,37,26.05c-.05.11-.08.23-.05.28a2.87,2.87,0,0,1,0,.68c0,.33-.12.78-.14,1a6.24,6.24,0,0,1-.16.75c-.11.36-.05.9.09.9a.41.41,0,0,0,.2-.1Zm-.77-.1a2.92,2.92,0,0,0,.23-1.13c0-.51.09-1.1.11-1.31.12-1,.27-2,.35-2.28s0-.8-.15-.8-.17.28-.24.69-.16,1-.22,1.29-.19.95-.29,1.37-.21,1-.25,1.24a1.24,1.24,0,0,1-.16.53.39.39,0,0,0,0,.53.43.43,0,0,0,.58-.13Zm-2,0a.31.31,0,0,0,.16-.26,2.86,2.86,0,0,1,.1-.52,11.31,11.31,0,0,0,.45-2,1.28,1.28,0,0,1,.14-.55c.16-.22.21-1.09.07-1.09s-.32.25-.49,1c-.1.39-.21.81-.26.93a3.65,3.65,0,0,0-.14.5c0,.15-.1.52-.16.82a6.47,6.47,0,0,0-.13.86c0,.16,0,.3-.08.3a.09.09,0,0,0-.08.1c0,.11.14.09.42,0Zm-1.33-.09c0-.13,0-.44.06-.69s0-.39-.05-.25-.25,1.19-.12,1.19.1-.11.11-.25Zm2.19.22a6.57,6.57,0,0,0,.46-1.86,6.69,6.69,0,0,1,.15-.93,10.06,10.06,0,0,0,.31-1.53.42.42,0,0,1,0-.16,1.88,1.88,0,0,0,0-.66.64.64,0,0,0-.18.16c-.23.25-.33.68-.48,2.1a13.24,13.24,0,0,1-.47,2,2.26,2.26,0,0,0-.15.58c0,.37,0,.46.09.46A.36.36,0,0,0,35,29.62Zm-1.52-.28.2-.77a1.88,1.88,0,0,0,.08-.74.6.6,0,0,1,.06-.43.83.83,0,0,0,.08-.47c0-.22-.14.06-.44,1.06a7.92,7.92,0,0,0-.37,1.56c.07.27.32.14.39-.21Zm4.32.39a36.57,36.57,0,0,0,.52-4.45,11.3,11.3,0,0,1,.19-1.4.9.9,0,0,0,0-.43s0-.14.11-.24.14-.22.07-.31-.14-.08-.2,0a9.28,9.28,0,0,0-.43,1.81,4.35,4.35,0,0,1-.09.6,9.46,9.46,0,0,0-.1,1,3.69,3.69,0,0,1-.11.82,5.87,5.87,0,0,0-.14,1,5.87,5.87,0,0,1-.14,1,1.24,1.24,0,0,0,0,.69c0,.08.2,0,.29-.11ZM39.1,30a.1.1,0,0,0-.1-.1s-.1.08-.1.17.05.14.1.1A.21.21,0,0,0,39.1,30Zm-.61-.5a2,2,0,0,1,.11-.86,4.06,4.06,0,0,0,.08-1.71c-.1,0-.16.33-.22,1.28a7,7,0,0,1-.22,1.31c-.17.56-.13.85.11.75s.15-.23.14-.77Zm.71,1.92a2.21,2.21,0,0,0,.32-.69,2.85,2.85,0,0,1,.19-.56,8.54,8.54,0,0,0,.44-2.09,5.43,5.43,0,0,1,.15-.93,6.58,6.58,0,0,0,.13-1.18,5,5,0,0,1,.1-1,.74.74,0,0,0,.07-.37,5.5,5.5,0,0,1,.16-.94,8,8,0,0,0,.18-.89.51.51,0,0,1,.09-.32.58.58,0,0,0,.07-.3c0-.15-.05-.19-.16-.15a.8.8,0,0,1-.25.07s-.09.14-.09.31a.74.74,0,0,1-.12.44c-.07.07-.09.13,0,.13s0,.12,0,.26a6.41,6.41,0,0,0-.16,1c0,.41-.08.88-.11,1-.08.48-.13,1-.2,2a10.65,10.65,0,0,1-.15,1.32,3.48,3.48,0,0,0-.09.64,5.93,5.93,0,0,1-.45,1.28c-.25.56-.45,1.05-.45,1.09s.2.06.4-.17Zm-8.15,1.12A3.9,3.9,0,0,0,32,30.4c0-.17,0-.32.06-.34a1.44,1.44,0,0,0,.13-.69c0-.62,0-.64-.11-.33a1.37,1.37,0,0,0-.1.55.32.32,0,0,1-.07.29,2.35,2.35,0,0,0-.31.71c-.22.72-.47,1.14-.67,1.15s-.11-.07-.06-.25c.18-.64.17-.71-.1-.94-.89-.77-1.72.41-1.14,1.6a1.3,1.3,0,0,0,.39.51,2.22,2.22,0,0,0,1.05-.15Zm6,0a.43.43,0,0,1,.33-.25c.28,0,.69-.33.71-.52a2.15,2.15,0,0,1,.06-.37c.08-.3-.37-.85-.7-.85-.81,0-1.2,1.06-.76,2C36.82,32.88,36.87,32.87,37,32.49Zm2.4-.08a2.48,2.48,0,0,0,.38-.51,10,10,0,0,1,.55-1.07,3.2,3.2,0,0,0,.22-.91c.07-.42.15-.84.18-.93a4.75,4.75,0,0,0,.1-.61c0-.24.06-.51.07-.6.06-.35.16-1.41.21-2.25,0-.48.08-.9.1-.94a.33.33,0,0,0,0-.23c-.08-.12-.1-.1-.1.1a1.46,1.46,0,0,1-.1.47,10.85,10.85,0,0,0-.21,1.78,11.76,11.76,0,0,1-.67,3.49l-.07.22a3.92,3.92,0,0,1-.4.82c-.06.07-.29.36-.5.66a4.43,4.43,0,0,1-.52.64.34.34,0,0,0-.13.24c0,.23.57,0,.94-.37Zm-5.49,0a.49.49,0,0,0-.11-.4c-.11,0-.11-.09,0-.29a4.09,4.09,0,0,0,.38-1.47c-.06-.19-.47.11-.6.44a6,6,0,0,0,0,1.89,2.15,2.15,0,0,1,.06.33c0,.25.24-.18.26-.5Zm1.16.45c.06,0,.07-.05,0-.12a2.47,2.47,0,0,1,0-.74c0-.92,0-.95.1-1a1.09,1.09,0,0,0,.15-.41c.06-.31,0-.36-.12-.36s-.49.32-.7.86c-.08.22-.18.48-.22.57a1.4,1.4,0,0,0,.35,1.27c.22.19.3.22.32.1s.08-.16.13-.16Zm-1.71.44a.12.12,0,0,0-.13-.11.14.14,0,0,1-.14-.14c0-.07,0-.36-.08-.63a3.77,3.77,0,0,1,0-1.3c.05-.5,0-.58-.11-.55s-.42.88-.42,1.41c0,.29.25,1.19.31,1.1s.14,0,.28.14.3.23.3.08Zm6.11.42a1.56,1.56,0,0,0,.29-.21,2,2,0,0,1,.37-.2c.47-.21.75-.91,1.26-3.15a15.4,15.4,0,0,0,.31-1.76c0-.36.13-1,.21-1.48s.16-1.2.19-1.65a20.17,20.17,0,0,1,.32-2.88c.13-.22-.15-.06-.29.17a26,26,0,0,0-.81,4.87,11.05,11.05,0,0,1-.87,4c-.15.25-.25.48-.22.52s0,.07-.1.07a.16.16,0,0,0-.17.14c0,.51-1.29,1.3-2,1.23-.43,0-.6.12-.25.24a2.76,2.76,0,0,1,.37.16,1.48,1.48,0,0,0,1.36,0ZM37,33.83c0-.06-.11-.14-.25-.17s-.25-.15-.25-.27a.47.47,0,0,0-.14-.32,2.54,2.54,0,0,1,0-2.24c.12-.28.2-.55.16-.58s-.49.11-.67.51a3,3,0,0,0-.15,2.14c.15.61.2.71.36.65s.19,0,.19.05.09.12.19.12a.32.32,0,0,1,.26.11c.08.14.35.14.35,0ZM30.2,35.1a.22.22,0,0,1,.09-.19A8.37,8.37,0,0,0,31.4,33.4a.29.29,0,0,1,.14-.2c.13-.08.28-.8.17-.8s-.14.1-.24.22a.54.54,0,0,1-.3.22c-.19,0-.9.85-1.17,1.4a1.37,1.37,0,0,1-.31.47s-.09.08-.13.17,0,.2.17.27c.33.14.47.13.47,0Zm2.75.57a2.68,2.68,0,0,0,.69-1.18,1.19,1.19,0,0,1,.1-.2c0-.08.06-.17,0-.2s-.46.08-.52.27-.73,1-.81.88.1-.41.39-.85.22-.67,0-.67a3.87,3.87,0,0,0-.88.82c-.66.73-1,1-1,.77a3.63,3.63,0,0,1,.46-.6,9,9,0,0,0,.7-.93c.24-.38.24-.38,0-.5s-.2-.08-.2,0a6,6,0,0,1-.8,1,3.35,3.35,0,0,0-.8,1.12c0,.19.05.22.21.17a.5.5,0,0,1,.43.16.41.41,0,0,0,.41.16l.43-.13c.18-.05.22,0,.22.17C32.1,36.29,32.46,36.19,33,35.67Zm1,.39a2.41,2.41,0,0,1,.27-.45.63.63,0,0,0,.12-.3c0-.09,0-.16.09-.16s.14-.16.21-.36.16-.44.21-.55,0-.19-.07-.19a.62.62,0,0,0-.59.52,2.9,2.9,0,0,1-.51.87c-.48.62-.53.77-.26.84S33.77,36.36,33.91,36.06Zm1.18.12a5.44,5.44,0,0,1,.35-.83,9.48,9.48,0,0,0,.4-1c.07-.23,0-.25-.24-.22s-.36.12-.54.47a2.11,2.11,0,0,1-.27.48,3.94,3.94,0,0,0-.48.57c-.35.45-.4.58-.31.76a.47.47,0,0,0,.33.25c.23,0,.76-.32.76-.53Zm-7.34.38a2.69,2.69,0,0,1,.6-.92c.51-.56.52-.58.29-.65-.62-.17-1.47.77-1.25,1.39a1.6,1.6,0,0,1,.11.47s0,.06.09.06.13-.16.16-.35Zm8.84.32a3,3,0,0,1,.27-.52,7.7,7.7,0,0,0,.86-1.85c-.11-.38-.47,0-1.3,1.5-.4.72-.45.91-.25,1.07s.26.2.42-.2ZM28.43,37a1.67,1.67,0,0,1,.79-1.06c.25-.1,0-.19-.31-.12a.87.87,0,0,0-.48.33,2.41,2.41,0,0,0-.27,1.26C28.26,37.54,28.37,37.37,28.43,37Zm1,.82a2.72,2.72,0,0,1,.61-1.43c.31-.28.14-.33-.41-.13-.74.27-.88.48-.79,1.2.06.54.21.8.46.82,0,0,.09-.21.13-.46Zm8.05.37a2.6,2.6,0,0,0,.51-.66,2.79,2.79,0,0,1,.3-.61,2.37,2.37,0,0,0,.3-.6.53.53,0,0,1,.13-.26,3.16,3.16,0,0,0,.47-1.41c-.08-.14-.5.36-.5.59a11.15,11.15,0,0,1-1,2,4.89,4.89,0,0,0-.36.5,3.47,3.47,0,0,1-.47.59c-.28.24-.29.4,0,.4a1.81,1.81,0,0,0,.7-.53Zm-6,.59a1.33,1.33,0,0,1,0-.56.63.63,0,0,0,.07-.25c0-.1,0-.28,0-.41a1.12,1.12,0,0,1,.26-.53c.28-.36.25-.54-.08-.41a2.12,2.12,0,0,0-.72,1.57,1,1,0,0,0,.19.8,2,2,0,0,0,.24.27,2.21,2.21,0,0,0,0-.48Zm2.94-.18a3.07,3.07,0,0,1,.15-1c.13-.27.13-.32,0-.32s-.47.53-.49,1.19a2.57,2.57,0,0,0,.07.77c.15.27.26,0,.26-.65ZM30.61,39c0-.17,0-.53,0-.8a2.09,2.09,0,0,1,.28-1.13c.28-.59.29-.63.1-.63a1.31,1.31,0,0,0-1.09,1c-.13.48-.13,1,0,1s.1.07.1.16a.34.34,0,0,0,.13.25.6.6,0,0,1,.2.28c.1.29.27.23.28-.11Zm2-.54a2.73,2.73,0,0,1,.25-1.13,1.26,1.26,0,0,0,.17-.53c-.13-.15-.75.11-.91.38a1.55,1.55,0,0,0-.08,1.66c.23.49.29.55.4.43a1.88,1.88,0,0,0,.17-.81Zm.16.95a.11.11,0,0,0-.11-.11s-.07.05,0,.11.08.11.11.11S32.8,39.5,32.8,39.44Zm4.3,0a5.49,5.49,0,0,0,.7-.27,3.63,3.63,0,0,1,.35-.2,5.22,5.22,0,0,0,1.4-2.1,3.48,3.48,0,0,1,.31-.66,6.36,6.36,0,0,0,.49-1.65,1.74,1.74,0,0,1,.17-.51c.06-.08,0-.16,0-.2s-.6.27-.61.45a.19.19,0,0,1-.08.17,6,6,0,0,0-.46,1,9.15,9.15,0,0,1-.51,1.1,1.48,1.48,0,0,0-.19.47,4,4,0,0,1-1,1.67c-.19.16-.35.26-.35.22s-.15,0-.32.13a.94.94,0,0,1-.68.15c-.39-.06-.43-.19-.23-.73a1,1,0,0,0-.19-1.06c-.34-.37-.92,0-1.09.63a1.68,1.68,0,0,0,.72,1.63,3.64,3.64,0,0,0,1.59-.21Zm-3.26.24a.2.2,0,0,0-.05-.23.19.19,0,0,1,0-.22.25.25,0,0,0,0-.21c-.12-.13-.09-.57.09-1.23s.16-.69,0-.75-.68.44-.8,1a1.78,1.78,0,0,0,.36,1.55c.29.34.38.37.46.14Zm1.93-3.12a5.09,5.09,0,0,0,.89-1.84c.05-.32,0-.38-.13-.38s-.41.23-.68.83a6.47,6.47,0,0,1-.42.75c-.45.61-.19,1.11.34.64Zm1.33.95a3.6,3.6,0,0,1,.3-.57,2.91,2.91,0,0,0,.3-.56,5.85,5.85,0,0,1,.35-.73,2.52,2.52,0,0,0,.29-.65s0-.13.12-.28.15-.31,0-.41-.14-.1-.18,0a11.7,11.7,0,0,1-.71,1.46,17.62,17.62,0,0,0-1.21,1.94c0,.2.24.21.47,0s.23-.21.23-.25Z"/><path class="cls-9" d="M43.66,23l.94-.91c.56-.54.6-.61.42-.68a1,1,0,0,0-.54,0,7.55,7.55,0,0,1-1.3.21c-.11,0-.27.64-.34,1.34l-.07.67.29-.17a3.41,3.41,0,0,0,.6-.47Z"/><path d="M49.7,22.7c0-.06,0-.07.1,0s.13,0,.16-.11.11-.17.18-.17a1.41,1.41,0,0,0,.46-.33c.46-.42.3-.55-.65-.52l-.7,0-.09.52c-.12.66,0,.85.28.78C49.58,22.83,49.7,22.76,49.7,22.7Z"/><path d="M43.89,77.48c-.15-.13,0-.2,0-.35s.17-.07.21.07-.05.41-.21.28Z"/></g></g></svg>