<svg xmlns="http://www.w3.org/2000/svg" viewBox="0 0 79 123"><defs><style>.cls-1,.cls-8{fill:#fff;}.cls-1{stroke:#000;stroke-width:1.5px;}.cls-2{fill:none;stroke:#df0000;}.cls-3{fill:#df0000;}.cls-4{fill:red;}.cls-5{fill:navy;}.cls-6{fill:#ff0;}.cls-7{fill:maroon;}.cls-9{fill:#e6e6e6;}.cls-10{fill:green;}.cls-11{fill:olive;}</style></defs><title>QH</title><g id="Layer_2" data-name="Layer 2"><g id="Layer_1-2" data-name="Layer 1"><path class="cls-1" d="M78.25,117.25a5,5,0,0,1-5,5H5.75a5,5,0,0,1-5-5V5.75a5,5,0,0,1,5-5h67.5a5,5,0,0,1,5,5Z"/><path class="cls-2" d="M4,12c6,0,5,5,9,5"/><path class="cls-2" d="M11.25,11c0-3.45,0-6.25-2.75-6.25S5.75,7.55,5.75,11s0,6.25,2.75,6.25S11.25,14.45,11.25,11Z"/><path class="cls-2" d="M67.75,112c0,3.45,0,6.25,2.75,6.25s2.75-2.8,2.75-6.25,0-6.25-2.75-6.25S67.75,108.55,67.75,112Z"/><path class="cls-2" d="M75,111c-6,0-5-5-9-5"/><path class="cls-3" d="M10.57,19.5A2.16,2.16,0,0,0,8.5,21.43,2.16,2.16,0,0,0,6.43,19.5,2.36,2.36,0,0,0,4,22c0,2.16,4.05,5.94,4.5,7.5C9,27.94,13,24.16,13,22A2.35,2.35,0,0,0,10.57,19.5Z"/><path class="cls-3" d="M68.43,103.5a2.16,2.16,0,0,0,2.07-1.93,2.16,2.16,0,0,0,2.07,1.93A2.36,2.36,0,0,0,75,101c0-2.16-4-5.94-4.5-7.5C70,95.06,66,98.84,66,101A2.35,2.35,0,0,0,68.43,103.5Z"/><path d="M13.84,103.4a.32.32,0,0,1-.08-.32c.05-.08.07-1.92.05-4.08,0-4.46,0-7,.08-7.2a.15.15,0,0,0,0-.16,7.83,7.83,0,0,1-.06-1.26c0-4,0-6.21.08-6.38s0-.2,0-.2a3.47,3.47,0,0,1-.08-1.08c0-7,0-9.71,0-12.11s0-3.54,0-4.43c0-.09,0-1.44,0-3,0-3.54,0-6.61,0-12.2,0-2.4,0-4.44,0-4.51s0-.14-.06-.14-.08-.05-.05-.1.05-1.84.05-4,0-5,0-6.31c0-2.22,0-7.28,0-14.5a15,15,0,0,1,.11-2.87A3,3,0,0,1,15,18.44l2.88-.1c1,0,3.82-.07,6.16-.08s4.3-.06,4.34-.1a.21.21,0,0,1,.24,0,34.07,34.07,0,0,0,3.44.06c3.21,0,3.28,0,3.43-.27s.29-.29.36,0,.26.2,4.84.17l9.73-.06c1.35,0,2.75,0,3.1-.05s1.24,0,1.95,0,1.37,0,1.45,0h3.45l2.37,0a9.69,9.69,0,0,1,1.67.05c.08,0,.12,2,.15,6.63,0,6.23.14,20.82.15,21.12V46c0,.43.07,11.75.08,16.77,0,3.23,0,6,0,6s0,.77,0,1.5,0,4.07.05,7.42S65,87.2,65,91.29c.12,13.06.12,12,0,12.16s-4.78.14-25.55.14c-23.69,0-25.4,0-25.55-.19Z"/><path class="cls-4" d="M15.52,53.72l.3-.1c.16-.07,2-.54,2.29-.58a1.67,1.67,0,0,0,.3-.08,16.76,16.76,0,0,1,1.89-.48,6.18,6.18,0,0,0,1-.27,5.53,5.53,0,0,1,1-.26l1.29-.29a6.3,6.3,0,0,1,.75-.17,4.87,4.87,0,0,0,.6-.16,4.12,4.12,0,0,1,.79-.17A4.42,4.42,0,0,0,26.4,51a8.94,8.94,0,0,1,1.28-.28,9.89,9.89,0,0,0,1.19-.28c.31-.1.67-.2.82-.23a1.82,1.82,0,0,0,.86-1.35.5.5,0,0,1,.12-.32c.06-.08.08-.14,0-.14s0-.06.07-.14a1.23,1.23,0,0,0,.23-.61c.05-.39,0-.47-.11-.47a.27.27,0,0,1-.23-.16.26.26,0,0,0-.23-.17,2.46,2.46,0,0,1-.74-.44A2.47,2.47,0,0,0,29,46a.26.26,0,0,1-.21-.16c0-.09-.1-.17-.16-.17a1.91,1.91,0,0,1-.52-.33,1.69,1.69,0,0,0-.56-.33.12.12,0,0,1-.13-.1s-.14-.16-.31-.24-.3-.18-.3-.23a.1.1,0,0,0-.1-.1,2.6,2.6,0,0,1-.58-.36l-.48-.36h-1.8c-1.95,0-1.95,0-2.61.69a.81.81,0,0,1-.38.26c-.07,0-.15.08-.18.17s-.1.17-.16.17A31.08,31.08,0,0,0,18,47.78c-.11.15-.31.47-.46.72a6.85,6.85,0,0,1-.58.83,7,7,0,0,0-.69,1.25,3.26,3.26,0,0,1-.47.86s-.06.05,0,.11,0,.11,0,.11a.11.11,0,0,0-.11.12,1.68,1.68,0,0,1-.24.48,1.36,1.36,0,0,0-.24.48,1.83,1.83,0,0,1-.15.43,1.56,1.56,0,0,0-.14.52c0,.17,0,.2.28.14l.42-.11Z"/><path class="cls-4" d="M58.36,67.19c0-.4-.1-1-.12-1.23a27,27,0,0,0-.55-3.31,1.82,1.82,0,0,1-.11-.57,1.54,1.54,0,0,0-.1-.58,1.42,1.42,0,0,1-.09-.57s0-.17-.11-.31a1.48,1.48,0,0,1-.18-.37,3.1,3.1,0,0,0-.11-.37,1.53,1.53,0,0,1-.09-.41,15.92,15.92,0,0,0-.79-2.35,3.87,3.87,0,0,1-.25-.66c0-.1,0-.18-.66-1.39a4.79,4.79,0,0,1-.38-1,.55.55,0,0,0-.18-.37,3,3,0,0,1-.74-1.14c0-.12,0-.17-.15-.13s-.15,0-.15-.18A4,4,0,0,0,52.69,51c-.5-.57-1.07-1.23-1.27-1.48s-.36-.4-.36-.35-.11-.07-.23-.25a9.23,9.23,0,0,0-1.36-1.45c-.16-.13-.48-.43-.71-.66-.55-.55-.83-.73-1-.64s-.09,0,0,0,0-.16-.11-.2a.69.69,0,0,1-.28-.22A4.27,4.27,0,0,0,46.3,45a.75.75,0,0,1-.31-.23.39.39,0,0,0-.21-.14,1.3,1.3,0,0,1-.39-.2,5,5,0,0,0-.68-.38c-.24-.11-.43-.25-.43-.3s0-.06-.1,0-.22,0-.37-.13a1,1,0,0,0-.33-.19.5.5,0,0,1-.45-.24.28.28,0,0,0-.26-.16.74.74,0,0,1-.4-.19,2.53,2.53,0,0,0-.68-.4l-.66-.3a1.05,1.05,0,0,0-.47-.11c-.17,0-.3,0-.3-.09a.85.85,0,0,0-.43-.23,4.85,4.85,0,0,1-.6-.24,1,1,0,0,0-.44-.1c-.25,0-.26,0-.18.47a1.48,1.48,0,0,0,.15.53.38.38,0,0,1,.08.22,18,18,0,0,0,.32,1.77,3.12,3.12,0,0,1,.09.49,1.85,1.85,0,0,0,.14.55A14.92,14.92,0,0,1,39.94,47a4.52,4.52,0,0,0,.19.61,4.51,4.51,0,0,1,.29.94.57.57,0,0,0,.13.33,1.32,1.32,0,0,1,.15.45,3.92,3.92,0,0,0,.17.61c.3.72.76,1.72.94,2.05a2.2,2.2,0,0,1,.24.55,1.73,1.73,0,0,0,.51.93.29.29,0,0,1,.16.25,2.54,2.54,0,0,0,.31.73,2.92,2.92,0,0,1,.31.65.1.1,0,0,0,.1.1c.06,0,.1.07.1.15a1.44,1.44,0,0,0,.31.5,1.74,1.74,0,0,1,.31.47.1.1,0,0,0,.11.1c.06,0,.08.08,0,.17s0,.17,0,.17.1.07.1.15a.28.28,0,0,0,.16.22.23.23,0,0,1,.15.18c0,.12.21.41.59.84a1.42,1.42,0,0,1,.23.32,7.14,7.14,0,0,0,.64.75,6.8,6.8,0,0,1,.76.92c.06.12.12.16.12.08s.27.14.61.5.75.76.92.91l.45.43c.08.08.15.1.15,0s0,0,.11.11a1.21,1.21,0,0,0,.42.37,4.39,4.39,0,0,1,.71.61,1.94,1.94,0,0,0,.47.43,1.56,1.56,0,0,1,.43.33,1.6,1.6,0,0,0,.41.33,1.35,1.35,0,0,1,.69.66c0,.12,0,.13.06,0s.13-.08.34.08a1,1,0,0,0,.42.22,1.66,1.66,0,0,1,.51.28,1.79,1.79,0,0,0,.45.28,2.2,2.2,0,0,1,.48.33,1.8,1.8,0,0,0,.48.33,5.7,5.7,0,0,1,.81.38c.4.21.95.49,1.23.62s.62.3.76.38a.51.51,0,0,0,.34.08,2,2,0,0,0,0-.78Z"/><path class="cls-4" d="M54,51.25a.69.69,0,0,1,.29-.1L55.38,51c.47-.07,1-.15,1.3-.17l.75-.09.89-.12c.94-.11,1-.15,1-.45a.9.9,0,0,0-.24-.45.7.7,0,0,1-.19-.34c0-.08,0-.15-.1-.15a.1.1,0,0,1-.1-.11,1.24,1.24,0,0,0-.26-.4,1.24,1.24,0,0,1-.26-.42.42.42,0,0,0-.2-.26.46.46,0,0,1-.2-.3.24.24,0,0,0-.08-.19,3.45,3.45,0,0,1-.44-.59c-.19-.3-.42-.63-.5-.73a3.31,3.31,0,0,1-.54-.77,1.84,1.84,0,0,0-.16-.36c-.18-.34-.29-.35-1.17-.2l-1,.17c-.24,0-.53.08-.65.11-.48.12-1.14.23-3.09.51a5.87,5.87,0,0,0-1,.22c-.26.11-.25.11.44.8s2.87,3.07,3.64,4c.47.57.73.73.89.55ZM27.76,55.66a25.61,25.61,0,0,0,1.29-3.1c.06-.24.05-.26-.16-.2l-.69.13c-.83.13-.85.17-.83,1.2a7,7,0,0,0,.11,1.17c.05.18,0,.29-.05.36s-.29.11-.23-.18-.06-.36-.42-.1-.24.17-.24-.1a.47.47,0,0,1,.1-.36c.08,0,.08-.11,0-.19s-.17-.06-.31.08-.23.17-.27.13.13-.3.37-.56a5.53,5.53,0,0,0,.62-.84l.18-.36-.24.09a9.66,9.66,0,0,1-1,.26l-.8.18-.08.47c0,.26-.12.47-.17.47s-.08-.05-.09-.11-.14-.11-.31-.11-.29,0-.25-.17-.07-.21-.54-.17-.42.21.13.49a3.18,3.18,0,0,0,.66.29c.07,0,.12,0,.12.09a1.46,1.46,0,0,0,.53.34c.29.13.75.37,1,.51a1.23,1.23,0,0,0,.63.21c.08,0,.15,0,.15.07s.07.1.15.07.15,0,.15.05.38,0,.51-.11ZM59.48,58.2a6.65,6.65,0,0,1,1-.18,10,10,0,0,0,1.21-.16.56.56,0,0,1,.2,0,3.7,3.7,0,0,0,1.58-.37c.13-.15.13-.2,0-.49a1.63,1.63,0,0,1-.17-.48.37.37,0,0,0-.18-.27c-.1-.06-.14-.11-.09-.11s0-.08,0-.17-.09-.17-.06-.17,0-.15-.19-.34a1.32,1.32,0,0,1-.26-.5c0-.09,0-.16-.11-.16s-.1-.06-.1-.14a.79.79,0,0,0-.21-.39c-.11-.14-.18-.3-.14-.37s0-.1,0,0-.14,0-.18-.21-.1-.28-.15-.28-.12-.11-.16-.24a1.22,1.22,0,0,0-.18-.38,3.89,3.89,0,0,1-.3-.38c-.21-.27-.07-.27-2,.06a23.6,23.6,0,0,1-3.34.44c-.65,0-.7,0-.71.26a1.08,1.08,0,0,0,.28.59c.16.19.27.39.24.44s.06.31.21.55a1,1,0,0,1,.21.55c0,.06,0,.11.05.11s.1.06.1.15a.52.52,0,0,0,.15.28,1,1,0,0,1,.21.42,10.2,10.2,0,0,0,.37,1A5.11,5.11,0,0,1,57,58a.11.11,0,0,0,.11.12c.06,0,.08.08,0,.18s0,.18,1,.11a8.63,8.63,0,0,0,1.37-.18ZM24.7,62.1a.67.67,0,0,0,.18-.38c.05-.24,0-.31-.09-.31s-.16-.09-.17-.27-.07-.34-.34-.11-.38.19-.31-.28,0-.45-.19-.45-.18-.08.43-.76a3.64,3.64,0,0,0,.68-.94.17.17,0,0,1,.16-.18c.14,0,.15.1.1.75a6.61,6.61,0,0,0,0,2,1.61,1.61,0,0,0,.31-.53,4.94,4.94,0,0,1,.36-.69,8.58,8.58,0,0,0,.71-1.6,1.3,1.3,0,0,1,.14-.41c.13-.29.13-.3-.28-.5a3.84,3.84,0,0,0-.52-.21,2.13,2.13,0,0,1-.4-.16,2,2,0,0,0-.41-.17,2.86,2.86,0,0,1-.4-.16,6.54,6.54,0,0,0-.8-.28,16.61,16.61,0,0,1-2.32-.94l-.55-.27-.4-.23a1.66,1.66,0,0,0-.68-.17h-.42l-.38.92A18,18,0,0,1,18,58.2a3,3,0,0,0-.4.76c-.12.31.07.51.56.63a1.64,1.64,0,0,1,.5.21,2.89,2.89,0,0,0,.5.22,5.12,5.12,0,0,1,.81.34,4.07,4.07,0,0,0,1.36.54s.15.06.33.2a1.28,1.28,0,0,0,.38.24,2.24,2.24,0,0,1,.65.24c1.12.54,1.76.71,2,.52Zm35.85,4.31A11.4,11.4,0,0,1,62,66.3a4.25,4.25,0,0,0,.86,0,2.53,2.53,0,0,1,.67-.08,1.49,1.49,0,0,0,.7-.16,4.07,4.07,0,0,0,.12-1.33c0-3.1,0-4.68-.06-4.94l-.06-.28-1,.2c-.57.12-1.2.23-1.39.26s-.53.1-.75.16a11.56,11.56,0,0,1-1.45.16,5.18,5.18,0,0,0-1.68.23,14.09,14.09,0,0,0,.4,2.38.44.44,0,0,1,.09.28c0,.12.09.57.19,1a8.41,8.41,0,0,1,.17,1.42,3,3,0,0,0,.12.86c.11.23.25.23,1.65,0Zm-38.39,1.7c.17-.08.22-.6.05-.6a.09.09,0,0,1-.09-.08,1.37,1.37,0,0,0,0-.29c0-.2,0-.2-.26,0a1,1,0,0,1-.34.18c-.14,0-.24-.36-.12-.49s.11-.43-.1-.37c-.38.11-.32-.14.16-.66a8.83,8.83,0,0,0,.72-1c.44-.76.56-.48.38.91-.11.86-.11,1,0,1.13s.15.08.2-.11.09-.24.14-.24.09-.06.09-.14a7.68,7.68,0,0,1,.43-1.19A8.55,8.55,0,0,0,23.86,64c0-.08-.1-.14-.23-.14a2.93,2.93,0,0,1-.86-.33,3.66,3.66,0,0,0-.76-.33.26.26,0,0,1-.21-.11.37.37,0,0,0-.31-.12c-.13,0-.24,0-.24-.1s-.22-.14-.48-.18a10.76,10.76,0,0,1-2.46-1,3,3,0,0,0-.72-.29.3.3,0,0,1-.22-.11c-.1-.18-.82-.13-1,.07a6.14,6.14,0,0,0-.5,1c-.19.46-.45,1-.57,1.25-.39.69-.39.69.93,1.45.27.16.73.4,1,.53a2.6,2.6,0,0,1,.56.33,2,2,0,0,0,.4.25,11.36,11.36,0,0,1,1.61.85,11.17,11.17,0,0,0,1.57.84.75.75,0,0,1,.3.14c.23.15.28.16.49.07Zm38.09,5.61c.33,0,1.12-.13,1.77-.17a10.22,10.22,0,0,0,2.34-.31,25.68,25.68,0,0,0,0-3.82c-.06-.09-.06-.14,0-.14s.08-.28.06-.63l0-.64h-.73c-.41,0-1.26.07-1.89.14l-1.7.19c-1,.1-.9-.17-.85,2.76,0,2.72,0,2.61.43,2.7a4.47,4.47,0,0,0,.65-.09ZM20,74a.84.84,0,0,1,.14-.46,5.23,5.23,0,0,0,.55-1.72s0-.06.06-.06.17-.14.23-.3l.19-.59a.66.66,0,0,0,.06-.3s0-.08.11-.13.06-.67-.13-.67a1.92,1.92,0,0,1-.55-.23,2.24,2.24,0,0,0-.53-.22.36.36,0,0,1-.24-.15,2.61,2.61,0,0,0-.71-.4,8.27,8.27,0,0,1-.95-.48,1.53,1.53,0,0,0-.58-.25,2.76,2.76,0,0,1-.74-.37,3.23,3.23,0,0,0-.57-.34,6.2,6.2,0,0,1-1-.56,1.85,1.85,0,0,0-1-.38,34.22,34.22,0,0,0,0,4.86.31.31,0,0,0,.22.18.72.72,0,0,1,.33.19,2.58,2.58,0,0,0,1,.59.15.15,0,0,1,.15.14c0,.08.2.23.45.35s.46.25.46.3.06.09.15.09a.16.16,0,0,1,.15.16.13.13,0,0,0,.13.14,3.42,3.42,0,0,1,1,.48,1.5,1.5,0,0,0,.33.19c.15.08.27.19.27.25s.08.11.18.12a.7.7,0,0,1,.37.16c.17.14.21.13.37-.08A1,1,0,0,0,20,74Zm-2.3,6.77a1.4,1.4,0,0,0,.12-.8c0-.16-.08-.33-.09-.39s-.15-.1-.33-.08-.38,0-.34-.34c0-.14-.16-.09-.29.08s-.3.14-.3,0a1.66,1.66,0,0,1,.3-.47,12.08,12.08,0,0,0,.74-1.12,3.21,3.21,0,0,1,.54-.75c.06,0,.08.36.05.92-.08,1.43-.08,1.68,0,1.74s.2-.12.5-1.27A7.55,7.55,0,0,1,19,77.08a.13.13,0,0,0,0-.2.13.13,0,0,1-.05-.17c.06-.12-.54-.56-1.52-1.09a5.79,5.79,0,0,1-.89-.59,4.06,4.06,0,0,0-.74-.49,1.77,1.77,0,0,1-.54-.4s-.06-.09-.14-.09a.21.21,0,0,1-.18-.1c0-.06-.17-.12-.33-.14s-.3,0-.37.52a4.61,4.61,0,0,0,0,1c.07.49.07.49.22.25s.42-.32.44.05c.07,1.33.06,1.61-.06,1.78s-.14.17-.33-.09-.2-.22-.2-.16,0,.45-.06.86c-.06.93.05,1.19.65,1.53a3.84,3.84,0,0,1,.64.45.7.7,0,0,0,.35.21.41.41,0,0,1,.28.22c.07.12.18.22.24.22a.39.39,0,0,1,.23.14,1.61,1.61,0,0,0,.5.26l.4.14a1.89,1.89,0,0,0,.22-.51Zm-1.81,7.55a1.22,1.22,0,0,0,.2-.58,1.74,1.74,0,0,1,.14-.61,1.66,1.66,0,0,0,.15-.53,2.07,2.07,0,0,1,.13-.62c.07-.23.22-.9.34-1.49.19-1,.19-1.09,0-1.25a.7.7,0,0,0-.22-.17,1.53,1.53,0,0,1-.39-.25,7.92,7.92,0,0,0-1-.72c-.18-.1-.33-.22-.33-.27s-.05-.09-.12-.09a.37.37,0,0,1-.22-.17.18.18,0,0,0-.24-.07,12.85,12.85,0,0,0-.08,3.24.3.3,0,0,1,0,.3c-.08.11-.08.17,0,.24a.18.18,0,0,1,.07.21c0,.07,0,.13,0,.13a.8.8,0,0,0,.43-.5.82.82,0,0,1,.17-.34,4.42,4.42,0,0,0,.39-.66,1.6,1.6,0,0,1,.3-.47,15.85,15.85,0,0,1,0,3.09c-.11.19-.24,0-.25-.41s-.13-.49-.3-.19-.1.19-.24,0c-.28-.39-.55-.13-.6.6s0,1,.3,1a1.28,1.28,0,0,1,.44.34.72.72,0,0,0,.38.26c.08,0,.15.05.15.11s.18.12.39-.18Z"/><path class="cls-4" d="M15.33,103.11c.32,0,.81-.65,1.2-1.5a3.23,3.23,0,0,1,.46-.85c.05,0,.08-.06.08-.14a1.94,1.94,0,0,1,.38-.62,6.29,6.29,0,0,0,.56-.88,3,3,0,0,1,.31-.55.48.48,0,0,0,.12-.24.51.51,0,0,1,.14-.26c.27-.3,1.9-3,3.11-5.23a4,4,0,0,1,.25-.37c.34-.43.6-1.35.37-1.35-2-.05-2.31,0-2.37.12a5,5,0,0,1-1.72,2.38,4.09,4.09,0,0,1-2.21.53c-.4-.07-.93-.36-.94-.51s-.11-.13-.25-.19-.25-.18-.25-.28a.17.17,0,0,0-.14-.17c-.19,0-.24,1.58-.21,6.13,0,4.32,0,4.07,1.11,4Z"/><path class="cls-4" d="M41.86,103.09h.65a6.62,6.62,0,0,0,.75,0,1.7,1.7,0,0,1,.74,0,.57.57,0,0,0,.41,0,.5.5,0,0,1,.33,0,6.81,6.81,0,0,0,1.14,0c1.6,0,5.58,0,6.35,0,.37,0,.68,0,.68-.07s.1-.06.22,0,1.37.08,2.78.09c2.29,0,2.57,0,2.74-.19s.17-.21-.55-1a3.52,3.52,0,0,0-.85-.75c-.07,0-.11,0-.1-.12A9.83,9.83,0,0,0,55.32,99a3.37,3.37,0,0,1-.58-.69c0-.06-.09-.13-.2-.17a.32.32,0,0,1-.21-.2,1.37,1.37,0,0,0-.41-.52c-.23-.22-.7-.7-1.05-1.07a4.57,4.57,0,0,0-.84-.75.47.47,0,0,1-.26-.29c0-.12-.13-.22-.22-.22s-.16,0-.16-.1a2.93,2.93,0,0,0-.51-.63,2.35,2.35,0,0,1-.5-.68.16.16,0,0,0-.16-.14c-.09,0-.13,0-.1-.11s-.12-.24-.34-.4a1.76,1.76,0,0,1-.46-.44.23.23,0,0,0-.2-.16c-.07,0-.16-.1-.19-.22S48.8,92,48.71,92a.16.16,0,0,1-.16-.16,1.08,1.08,0,0,0-.38-.46,5.25,5.25,0,0,1-.58-.58,2,2,0,0,0-.33-.39l-.32-.32c-.23-.25-1-.26-3.22,0-1.42.15-1.8.24-1.94.48s-.21.3-.28.39a1.1,1.1,0,0,0-.2.37,1.33,1.33,0,0,1-.23.44c-.09.12-.29.43-.45.7a5.65,5.65,0,0,1-.47.72,9.06,9.06,0,0,0-.52.79C39,95,38,96.69,37.87,96.87c-.22.4-1.16,1.85-1.26,1.95a5.7,5.7,0,0,0-.65,1,1,1,0,0,1-.17.28,2,2,0,0,0-.42.62,9.22,9.22,0,0,1-.89,1.48s-.08.12-.08.22a.5.5,0,0,1-.12.32c-.06.08-.08.17,0,.22a34.2,34.2,0,0,0,3.42.09,31.32,31.32,0,0,1,3.35.09c0,.05.08.06.17,0a3.12,3.12,0,0,1,.68-.07Z"/><path class="cls-4" d="M64.51,102.86a16.43,16.43,0,0,0,.14-3.21c0-.76,0-3.79,0-6.73,0-4.72,0-5.33-.16-5.28a1.24,1.24,0,0,0-.36.44,4.89,4.89,0,0,1-1.37,1.35,7.33,7.33,0,0,1-1.35.42,2.72,2.72,0,0,1-1.35,0,1.24,1.24,0,0,0-.43-.24,2,2,0,0,1-.58-.35.63.63,0,0,0-.28-.2,2.43,2.43,0,0,1-.56-.45l-.47-.45-.52.22c-.81.35-.92.39-1,.36a.28.28,0,0,0-.2.09,2.75,2.75,0,0,1-1,.29l-.55.16a12.73,12.73,0,0,1-3.12.36l-1.28,0,.06.27a6.72,6.72,0,0,0,1.44,1.68c.05,0,.18.14.29.3a2.74,2.74,0,0,0,.31.39,4.82,4.82,0,0,1,1,1.07c0,.05.08.1.17.09s.18,0,.18.1a2.89,2.89,0,0,0,.55.71c.35.37.52.63.48.74s0,.16.08.12.23,0,.35.18L56,96.5a8.11,8.11,0,0,1,.92,1.12c0,.06.15.17.34.24a1.05,1.05,0,0,1,.47.41c.07.15.19.28.24.28s.23.16.37.35.36.48.48.63a1,1,0,0,1,.23.36.1.1,0,0,0,.11.1,1.43,1.43,0,0,1,.47.39,1.39,1.39,0,0,0,.46.38c.06,0,.08,0,0,.07s.6.82.74.82.1.07.1.15.13.25.28.35a5.49,5.49,0,0,1,.6.54c.29.31.41.35,1.06.4.84.07,1.47,0,1.58-.23Z"/><path class="cls-5" d="M61.23,102.87c0-.1-.14-.32-.4-.56a1.46,1.46,0,0,1-.44-.52.13.13,0,0,0-.11-.14,1.76,1.76,0,0,1-.51-.47c-.22-.25-.4-.41-.4-.36s-.07,0-.16-.2-.18-.3-.22-.3-.16-.15-.26-.33-.23-.34-.29-.34a.84.84,0,0,1-.34-.24l-.37-.4-.31-.33a.61.61,0,0,1-.18-.27,1.09,1.09,0,0,0-.51-.53.11.11,0,0,1-.1-.1c0-.17-.51-.69-.6-.62s-.17-.08-.27-.25c-.24-.4-.41-.58-.54-.58a.11.11,0,0,1-.11-.11,12.88,12.88,0,0,0-1.8-1.92A1.06,1.06,0,0,1,53,94a2,2,0,0,0-.71-.75.06.06,0,0,1-.06-.1c0-.1-.3-.46-.45-.46s-.1-.07-.1-.16a.6.6,0,0,0-.26-.35.57.57,0,0,1-.25-.33c0-.09,0-.16-.1-.16a1.58,1.58,0,0,1-.65-.54,13.45,13.45,0,0,0-1.48-1.62,1.84,1.84,0,0,1-.46.09c-.21,0-.51.09-.66.13s-.28.09-.11.4.22.29.26.25.12.05.15.17.16.29.36.25c0,0,.08,0,.08.1a11.4,11.4,0,0,0,1.72,1.88c.05,0,.12.1.15.22s.13.19.21.15.15,0,.15.11a.42.42,0,0,0,.44.31s.06.06,0,.15,0,.22.19.3a.65.65,0,0,1,.31.33c0,.11.1.21.15.21a32,32,0,0,1,3,3.32c0,.08,0,.12.07.08a5.42,5.42,0,0,1,1,1,6.46,6.46,0,0,0,1,1,.11.11,0,0,1,.11.1,2.82,2.82,0,0,0,.81.9,1.36,1.36,0,0,1,.39.44c.16.24.32.41.35.38s.27.24.53.61l.47.67.74,0c.58,0,.75-.06.78-.19Z"/><path class="cls-5" d="M33.51,102.75a6.38,6.38,0,0,1,.52-.83,13.31,13.31,0,0,0,1.13-1.74,7.17,7.17,0,0,1,.46-.79,4.3,4.3,0,0,0,.42-.77,3,3,0,0,1,.42-.67,7.05,7.05,0,0,0,.95-1.47,2.65,2.65,0,0,1,.32-.55c.18-.26.39-.57.47-.71s.25-.41.39-.61l.63-1a3.13,3.13,0,0,1,.45-.62,1,1,0,0,0,.22-.39,2.54,2.54,0,0,1,.58-.91.59.59,0,0,0,.17-.32,1.24,1.24,0,0,1,.25-.46c.33-.45.3-.57-.14-.59-.67,0-.87,0-1.07.31l-.41.59a1.06,1.06,0,0,0-.22.43,5.23,5.23,0,0,1-.52.9c-.44.67-.79,1.25-1.19,2-.06.1-.17.26-.25.37a5.16,5.16,0,0,0-.44.67,19,19,0,0,1-1.14,1.83,6.29,6.29,0,0,0-.47.73A14,14,0,0,1,34,100a4.11,4.11,0,0,0-.37.62,12.07,12.07,0,0,1-.63,1.14,13,13,0,0,0-.64,1.15s.23.09.5.11c.42,0,.51,0,.61-.22Zm-8.1.17a8.24,8.24,0,0,0,1-1.49.11.11,0,0,1,.1-.11c.06,0,.15-.13.2-.29a7.47,7.47,0,0,1,.66-1.12,13.16,13.16,0,0,0,1.29-2.09.65.65,0,0,1,.2-.32c.1-.11.17-.24.14-.29s0-.11.1-.14a.73.73,0,0,0,.27-.38,4.79,4.79,0,0,1,.44-.79,2.54,2.54,0,0,0,.32-.61.4.4,0,0,1,.19-.26.48.48,0,0,0,.2-.31c0-.09,0-.16.07-.16a2.71,2.71,0,0,0,.51-.68c.24-.37.52-.77.61-.9a1.4,1.4,0,0,0,.23-.43,2.33,2.33,0,0,1,.34-.57c.34-.41.6-1,.52-1.12s-.92,0-1.13.2a9.57,9.57,0,0,0-.7,1,10.7,10.7,0,0,1-.69,1,3.07,3.07,0,0,0-.33.56,4.4,4.4,0,0,1-.5.78,2.08,2.08,0,0,0-.33.52,1.18,1.18,0,0,1-.25.42,5.72,5.72,0,0,0-.51.81c-.14.27-.4.72-.58,1a2.85,2.85,0,0,0-.32.57,1.11,1.11,0,0,1-.22.36,7,7,0,0,0-.46.67c-.14.23-.38.59-.54.81a2.46,2.46,0,0,0-.3.47,15,15,0,0,1-1.28,2.14,1.91,1.91,0,0,0-.33.53c0,.25.82.36,1.11.16Zm-7.83-.11a1.25,1.25,0,0,0,.22-.32s.64-1,1.2-1.88a2.93,2.93,0,0,0,.25-.44c0-.07.17-.33.32-.59a2.45,2.45,0,0,0,.28-.57.38.38,0,0,1,.15-.24,8.83,8.83,0,0,0,1-1.67.09.09,0,0,1,.08-.1s.15-.14.24-.31a5.62,5.62,0,0,1,.48-.74,7.27,7.27,0,0,0,.53-.79c.1-.21.47-.82.8-1.38a8.39,8.39,0,0,0,.61-1.1.48.48,0,0,1,.17-.25,2.84,2.84,0,0,0,.6-1.25,2,2,0,0,0-.57-.07c-.58,0-.89.2-1.18.83a2.78,2.78,0,0,1-.34.56,3.28,3.28,0,0,0-.42.73,21.69,21.69,0,0,1-1.3,2.16,4.26,4.26,0,0,0-.27.44,2.66,2.66,0,0,1-.24.39,5.64,5.64,0,0,0-.59,1,3.35,3.35,0,0,1-.34.6,2.9,2.9,0,0,0-.34.63.83.83,0,0,1-.17.32,12.09,12.09,0,0,0-1.16,1.81,13.87,13.87,0,0,1-1.36,2.25c-.05,0-.07.09,0,.11a1,1,0,0,0,1.37-.08Z"/><path class="cls-6" d="M16.93,92.56a1.46,1.46,0,0,1,.13-.39,4,4,0,0,0,.22-.69c.12-.46.12-.58,0-.58A2.83,2.83,0,0,0,16.85,92a8.55,8.55,0,0,1-.4,1.19.42.42,0,0,0-.08.22c0,.19.49-.53.56-.83Z"/><path class="cls-6" d="M16.1,92.86c.1-.25.27-.65.37-.88.23-.51.37-1,.29-1.12s-.42.15-.42.33a2,2,0,0,1-.13.52c-.08.2-.21.58-.3.85s-.19.56-.21.64a.09.09,0,0,0,.08.14c.08,0,.22-.22.32-.48Z"/><path class="cls-6" d="M17.51,92.58c-.08-.09-.25.11-.25.29s0,.14.15,0S17.53,92.6,17.51,92.58Z"/><path class="cls-6" d="M15.61,92.26a8.28,8.28,0,0,1,.35-1c.13-.27.13-.37,0-.41s-.18.11-.25.35-.2.62-.31.88c-.19.5-.23.8-.09.8A1.71,1.71,0,0,0,15.61,92.26Z"/><path class="cls-6" d="M17.83,91.87c.31-.77.32-.86.12-.86s-.22.16-.34.66-.15.69-.15.73S17.66,92.29,17.83,91.87Z"/><path class="cls-6" d="M15.29,91a.23.23,0,0,0-.17-.11s-.07,0,0,.09a.66.66,0,0,1-.09.4,1.48,1.48,0,0,0-.13.6c0,.24.05.19.25-.29A1.78,1.78,0,0,0,15.29,91Z"/><path class="cls-6" d="M14.59,91.35c.18-.41.19-.69,0-.39s-.29.71-.21.71A.79.79,0,0,0,14.59,91.35Z"/><path class="cls-6" d="M36.37,91c.47-.07.59,0,.67.09s.1.12.1,0S37.36,91,38,91s.85,0,1-.18.14-.53-.15-.46l-1.11.11c-.49,0-1.15.09-1.45.12s-.93.07-1.4.09a2.87,2.87,0,0,0-1.09.18l-.25.16.3.06a12.17,12.17,0,0,0,2.58-.1Zm-8.14.42c.8,0,1.66,0,1.89,0,.42,0,.82-.19.82-.47A7.16,7.16,0,0,0,29.16,91c-2.81.08-3.84.16-3.79.31a2.59,2.59,0,0,0,1.31.2A15.38,15.38,0,0,1,28.23,91.44Zm1,.85c.57-.05.91-.13,1-.24s.1-.16.08-.17l-2.68,0c-2.66,0-2.91,0-2.91.35a.22.22,0,0,0,.17.18c.28.06,3.42,0,4.35-.07Zm-11,.23c0-.22.39-.75.5-.67s0,.15,0,.28c-.13.28-.06.38.1.16s.09-.17,0-.17,0-.08.13-.17.47-.83.27-.83-.12.07-.08.17,0,.16-.05.16-.11.08-.11.18-.07.16-.18.13a.18.18,0,0,1-.14-.2c.07-.33.06-.47-.06-.52s-.52.79-.52,1.15c0,.15,0,.26-.1.26s-.07,0,0,.11.25.14.25,0Zm18.08.33c.4,0,.72,0,.73.07s0,.07.08,0a1.46,1.46,0,0,1,.42-.12c.66-.13.61-.58-.06-.52-.35,0-.45,0-.45-.12s.2-.3.72-.31.75-.14.59-.35-.18-.15-3.51,0c-1.7,0-2.13.17-1.76.47.13.1.46.12,1.19.07a6,6,0,0,1,1.39,0c.22.07.37.08.37,0s.21-.1.45-.1.45,0,.45.15-.17.16-.74.16a1.9,1.9,0,0,1-.82-.11c0-.08-.09-.06-.14,0s-.35.16-.91.18c-1.61,0-2,.14-2,.51,0,.08.79.06,4-.08Zm-10.22.52c.83,0,1.73-.06,2-.05,1.12,0,1.29,0,1.52-.23a.89.89,0,0,0,.22-.32,5.33,5.33,0,0,0-1.27-.1l-1.38,0-.87.07a2.32,2.32,0,0,1-.93,0,.94.94,0,0,0-.65.07c-.44.15-.49.2-.49.49s0,.31.18.25a11.82,11.82,0,0,1,1.67-.14Zm7.13.36a.14.14,0,0,1,.17,0c.06.11.56.13.56,0a3.7,3.7,0,0,1,.92-.08c1.81,0,2.23-.07,2.42-.22s.16-.18.12-.22a12.52,12.52,0,0,0-2.87,0c-.63,0-1.43.08-1.78.07-.67,0-1,.1-1,.36,0,.11.15.14.67.1a6,6,0,0,0,.8-.09Zm-7.74.61a7.66,7.66,0,0,0,1.08,0c.13,0,.69-.06,1.24-.09,1.1-.05,1.31-.11,1.39-.37s.22-.3-2.89-.2c-1.88.07-2.43.12-2.55.24s-.13.17,0,.27a.73.73,0,0,0,.43.07c.16,0,.31,0,.35.08s.08.07.09,0,.36-.08.86,0Zm10.26.29c.6,0,.85-.07.92-.19.2-.36.1-.42-.63-.39-2,.09-4.14.21-4.28.24l-.32,0c-.11,0-.17.09-.17.23s0,.22,1.82.16l2.66-.09Zm-1.32.86a9.6,9.6,0,0,0,1.65-.18l.25-.12-.3-.1a4.09,4.09,0,0,0-1.06,0l-2.44.13a10.44,10.44,0,0,0-1.79.16.21.21,0,0,0,0,.22c.06.09.38.11,1.19.07l2.51-.14ZM24.07,96h1.76l1,0A3,3,0,0,0,27.86,96c.32-.16.79-1.07.62-1.18a18.79,18.79,0,0,0-2.74-.12H24.49c-.74,0-1.11.06-1.23.17-.35.3-.08.38,1.27.37a6.67,6.67,0,0,1,1.45.07c.07,0,.12,0,.12,0a2.85,2.85,0,0,1,1-.13c.94,0,1,0,1,.17s-.16.2-1.43.22c-3,0-3.95.1-4.06.22s0,.41.11.31A11.33,11.33,0,0,1,24.07,96Zm7.22.64c.2,0,1.66,0,3.57-.13.58,0,.91-.2.83-.42a7.08,7.08,0,0,0-2.77,0,14.93,14.93,0,0,1-1.5.06h-1a.33.33,0,0,0-.32.39c0,.16.48.27.76.2a1.19,1.19,0,0,1,.38,0Zm-3.8,0c0-.22-.09-.22-2.61-.21-2.28,0-2.61,0-2.77.21s-.15.38.44.37a37.4,37.4,0,0,1,4.27.13s.16,0,.36-.1.34-.24.31-.4Zm6.69,1c.58,0,.74,0,.89-.22s.16-.22-.21-.33a3.12,3.12,0,0,0-.94-.06c-.3,0-1.4.07-2.43.09-1.47,0-1.9.06-2,.18a.27.27,0,0,0,0,.3c.08.11.52.13,2,.09l2.61,0Zm-7.28,0a11.38,11.38,0,0,0-2.63-.15c-2.31,0-3,0-2.83.24,0,0,1.2.09,2.59.12s2.56.08,2.58.11.33-.19.29-.32Zm7.27,1a.59.59,0,0,0,.29-.18c.1-.11.1-.16,0-.23a35.25,35.25,0,0,0-5.45.11c-.17.19.08.31.7.35S33.92,98.57,34.17,98.52Zm-8.2,0c.31,0,.37,0,.37-.23s-.07-.22-1.58-.21l-2.6,0c-.73,0-1.07,0-1.18.12-.35.33.08.39,2.38.36l2.61,0Zm7.39,1c0-.06.06-.07.15,0A.3.3,0,0,0,34,99.2c0-.2-.11-.21-2.79-.19s-2.8,0-2.84.22,0,.22,0,.25a9.94,9.94,0,0,0,1.24,0,7,7,0,0,1,1.22,0,10.42,10.42,0,0,0,2.56,0Zm-7.9,0s0-.07.09,0a.28.28,0,0,0,.26,0c.12-.07.12-.12,0-.28s-.31-.18-.78-.2a44.85,44.85,0,0,0-4.58.17c-.19.13-.14.43.06.37a4.29,4.29,0,0,1,.88,0,23.53,23.53,0,0,0,4.05,0Zm7.9.71a2.15,2.15,0,0,0,.1-.27s-1.24,0-2.75,0c-2.34,0-2.77,0-2.85.17-.18.32.34.39,2.9.39h2.5l.1-.26Zm-8.68.22a1.36,1.36,0,0,1,.49-.11.15.15,0,0,0,.17-.13c0-.19,0-.19-3.39-.25-1.83,0-2,0-2.08.18s-.09.23-.05.27a8.87,8.87,0,0,0,1.53.11c.81,0,1.48,0,1.49.06a6.47,6.47,0,0,0,1.84-.13Zm0,.85c.13-.1.21-.21.17-.26a9.78,9.78,0,0,0-2-.15H19.3l-.16.27c-.1.18-.12.29,0,.31s1.29,0,2.73,0C24.08,101.49,24.48,101.46,24.69,101.3Zm3.84.18,1.2,0c1,0,2.42,0,2.75-.07s.38-.36.08-.44a37.86,37.86,0,0,0-5.12,0c-.36.15-.33.39.07.42.17,0,.34.08.36.14a.09.09,0,0,0,.14,0,1.45,1.45,0,0,1,.52-.1Zm3.76.68c.08-.12.05-.17-.17-.23a52.06,52.06,0,0,0-5.41,0,.14.14,0,0,0-.12.12c0,.14.46.17,3.22.19,1.87,0,2.39,0,2.48-.12Zm-8.95.12c.73,0,.8,0,.8-.24s-.06-.22-.25-.2a5.11,5.11,0,0,1-.7,0c-.91,0-4.32,0-4.42.1s-.05.11,0,.19.19.13.47.11a12.28,12.28,0,0,1,2.85.11.42.42,0,0,0,.25,0c.12,0,.58,0,1-.07Zm8.09.72c.33,0,.37-.22.05-.22l-2.7-.07c-2.19-.07-2.48-.06-2.48.09s.17.18.83.2,3.68,0,4.3,0Zm-7.95-.07c.14-.16-.18-.22-1.16-.24l-2.49,0c-1,0-1.47,0-1.58.11s-.12.18-.09.23a47.3,47.3,0,0,0,5.32-.06Z"/><path class="cls-4" d="M23.5,90.58c.09.09.13.09.13,0a5.39,5.39,0,0,1,1.88-.11,15.64,15.64,0,0,0,3.78-.16c.07,0,.14-.06.18,0a38.12,38.12,0,0,0,5.41-.09l1.95-.18,3-.25c1.89-.17,2.29-.2,3.65-.28.66,0,1.56-.13,2-.19a8.8,8.8,0,0,1,1.35-.11c.65,0,.75-.11.81-1,0-.53-.18-1.22-.28-.88a6,6,0,0,0-.16,1.16c0,.1-.17.28-.32.28a1.79,1.79,0,0,1,0-.72c.07-.83,0-1.53-.2-1.46a1.84,1.84,0,0,0-.19.86c-.07.79-.27,1.39-.44,1.27s-.05-.29,0-.58a8.06,8.06,0,0,0,0-2.36,3.7,3.7,0,0,0-.25,1.08c-.19,1.29-.21,1.36-.4,1.36s-.12,0-.09-.09a12.84,12.84,0,0,0,.16-1.89A3.11,3.11,0,0,0,45.16,85a5.07,5.07,0,0,0-.23,1.67,3,3,0,0,1-.4,1.33c-.13.14-.15.13-.1-.17a12.24,12.24,0,0,0,.14-2.69c0-.47-.2-.25-.31.39a3.13,3.13,0,0,1-.2.76.39.39,0,0,0,0,.28c.06.17-.09.51-.18.42a3.53,3.53,0,0,1,0-.89,6.75,6.75,0,0,0,0-2.28,2.38,2.38,0,0,0-.28,1,2.67,2.67,0,0,1-.27,1,3.26,3.26,0,0,1,0-1.19,5.24,5.24,0,0,0,0-1.78c-.06-.07-.09,0-.29,1.11-.15.78-.35,1.23-.46,1a17.42,17.42,0,0,1,.1-1.75c.12-1.32.12-1.69,0-1.8s-.13,0-.18.44c-.09.86-.25,1.53-.35,1.46s-.06,0,0,.1-.11.36-.19.21A8.89,8.89,0,0,1,42,82.42a9.26,9.26,0,0,0,.12-2.5s-.11.19-.14.42a6.24,6.24,0,0,1-.29,1.48,1,1,0,0,0-.07.48s0,.06-.1.06-.15-.08-.12-.36c.11-1,.21-2.39.2-2.69s0-.32-.16.12c-.34,1-.46,1.27-.53,1.27s-.11-.27,0-.76.37-2.18.37-2.35a.09.09,0,0,0-.09-.1,3.35,3.35,0,0,0-.43,1.24,1,1,0,0,1-.21.46.56.56,0,0,0-.14.28c0,.07,0,.12-.09.12s0-.57.25-1.55a6.84,6.84,0,0,0,.27-1.87c0-.13,0-.24,0-.24a.09.09,0,0,0,.09-.1c0-.06-.07-.08-.15,0a.28.28,0,0,0-.15.25c0,.21-.26.68-.38.68s0-.84.1-1.22.18-1.55,0-1.55-.1.06-.09.14a.64.64,0,0,1,0,.3c0,.09-.14.5-.26.9a3.91,3.91,0,0,1-.35.94c-.14.2-.14.19-.09-.12s.07-.43.08-.55a1.06,1.06,0,0,1,.06-.25s.05-.11.13-.75a3.63,3.63,0,0,1,.13-.66,1.52,1.52,0,0,0,.07-.73,2.78,2.78,0,0,0-.2.58c-.23.84-.67,1.84-.71,1.62a.76.76,0,0,1,.07-.41,1.36,1.36,0,0,0,.1-.51A1.43,1.43,0,0,1,39.4,74a4.18,4.18,0,0,0,.13-1c0-.55,0-.67,0-.45a2.37,2.37,0,0,1-.19.46c-.06.07-.08.17,0,.21s0,.13,0,.21a.53.53,0,0,0-.11.25c0,.06,0,.13-.09.14a6.81,6.81,0,0,1,.09-1.86c0-.21,0-.3,0-.19s-.09.19-.14.19-.1.08-.09.17a.19.19,0,0,1-.21.17c-.15,0-.19-.06-.16-.2a9.85,9.85,0,0,0,.1-1c0-.74,0-.86-.1-.86s-.16.1-.16.28,0,.26.12.21.08,0,0,.13a2.88,2.88,0,0,0-.16.73c0,.41-.09.5-.19.39A5.58,5.58,0,0,1,38,70.34a14.54,14.54,0,0,0-.4-3.94,2.38,2.38,0,0,0,0,1.27,1.32,1.32,0,0,1,.08.64,2.41,2.41,0,0,0,.07.77c0,.11,0,.22,0,.25s-.06.19,0,.35-.14.85-.28.76a1.5,1.5,0,0,1,0-.67c0-.33,0-.6,0-.6s-.06-.18,0-.4a3.83,3.83,0,0,0-.08-1A13.48,13.48,0,0,1,37,65.72a.44.44,0,0,0-.16-.36c-.09,0-.13,0-.11,0a10.48,10.48,0,0,1,.13,1.36c0,.69.1,1.73.14,2.32.06.89,0,1.08-.08,1.2s-.16.11-.16-.17c0-.62-.15-2-.25-2.65-.06-.36-.13-.84-.15-1.06a5.8,5.8,0,0,0-.26-1.58,1.27,1.27,0,0,1-.15-.35c0-.12,0,0,0,.31a1.27,1.27,0,0,0,.08.52s.06.06.07.14,0,.36.08.63c.2,1.38.14,2.35-.12,2.17a.84.84,0,0,1-.11-.48,10.79,10.79,0,0,0-.22-1.46c-.12-.58-.25-1.18-.28-1.33s-.08-.35-.11-.44a.7.7,0,0,1,0-.3c0-.13-.17-.32-.24-.23a4.1,4.1,0,0,0,.13.87l.2,1c0,.09.08.38.15.64.13.51.09.72-.16.67S35.14,67,35,66.4a8.68,8.68,0,0,0-.37-1.55,3.55,3.55,0,0,1-.22-1.25c0-.14-.05-.19-.23-.19H34l.19.41A4.75,4.75,0,0,1,34.41,65c0,.4.11,1,.14,1.29s0,.6,0,.64-.11,0-.11-.09,0-.18-.08-.18a1.26,1.26,0,0,1-.11-.58,1.89,1.89,0,0,0-.14-.71.82.82,0,0,1-.13-.39,1.14,1.14,0,0,0-.11-.4c0-.07,0-.13,0-.13s0-.11-.12-.25-.14-.2-.05-.14.13.06.05-.06a1,1,0,0,1-.13-.42c0-.27-.2-.58-.34-.58s-.07.1-.06.22,0,.19.09.16.07,0,.07.15a7.06,7.06,0,0,0,.11.8c.12.66.25,1.56.28,2,0,.15,0,.29-.1.31s-.34-.82-.35-1.25c0-.09-.05-.16-.1-.16a.08.08,0,0,0-.09.08c0,.16-.12.59-.2.59a1.9,1.9,0,0,1-.25-.64c-.1-.35-.22-.74-.27-.86s-.19-.58-.32-1a2.8,2.8,0,0,0-.31-.8c-.17,0-.15.31.07.94a8.79,8.79,0,0,1,.3,1.17c.07.44.06.48-.07.33a.94.94,0,0,1-.19-.33.87.87,0,0,0-.18-.32c-.09-.08-.1-.11,0-.08s0-.13-.08-.38a1.52,1.52,0,0,0-.25-.44,1.7,1.7,0,0,0,0,.61c0,.58,0,.83-.16.69a.5.5,0,0,1-.09-.23.76.76,0,0,0-.13-.31,1.66,1.66,0,0,1-.18-.4c-.12-.39-.23-.3-.18.14,0,.23,0,.38-.06.38s-.11-.07-.11-.16-.05-.17-.1-.17-.19-.19-.31-.41c-.2-.42-.22-.4-.24.3,0,.45-.16.62-.22.24a1.7,1.7,0,0,0-.24-.57,1.37,1.37,0,0,1-.21-.38,1,1,0,0,0-.2-.29c-.2-.22-.2-.21-.18.09s.24.63.39.52.1,0,.1.1a.27.27,0,0,1-.12.22c-.1,0-.1.08,0,.16a.27.27,0,0,1,.08.31c-.06.18-.09.16-.27-.13a1.39,1.39,0,0,1-.2-.45.44.44,0,0,0-.15-.26.52.52,0,0,1-.16-.35c0-.11-.05-.21-.1-.21s-.1-.07-.1-.16,0-.17-.1-.17-.06.41.11.83.21.72.14.72-.44-.46-.4-.55,0-.16-.13-.24a2.44,2.44,0,0,1-.42-.68c-.13-.29-.29-.52-.37-.52s-.11-.07-.08-.16,0-.21-.17-.28-.2-.11-.14.15,0,.29,0,.29a.11.11,0,0,0-.11.11c0,.06.09.11.2.11a.18.18,0,0,1,.2.17c0,.09,0,.16.08.16a1.49,1.49,0,0,1,.33.68s-.11,0-.25-.05a.45.45,0,0,1-.25-.32.76.76,0,0,0-.22-.41,1.82,1.82,0,0,1-.33-.47.74.74,0,0,0-.25-.29c-.19-.07-.05.38.21.68s.21.55,0,.6S26,63,26,62.76s0-.32-.23-.27-.19,0-.09-.06.1-.13,0-.18-.31,0-.31.31a.38.38,0,0,1-.22.35,6.76,6.76,0,0,0-1,1.94,36.07,36.07,0,0,0-1.48,3.64.7.7,0,0,1-.2.29.62.62,0,0,0-.19.39.47.47,0,0,1-.09.28,2.87,2.87,0,0,0-.24.66,15.27,15.27,0,0,1-.48,1.49,3.84,3.84,0,0,0-.29,1c0,.06,0,.1,0,.1s-.17.26-.26.58a8.57,8.57,0,0,1-.35,1,2.13,2.13,0,0,0-.18.63.28.28,0,0,1-.12.27,5.7,5.7,0,0,0-.5,1.37c-.2.72-.42,1.46-.49,1.65l-.35,1c-.13.37-.29.92-.36,1.22a3.82,3.82,0,0,1-.19.67,1.89,1.89,0,0,0-.13.52,5,5,0,0,1-.32,1,3.79,3.79,0,0,0-.28.86,6.58,6.58,0,0,1-.19,1.13.64.64,0,0,0,0,.3.24.24,0,0,1-.08.2.53.53,0,0,0-.1.37.8.8,0,0,1-.09.41,6.41,6.41,0,0,0-.28,1c-.1.49-.26,1.16-.34,1.5a4.38,4.38,0,0,0-.25,1.89c.15.17,1,.22,4,.25a24.68,24.68,0,0,1,2.9.11s.11,0,.17,0,.14-.07.23,0Z"/><path d="M17.77,88.85a.15.15,0,0,0-.21-.1c-.13.06-.15,0-.1-.22s0-.29-.05-.29c-.24,0-.1-.53.27-1l.39-.5v1a3.73,3.73,0,0,0,.07,1s.08,0,.08.11S17.84,89,17.77,88.85Z"/><path d="M19.31,88.84a1,1,0,0,0-.13-.38c-.1-.17-.09-.25.05-.42a.72.72,0,0,0,.16-.32.68.68,0,0,1,.2-.31.68.68,0,0,0,.19-.39c0-.16.38-.68.4-.55s0,.37.07.77c.14,1.77.12,1.88-.23,1.67a.47.47,0,0,0-.45,0c-.21.09-.26.07-.26-.06Z"/><path d="M30,88.85a.19.19,0,0,0-.2-.17c-.11,0-.2,0-.2.11s-.3.16-.3,0a1.18,1.18,0,0,0-.09-.23c-.07-.12-.14-.13-.31,0s-.24.11-.27.08A1.31,1.31,0,0,1,28.9,88s.18-.35.33-.7a3.72,3.72,0,0,1,.33-.63l.23.11c.14.08.19.23.2.56s.06.46.13.49.14.39.1,1c0,.19-.21.17-.21,0Z"/><path d="M21.86,88.67c-.05-.18-.14-.29-.24-.28s-.18-.08-.2-.24,0-.24,0-.24.28-.46.62-1.43c.14-.41.25-.16.33.76.1,1.1.18,1.44.35,1.44s.14,0,.14.11-.09.09-.2.08a.21.21,0,0,1-.2-.19c0-.33-.14-.34-.37,0l-.21.31-.07-.29Z"/><path d="M24.86,88.73c-.25-.14-.34-.15-.53,0s-.25.11-.34,0-.14-.17-.19-.13a.19.19,0,0,1-.19,0c-.06,0,.05-.32.24-.65a6.64,6.64,0,0,0,.49-.93c.21-.59.41-.46.56.35,0,.25.13.67.2.94C25.25,88.86,25.22,88.93,24.86,88.73Z"/><path d="M26.71,88.64c-.07-.18-.18-.29-.31-.29s-.2,0-.2-.08a7.87,7.87,0,0,1,.34-.88c.35-.81.53-1,.54-.6a2.45,2.45,0,0,0,.14.59c.33.84.38,1.08.2,1.08s-.15,0,0,.11.1.11-.1.11a.57.57,0,0,0-.37.13C26.84,88.91,26.79,88.87,26.71,88.64Z"/><path d="M31.85,88.45c-.06-.29-.35-.47-.35-.21,0,.06-.07.11-.16.11s-.12-.32.21-.89a6.05,6.05,0,0,0,.38-.85,1.05,1.05,0,0,1,.3-.52c.13-.06.14,0,.15.51,0,0,.09.37.2.79.18.67.19.78.07.92s-.19.13-.25.09-.13,0-.16.1c-.1.32-.32.29-.39,0Z"/><path d="M32.7,88.46c0-.06,0-.11,0-.11s.08.05.11.11,0,.11,0,.11A.11.11,0,0,1,32.7,88.46Z"/><path d="M34.24,88.32c0-.14-.12-.18-.25-.13s-.19,0-.19,0a3.71,3.71,0,0,1,.32-1,.94.94,0,0,0,.06-.38,1.16,1.16,0,0,1,.18-.56l.18-.25.13.82a9.3,9.3,0,0,0,.21,1,1.13,1.13,0,0,1,.07.44c0,.24,0,.28-.32.28s-.35-.06-.39-.2Z"/><path d="M38.33,88.37a.29.29,0,0,0-.37-.16c-.31.06-.33,0-.08-.35a4,4,0,0,0,.4-.9c.32-.95.39-1,.56-.6A2,2,0,0,1,39,87a.81.81,0,0,0,.15.46c.13.16.12.21,0,.44s-.19.22-.19.17-.1,0-.23.21S38.45,88.57,38.33,88.37Z"/><path d="M36,88.23c-.07-.25-.14-.27-.33-.07s-.11.08-.06-.2a1.15,1.15,0,0,1,.14-.39,1.3,1.3,0,0,0,.3-.8,2.11,2.11,0,0,1,.15-.63l.16-.36.19.34a1.82,1.82,0,0,1,.19.76,3.19,3.19,0,0,0,.13.89c.1.37.11.5,0,.61s-.13.1-.2,0-.14-.12-.22-.06C36.24,88.47,36.08,88.45,36,88.23Z"/><path d="M39.1,88.13c0-.12,0-.22.09-.22s.14.29,0,.38S39.1,88.26,39.1,88.13Z"/><path d="M40.1,88.06a10.84,10.84,0,0,1,.49-1.29,1,1,0,0,0,.08-.4.61.61,0,0,1,.14-.35c.12-.11.16-.08.22.18a1.61,1.61,0,0,0,.2.49,1.42,1.42,0,0,1,.2.41c0,.14.12.25.18.25s0,.18-.22.39c-.35.41-.59.5-.59.22s-.1-.21-.35,0-.35.21-.35.1Z"/><path d="M19.33,84.39s0-.16,0-.25a.18.18,0,0,0-.21-.15.31.31,0,0,1-.28-.13.18.18,0,0,0-.22-.1c-.32.14-.21-.21.29-.91a6.75,6.75,0,0,0,.53-.84s.07-.09.15-.13.14.1.11,1c0,.56,0,1.16,0,1.32s-.05.31-.14.31-.16,0-.17-.08Z"/><path d="M21.66,84.23a.75.75,0,0,1-.12-.39c0-.35-.19-.43-.3-.11s-.4.48-.5.3-.15-.09-.33,0c-.35.15-.34.06.07-.66a3.38,3.38,0,0,0,.34-.73c0-.21.66-1,.73-.83a2.75,2.75,0,0,1,.13.7,4.44,4.44,0,0,0,.24,1.34c.17.45,0,.68-.26.39Z"/><path d="M24,84.15c0-.3-.09-.35-.38-.2s-.26.1-.3,0-.13-.11-.28-.07-.24,0-.24-.05,0-.13.08-.13a4.17,4.17,0,0,0,.65-1.37c.05-.3.2-.44.39-.36s.16.24.18.7c0,.87,0,1,.11,1.09s-.06.61-.15.61-.06-.09-.06-.2Z"/><path d="M26.64,83.94c0-.43-.22-.48-.38-.08s-.42.38-.35,0-.16-.31-.33-.11a.18.18,0,0,1-.23,0c-.1-.07-.07-.17.15-.46a6,6,0,0,0,.47-.82,5,5,0,0,1,.34-.64c.19-.26.44-.25.38,0a5.37,5.37,0,0,0,.1,1.13c.12.81.12.95,0,1.09s-.15.12-.15-.19Z"/><path d="M31.17,84.07s0-.17,0-.28-.14-.19-.29-.1-.7.14-.7,0a11.34,11.34,0,0,1,.95-2.5c.08,0,.11,0,.07.06a.15.15,0,0,0,0,.19.22.22,0,0,1,0,.23.41.41,0,0,0,.07.33c.1.13.1.16,0,.16s-.06.07.06.16.14.17.08.17-.12.23,0,1.2c.07.44.06.47-.15.47s-.2,0-.17-.07Z"/><path d="M33.14,83.75a1.57,1.57,0,0,0-.13-.6c-.09-.16,0-.34.22-1a3.16,3.16,0,0,1,.44-.81c.11,0,.18.79.17,1.94,0,.14,0,.25.1.25s.1.1.1.22-.25.31-.34.09-.09-.09-.19,0c-.22.31-.37.23-.37-.19Z"/><path d="M28.17,83.9a.28.28,0,0,1-.07-.27c0-.1,0-.12-.16-.08-.32.09-.26-.16.23-1a3.92,3.92,0,0,0,.44-.86c0-.09.05-.13.12-.11s.28.61.31,1.25a3,3,0,0,0,.11.71c.07.19.06.3,0,.36s-.15,0-.2-.13-.25-.28-.38,0-.21.28-.37.1Z"/><path d="M38.71,83.84a.55.55,0,0,1-.08-.28c0-.27-.11-.25-.35,0l-.19.25,0-.3c0-.22-.09-.31-.23-.31s-.19,0-.14-.25.15-.57.26-1l.22-.86c0-.07.08-.14.14-.14s.08.06,0,.13a.15.15,0,0,0,0,.19.7.7,0,0,1,.14.4,1.28,1.28,0,0,0,.13.47.3.3,0,0,1,0,.24.84.84,0,0,0,.1.44c.2.42.25.92.1,1a.15.15,0,0,1-.17,0Z"/><path d="M39.64,83.69a.43.43,0,0,1-.06-.33c0-.06,0-.11,0-.11a.24.24,0,0,0-.16.11.15.15,0,0,1-.19,0c-.12-.05-.12-.1,0-.35a1.69,1.69,0,0,0,.13-.47.49.49,0,0,1,.09-.28,1.4,1.4,0,0,0,.17-.48.87.87,0,0,1,.18-.42c.12,0,.49.69.5,1a.49.49,0,0,0,.16.31c.13.08.11.15-.12.38a1.54,1.54,0,0,0-.32.56c-.07.33-.2.35-.34,0Z"/><path d="M40.39,83.71a.59.59,0,0,1,0-.36c.08-.25.08-.25.13.05s0,.5-.16.31Z"/><path d="M35.61,83.62s0-.13,0-.22,0-.19-.16-.23-.21-.08-.21-.1a5.31,5.31,0,0,1,.51-1.13s.07-.11.07-.2.26-.19.35,0a4.7,4.7,0,0,1,.17.8c.05.34.11.73.14.86s0,.25-.14.25a.23.23,0,0,1-.22-.12c0-.1-.09-.1-.24,0s-.23.1-.27.06Z"/><path d="M25.92,79.2a4.77,4.77,0,0,1,.29-.63,1.15,1.15,0,0,0,.15-.44c0-.11,0-.2.1-.2s.09-.08.09-.17c0-.3.41-1.16.55-1.16s.15.17.16.58a6.72,6.72,0,0,0,.27,2,.16.16,0,0,1-.21.24.32.32,0,0,1-.15-.27c0-.28-.27-.27-.4,0s-.14.2-.26.09-.19-.09-.37.1c-.32.34-.38.3-.22-.15Z"/><path d="M28.65,79.22c-.16-.22-.18-.22-.28,0s-.15.19-.2.19-.12-.42,0-.52a3.56,3.56,0,0,0,.69-1.46c.14-.47.2-.55.33-.47s.25.47.28,1.51c0,.51,0,.66-.12.63s-.23.07-.34.18-.21.22-.39,0Z"/><path d="M30.28,79.4a6.51,6.51,0,0,1,.38-.8,7.34,7.34,0,0,0,.45-1c.11-.45.33-.77.49-.71s.13.09.13.13a.28.28,0,0,0,0,.13,8.24,8.24,0,0,1,0,1.64c0,.19-.1.22-.19.14s-.16-.07-.25,0a.28.28,0,0,1-.31.11c-.11,0-.21,0-.28.16s-.4.33-.4.15Z"/><path d="M32.62,79.25a1.52,1.52,0,0,1,.16-.63c.11-.29.28-.77.38-1.08.21-.68.52-.83.55-.25a3.22,3.22,0,0,0,.18,1.15.61.61,0,0,1,.08.33c0,.17-.08.26-.27.31-.79.22-1,.25-1.08.17Z"/><path d="M37.25,79.3s0-.25.12-.47a1.89,1.89,0,0,0,.19-.53,1.89,1.89,0,0,1,.14-.44,1.64,1.64,0,0,0,.15-.51c0-.26.19-.36.34-.18a2.5,2.5,0,0,1,.25.76c.12.54.11.62,0,.75s-.12.14-.06.14a.22.22,0,0,0,.18-.12c.07-.14.32.12.37.39,0,.11,0,.23-.1.25s-.12,0-.07-.19,0-.24-.16-.17a1,1,0,0,0-.36.25c-.14.21-.42.11-.43-.15s0-.16-.2,0-.23.27-.32.17Z"/><path d="M22.24,79c0-.16,0-.22-.11-.22s-.16.05-.16.11a.13.13,0,0,1-.14.11c-.12,0-.13-.06,0-.33s.14-.34.18-.34a4.09,4.09,0,0,0,.43-.88,3.57,3.57,0,0,1,.43-.89,9.56,9.56,0,0,1,.35,2.25c0,.44-.09.51-.3.24s-.15-.15-.29,0-.4.21-.34,0Z"/><path d="M25.07,79c0-.27-.18-.29-.48,0s-.23.16-.22,0c0-.36,0-.39-.3-.21s-.38.1,0-.48a5.65,5.65,0,0,0,.46-.87c.18-.44.4-.54.52-.26l.19.41c.07.14.08.27,0,.31s0,.23,0,.46c.11.43,0,.93-.11.93S25.07,79.16,25.07,79Z"/><path d="M36,79.15c0-.06,0-.11-.07-.1a3.83,3.83,0,0,1-.5,0H35l.2-.53c.31-.84.34-1,.48-1.36l.12-.38.18.61c.2.66.27,1.88.11,1.88a.11.11,0,0,1-.1-.11Z"/><path d="M20.8,78.93c-.06-.23-.43-.32-.43-.11s-.07.11-.15.11a.16.16,0,0,1-.15-.16.46.46,0,0,0-.15-.28c-.12-.11-.09-.21.19-.63a2.52,2.52,0,0,0,.34-.61c0-.19.42-.76.56-.76s.13.19.1.91c0,.51,0,1.1,0,1.33,0,.44-.18.57-.27.2Z"/><path d="M34.91,74.74c0-.44-.12-.53-.31-.24s-.22.22-.37.16-.28-.18,0-1c.46-1.33.46-1.33.51-.74,0,.28.08.51.13.51s.09.1.1.22a.43.43,0,0,0,.1.29A1.47,1.47,0,0,1,35,75c-.08,0-.13-.07-.13-.28Z"/><path d="M37.28,74.86a.68.68,0,0,1-.07-.35c0-.34.12-.22.17.15S37.4,75,37.28,74.86Z"/><path d="M32.6,74.56c-.14-.32-.18-.34-.39-.18s-.18,0-.27-.09-.15-.16-.34.08c-.42.56-.34,0,.11-.77a2.34,2.34,0,0,0,.23-.58c0-.17.11-.3.15-.3s.09-.07.09-.15a.67.67,0,0,1,.2-.35c.19-.2.19-.19.21.07a4.81,4.81,0,0,0,.18,1.7,1,1,0,0,1,0,.79s-.11-.06-.18-.22Z"/><path d="M36.24,74.64a.67.67,0,0,0-.17-.28c-.07,0-.06-.18,0-.39a2.48,2.48,0,0,0,.17-.7,1.22,1.22,0,0,1,.17-.54c.13-.14.15-.13.21,0s.13.41.35,1c.14.4.15.36-.11.64S36.32,74.86,36.24,74.64Z"/><path d="M21.82,74.34c0-.42,0-.49-.19-.28a.23.23,0,0,1-.24.07c-.09,0,0-.18.23-.46a3.13,3.13,0,0,0,.37-.46A6,6,0,0,1,22.83,72c.09-.07.11,0,.08.22s-.05.53-.07.8a4.75,4.75,0,0,1-.21,1.58c-.06.07-.12,0-.17-.13s-.26-.33-.25-.15-.1.16-.21.24-.21.13-.18-.25Z"/><path d="M27,74.49a.72.72,0,0,0,0-.41c-.1-.19-.11-.19-.17,0s-.34.26-.35,0a2.35,2.35,0,0,1,.34-.64,1.77,1.77,0,0,0,.34-.63c0-.23.39-.63.49-.51a2.66,2.66,0,0,1,.17.88c0,.42.09.93.11,1.12s0,.34-.13.32a.2.2,0,0,1-.15-.21c0-.26-.24-.22-.31,0s-.13.22-.21.22-.13-.06-.09-.22Z"/><path d="M30.12,74.57c-.11-.15-.17-.16-.28-.06s-.16.1-.24,0-.09-.12-.09-.06-.05,0-.12,0a.22.22,0,0,0-.25-.06c-.19.08-.17,0,.1-.63.12-.28.32-.71.43-1,.25-.55.38-.6.46-.17,0,.17.1.46.14.64a3.82,3.82,0,0,1,0,.93C30.27,74.68,30.25,74.73,30.12,74.57Z"/><path d="M24.89,74.31c-.07-.1-.13-.2-.11-.22a.37.37,0,0,0,0-.12s-.08,0-.18.18-.23.24-.42.17a.91.91,0,0,0-.32-.07c-.14,0-.08-.19.16-.61.14-.23.29-.48.35-.56a.52.52,0,0,0,.1-.2,1.87,1.87,0,0,1,.19-.45c.34-.62.47-.4.46.85a8.61,8.61,0,0,1-.05,1.16s-.12,0-.2-.13Z"/><path d="M34.33,70c0-.18-.1-.24-.26-.22s-.3-.2-.14-.86a2,2,0,0,0,.07-.47c0-.08.32-.41.44-.41s.08.07.08.16,0,.17.09.17A2.36,2.36,0,0,1,35,69.61c0,.22.05.3.14.26s.13,0,.14.17-.06.22-.19.21-.18-.06-.15-.1a.06.06,0,0,0,0-.09.2.2,0,0,0-.16.11C34.59,70.37,34.36,70.29,34.33,70Z"/><path d="M32,69.45c-.08-.1-.08-.17,0-.22s0-.28-.15-.21-.19-.19.09-.91a4,4,0,0,0,.24-.82c0-.61.37-.14.47.57,0,.27.1.69.15,1,.09.51.06.55-.39.69C32.24,69.57,32.12,69.55,32,69.45Z"/><path d="M24.66,68.45c0-.7,0-.71-.18-.59a2.24,2.24,0,0,0-.38.29c-.1.09-.21.14-.24.1s.19-.48.67-1.09c.13-.17.32-.44.43-.6.44-.7.55-.82.68-.82a7.94,7.94,0,0,1-.06,3.06c-.13.15-.15.13-.15-.12s-.23-.36-.38,0a.78.78,0,0,1-.28.39c-.13,0-.15,0-.11-.66Z"/><path d="M29.71,69a3.8,3.8,0,0,1,.36-2c.4-.81.52-.83.54-.1,0,.33,0,.93.06,1.34s0,.73-.05.69-.09,0-.09.06,0,.09-.1.06a.14.14,0,0,1,0-.18s0-.1-.11-.1a.23.23,0,0,0-.21.17c-.07.2-.3.21-.36,0Z"/><path d="M27.6,69a.46.46,0,0,1-.07-.27.31.31,0,0,0-.21-.27c-.11,0-.19-.1-.19-.14a9.66,9.66,0,0,1,.92-1.85,1.63,1.63,0,0,1,.18.72c0,.39.1.91.13,1.14s0,.41-.09.36-.23,0-.34.16-.23.25-.33.15Z"/><path class="cls-5" d="M15.6,89.8c.17-.43.05-.86-.25-1-.13,0-.24-.11-.24-.17s-.6-.47-.75-.41a2.9,2.9,0,0,0,0,1.62c.07.15.23.23.53.25.57,0,.61,0,.75-.34Z"/><path class="cls-6" d="M60.8,88.39a3.07,3.07,0,0,1-.24-.67.12.12,0,0,0-.16-.12c-.1,0-.17-.07-.19-.22s-.1-.25-.17-.25-.1.09,0,.47a7.71,7.71,0,0,0,.34.86,4.94,4.94,0,0,1,.26.6c.06.2.07.2.22,0S61,88.87,60.8,88.39Z"/><path class="cls-6" d="M61.77,88.76a.77.77,0,0,0-.08-.47.14.14,0,0,1,0-.17c0-.06,0-.1,0-.1s-.12-.09-.15-.2a4.46,4.46,0,0,0-.27-.52l-.36-.64c-.09-.17-.21-.31-.26-.31s-.1.53.13,1a2.81,2.81,0,0,1,.21.47,4.08,4.08,0,0,0,.74,1.41c.06,0,.12-.22.12-.44Z"/><path class="cls-7" d="M33.21,59.89c0,.18-.44.75-.58.75s-.11.07-.11.16-.06.17-.13.17-.46.39-.46.59a3.22,3.22,0,0,0,1.26.73,10.12,10.12,0,0,1,1.46.66,2.92,2.92,0,0,0,.55.35,7,7,0,0,1,2,1.63,4.48,4.48,0,0,0,.74.69c.05,0,.06,0,0,.12s0,.11,0,.11.16.12.21.27.15.28.21.28.08,0,.05.1,0,.17.12.25.78,1.09.68,1.09,0,.09.1.2a16.72,16.72,0,0,1,1,3.14,1.91,1.91,0,0,0,.15.58A10,10,0,0,1,41,73.5c.17.75.2.86.65,2.49.15.55.32,1.2.37,1.44a15.2,15.2,0,0,0,.74,2.28.62.62,0,0,1,.11.3.78.78,0,0,0,.11.32.45.45,0,0,1,.07.26.53.53,0,0,0,.15.33c.09.07.15.17.14.21a1.29,1.29,0,0,0,.27.7.27.27,0,0,1,.11.18,6,6,0,0,0,1,1.58c.13.07.22.17.21.2a2.58,2.58,0,0,0,.85,1s.09.08.09.17a.3.3,0,0,0,.17.24,4.94,4.94,0,0,1,1.15,1.25.14.14,0,0,0,.12.12,8.8,8.8,0,0,1,1.82,2.1.43.43,0,0,0,.17.32,1.41,1.41,0,0,0,1.14-.12.56.56,0,0,0,0-.36,4.74,4.74,0,0,1-.16-.86,1.66,1.66,0,0,0-.16-.64s-.09-.11-.09-.25a3,3,0,0,0-.18-.75,6.14,6.14,0,0,1-.21-.75,1,1,0,0,0-.15-.4c-.06-.08-.08-.17-.05-.21a1,1,0,0,0-.1-.45,1,1,0,0,1-.11-.44c.1-.12-.09-.52-.24-.52s-.13,0-.05-.15a.21.21,0,0,0,0-.23.51.51,0,0,1-.09-.18c0-.06,0-.12,0-.13a2,2,0,0,1-.05-.25c-.14-.8-.52-2.59-.59-2.77A5.87,5.87,0,0,1,48,78.15c0-.27-.11-.65-.16-.83a5.28,5.28,0,0,1-.16-.66c0-.19-.09-.35-.14-.37s-.07-.16,0-.32,0-.27-.07-.21-.12-.06-.13-.35a5.75,5.75,0,0,0-.2-1.53,2.62,2.62,0,0,1-.11-.71,3.94,3.94,0,0,0-.14-.88,12.08,12.08,0,0,1-.36-1.84c0-.19-.08-.46-.12-.61a1.29,1.29,0,0,1-.05-.38,1.56,1.56,0,0,0-.09-.44c-.06-.19-.13-.47-.16-.62s-.11-.51-.17-.78a8.52,8.52,0,0,1-.17-1.05,9.36,9.36,0,0,0-.15-1.08c-.06-.29-.15-.74-.2-1a3.48,3.48,0,0,0-.17-.62,4,4,0,0,1-.18-.92,2,2,0,0,0-.21-.86.17.17,0,0,1-.06-.2.13.13,0,0,0,0-.18,1,1,0,0,1-.11-.51,2.15,2.15,0,0,0-.13-.68.61.61,0,0,1-.06-.38.19.19,0,0,0-.1-.23c-.12,0-.12-.1,0-.22a.22.22,0,0,0,0-.29,3.22,3.22,0,0,1-.23-.8A6.7,6.7,0,0,0,43,55.68a1.19,1.19,0,0,1-.22-.48.46.46,0,0,0-.25-.36.3.3,0,0,1-.19-.27c0-.19-.06-.2-.7-.13-.38,0-1.4.06-2.27,0-1.3,0-1.61,0-1.75.15a.51.51,0,0,0-.17.31.24.24,0,0,1-.18.2,6.85,6.85,0,0,0-1.35,1.3c-.17.18-.6.68-1,1.09s-.62.78-.54.81.06.14-.11.35a2.55,2.55,0,0,1-.53.51Z"/><path class="cls-4" d="M48.2,88.35V88l-.14.36c-.14.39-.09.85.07.57A1.46,1.46,0,0,0,48.2,88.35Z"/><path class="cls-6" d="M60.06,88.71a.47.47,0,0,0-.14-.34c-.06,0-.14-.21-.18-.42-.08-.41-.45-.77-.45-.42a2.4,2.4,0,0,0,.2.64c.11.25.23.54.26.65C59.84,89.14,60.1,89.06,60.06,88.71Z"/><path class="cls-4" d="M52.4,88.69c.1-.21.5-.21.51,0s1.15.13,1.37,0a1.81,1.81,0,0,1,.35-.16c.13,0,.17-.18.17-.5a.92.92,0,0,0-.11-.51.6.6,0,0,1-.11-.37,1.09,1.09,0,0,0-.14-.52,2.07,2.07,0,0,1-.21-.61,10.25,10.25,0,0,0-.37-1.24,9.35,9.35,0,0,1-.38-1.27,3,3,0,0,0-.14-.54,1.32,1.32,0,0,1-.08-.19.39.39,0,0,0,0-.11,3.88,3.88,0,0,1-.08-.47,2,2,0,0,0-.13-.55,5.06,5.06,0,0,1-.22-.78c-.07-.37-.16-.74-.19-.83a.73.73,0,0,1,0-.27.38.38,0,0,0-.09-.23c0-.07-.08-.16-.06-.18a17.16,17.16,0,0,0-.63-2.93,17,17,0,0,1-.38-1.79.7.7,0,0,0-.1-.42c-.05,0-.08-.22-.06-.42s0-.38,0-.41A3.83,3.83,0,0,1,50.91,72c0-.23-.1-.42-.14-.42s-.14-.33-.27-1.38a2.85,2.85,0,0,0-.14-.66,1.19,1.19,0,0,1-.09-.4c0-.38-.12-1.13-.27-2-.06-.43-.12-.86-.12-1a.34.34,0,0,0-.09-.25.2.2,0,0,1,0-.22,2.4,2.4,0,0,0-.08-.75,8.55,8.55,0,0,1-.21-1.56c0-.12-.05-.17-.12-.12s-.1,0-.06-.1,0-.19,0-.19a3.17,3.17,0,0,1-.64-.58c-.3-.32-.69-.7-.87-.86a8.94,8.94,0,0,1-.72-.69,1.45,1.45,0,0,0-.55-.42c-.08,0-.14,0-.12-.09s-.45-.62-.68-.72-.14-.12-.11-.18,0-.11-.08-.11-.23-.18-.33-.39c-.25-.5-.32-.49-.29,0a1.13,1.13,0,0,0,.44.83,3.39,3.39,0,0,1,.42.48,8.24,8.24,0,0,0,.61.74,7.78,7.78,0,0,1,.62.74,2.3,2.3,0,0,0,.45.46,1.5,1.5,0,0,1,.45.52c0,.2-.16.18-.23,0a.32.32,0,0,0-.29-.17.61.61,0,0,1-.42-.28c-.11-.15-.25-.27-.33-.27s-.14-.1-.14-.23-.27-.41-.43-.23,0,.18.26.13c.05,0,.06.08,0,.19s0,.25.19.35a1.16,1.16,0,0,1,.36.4,1,1,0,0,0,.37.37.43.43,0,0,1,.24.29c0,.22-.43.13-.83-.18-.15-.12-.27-.17-.27-.13s.27.48.39.48a.12.12,0,0,1,.12.1,3.16,3.16,0,0,0,.91,1c.13,0,.3.45.23.6s-.09,0-.14-.14-.13-.22-.23-.17-.16,0-.16-.1-.18-.25-.4-.36-.41-.25-.41-.32-.73-.71-.87-.65.4.69.57.69a.12.12,0,0,1,.11.11,4.84,4.84,0,0,0,1,1.11c.15,0,1.11,1.1,1,1.14s-.8-.33-.91-.54a.27.27,0,0,0-.22-.15.24.24,0,0,1-.19-.18c0-.09-.11-.14-.17-.1s-.18,0-.26-.16-.49-.31-.59-.12,0,.11.14.11.21.06.21.14a3.3,3.3,0,0,0,.66.75,3.09,3.09,0,0,1,.66.75c0,.08.05.12.1.08s.1,0,.11.1.09.18.25.18.25,0,.25,0a1.22,1.22,0,0,0,.06.21c.07.21-.27.2-.39,0A.29.29,0,0,0,48,67.4c-.08,0-.15-.05-.15-.11s-.07-.11-.15-.11-.15-.05-.15-.11a2.94,2.94,0,0,0-1-.78c-.18,0-.11.32.1.47a.52.52,0,0,1,.21.28.14.14,0,0,0,.13.14,2.33,2.33,0,0,1,.67.55,2.54,2.54,0,0,0,.67.56.11.11,0,0,1,.12.13.11.11,0,0,0,.13.13c.09,0,.15.08.16.19,0,.26-.41.29-.5,0a.23.23,0,0,0-.2-.16.2.2,0,0,1-.19-.14c0-.11-.08-.11-.18,0s-.1.14,0,.14.17.12.22.27.16.28.24.28.19.13.25.28.18.28.25.28a.37.37,0,0,1,.24.12c.13.14.06.57-.07.48a.13.13,0,0,1,0-.16c0-.06,0-.15-.15-.22s-.21-.08-.21,0,0,0-.07,0a1.18,1.18,0,0,0-.28-.24c-.11-.07-.19-.18-.18-.24s0-.09-.12-.06-.15,0-.15,0-.52-.5-.64-.37.06.29.45.72.68.76.84,1a1.21,1.21,0,0,0,.42.39c.25,0,.82.77.69.86s-.63-.41-.64-.58-.08-.12-.18-.12a.59.59,0,0,1-.37-.23c-.1-.12-.21-.2-.23-.17s-.16-.07-.29-.22-.54-.36-.54-.17a10.44,10.44,0,0,0,1.58,1.79c.13,0,.37.42.31.55s0,.11.16.13a.31.31,0,0,1,.25.23c0,.27-.06.24-.43-.13-.18-.17-.34-.3-.37-.27s-.1,0-.17-.12a.37.37,0,0,0-.26-.17c-.07,0-.22-.15-.34-.33s-.27-.3-.36-.27-.1.12.08.39.28.32.35.32.16.12.19.27.11.28.15.28a4.32,4.32,0,0,1,1,1.21c0,.15-.11.08-.58-.27s-.66-.45-.7-.41-.11,0-.16-.09-.09-.11-.09,0,.63.77.74.73.05,0,0,.09,0,.14.09.18a4.8,4.8,0,0,1,1,1c.12.15.11.18,0,.18a.16.16,0,0,1-.17-.14c0-.07-.12-.14-.26-.15a.54.54,0,0,1-.33-.12,1.34,1.34,0,0,0-.39-.28c-.28-.15-.33-.15-.33,0a.16.16,0,0,0,.16.16c.08,0,.15,0,.15.11s.33.55.42.48.11,0,.15.12.1.17.15.17a3.14,3.14,0,0,1,.55.5,2.82,2.82,0,0,0,.54.5,1.76,1.76,0,0,1,.42.33,1.07,1.07,0,0,0,.53.34c.1,0,.16.05.12.11s-.53.14-.69,0a2.27,2.27,0,0,0-.65-.53.4.4,0,0,1-.22-.16.46.46,0,0,0-.31-.17.37.37,0,0,1-.29-.28c-.06-.15-.17-.27-.25-.27a.36.36,0,0,1-.25-.21c-.12-.24-.52-.4-.51-.2a2.1,2.1,0,0,0,.09.33,18.08,18.08,0,0,0,2.52,2.51c.07,0,.13.08.13.17a.17.17,0,0,0,.15.17.21.21,0,0,1,.17.36c-.08.09-.11.07-.11-.07s0-.17-.1-.13-.15,0-.23-.1a.83.83,0,0,0-.34-.19,1,1,0,0,1-.41-.3c-.12-.15-.27-.23-.33-.19s-.11,0-.11-.1a.18.18,0,0,0-.35-.06c0,.06,0,.11,0,.11a1.41,1.41,0,0,1,.41.31c.17.16.52.5.78.73a1.89,1.89,0,0,1,.47.59c0,.08.05.15.12.14.27,0,.48,0,.45.11s.07.18.18.27.19.17-.1.08a3.42,3.42,0,0,1-1.16-.69.21.21,0,0,0-.26,0c-.15.06-.1.15.32.58A3,3,0,0,0,51,81a.19.19,0,0,1,.15.2c0,.1,0,.19.12.19s.31.41.22.51-.11,0-.18-.1a2.76,2.76,0,0,0-.42-.28c-.15-.07-.28-.18-.28-.24a.14.14,0,0,0-.15-.12.73.73,0,0,1-.38-.22.68.68,0,0,0-.34-.22.15.15,0,0,1-.14-.15.26.26,0,0,0-.15-.22c-.19-.08-.19,0,0,.38.08.18.23.32.33.32s.15,0,0,.11-.12.11,0,.11a.55.55,0,0,1,.35.23.54.54,0,0,0,.3.22c.07,0,.13,0,.13.1a2.23,2.23,0,0,0,.71.78s.18.13.29.28.27.28.35.28.31.18.19.26S51,82.89,51,82.72s-.11-.14-.24-.14a1.26,1.26,0,0,1-.67-.44c-.45-.47-.67-.5-.48,0a.4.4,0,0,0,.32.27c.11,0,.17,0,.14.07s.18.38.33.38.31.18,1.13,1a1.52,1.52,0,0,0,.55.37c.13,0,.24.11.25.16a1,1,0,0,0,.07.28c0,.14,0,.18-.08.14a.18.18,0,0,1-.11-.2c0-.08,0-.11-.12-.08s-.37-.1-.65-.31c-.56-.4-.92-.57-.92-.42a2.83,2.83,0,0,0,.83.92,2.94,2.94,0,0,1,1.09,1c0,.07,0,.07-.11,0a.24.24,0,0,0-.25-.07c-.07,0-.14,0-.14-.05s-.13-.15-.3-.19-.3-.11-.3-.16-.14-.15-.31-.21-.28-.17-.25-.24,0-.11-.09-.11a.27.27,0,0,0-.21.11c-.07.13.28.53.42.48s.65.57.65.74.09.11.2.11a.18.18,0,0,1,.2.2c0,.11,0,.13-.06,0s-.15-.11-.3-.07-.24,0-.24-.11,0-.18-.1-.18-.11.22.16.53.25.26.25.21.17.11.37.36.44.45.52.45.13,0,.09.07-.77-.07-.77-.21-.4-.37-.63-.32-.24.24,0,.24.62.43.77.75.09.23,0,.18-.27.12-.08.38.39.31.52,0Z"/><path d="M52.65,85c-.1-.14-.09-.17,0-.17s.31.18.19.27S52.72,85.06,52.65,85Z"/><path d="M49.68,75.93c0-.06,0-.11.15-.11s.18.05.15.11a.22.22,0,0,1-.15.11A.2.2,0,0,1,49.68,75.93Z"/><path d="M49.64,74.76c-.19-.22-.16-.43,0-.22a.43.43,0,0,1,.13.27C49.78,74.87,49.71,74.85,49.64,74.76Z"/><path d="M49.56,70.68c0-.12,0-.18,0-.15a.22.22,0,0,1,0,.21Q49.58,70.88,49.56,70.68Z"/><path d="M49.12,70.39c0-.12,0-.22,0-.22s.09.1.09.22,0,.22,0,.22S49.15,70.51,49.12,70.39Z"/><path d="M48.8,66.63c0-.07,0-.12.1-.12s.13.08,0,.17S48.8,66.69,48.8,66.63Z"/><path d="M48.18,65.24c0-.19.06-.22.14-.07a.13.13,0,0,1,0,.18C48.23,65.39,48.18,65.34,48.18,65.24Z"/><path d="M47.56,63.53c0-.07,0-.12.09-.12s.13.08,0,.16S47.56,63.59,47.56,63.53Z"/><path class="cls-6" d="M62.54,88.48a2.9,2.9,0,0,0-.13-.41.94.94,0,0,1-.07-.22c0-.24-.26-.72-.35-.72s-.1,0-.09-.08a.87.87,0,0,0-.11-.35,2.29,2.29,0,0,1-.19-.61c-.07-.45-.08-.46-.32-.17-.12.14-.18.28-.13.32a6.52,6.52,0,0,1,.64,1.5c0,.09.05.17.1.17s.12.11.16.24c.19.69.64,1,.49.33Z"/><path class="cls-6" d="M59,88.24a.42.42,0,0,0-.1-.28.2.2,0,0,1,0-.22c0-.11,0-.13-.16-.09s-.25.07-.05.48S59,88.56,59,88.24Z"/><path class="cls-4" d="M51.5,88.24a.28.28,0,0,0-.1-.17c-.06,0-.1,0-.1.11s.05.17.1.17A.1.1,0,0,0,51.5,88.24Z"/><path class="cls-6" d="M63.2,88a3.76,3.76,0,0,0-.32-.89c-.29-.65-.42-1.46-.23-1.46s.21.29.26.58a1.9,1.9,0,0,0,.2.32c.14.17.16.26.07.32s0,.1.12.14.36,0,.2-.26a1.09,1.09,0,0,1-.13-.35,1.51,1.51,0,0,0-.16-.47,1,1,0,0,1-.11-.45c0-.15-.52-.41-.59-.27a.12.12,0,0,0,.05.16c.08,0,.08.12,0,.23s-.29.2-.3,0-.15-.29-.36-.12-.17.16,0,.35a2.8,2.8,0,0,1,.35.68c.1.26.21.47.26.47s.09.06.1.14a2.85,2.85,0,0,0,.2.61c.21.48.41.62.41.27Z"/><path class="cls-4" d="M56.66,87.69a.77.77,0,0,0,.13-.26c0-.14-.27-.08-.4.09s-.25.13-.25-.09a.19.19,0,0,0-.12-.16c-.13,0-.24.36-.16.59S56.5,87.94,56.66,87.69Z"/><path class="cls-4" d="M55.53,87.16c0-.56.15-1.25.33-1.25s.51.41.51.55a.13.13,0,0,0,.13.12c.07,0,.28.22.47.5a1.74,1.74,0,0,0,.43.49.63.63,0,0,0,.26-.21c.19-.23.21-.84.06-1.86-.08-.5-.07-.59.08-.66a.19.19,0,0,1,.27.11.32.32,0,0,0,.24.18.17.17,0,0,1,.15.17.17.17,0,0,0,.16.17c.08,0,.13,0,.1.09s.4.51.71.61c.14,0,.27,0,.42-.18s.2-.31.1-1a1.86,1.86,0,0,0-.26-.81c-.17-.1-.19-.28-.06-.5s.51,0,.51.26a.17.17,0,0,0,.15.17c.08,0,.15,0,.15.09A2.25,2.25,0,0,0,61.5,85c.11,0,.14-.27.13-.84a4.12,4.12,0,0,1,0-.88c.09-.15.49,0,.65.23s.17.18.22.14.1,0,.1.06.06.11.15.11.24-.32.2-1,.15-.77.62-.28a1.32,1.32,0,0,0,.48.34c.23,0,.28-.35.07-.52A.56.56,0,0,1,64,82a4.66,4.66,0,0,0-.79-1.13.75.75,0,0,1-.18-.27,1.86,1.86,0,0,0-.3-.45,1.52,1.52,0,0,1-.31-.49c0-.06,0-.08-.1,0s-.16-.08-.25-.27-.21-.33-.26-.33-.1-.07-.1-.15a.85.85,0,0,0-.23-.38,4.15,4.15,0,0,1-.79-1,1.21,1.21,0,0,0-.25-.36.88.88,0,0,1-.26-.4c0-.09,0-.15-.1-.15s-.15-.13-.21-.28-.15-.28-.21-.28-.09-.09-.07-.21,0-.24-.13-.28a.87.87,0,0,1-.33-.31,9,9,0,0,0-.72-.89,3.82,3.82,0,0,1-.57-.72,7.11,7.11,0,0,0-.62-.78,5,5,0,0,1-.61-.8c0-.06-.07-.11-.15-.11s-.25-.17-.37-.39-.25-.38-.3-.38-.09-.07-.09-.16a1.41,1.41,0,0,0-.36-.54A1.81,1.81,0,0,1,55,70a2.77,2.77,0,0,0-.42-.59c-.22-.27-.44-.55-.48-.62a9.85,9.85,0,0,0-.63-.83,5.75,5.75,0,0,1-.61-.83,2.62,2.62,0,0,0-.7-.83S52,66.2,52,66.1c-.15-.42-.45-.91-.51-.84s-.09,0-.13-.16a.49.49,0,0,0-.2-.3.25.25,0,0,1-.14-.2,1.55,1.55,0,0,0-.7-.75.11.11,0,0,1-.11-.11c0-.06-.07-.11-.15-.11s-.14.11-.08.64.35,1.69.35,1.34a.48.48,0,0,1,.13-.3c.1-.09.22,0,.49.3a6.47,6.47,0,0,1,.54.75,1.64,1.64,0,0,0,.48.53c.31.2.33.26.2.5s-.1.11-.15-.06-.44-.52-.56-.43-.06.24,0,.47c.06.48-.08.82-.25.63a.82.82,0,0,1-.14-.39.53.53,0,0,0-.13-.32,5.74,5.74,0,0,0,0,2.16,1.05,1.05,0,0,1,.09.51,3.8,3.8,0,0,0,.06.75,3.71,3.71,0,0,0,1.15,1.57c.25.15.42.61.19.51s-.15.08-.2.46a5,5,0,0,1-.18.85c-.1.28-.09.49.1,1.33.11.55.22,1.09.22,1.21a1.57,1.57,0,0,0,.48.61A4.07,4.07,0,0,1,53.87,79c0,.26-.26,0-.35-.36,0-.15-.13-.27-.23-.27s-.14,0,0,.09.08.18-.05.47a1.63,1.63,0,0,0,0,1.32,3,3,0,0,1,.15.62,2.91,2.91,0,0,0,.56,1.42.32.32,0,0,1,.13.24.18.18,0,0,0,.18.17.58.58,0,0,1,.53.53c0,.13.06.24.12.24a.6.6,0,0,1,.29.17.72.72,0,0,0,.39.19c.24,0,.24,0,.11.31s-.5.28-.56,0-.5-.17-.64.21a.71.71,0,0,0,0,.44,2,2,0,0,1,.13.48,1.47,1.47,0,0,0,.14.47,1.51,1.51,0,0,1,.15.47,3.2,3.2,0,0,0,.26.75,1.62,1.62,0,0,1,.21.55.15.15,0,0,0,.14.16c.1,0,.13-.14.1-.52Z"/><path d="M56,83.45a.75.75,0,0,0-.27-.37c-.23-.2-.27-.33-.3-.93s0-.7.18-.78.66.26.67.58a.87.87,0,0,0,.24.45c.27.27.42.62.27.64l-.22,0c-.07,0-.13.13-.15.26s-.41.37-.42.12Z"/><path d="M56.78,83.47a.18.18,0,0,1,.06-.23c.18-.12.23,0,.12.18S56.84,83.58,56.78,83.47Z"/><path d="M57.52,82.89c0-.08,0-.39-.06-.69-.11-1.13-.1-1.52,0-1.61s.6.27.6.51a.27.27,0,0,0,.15.2.25.25,0,0,1,.16.19,1.15,1.15,0,0,0,.3.45c.31.32.39.58.21.7s-.14-.06-.2-.21-.13-.29-.16-.29,0,0,0,.09-.31.47-.53.47a.27.27,0,0,0-.24.16c-.07.2-.26.22-.27,0Z"/><path d="M59.35,81.15a6.24,6.24,0,0,1,.06-1.29c.11-.13.77.61,1,1.11s.25.82,0,.9c-.14,0-.25.12-.25.18s-.08.08-.18,0a.18.18,0,0,0-.25.1.22.22,0,0,1-.18.17c-.1,0-.14-.3-.15-1.21Z"/><path d="M61.17,81.79c0-.08-.09-.55-.16-1-.09-.73-.09-.92,0-1.05s.19-.1.51.25a1.49,1.49,0,0,0,.5.41.16.16,0,0,1,.15.16c0,.1,0,.17-.1.17s-.08,0-.05.11-.29.56-.49.56-.14.09-.14.21S61.23,82,61.17,81.79Z"/><path d="M62.2,81a.32.32,0,0,1,.09-.22c.1-.07.23.22.14.32S62.2,81.15,62.2,81Z"/><path d="M55.63,78.41a.46.46,0,0,1-.07-.27c0-.26-.32-.38-.43-.16s-.35.19-.28-.24a9,9,0,0,0,0-1.09c0-.74,0-1.05.15-1.05a3.13,3.13,0,0,1,.91,1c0,.06.15.23.34.37s.32.32.3.4,0,.15.21.15.26.05.26.11a.11.11,0,0,1-.12.11c-.09,0-.09,0,0,.09s.11.11,0,.16-.23-.07-.38-.32-.31-.37-.44-.35-.32.46-.15.69-.09.68-.32.43Z"/><path d="M58.34,77.21c-.15-.32-.28-.35-.36-.11a.25.25,0,0,1-.22.16c-.17,0-.18-.08-.27-1.77,0-.6.29-.58.87.06a2.7,2.7,0,0,1,.47.61.13.13,0,0,0,.14.11.44.44,0,0,1,.34.49.21.21,0,0,1-.26.1c-.12,0-.18-.11-.15-.16s0-.1-.11-.1-.15.11-.15.38c0,.48-.12.58-.3.23Z"/><path d="M53.86,73.31a1.46,1.46,0,0,1-.08-.53,7.87,7.87,0,0,0-.17-1.23c-.27-1.23-.28-1.31-.14-1.54s.18-.17.77.47a4.6,4.6,0,0,1,.62.76c0,.06.1.17.21.26.31.25.24.33-.22.28-.24,0-.37,0-.3,0a.3.3,0,0,1,.12.27.45.45,0,0,0,.11.27c.07,0,.08.12,0,.2a.41.41,0,0,0-.07.24c0,.07-.09.13-.21.15s-.23,0-.21-.11a.2.2,0,0,0-.06-.21c-.06,0-.13.12-.16.32-.07.41-.12.5-.22.39Z"/><path d="M55.88,72.62c0-.05-.12-.13-.26-.17s-.24-.1-.21-.14.54.07.61.24,0,.17,0,.17a.11.11,0,0,1-.1-.1Z"/><path d="M55.13,72.05c0-.06,0-.11.13-.11a.36.36,0,0,1,.27.11c0,.06,0,.11-.14.11A.32.32,0,0,1,55.13,72.05Z"/><path class="cls-6" d="M63.72,87.47a.2.2,0,0,0-.22-.17l-.24,0a.11.11,0,0,0-.07.11c0,.06.09.08.2,0s.2,0,.2.07,0,.12.09.12S63.75,87.59,63.72,87.47Z"/><path class="cls-6" d="M64,86.66c0-.2-.05-.37-.05-.39s0,0,0,0a1.34,1.34,0,0,0-.48-.75c-.08,0-.15,0-.15,0a3,3,0,0,0,.39.85,1.06,1.06,0,0,1,.18.39c0,.27,0,.26.1.26S64.06,86.86,64,86.66Z"/><path class="cls-4" d="M58.86,86.61c.13-.14.13-.18,0-.26s-.11-.1,0-.11.17,0,.17-.1-.24-.09-.41.07a.37.37,0,0,1-.24.11c-.05,0-.11.12-.13.29s0,.31.2.24a1.25,1.25,0,0,0,.37-.24Z"/><path class="cls-6" d="M64.43,85.77a1.14,1.14,0,0,0-.23-.59.48.48,0,0,1-.15-.31c0-.1,0-.18-.1-.18s-.1.54.08.67.15.13,0,.18-.08.1.07.22.19.23.15.32,0,.16.07.16.11-.13.06-.47Z"/><path class="cls-6" d="M63.56,85.18c0-.09-.05-.14-.11-.1a.14.14,0,0,0,0,.17C63.5,85.41,63.56,85.38,63.56,85.18Z"/><path class="cls-6" d="M63.28,84.84a.36.36,0,0,0-.25,0c-.07,0,0,0,.12,0S63.35,84.87,63.28,84.84Z"/><path class="cls-4" d="M50.45,84.58a.1.1,0,0,0-.1-.11.2.2,0,0,0-.15.11c0,.06,0,.11.09.11S50.45,84.64,50.45,84.58Z"/><path class="cls-6" d="M63.87,84.52c0-.16-.25-.13-.3,0s0,.14.14.11S63.89,84.58,63.87,84.52Z"/><path class="cls-6" d="M64.41,84.39s-.06,0,0,.14,0,.16.06.07A.29.29,0,0,0,64.41,84.39Z"/><path class="cls-4" d="M50.44,83.58c0-.14-.07-.22-.2-.22a.25.25,0,0,1-.24-.14q-.06-.12-.06.06c0,.1.06.19.13.19a.25.25,0,0,1,.2.17c.09.23.17.2.16-.06Z"/><path class="cls-5" d="M64.49,80c0-1,0-2.62,0-3.68s0-2,0-2.14-.34-.25-2.07,0l-2.16.22a4.69,4.69,0,0,0-1,.12.25.25,0,0,0,.06.42,1.47,1.47,0,0,1,.51.87s.06.12.2.16.26.14.26.22a.76.76,0,0,0,.18.38l.54.67c.19.25.5.61.68.81a1.68,1.68,0,0,1,.33.45,1.13,1.13,0,0,0,.26.33.89.89,0,0,1,.25.37,2.51,2.51,0,0,0,.45.56,2.69,2.69,0,0,1,.52.69c0,.12.1.22.14.22a1.9,1.9,0,0,1,.37.55c.5.93.56.79.54-1.19Z"/><path d="M16,78.65c.1-.29,0-.39-.31-.27s-.29.07-.36,0a.5.5,0,0,0-.34-.12c-.32,0-.29-.12.14-.64a4.85,4.85,0,0,0,.92-1.35c.07-.19.19-.34.26-.34a5.79,5.79,0,0,1-.23,2.86c-.1,0-.12,0-.08-.14Z"/><path class="cls-4" d="M49.55,79.46c-.15-.06-.27-.15-.27-.2s-.3-.44-.42-.44-.09.06-.09.13.61.63.86.63.13,0-.08-.12Z"/><path class="cls-4" d="M49.2,78.06c.06-.12-.45-.39-.53-.29s0,.14.13.22S49.13,78.19,49.2,78.06Z"/><path class="cls-4" d="M48.75,77.53s-.09,0-.2,0-.2,0-.2.1.09.07.2,0S48.75,77.55,48.75,77.53Z"/><path d="M19.68,73.25s0-.2-.05-.41a2.06,2.06,0,0,0-.1-.44s-.18.12-.34.33l-.28.38-.13-.3c-.11-.26-.16-.29-.32-.19s-.22.09-.27,0,.2-.44.54-.84.75-.9.91-1.12.33-.38.38-.34a9.06,9.06,0,0,1-.08,2.34c0,.25,0,.48,0,.53s-.2.12-.22.06Z"/><path d="M17.41,71.83c0-.26,0-.33-.11-.33a.59.59,0,0,0-.35.19c-.26.26-.42.06-.29-.35s.12-.59-.43-.34c-.09,0-.17,0-.17,0a14.08,14.08,0,0,1,1.72-2,4,4,0,0,1,0,1c0,.53,0,1.23,0,1.54,0,.48,0,.58-.21.63s-.2,0-.15-.26Z"/><path d="M15.3,70.68c0-.28-.15-.56-.23-.31a.22.22,0,0,1-.21.13c-.14,0-.2-.12-.24-.52a1.19,1.19,0,0,1,.17-1,1.3,1.3,0,0,1,.31-.41,1.09,1.09,0,0,0,.26-.45,1.07,1.07,0,0,1,.27-.44,9.45,9.45,0,0,1,0,2.27c0,.19,0,.47,0,.64s-.07.31-.17.31-.15-.07-.11-.27Z"/><path class="cls-7" d="M58.61,71.47c0-2.16-.07-2.35-.21-2.6a1.78,1.78,0,0,0-.78-.43,1.32,1.32,0,0,1-.36-.24,1.29,1.29,0,0,0-.48-.25.25.25,0,0,1-.21-.1.62.62,0,0,0-.34-.17,3,3,0,0,1-.78-.43,7.81,7.81,0,0,0-.85-.53c-1.39-.71-1.93-1-1.86-1.12s0-.12-.15-.19-.21-.09-.21,0a1.71,1.71,0,0,0,.4.78,2.14,2.14,0,0,1,.52.77.11.11,0,0,0,.11.11.12.12,0,0,1,.1.13,1.57,1.57,0,0,0,.33.54,9.1,9.1,0,0,1,.64.88,6.4,6.4,0,0,0,.59.8c.15.18.25.37.22.42s0,.11.15.11.21.06.21.14a1.71,1.71,0,0,0,.36.58c.71.85.76.92.76,1a4.38,4.38,0,0,0,.64.82,10.78,10.78,0,0,1,.83,1c.38.56.43.25.37-2Z"/><path d="M60.26,73.09a1.08,1.08,0,0,1-.08-.44.58.58,0,0,0-.16-.46c-.13-.08-.15-.2-.1-.56s.09-.46.13-.46.07-.11.06-.25.14-.64.29-.64A6.29,6.29,0,0,1,61,72c0,.07.05.14.1.14s.25.73.17.88a.14.14,0,0,1-.18,0c-.11,0-.16-.2-.2-.69,0-.21-.28-.16-.28.06s-.23.72-.32.62Z"/><path d="M61.84,73.06a1.54,1.54,0,0,1,0-.57,3.52,3.52,0,0,0,.09-.81c-.06-.84,0-1.28.15-1.46s.17-.17.26.07A2.89,2.89,0,0,0,63,71.4a1.26,1.26,0,0,1,.28.43,1.24,1.24,0,0,0,.26.4c.31.37.32.49,0,.49s-.2,0-.08-.11.13-.11,0-.11a.18.18,0,0,1-.18-.18c0-.09-.05-.14-.1-.1s-.16,0-.25-.18c-.17-.28-.23-.18-.27.45,0,.37-.27.64-.28.29a.18.18,0,0,0-.19-.17c-.14,0-.17.06-.14.21S61.94,73.23,61.84,73.06Z"/><path class="cls-4" d="M38.6,69.28c0-1-.23-1-.22,0,0,.54,0,.78.13.78s.11-.23.09-.78Z"/><path class="cls-4" d="M38.64,68.09c0-.43,0-.69-.19-.69s-.14.14-.13.5C38.32,68.46,38.58,68.62,38.64,68.09Z"/><path d="M19.92,65.75a1.25,1.25,0,0,0,0-.52c0-.13-.11-.1-.3.17-.35.46-.46.43-.39-.12s.05-.45-.21-.41c-.43.06-.38-.18.13-.64l.77-.74a1.42,1.42,0,0,1,.37-.3c.17,0,.21.42.09,1.32-.06.52-.11,1-.1,1.14a.44.44,0,0,1-.2.32C19.88,66.09,19.87,66.07,19.92,65.75Z"/><path d="M17.63,65.08a1.43,1.43,0,0,1,0-.57c.05-.36,0-.44-.1-.44s-.16,0-.16.09a1.71,1.71,0,0,1-.58.69c-.1,0-.06-.71,0-.9s-.2-.08-.37.18-.24.28-.29.28-.11-.28.08-.48.49-.55.89-1,.75-.76.83-.67.08.48,0,1.42c-.09,1.25-.18,1.65-.34,1.38Z"/><path d="M56.76,65.48c-.26-.06-.48-.16-.48-.21a1.72,1.72,0,0,1,.72-.53s.06,0,0,.1.22.26.35.18.21.29.09.45-.14.15-.17.14l-.54-.13Z"/><path d="M59.73,64.5a3.68,3.68,0,0,1-.07-.62c0-.28,0-.28-.2-.09s-.19.23-.18.27c0,.22,0,.35-.17.35s-.14-.07-.11-.2a8.63,8.63,0,0,0,.2-1c.18-1.37.36-1.53.78-.72a4,4,0,0,1,.33.81c.07.37.15,1.14.09.88s-.22-.22-.33.25-.25.56-.34.09Z"/><path d="M61.81,63.45c0-.73,0-1.38,0-1.46s.27-.17.43,0l.86,1c.75.86.93,1.27.54,1.27-.12,0-.19-.05-.17-.13s-.21-.46-.47-.56-.16,0-.16.23a1.25,1.25,0,0,0,.1.45.26.26,0,0,1,0,.31c-.15.17-.39.2-.3,0a.13.13,0,0,0,0-.17.13.13,0,0,1,0-.17c0-.05,0-.15-.15-.22s-.21-.1-.21-.08a1,1,0,0,0,0,.24.91.91,0,0,1-.18.37C61.81,64.74,61.8,64.59,61.81,63.45Z"/><path d="M60.68,64.36c0-.12,0-.18,0-.15a.32.32,0,0,1,0,.22C60.71,64.51,60.68,64.49,60.68,64.36Z"/><path class="cls-4" d="M46.33,64.85a.18.18,0,0,0-.21,0c-.21.09-.18.15.06.15S46.36,64.91,46.33,64.85Z"/><path class="cls-5" d="M14.53,64.15c.06-.13.22-.49.35-.8s.32-.75.42-1a2,2,0,0,1,.23-.49,14.59,14.59,0,0,0,1-1.67c.35-.72,1.37-3,1.64-3.58a4.52,4.52,0,0,1,.33-.67A4.73,4.73,0,0,0,19,54.85c0-.14-.28-.09-1.35.24l-2,.61c-.84.24-1.26.41-1.33.55a9.14,9.14,0,0,0-.11,1.6c-.05,2.76,0,6.38,0,6.47s.18.09.3-.17Z"/><path class="cls-4" d="M32.89,64c0-.21-.23-.31-.23-.13a.69.69,0,0,0,.27.35A.77.77,0,0,0,32.89,64Z"/><path class="cls-4" d="M32.82,63.35c-.09-.07-.14-.16-.12-.19s0-.12-.1-.2-.16-.11-.11.15c.07.42.15.52.33.44S33,63.47,32.82,63.35Z"/><path class="cls-4" d="M31.25,63.13c0-.09-.05-.17-.1-.17s-.1.08-.1.17.05.17.1.17S31.25,63.22,31.25,63.13Z"/><path class="cls-4" d="M30.33,62.71c0-.32-.5-.72-.49-.43a2.3,2.3,0,0,0,.48.68s0-.11,0-.25Z"/><path class="cls-4" d="M46.24,62.62c0-.06,0-.08-.1,0a.2.2,0,0,0-.09.18c0,.06,0,.08.1,0A.26.26,0,0,0,46.24,62.62Z"/><path class="cls-4" d="M31,62.68a.7.7,0,0,0-.15-.24c-.2-.21-.33-.1-.15.13S31.05,62.8,31,62.68Z"/><path class="cls-4" d="M27.84,62.19a.11.11,0,0,0-.1-.11.11.11,0,0,0,0,.22A.11.11,0,0,0,27.84,62.19Z"/><path class="cls-4" d="M45.76,62.22a.2.2,0,0,0-.19,0s0,.07.13.06S45.84,62.26,45.76,62.22Z"/><path d="M21.71,60.06a1.46,1.46,0,0,1,.14-.45c.19-.41.09-.67-.22-.59s-.29-.17.17-.55a3.79,3.79,0,0,0,.65-.69c.43-.64.52-.5.49.78,0,.62,0,1.22,0,1.33,0,.32-.2.22-.27-.14s-.26-.43-.44,0-.49.58-.49.36Z"/><path d="M19.32,58.78a.7.7,0,0,1,.09-.33c.12-.18,0-.36-.24-.36S19,58,19,58s.24-.44.34-.44a3.53,3.53,0,0,0,.52-.5c.52-.55.55-.56.71-.34s.09.32,0,.74-.11.79-.14,1-.1.41-.2.41-.15-.07-.11-.22c.07-.32-.18-.28-.37.06S19.33,59.06,19.32,58.78Z"/><path class="cls-4" d="M45.88,61.3a.23.23,0,0,0-.17-.11c-.05,0-.07.05,0,.11a.2.2,0,0,0,.16.11S45.91,61.36,45.88,61.3Z"/><path class="cls-4" d="M45.35,60.69c-.06-.18-.24-.23-.23-.06s.07.14.27.22C45.4,60.85,45.39,60.78,45.35,60.69Z"/><path d="M58.06,56.76a.42.42,0,0,0-.1-.28.43.43,0,0,1-.11-.28c0-.23-.15-.29-.25-.11a.24.24,0,0,1-.2.11c-.11,0-.13-.18-.1-.9a6.23,6.23,0,0,1,.09-1c.17-.31.52.11,1.12,1.35a3.4,3.4,0,0,0,.37.65c.11.05.1.35,0,.35s-.11-.1-.14-.23c-.09-.34-.26-.26-.33.17s-.33.55-.34.17Z"/><path d="M60.19,56.61a4.24,4.24,0,0,0-.08-1A4.3,4.3,0,0,1,60,54.4c0-.18,0-.31,0-.33s-.08-.1,0-.18.19,0,.5.31.45.43.48.39.09,0,.13.17a.88.88,0,0,0,.43.39c.58.27,1.16,1.05.78,1.05-.08,0-.18-.1-.21-.22s-.13-.22-.23-.2a.44.44,0,0,1-.33-.11c-.2-.18-.52-.05-.37.15s.1.63-.06.68-.17-.13-.24-.36c-.14-.46-.28-.39-.38.18a.7.7,0,0,1-.2.42c-.09,0-.12,0-.08-.13Z"/><path class="cls-8" d="M63.3,48.09a3.43,3.43,0,0,1,.46,1,.54.54,0,0,0,.1.22,12.48,12.48,0,0,1,0,2.72s-.08.18-.08.4c0,1-.33,1-.52.09-.07-.33-.16-.6-.21-.6s-.1-.1-.1-.23a.32.32,0,0,0-.15-.28,1.33,1.33,0,0,1-.27-.61,1.65,1.65,0,0,0-.2-.54,3.51,3.51,0,0,1-.37-.81,4.49,4.49,0,0,0-.43-.95.53.53,0,0,1-.13-.26,5.38,5.38,0,0,0-.9-1.47c-.07,0-.16.05-.21.19a2.41,2.41,0,0,1-.37.59,4.27,4.27,0,0,0-.5.91c-.22.53-.23.58-.07.93a3.28,3.28,0,0,0,.52.75,1.55,1.55,0,0,1,.37.5,1.11,1.11,0,0,0,.25.38.88.88,0,0,1,.26.4.92.92,0,0,0,.3.39.81.81,0,0,1,.31.45,1,1,0,0,0,.26.5,1.09,1.09,0,0,1,.25.45.25.25,0,0,0,.16.22.28.28,0,0,1,.15.23,1.66,1.66,0,0,0,.31.59,1.78,1.78,0,0,1,.3.53A.46.46,0,0,0,63,55a.58.58,0,0,1,.15.35.32.32,0,0,0,.16.28c.08,0,.15.1.15.16a3.24,3.24,0,0,0,.31.62,2.22,2.22,0,0,1,.31.72c0,.34.19.22.24-.16,0-.2,0-2.14,0-4.32s-.06-4,0-4,0-3.06,0-8c0-1.83,0-3.4,0-3.49,0-.36-.07-14.15-.08-16.27a19.05,19.05,0,0,0-.1-2.32,11,11,0,0,0-2-.06c-1,0-2.12,0-2.42,0s-1.29,0-2.2,0l-17.3.15h-1.3c-.63,0-1.81,0-2.63,0a6.68,6.68,0,0,1-1.53-.06c0-.06-.11-.05-.17,0a31.2,31.2,0,0,1-3.27.11H28l-5.24.06-6.8.08-1.59,0-.08.33a17.74,17.74,0,0,0-.1,2.11c0,1,0,3,0,4.54s0,5.25,0,8.26,0,7,0,8.82c0,5,0,9.84.08,10s.48-.29.55-.65a14.47,14.47,0,0,1,1.33-2.59.79.79,0,0,0,.19-.34.65.65,0,0,1,.2-.32.73.73,0,0,0,.19-.31.67.67,0,0,1,.15-.29c.08-.09.28-.37.44-.61a30.12,30.12,0,0,1,2.11-2.6c1-1.06,1.43-1.49,1.39-1.54a5.8,5.8,0,0,0-1-.07,4.76,4.76,0,0,1-1-.1c-.06-.07.23-.5.93-1.38a7.85,7.85,0,0,0,.68-1,4.38,4.38,0,0,1,.32-.56,3.32,3.32,0,0,0,.23-.47,3.77,3.77,0,0,1,.45-.77,1.87,1.87,0,0,0,.29-.43,1.09,1.09,0,0,1,.2-.32.8.8,0,0,0,.19-.39.67.67,0,0,1,.2-.33.68.68,0,0,0,.2-.31,1.14,1.14,0,0,1,.17-.4c.22-.35.42-1,.33-1a38.38,38.38,0,0,0-4.18-.26c-3.37-.1-4-.27-3.17-.86a3.12,3.12,0,0,0,.49-.38.4.4,0,0,1,.22-.14,4.68,4.68,0,0,0,.77-1.32,9.4,9.4,0,0,1,1.2-1.29.77.77,0,0,1,.41-.14,1.54,1.54,0,0,0,.34-.05c.16,0,.74.16.74.25s.11.11.24.11a.5.5,0,0,1,.36.16.43.43,0,0,0,.27.17.13.13,0,0,1,.14.1c0,.19.37,0,.48-.25a4.42,4.42,0,0,1,.33-.55l.22-.31-.22-.19a1.62,1.62,0,0,1-.34-1.31c.1-.14,0-.19-.86-.33a2.06,2.06,0,0,1-1.47-1.45.92.92,0,0,0-.2-.31.33.33,0,0,1-.11-.25,2.36,2.36,0,0,0-.44-1,1.28,1.28,0,0,1-.48-.5c0-.15.27-.34.66-.49.24-.08.43-.19.42-.24a.11.11,0,0,1,.1-.1,5.62,5.62,0,0,0,1.31-.93c0-.06.1-.08.14,0s.13,0,.21-.05.7-.23.78-.09a.32.32,0,0,0,.26.11,1.51,1.51,0,0,1,.59.27c.45.31.5.27.68-.46.27-1.09,1.51-1.15,2.11-.1a.74.74,0,0,1,.1.74,2.74,2.74,0,0,1-.21.53c-.09.12,0,.23.29.52l.39.36.18-.26a1.1,1.1,0,0,0,.18-.32,8,8,0,0,1,1.66-2,3.42,3.42,0,0,0,.6-.51,2.72,2.72,0,0,1,.65-.47l.84-.41a2.38,2.38,0,0,1,1.49-.39c.25,0,.41,0,.4-.06s.12-.08.38,0a6.86,6.86,0,0,0,.73.16,3.4,3.4,0,0,1,1.38.66c.12.12.33.31.48.43l.47.42a1.41,1.41,0,0,0,.61.26.8.8,0,0,1,.69.67,1.29,1.29,0,0,0,.28.45,6.3,6.3,0,0,1,1.25,1.72c0,.11.05.2.1.2s.11.12.11.27,0,.28.09.28.1.17.18,1.69a3.74,3.74,0,0,0,.1.83.45.45,0,0,1,.07.28,1,1,0,0,0,.26.51c1.19,1.34,1.53,1.9,1.38,2.23a1,1,0,0,1-.92.56c-.46,0-.57.22-.64,1.37,0,.52-.1.79-.2.84-.43.22-.55.33-.51.46s0,.2.06.26a1,1,0,0,0,.1.27,1.44,1.44,0,0,1,.09,1.24c-.08.18-.21.32-.28.32s-.13,0-.13.09a5.5,5.5,0,0,1-1.67.91c-.16,0-.71.56-.65.67a.93.93,0,0,0,.45.16,1,1,0,0,1,.45.17,2.87,2.87,0,0,0,1.1.27,1.58,1.58,0,0,1,.46.14,7.17,7.17,0,0,0,.82.25,1.88,1.88,0,0,1,.71.27,2.86,2.86,0,0,0,.88.33,5.71,5.71,0,0,1,1,.35,4.19,4.19,0,0,0,.51.27l.4.21a2.48,2.48,0,0,0,.49.24,3.93,3.93,0,0,1,.65.38,3.41,3.41,0,0,0,.74.37,3.3,3.3,0,0,1,1.34.69.12.12,0,0,0,.12.11,2.9,2.9,0,0,1,.63.35,6.1,6.1,0,0,0,2.25,1.2,15,15,0,0,0,1.69-.28A6.44,6.44,0,0,1,51.6,45a.2.2,0,0,0,.22,0c.15-.1.11-.09,1.07-.25a4.78,4.78,0,0,0,.93-.24.3.3,0,0,1,.28,0,.18.18,0,0,0,.21,0,1.23,1.23,0,0,1,.43-.1c.54,0,.85-.17.88-.42a27.56,27.56,0,0,0,.46-3.56c0-.44,0-.44-.55-.62-.82-.26-1.32-.12-2.69.73a4.69,4.69,0,0,0-.8.66,4.35,4.35,0,0,1-.95.71,2.62,2.62,0,0,1-1.55.36,3.94,3.94,0,0,1-1.06-.06c-.16-.1-.16-.5,0-.8.31-.63,1.47-1.82,1.77-1.82a1.9,1.9,0,0,0,.53-.18,2.58,2.58,0,0,1,.56-.2c.29,0,.33-.17,0-.17s-.27,0-.27-.11a.13.13,0,0,0-.14-.11,1.25,1.25,0,0,1-.42-.17,1.47,1.47,0,0,0-.59-.17,1.7,1.7,0,0,1-.5-.1c-.27-.11-.45,0-.45.21a1.74,1.74,0,0,1-.82,1,1.18,1.18,0,0,1-1.22-.1,1,1,0,0,0-.38-.29,1.39,1.39,0,0,1-.44-.37c-.22-.26-.26-.27-.37-.12l-.31.45a1.88,1.88,0,0,1-1.13.66c-.5,0-1.22-.65-1.15-1,0,0,0-.08-.08-.08s-.1-.17-.11-.38c0-.36,0-.37-.39-.33A.85.85,0,0,1,42,37.7a1.52,1.52,0,0,0-.41-.26.31.31,0,0,1-.18-.25.59.59,0,0,0-.16-.35.7.7,0,0,1-.12-.52,2.78,2.78,0,0,1,.34-1.07l.24-.29c.17-.23.17-.26-.08-.82a2.27,2.27,0,0,1,.4-2.6.81.81,0,0,1,.79-.32,1.82,1.82,0,0,1,1.26.55c.22.24.4.07.55-.57s.55-.94.92-.94c.09,0,.16,0,.16-.1s.75-.08,1.05.05a3.26,3.26,0,0,1,.94,1,4.22,4.22,0,0,1,.13,1.45.59.59,0,0,0,0,.41,2.43,2.43,0,0,0,.7.21,1.26,1.26,0,0,1,.91.48,2.43,2.43,0,0,1,.46,1.76,4.2,4.2,0,0,0-.2.6c-.12.44-.12.43,1.2.8.47.13,1,.29,1.2.36a3.83,3.83,0,0,0,.65.16l.52.09c.33.09.38-.33.07-.55a.52.52,0,0,1-.25-.33,4.73,4.73,0,0,0-.53-1.28.88.88,0,0,1-.13-.38.71.71,0,0,0-.17-.39.18.18,0,0,1-.08-.18c0-.09-.06-.91-.19-2.1a2.46,2.46,0,0,1,.39-1.4c.13-.11.17-.1.26.08a6.75,6.75,0,0,0,.68.83,4.24,4.24,0,0,1,.65.8c0,.11.11.19.17.19s.1.07.1.16a.23.23,0,0,0,.11.2.25.25,0,0,1,.13.2.72.72,0,0,0,.09.27A5.53,5.53,0,0,1,54.91,35c0,.33.14,1.14.21,1.52,0,.09.07.27.11.39l.14.39a2,2,0,0,1,.08.31,1.67,1.67,0,0,0,.66.68c.09,0,.11.08.09.17l.18.24a3.08,3.08,0,0,0,.11-.39,3.4,3.4,0,0,0,.1-.88c0-.46.19-.8.46-.8.08,0,.11,0,.07-.13s.14,0,.39.22a1.91,1.91,0,0,1,.79,1.21,1,1,0,0,0,.26.43,1,1,0,0,1,.25.36.7.7,0,0,0,.21.27.66.66,0,0,1,.2.4c0,.14.15.31.4.46a1.51,1.51,0,0,1,.67.94.62.62,0,0,0,.42.55c.14,0,.22.11.19.17a1.87,1.87,0,0,0,.36.79l.43.68-.11.66c-.06.37-.13.72-.15.8a.63.63,0,0,0,.16.39,2.09,2.09,0,0,1,.27.46c0,.12.1.21.14.21a3.13,3.13,0,0,1,.46,1s.15.34.32.69a2.43,2.43,0,0,1,.24.6Z"/><path class="cls-5" d="M15.42,55.25a5.65,5.65,0,0,0,1.18-.38c.23-.11.44-.18.46-.15a19.43,19.43,0,0,0,2.08-.5c1.12-.3,2.21-.58,2.43-.62a5.64,5.64,0,0,0,.71-.18,3.82,3.82,0,0,1,.75-.15,10.66,10.66,0,0,0,2.18-.49,7.67,7.67,0,0,1,1.1-.28,3.86,3.86,0,0,0,.63-.17,1.56,1.56,0,0,1,.56-.12c.16,0,.31,0,.34-.1a2.39,2.39,0,0,1,1.09-.29c.35,0,.51-.2.69-.61s.06-.62-.2-.46a2.92,2.92,0,0,1-.74.18c-.49.08-1,.18-3.84.8l-1,.2a1.61,1.61,0,0,0-.35.1l-1.55.4a20.88,20.88,0,0,0-2.54.7,20.18,20.18,0,0,1-2.14.59,3.71,3.71,0,0,0-.45.11,6.59,6.59,0,0,1-1.44.38.38.38,0,0,0-.3.11.47.47,0,0,1-.34.11c-.34,0-.51.18-.5.56s.06.52,1.18.26Z"/><path class="cls-9" d="M35,54.76c.12-.08.13-.13,0-.24s-.42,0-.49.22S34.83,54.91,35,54.76Zm-3,1.43a4.47,4.47,0,0,1,1.74,0c.6.07,1.66-.12,1.66-.31s.06-.09.13-.09a5.46,5.46,0,0,0,1.35-1.17c.07-.2-.28-.17-.46,0a2.32,2.32,0,0,1-1.65.61c-.57,0-.69,0-.82-.2s-.16-.17-.16-.12-.07,0-.15-.12-.56-.32-3.24-.43l-1.52-.07-.1.26a3.52,3.52,0,0,1-.18.42,3.38,3.38,0,0,0-.32.94c0,.26.34.5.83.51a3.31,3.31,0,0,1,.6.09,2.24,2.24,0,0,0,.84-.07c.34-.08,1-.2,1.45-.26Zm.53,1.62a6.15,6.15,0,0,0,1-.14,1.22,1.22,0,0,1,.2-.07,4.54,4.54,0,0,0,1.28-.8,6.1,6.1,0,0,0-2.55-.12c-2.15.34-3,.56-3.11.81s0,.26.43.15c.24-.06.41-.06.45,0a.17.17,0,0,0,.21.05.23.23,0,0,1,.27.09.64.64,0,0,0,.54.11l1.28-.09ZM29.8,59.36c.1-.14.09-.16-.05-.16s-.14-.05-.11-.12.47-.12.61.08.29.19,1,.18a3.44,3.44,0,0,0,2.16-.59,1.7,1.7,0,0,1,.47-.32c.46-.19.33-.38-.2-.3l-1.53.13a8.85,8.85,0,0,0-2.24.31c-.83.22-1,.28-.94.53s0,.19.1.15.1,0,.1.1.43.23.6,0Zm.88,2.17a2.08,2.08,0,0,1,.46-.16.48.48,0,0,0,.32-.23c0-.13,0-.17-.28-.17s-.61,0-.95-.07c-.58-.07-.63-.06-.68.17s-.1.24-.44.2-.41,0-.48.14-.08.21-.05.24a9.09,9.09,0,0,0,2.1-.12Zm2.41-2a5.63,5.63,0,0,1-1.89.23,3.05,3.05,0,0,0-1.57.23c-.47.21-.51.26-.36.38s.22.1.41-.05.26-.16.35,0,1.65.27,2.1,0a7.49,7.49,0,0,1,.81-.44Zm-4.88-.23s.06-.13.06-.28,0-.25-.15-.11-.28.15-.71.09-.62,0-.2.23A1.88,1.88,0,0,0,28.21,59.31Zm-.71.42c0-.07-.07-.08-.16,0a.68.68,0,0,1-.2.07s0,0,0,.11S27.51,59.88,27.5,59.73Zm.85.13c.12,0,.16,0,.1-.1s-.64,0-.57.17.09.13.16,0A.46.46,0,0,1,28.35,59.86Zm-.46.42c0-.08-.28-.13-.66-.14-1,0-.72.21.32.26C27.8,60.41,27.92,60.37,27.89,60.28Zm.33.68c0-.07-.2-.1-.5-.08-.65,0-.65.2,0,.2.29,0,.5,0,.5-.12Zm-.72.5c-.09-.11-.28.06-.21.19s.1.08.17,0S27.54,61.5,27.5,61.46Zm1.34-2.81s0-.21,0-.45,0-.45-.14-.45,0-.18.26-.4c.41-.41.43-.51.12-.54l-.64-.1c-.57-.1-.75.11-.52.59.14.28.13.29-.16.32s-.29.1-.29.25a.4.4,0,0,0,.1.27c.06,0,.1,0,.1,0s.05-.09.13,0a.53.53,0,0,0,.35.05c.12,0,.22,0,.22.09s.08.12.18.13.09,0-.07.09a1,1,0,0,1-.55,0c-.53-.16-.76-.12-.75.14s0,.23.82.17l.83-.06Z"/><path class="cls-5" d="M39,53.88c.06,0,.42,0,.8,0a2.82,2.82,0,0,0,.8,0,1.69,1.69,0,0,1,.52,0,.78.78,0,0,0,.57-.12c.25-.28-.16-.43-1.12-.41-2.11,0-6.81-.06-8.06-.17-.29,0-1.09-.08-1.78-.12L29.44,53l-.11.34c0,.18-.06.36,0,.39s1.29.08,2.77.12,2.7.09,2.72.1,3.89,0,4.17,0Z"/><path class="cls-6" d="M41.08,52.82c.16,0,.22-.13.2-.33a.43.43,0,0,0-.15-.33.34.34,0,0,1-.14-.27.67.67,0,0,0-.15-.38.74.74,0,0,1-.16-.32.52.52,0,0,0-.12-.29c-.09-.1-.09-.13,0-.13s.09-.06,0-.22-.15-.22-.1-.22,0-.06,0-.14-1.19-.14-4.71-.15l-4.57,0-.34.36a5.51,5.51,0,0,0-1,1.87c0,.22.39.31,1.43.35a5.48,5.48,0,0,1,.95.09,14.27,14.27,0,0,0,1.73.06c1.5,0,4.83.13,4.87.17a18.89,18.89,0,0,0,2.3-.1Z"/><path d="M36.63,51.6c-.18-.14-.18-.16,0-.33a.32.32,0,0,1,.37-.11c.27.09.28.29,0,.46A.24.24,0,0,1,36.63,51.6Z"/><path d="M39.69,51.56c0-.3.32-.43.59-.24.12.08.12.13,0,.27S39.69,51.82,39.69,51.56Z"/><path d="M38.11,51.56c-.18-.12-.06-.42.2-.5s.4.13.27.4S38.32,51.71,38.11,51.56Z"/><path d="M30.59,51.34a.31.31,0,0,1,.15-.28c.2-.08.32.26.14.39S30.59,51.57,30.59,51.34Z"/><path d="M32,51.34a.32.32,0,0,1,.14-.28c.22-.09.47,0,.41.23a1.12,1.12,0,0,0,0,.21s-.11,0-.25,0S32,51.49,32,51.34Z"/><path d="M33.5,51.31c0-.28.17-.36.36-.22s0,.46-.19.46S33.48,51.48,33.5,51.31Z"/><path d="M35,51.43c-.08-.14.12-.44.28-.44a.28.28,0,0,1,.25.41A.34.34,0,0,1,35,51.43Z"/><path class="cls-5" d="M57.1,52.21a9.69,9.69,0,0,0,2.23-.34,2.15,2.15,0,0,1,.52-.1.48.48,0,0,0,.34-.16c.09-.13.07-.2-.09-.37a1.71,1.71,0,0,1-.24-.36c0-.11-.19-.11-.73,0L58,51.05l-1,.17c-.33.06-1.06.19-1.63.27-1.33.2-1.43.27-1,.73.21.21.3.23,1,.16l1.75-.17Zm-30,4.68a.68.68,0,0,0,.17-.31c.07-.25-.09-.37-.8-.6a2.44,2.44,0,0,1-.5-.23.49.49,0,0,0-.32-.1c-.13,0-.23,0-.23-.11s-.09-.11-.2-.11a.33.33,0,0,1-.26-.11.26.26,0,0,0-.21-.11,5.3,5.3,0,0,1-1-.43c-1.61-.84-1.58-.83-2.35-.69-.55.11-.71.18-.75.35s0,.22.14.23l.32,0a.52.52,0,0,1,.26.14.47.47,0,0,0,.31.14.84.84,0,0,1,.42.2,2.31,2.31,0,0,0,.6.35c.83.34,1.78.76,2.14,1a1.56,1.56,0,0,0,.65.16,1.61,1.61,0,0,1,.67.16,1,1,0,0,0,.92.08ZM59,59.79a9.83,9.83,0,0,0,1.21-.15,1.22,1.22,0,0,1,.51,0,1.46,1.46,0,0,0,.59-.07c.25-.06.9-.16,1.44-.22,1.13-.13,1.51-.28,1.51-.57,0-.12-.05-.21-.1-.21s-.1-.08-.11-.17c0-.25-.35-.35-.93-.26l-2.26.36c-1,.15-2.11.32-2.55.37-.88.1-1,.21-.74.86.09.25.15.29.36.24A9.22,9.22,0,0,1,59,59.79ZM24.35,63.07a4.48,4.48,0,0,0-1.56-.92,6.51,6.51,0,0,1-1.56-.67,3.48,3.48,0,0,0-.71-.33c-.77-.29-1.1-.44-1.1-.53a1.21,1.21,0,0,0-.56-.2c-.35-.09-.55-.19-.55-.29a.17.17,0,0,0-.18-.16,1.17,1.17,0,0,1-.45-.16c-.26-.15-.3-.14-.49.06s-.18.25,0,.42.14.23.11.26.07.09.22.14a5.27,5.27,0,0,1,.84.38c.32.17.86.42,1.22.56a4.48,4.48,0,0,1,.75.34,1.69,1.69,0,0,0,.55.17,1.8,1.8,0,0,1,.7.27,1.91,1.91,0,0,0,.58.27c.18,0,.33.13.33.18s.11.1.24.1.26,0,.28.09a1.56,1.56,0,0,0,.53.27c.46.16.52.16.68,0a.63.63,0,0,0,.17-.25Zm36.42,4.77c.55-.07,1.49-.14,2.1-.16,1.38,0,1.54-.12,1.53-.78,0-.47,0-.49-.33-.52a4,4,0,0,0-1,.1,8.18,8.18,0,0,1-.85.13c-.4,0-2.6.25-2.88.33s-.29.13-.29.52,0,.44.31.5a.83.83,0,0,0,.36,0l1-.15Zm-39,1a2,2,0,0,0-.72-.51,1.86,1.86,0,0,1-.66-.45c0-.06-.08-.11-.17-.11a6.48,6.48,0,0,1-1.85-1c0-.06,0-.1-.08-.09a4.3,4.3,0,0,1-1.16-.5l-.76-.35A1.16,1.16,0,0,1,16,65.5c-.11-.11-.24-.17-.29-.14s-.17,0-.28-.12a.4.4,0,0,0-.66.42,4.14,4.14,0,0,0,1.47.87,1,1,0,0,1,.35.23,1,1,0,0,0,.28.21,4,4,0,0,1,1.34.65.33.33,0,0,0,.26.11c.11,0,.2,0,.2.11s.08.11.17.11a2.38,2.38,0,0,1,.94.55,1.62,1.62,0,0,0,.5.22,2,2,0,0,1,.6.29c.37.35,1.11.18,1-.21Zm-2.36,6.59c0-.19,0-.27-.16-.3a.87.87,0,0,1-.41-.26c-.12-.12-.25-.19-.29-.15s-.07,0-.07-.06a.12.12,0,0,0-.1-.13,1.86,1.86,0,0,1-.7-.58.48.48,0,0,0-.32-.19,1.81,1.81,0,0,1-.9-.5.43.43,0,0,0-.27-.17.26.26,0,0,1-.2-.16.23.23,0,0,0-.19-.17,3.92,3.92,0,0,1-1.14-.8s-.14-.09-.28-.09-.24,0-.23.55.05.58.27.77a.94.94,0,0,0,.4.23A4.61,4.61,0,0,1,16,74a1.72,1.72,0,0,0,.36.23,2.9,2.9,0,0,1,.35.22,10.94,10.94,0,0,0,1.51.9c.36.18.72.37.81.43s.37-.07.41-.43Zm-2.12,6.84c0-.23-.23-.53-.4-.53a1,1,0,0,1-.36-.28,1,1,0,0,0-.35-.28.1.1,0,0,1-.11-.09c0-.06-.08-.13-.18-.17a3.79,3.79,0,0,1-.48-.29,3.2,3.2,0,0,0-.52-.32.75.75,0,0,1-.28-.23c-.12-.21-.35-.12-.41.17s0,.35.28.64a2.25,2.25,0,0,0,1,.74.15.15,0,0,1,.16.14c0,.15.54.52.76.52s.15,0,.15.1.1.14.23.2.47,0,.47-.32Z"/><path d="M53.56,49.7a.87.87,0,0,0-.09-.36c-.08-.13-.12-.12-.27,0s-.21.24-.33-.8c-.07-.62-.07-.83,0-.93a.26.26,0,0,1,.44.18.17.17,0,0,0,.15.17c.08,0,.15.1.15.22a.44.44,0,0,0,.13.3c.19.13.4.58.34.7a.28.28,0,0,1-.22.11c-.09,0-.13.06-.1.16a.27.27,0,0,1-.08.29C53.59,49.89,53.57,49.87,53.56,49.7Z"/><path d="M55.65,49.3a7.89,7.89,0,0,0-.16-1.17c-.25-1.06-.12-1.5.35-1.23a3.79,3.79,0,0,1,1,1.13.06.06,0,0,0,.06.08s.16.15.26.34.23.3.28.27.09,0,.09.05-.36.12-.65-.17-.51-.23-.35.23c.09.24.08.34,0,.4s-.28,0-.29-.18a.15.15,0,0,0-.15-.16c-.1,0-.15.11-.14.33,0,.4-.29.47-.31.08Z"/><path d="M57.76,49.33a.1.1,0,0,1,.1-.11.11.11,0,0,1,.1.11.1.1,0,0,1-.1.11A.11.11,0,0,1,57.76,49.33Z"/><path class="cls-5" d="M32.41,49.44l3.68.05a20.25,20.25,0,0,0,3.37-.07c0-.06.09-.07.2,0s.2,0,.2-.16,0-.23-.11-.23-.1-.08-.1-.17-.07-.22-3.85-.17c-1.21,0-2.66,0-3.22,0-.94-.07-1-.06-1.23.14s-.21.62.16.7a1,1,0,0,0,.45,0,3.93,3.93,0,0,1,.45,0Z"/><path class="cls-4" d="M39.39,48.06a.7.7,0,0,1,.08-.26.2.2,0,0,0-.08-.28.94.94,0,0,1-.21-.46,2.43,2.43,0,0,0-.24-.91,1.33,1.33,0,0,1-.13-.52.53.53,0,0,0-.1-.34c-.08-.06-.14-.34-.29-1.31,0-.23-.11-.41-.17-.41s-.08,0,0-.13.09-.19,0-.36a1.06,1.06,0,0,1-.13-.34c0-.3-.32-.09-1.06.74a14.38,14.38,0,0,0-1.65,2,.93.93,0,0,1-.25.34c-.13.14-.25.29-.24.32a8.47,8.47,0,0,1-.69,1,2.59,2.59,0,0,0-.22.45l-.16.39.47.06a35.34,35.34,0,0,0,5.07-.06Z"/><path class="cls-5" d="M33.31,47.46c.09-.11.26-.35.37-.52a5,5,0,0,1,.34-.49c.08-.09.3-.4.49-.67.31-.45.61-.82,2.26-2.77a12.61,12.61,0,0,0,.78-1c.24-.36.34-.77.18-.77s-.08-.07-.09-.16c0-.31-.21-.3-.67,0a11.45,11.45,0,0,0-2.29,2.55,3.06,3.06,0,0,1-.45.63,6.78,6.78,0,0,0-.7,1c-.34.65-.51.86-.82,1s-.39,0-1.19-.49a8,8,0,0,0-1-.6.1.1,0,0,1-.1-.1c0-.05-.17-.18-.38-.28a5.53,5.53,0,0,1-.68-.4,5,5,0,0,0-.45-.29,3.33,3.33,0,0,1-.43-.28,1.94,1.94,0,0,0-1-.27c-.66,0-.69,0-.64.17S27,44,27,44a.42.42,0,0,1,.26.14,3.79,3.79,0,0,0,.54.36,3.09,3.09,0,0,1,.54.36A10.3,10.3,0,0,0,30,46c.05,0,.14.08.21.17a3.42,3.42,0,0,0,1.05.61,1.37,1.37,0,0,1,.37.24c.16.13.33.21.36.17s.13,0,.21.09a.53.53,0,0,0,.33.17.3.3,0,0,1,.25.11c.1.17.34.13.53-.1Z"/><path class="cls-6" d="M32.9,45.61a.93.93,0,0,0,.3-.45c0-.08,0-.15.1-.15s.1-.07.1-.14a2.07,2.07,0,0,1,.39-.64c.21-.27.51-.67.66-.88s.61-.79,1-1.28a5.3,5.3,0,0,0,.76-1,.14.14,0,0,1,.15-.13.25.25,0,0,0,.2-.12c.09-.16-.13-.42-.34-.42s-.39,0-.67-.07c-.48-.08-.51-.07-.85.35a7,7,0,0,0-1,1.67,3.69,3.69,0,0,1-.9,1.07c-.2.15-.5.19-1.35.19a7.35,7.35,0,0,0-2.3.12.07.07,0,0,0,.05.1.16.16,0,0,1,.12.08,9.18,9.18,0,0,0,1.28.91,3.64,3.64,0,0,1,.63.41,3.37,3.37,0,0,0,1.19.68,1,1,0,0,0,.42-.27Z"/><path class="cls-6" d="M32.37,42.68a.71.71,0,0,0,.05-.42,6.1,6.1,0,0,1-.11-.74c-.09-.9-.3-2.32-.36-2.5a3.77,3.77,0,0,1-.1-.77,4.59,4.59,0,0,0-.42-1.89c-.05,0,0,0,0-.09s.1-.36,0-1.47a27.94,27.94,0,0,1-.07-5,1.6,1.6,0,0,0,.09-.33A5.28,5.28,0,0,1,32,27.9a1,1,0,0,0,.18-.36,7.12,7.12,0,0,1,.89-1.87,1.54,1.54,0,0,0,.27-.4c0-.08.54-.37.56-.31s.1,0,.2-.13a3.36,3.36,0,0,1,1.17-.57c.27-.05.31-.27.06-.34a2.73,2.73,0,0,0-1.35.3,4.9,4.9,0,0,1-.51.22.46.46,0,0,0-.27.32.86.86,0,0,1-.43.47,3.52,3.52,0,0,0-.53.38A3.7,3.7,0,0,0,31.55,27c0,.1,0,.18-.1.18s-.1.1-.1.22a.34.34,0,0,1-.08.27c-.08.06-.11.21-.24,1.06a3.25,3.25,0,0,1-.16.61,3,3,0,0,0-.13.78c0,.24,0,.84-.09,1.33A20,20,0,0,0,30.71,35c0,.23.09.68.11,1a26.2,26.2,0,0,0,.3,3,4.38,4.38,0,0,1,.1.83,5.08,5.08,0,0,0,.11.82,4.21,4.21,0,0,1,.13.86,1.21,1.21,0,0,0,.12.55.54.54,0,0,1,.08.32c0,.15.05.3.11.33a.15.15,0,0,1,0,.18c0,.05.06.1.2.1a.42.42,0,0,0,.36-.22Z"/><path class="cls-5" d="M33.33,42.15c.17-.24,1.1-1.8,1.1-1.85a2.32,2.32,0,0,0-.47,0c-.65,0-.79-.06-1-.34s-.4-.32-.39-.14a.22.22,0,0,0,.12.16c.1,0,.1.07,0,.15s-.09.23,0,.7a7.45,7.45,0,0,1,.16.83c0,.12,0,.33,0,.47,0,.3.26.33.46,0Z"/><path class="cls-9" d="M57.12,38.88c.19-.32.18-.68,0-.72s-.23.13-.33.63S56.9,39.23,57.12,38.88Zm2.4,4.59c.46-1,.59-2.51.25-2.92s-.34-.24-.33.39a1.81,1.81,0,0,1-.06.67c-.08.09-.1.17-.2.88a1.12,1.12,0,0,0,0,.59.75.75,0,0,1,.09.38c0,.41.06.41.24,0Zm-.8.18c0-.14.07-.45.1-.69s.07-.6.1-.78a6,6,0,0,0,0-2.44,1.64,1.64,0,0,0-.25-.44c-.12-.08-.21.21-.15.52a3.12,3.12,0,0,1-.14.94,5.64,5.64,0,0,0-.18,1.42c0,.69,0,.73.21.67s.28.14.11.33,0,.72.11.72.11-.11.13-.25Zm1.75-.26c.24-.55.32-1.71.13-1.78s-.36.71-.48,1.37a.83.83,0,0,1-.15.42s0,.18,0,.33c.14.34.19.31.47-.34Zm.64.65a1.28,1.28,0,0,0,.15-1c-.09-.18-.11-.18-.27,0a.72.72,0,0,0-.19.35,3.58,3.58,0,0,1-.07.52c-.08.42.12.5.38.17Zm-1.9,4.06A5.47,5.47,0,0,0,60,46.33a.48.48,0,0,1,.11-.3c.19-.21,0-.45-.44-.6a3,3,0,0,1-.74-.36c-.17-.13-.39-.28-.5-.35-.38-.23-.56-.64-.67-1.56a6.25,6.25,0,0,1,0-1.61c.05-.38.11-.8.12-.93a1.19,1.19,0,0,1,.09-.36A.27.27,0,0,0,58,40a.93.93,0,0,1,0-.46A.63.63,0,0,0,58,39a1.43,1.43,0,0,1-.12-.54c0-.81-.55-1.63-.88-1.32-.13.11-.09.18.21.46a.84.84,0,0,1,.37.79c0,.59-.15.82-.58.86s-.46.19-.59,1.53c0,.46-.13,1.11-.19,1.45a4,4,0,0,0,.13,2.31,1.69,1.69,0,0,1,.22.4c0,.06.1.22.38.56a1.94,1.94,0,0,1,.28.53,1.9,1.9,0,0,0,.3.51,6.32,6.32,0,0,1,.59.83,3.92,3.92,0,0,0,.51.71.25.25,0,0,1,.08.2c0,.25.18.18.47-.19Z"/><path class="cls-9" d="M36.3,38.53a.59.59,0,0,1,.25-.17,2.81,2.81,0,0,0,1.07-.65.78.78,0,0,0,.12-1,3.22,3.22,0,0,1-.22-.64c-.07-.36,0-.55.5-.84a.63.63,0,0,0,.22-.38c0-.24,0-.25-.4-.18a1.62,1.62,0,0,0-.53.18.42.42,0,0,1-.28.11c-.14,0-.18-.07-.16-.3s.1-.32.34-.37c.54-.12,1.23-.55,1.23-.77s-.09-.2-.4-.2c-.56,0-.89-.28-.83-.66a1.59,1.59,0,0,1,.17-.52c.14-.23.16-.2.29.42.06.3.09.31.44.24a7.49,7.49,0,0,1,1-.09,2,2,0,0,0,.69-.1c.14-.15-.09-.53-.78-1.28a2.81,2.81,0,0,1-.73-1,.75.75,0,0,0-.08-.32,2.26,2.26,0,0,1-.25-1.23,8.08,8.08,0,0,0-.25-1.94c0-.2-.21-.45-.85-1.21-.43-.5-.86-.83-1.1-.83a4.27,4.27,0,0,0-2,.78,1.83,1.83,0,0,1-.46.33s-.09.08-.09.17,0,.16-.08.16a2,2,0,0,0-.43.6c-.32.57-.52,1.45-.35,1.56a1.4,1.4,0,0,1-.06.62,5.46,5.46,0,0,0,0,2.1c.05.29.31.43.42.23s.73-.13,1.06.2.31.36.29.9c0,.34-.07.61-.14.64a.22.22,0,0,0-.13.19.38.38,0,0,1-.14.27,2.44,2.44,0,0,0,0,1.51.32.32,0,0,1,0,.29.51.51,0,0,0,.14.46c.11.14.36.51.56.83s.36.66.32.92,0,.32,0,.32.37.64.3.78a.28.28,0,0,0,0,.27c.1.13.19.13.57,0a1.93,1.93,0,0,0,.62-.33Z"/><path d="M36.1,30.77a.29.29,0,0,1,.1-.23.29.29,0,0,0,.09-.23c0-.11-.13-.16-.49-.16s-.49,0-.54.28-.4.36-.59-.08a2,2,0,0,1-.08-1.11,2,2,0,0,1,.48-1.3c.44-.59.55-.67,1-.67.22,0,.33.08.47.33s.21.34.25.34.07.1.07.22,0,.22-.09.22-.08.11-.05.25a2.9,2.9,0,0,1-.11,1.88c-.22.42-.5.56-.51.26Z"/><path class="cls-8" d="M35.84,29.3c0-.17-.05-.3-.09-.28l-.23,0c-.15,0-.64.51-.63.67s.1.06.23,0a.31.31,0,0,1,.32.08C35.56,30,35.85,29.65,35.84,29.3Z"/><path class="cls-9" d="M35.41,28.52a.57.57,0,0,1,.28-.11c.59-.1.93-.79.36-.72a2.17,2.17,0,0,0-.88.87C35.17,28.63,35.33,28.61,35.41,28.52Z"/><path d="M33.46,28a2.32,2.32,0,0,1,.5-.94.53.53,0,0,0,.28-.19,3.55,3.55,0,0,1,1-.72,1.3,1.3,0,0,1,.89-.13c.66.06.88.22.46.32a5.15,5.15,0,0,0-1.68.57,4.08,4.08,0,0,0-.88.72C33.68,28,33.46,28.15,33.46,28Z"/><path class="cls-10" d="M54,36.61a3.9,3.9,0,0,1-.13-.47,2,2,0,0,0-.11-.44,3.56,3.56,0,0,1-.09-.45c0-.15-.06-.49-.09-.75s0-.47.06-.47.39.72.39,1.1a6.52,6.52,0,0,0,.44,1.51c0,.06.06-.25,0-.72s-.08-1-.09-1.08-.05-.25-.09-.25-.08-.1-.08-.22a1.94,1.94,0,0,0-.11-.52c-.06-.18-.12-.34-.12-.37a.17.17,0,0,0-.07-.11s-.26-.34-.5-.7a2.49,2.49,0,0,0-.53-.63c-.06,0-.1-.08-.1-.18s-.06-.15-.13-.13-.27.71-.2,1.25c0,.24.08.66.1.92a2,2,0,0,0,.1.55.43.43,0,0,1,.07.24,3.54,3.54,0,0,0,.54,1.21s.07.13.08.24a1.06,1.06,0,0,0,.63.66c.05,0,.06-.08,0-.19Zm-3.49,4.82a2,2,0,0,0,.6-.27,7.43,7.43,0,0,1,1.12-.95c.07,0,.09-.09.05-.14s-.87.22-1.32.57-.47.33-.43,0a.53.53,0,0,1,.25-.37c.12-.07.2-.15.17-.18a6.43,6.43,0,0,1,1.74-.65c.11,0,.2,0,.2-.08s-.11-.08-.25-.08-.25,0-.25.07-.11.06-.24.05A5.46,5.46,0,0,0,50.1,40,3.88,3.88,0,0,0,49,41.2a.31.31,0,0,0,.05.32c.13.18.65.15,1.48-.09Zm5.61-2.9a.24.24,0,0,1-.12.07,2.4,2.4,0,0,1-.79-.14,2,2,0,0,0-.66-.15,3.25,3.25,0,0,1-.73-.18,5,5,0,0,0-1-.22,2.77,2.77,0,0,1-.78-.21,4.23,4.23,0,0,0-.86-.25,1,1,0,0,1-.43-.12.32.32,0,0,0-.2-.07.31.31,0,0,1-.14,0,1.07,1.07,0,0,0-.21,0c-.09,0-.44-.15-.78-.29-.77-.31-.94-.2-.6.37a.76.76,0,0,0,.74.44,2.84,2.84,0,0,1,.8.23c.17.1.33.15.38.12s.18,0,.31.1a2.89,2.89,0,0,0,1,.35l.35.09a13.47,13.47,0,0,0,1.4.25l1.56.23a1.36,1.36,0,0,1,.52.17c.09.09.13.08.13,0a.66.66,0,0,1,.13-.32.67.67,0,0,0,.06-.12Zm6.23,9.58c.2-.58.19-.74,0-1s-.18-.3-.15-.37a.19.19,0,0,0-.11-.21,1,1,0,0,1-.27-.52.9.9,0,0,0-.26-.51.27.27,0,0,1-.15-.22c0-.27-.3-.16-.41.15a.78.78,0,0,0,.08.87.42.42,0,0,1,.15.25.92.92,0,0,0,.09.32l.43,1a2.44,2.44,0,0,0,.41.74,1,1,0,0,0,.23-.44Zm.53,0a1.68,1.68,0,0,0-.16.64,6,6,0,0,0,.77,2.58,6.77,6.77,0,0,0-.26-2.55,1.8,1.8,0,0,1-.14-.62Z"/><path class="cls-6" d="M46,36.37a1.26,1.26,0,0,0,.46-.61,1.07,1.07,0,0,0,.07-1,1,1,0,0,0-.37-.58c-.12-.06-.22-.15-.22-.19s-.67-.07-1,.17-.4.28-.42.88c0,.37,0,.64.08.64a.1.1,0,0,1,.1.11.75.75,0,0,0,.2.32,1,1,0,0,0,1.14.24Z"/><path d="M45.36,35.15c0-.16.06-.23.21-.23s.23.37,0,.42S45.36,35.31,45.36,35.15Z"/><path d="M47.51,34.48c-.07-.12.2-.37.34-.32s0,.13-.09.23S47.54,34.54,47.51,34.48Z"/><path class="cls-11" d="M33.4,33.28c.36-.27.45-1.27.12-1.46A.35.35,0,0,0,33,32c0,.09-.18.16-.34.16S32,31.7,32,31.27c0-.15-.07-.23-.2-.23s-.18.06-.13.53a1.08,1.08,0,0,0,.2.61.3.3,0,0,1,.14.22,1.58,1.58,0,0,0,.39.54c.36.39.75.52,1,.34Zm-1.5-.1c-.12-.13-.2.07-.19.49,0,.86.08.95.16.28A2.65,2.65,0,0,0,31.9,33.18Zm.71,1.25c-.07-.73-.12-.92-.2-.81a.82.82,0,0,0-.13.47c0,.35.27,1.44.36,1.34A5.23,5.23,0,0,0,32.61,34.43Zm1,1.44c0-.11,0-.14-.09-.1s-.2.26-.06.26.12-.07.15-.16Zm-.71.05c0-.21-.23-.32-.23-.14s.21.36.27.36A.77.77,0,0,0,32.9,35.92Zm-.29,1a.28.28,0,0,1-.13-.24.83.83,0,0,0-.15-.39,2.15,2.15,0,0,1-.22-.69c0-.29-.12-.49-.2-.49s-.05.89.18,1.17a.86.86,0,0,1,.19.47c0,.18.07.24.23.24s.17,0,.1-.07Zm1.34.67c.57-.65.18-1.45-.45-.89-.09.08-.09.13,0,.19s0,.55-.1.55a.11.11,0,0,1-.1-.1c0-.14-.53-.08-.57.06s.44.34.8.36A.61.61,0,0,0,34,37.62Zm-.36,1.05c.19-.22.14-.31-.18-.31a.47.47,0,0,1-.36-.12.1.1,0,0,0-.15,0s-.12,0-.16-.11a.25.25,0,0,0-.21-.18c-.11,0-.08.08.09.33C33,38.74,33.37,38.91,33.59,38.67Zm-.53.75c.1.1.2.15.23.11s-.28-.52-.38-.45-.15,0-.23-.18-.2-.2-.25-.17,0,.49.13.72.12.11.22,0,.13-.17.28,0Zm1.16.27c0-.06.07-.11.14-.11s.4-.6.31-.77a.5.5,0,0,0-.38-.12c-.27,0-.3,0-.25.3.09.46,0,.59-.29.47s-.38-.08-.29.17.77.24.76.06Z"/><path class="cls-4" d="M47.32,32.91a1.54,1.54,0,0,0-.84-2.17c-1-.3-1.65.16-1.67,1.13a3.54,3.54,0,0,0,.07.87l.08.32.13-.34c.13-.38.33-.47.34-.16s.17.55.26.45a1.46,1.46,0,0,0,.13-.44c.07-.37.1-.35.27.22.07.27.24,0,.23-.36s.25-.62.33-.22a.42.42,0,0,1,0,.34c-.12.08-.1.37,0,.37s.13-.1.16-.22.09-.22.14-.22.11.41,0,.5,0,.39.09.39a1.33,1.33,0,0,0,.29-.46ZM43.86,35c.12-.09.1-.15-.16-.4a2,2,0,0,0-.58-.4c-.15-.06-.27-.16-.27-.22s0-.08.12-.06a.66.66,0,0,0,.42-.11c.25-.15.27-.18.13-.3s-.09-.13.24-.14a1.33,1.33,0,0,1,.59.09c.2.11.24,0,.19-.34a4.92,4.92,0,0,0-1.19-1.32,1.24,1.24,0,0,0-.52-.12c-1,0-1.4,1-.83,2s1.39,1.64,1.86,1.3Zm5.24,1c.29-.3.32-.39.31-1a1.73,1.73,0,0,0-.12-.75.63.63,0,0,1-.16-.25c-.08-.22-.89-.47-1.33-.41a1.66,1.66,0,0,0-.61.24c-.27.19-.33.51-.1.51a.59.59,0,0,1,.32.18c.14.16.23.17.56.07s.38-.09.39.09-.06.21-.14.21a.31.31,0,0,0-.27.42.21.21,0,0,0,.21.11.16.16,0,0,1,.18.11c0,.09-.06.14-.26.14s-.31,0-.31.11c0,.64.81.77,1.33.22Zm-5.7,1c.14-.26.09-.32-.17-.19s-.27.1-.31.06.15-.41.31-.41a.22.22,0,0,0,.18-.17c.06-.16,0-.16-.66,0-.09,0-.17,0-.17-.08s.3-.43.53-.43.16,0,.07-.15a.4.4,0,0,0-.39-.1c-.25,0-.29,0-.28-.2a.34.34,0,0,0-.13-.3c-.2-.08-.71.62-.7.95s.29,1.18.3,1,.11,0,.23.09,1.06.17,1.19-.07Zm3,.85c0-.09,0-.17,0-.17s-.09.08-.09.17,0,.16,0,.16S46.41,38,46.44,37.86Zm-.94-.1c0-.2,0-.19-.15.08a1.7,1.7,0,0,0-.14.56c0,.2,0,.19.15-.08A1.7,1.7,0,0,0,45.5,37.76Zm2.76,1.11a1.3,1.3,0,0,0,.16-1.42c-.16-.33-.33-.42-.33-.15s-.21.33-.35.13-.38-.23-.3,0-.19.27-.54-.14-.39-.31-.2.21c.09.24.08.32,0,.4a.3.3,0,0,0-.16.19c0,.25.56.72,1,.85l.49.14a3.22,3.22,0,0,0,.28-.25Zm-3.55,0a3.36,3.36,0,0,0,.14-.6l0-.44-.19.26c-.32.42-.37,0-.07-.59s.16-.67-.27-.23-.41.35-.33,0,.06-.31-.12-.08a1.2,1.2,0,0,0-.26,1.39c.13.42.89.65,1.05.31Z"/><path class="cls-6" d="M25.44,26.3c0-.08-.1-.19-.23-.24a3.6,3.6,0,0,1-.66-.56,1.83,1.83,0,0,0-.58-.45c-.17,0-.21-.5-.06-.61s.52,0,.45.18.06.1.2.1.26,0,.25-.27a.58.58,0,0,0-.68-.6c-.71,0-.83.14-.8.73a2.1,2.1,0,0,0,1.06,1.85c.76.36.8.37.93.19a.8.8,0,0,0,.12-.32Zm-3.28-.05c-.07-.07-.12-.09-.12,0s-.09,0-.19-.17-.21-.25-.84-.12c-.36.07-.7.13-.76.13s-.12-.2.11-.27a7.51,7.51,0,0,0,.69-.31c.47-.23.48-.23.74,0s.72.93.58.93A.41.41,0,0,1,22.16,26.25Zm-1.67,2.22c-.07-.07-.12-.1-.12,0s-.11-.06-.24-.22-.22-.35-.14-.51.19-.25.38.12a.84.84,0,0,0,1,.36c.34-.08.66,0,.67.08a3.25,3.25,0,0,1-1.26.35.51.51,0,0,1-.32-.13Zm1.18.63a6.15,6.15,0,0,1,1.59-.2,5.54,5.54,0,0,0,1.3-.12c.09-.06.11-.22.08-.46a.65.65,0,0,1,.14-.61l.21-.25-.25-.2a.89.89,0,0,0-.37-.21.15.15,0,0,1-.12-.16c0-.1-.06-.14-.16-.1s-.14,0-.12-.07a.17.17,0,0,0-.16-.17,1,1,0,0,1-.36-.21.58.58,0,0,0-.3-.18A.13.13,0,0,1,23,26c0-.42-1.26-1.41-1.79-1.41a2.4,2.4,0,0,0-1.18.6,3.62,3.62,0,0,1-.57.39c-.42.24-.32.59.19.66a.74.74,0,0,1,.35.11,5.21,5.21,0,0,0,1.56.47,2.84,2.84,0,0,1,.7.21,6.37,6.37,0,0,0,1.61.54c.22,0,.4.12.4.18s-.44.21-.69.07A19.59,19.59,0,0,0,21,27.16a4.53,4.53,0,0,1-1.62-.53c-.25-.28-.6-.05-.37.25a.3.3,0,0,1,.05.28c0,.06,0,.11.1.11a.18.18,0,0,1,.16.18A2.62,2.62,0,0,0,20,28.71c.16.18.29.29.29.26s.1,0,.22.12c.28.22.64.22,1.17,0Zm1.49,1.83c.18-.17.18-.56,0-.56s-.41-.29-.29-.37a2.47,2.47,0,0,1,.65-.08c.61,0,1-.22,1-.51s-.13-.16-1.07-.09-1.12.12-1.34.32-.28.3-.23.66c.06.6.32.86.79.81a1.3,1.3,0,0,0,.53-.18ZM24,32.42a1.52,1.52,0,0,1,.07-.59,4.57,4.57,0,0,0,.13-1c0-.45,0-.53-.18-.49s-.17.14-.17.31a1.17,1.17,0,0,1-.17.55,1.14,1.14,0,0,0-.17.41,2.5,2.5,0,0,0,.49.92s0,0,0-.06Zm-.11.62c-.11-.18-.36.08-.28.29s.07.15.2,0a.29.29,0,0,0,.08-.29Zm-.11,1.16c0-.11-.06-.2-.35-.29s-.79-.54-.8-.78c0-.06.11-.14.23-.2.39-.16.52-.41.36-.73s-.41-.42-.91-.26c-.69.23-.77,1.06-.15,1.63.78.73,1.5,1,1.62.63Zm-6.06.32c-.1-.11.4-.72.78-1,.54-.32,1.89-.24,1.42.09a1.06,1.06,0,0,1-.38.12,1.8,1.8,0,0,0-1.24.48C17.91,34.6,17.83,34.64,17.72,34.52Zm5.51,1.09c.29-.23.24-.8-.08-.8a1.49,1.49,0,0,1-.56-.28,1.53,1.53,0,0,0-.49-.28,1.09,1.09,0,0,1-.42-.26l-.95-.88c-.36-.34-.68-.56-.71-.5s-.09,0-.12,0-.18-.16-.49-.13c-.83.07-1.08.18-1.38.59l-.78,1.09c-.54.76-.61,1-.26,1s1.14.07,2.32.17l1.41.12a8.91,8.91,0,0,1,1.1.14,2.77,2.77,0,0,0,1.41,0Z"/><path class="cls-4" d="M31.46,22.57c.36-.18.39-.24.17-.33s-.23,0-.34.17-.47.19-.35,0c0-.07,0-.1-.16-.08a.52.52,0,0,0-.33.23c-.08.15-.06.22.09.35s.23.14.4,0A3.38,3.38,0,0,1,31.46,22.57Zm2.72,1c.17-.13.2-.2.11-.32s-.29-.19-.5,0-.46.1-.28-.15.08-.2-.13-.37a.81.81,0,0,0-.43-.21c-.2,0-.17.21.16.89.16.36.21.39.51.34a1.45,1.45,0,0,0,.56-.21ZM30,23.4a.8.8,0,0,0,.17-.34c0-.2-.39-.12-.49.11s-.3.28-.31-.06,0-.28-.37-.1c-.6.27-.73.66-.39,1.12.12.16,1.12-.37,1.39-.73Zm2.52,1.28c.32-.43.37-1.07.07-1.07-.12,0-.21.11-.25.28s-.19.36-.29.19a2.26,2.26,0,0,1,0-.63c.11-.7,0-.78-.6-.43-.87.51-.86.44-.39,1.43a3.51,3.51,0,0,0,.4.77s.06,0,.12,0,.5-.06.9-.57Zm-5,.54a2.36,2.36,0,0,1,.43-.37c.28-.17.3-.57,0-.57s-.2.1-.24.33c-.07.4-.26.44-.26.06s-.12-.35-.49.07-.36.48-.18.7S27.29,25.55,27.56,25.22Zm-1.07.83c.09-.12.15-.25.12-.29s-.48.18-.47.35S26.28,26.31,26.49,26.05Zm3.77.25a2.89,2.89,0,0,1,.59-.44.35.35,0,0,0,.24-.4c0-.15-.05-.25-.09-.22s-.08-.07-.08-.21a1,1,0,0,0-.15-.48c-.14-.21-.14-.21-.35,0a.67.67,0,0,0-.2.35c0,.09,0,.15-.09.15s-.07-.19,0-.42,0-.46-.06-.5-.35.08-.65.27c-.59.35-.7.6-.4.92a.61.61,0,0,1,.15.33.28.28,0,0,0,.1.23.86.86,0,0,1,.16.39c.09.44.43.45.87,0Zm-1.6,1.21c.47-.36.54-.45.51-.74-.05-.54-.06-.61-.16-.61S29,26.07,29,26a.2.2,0,0,0-.12-.28c-.22-.09-.53.3-.52.67,0,.15,0,.27-.09.27s-.07-.27,0-.61c.05-.68,0-.77-.48-.42s-.5.44-.49.64A5.43,5.43,0,0,0,28,27.93a2.87,2.87,0,0,0,.65-.42Zm2.31,0a2.52,2.52,0,0,1,.29-.76c.18,0,.07-.29-.12-.31-.47,0-1.47.73-1.19.91a.39.39,0,0,1,.11.29c0,.12.06.22.14.22s.18.15.22.33c.1.49.29.26.55-.68Zm-4.46,1.75c.71-.41,1.3-1.18,1-1.36a1.32,1.32,0,0,1-.24-.44A.94.94,0,0,0,27,27c-.2-.09-.43.16-.49.52,0,.15-.07.43-.1.63s-.09.33-.13.31a1.64,1.64,0,0,1,0-.71c.15-.91.06-1-.46-.57-.36.32-.41.41-.35.7a4.88,4.88,0,0,0,.68,1.52,1.31,1.31,0,0,0,.33-.15Zm2.79.64a3.64,3.64,0,0,1,.55-.51c.26-.2.43-.41.42-.54s0-.22-.1-.22-.13-.12-.16-.28c-.12-.47-.58-.24-.7.34a1.34,1.34,0,0,1-.16.47c-.1.15-.31.19-.23,0a2.18,2.18,0,0,0,.1-.47c0-.21.08-.46.1-.56a.25.25,0,0,0-.06-.26c-.14-.1-.79.37-.79.57A4.07,4.07,0,0,0,29,30a.45.45,0,0,0,.27-.17Zm-3.84.27a.56.56,0,0,0,.32-.55c0-.2-.06-.36-.16-.4a.17.17,0,0,1-.1-.21c.06-.18-.33-.44-.46-.3a5.53,5.53,0,0,0-.27,1.49c0,.27.25.26.67,0Zm2.22,1.16c.68-.58.94-.93.87-1.18a2.59,2.59,0,0,1-.06-.38.16.16,0,0,0-.17-.14c-.1,0-.14-.06-.1-.18s0-.16-.06-.13a1.38,1.38,0,0,0-.27.62c-.19.77-.43.88-.35.16a6.29,6.29,0,0,1,.11-.72c.05-.25-.14-.25-.58,0s-.61.44-.53.81a.84.84,0,0,0,.17.4.31.31,0,0,1,.09.23,2,2,0,0,0,.5.81,1.87,1.87,0,0,0,.38-.29Zm2.57.39c.1-.57.06-.73-.15-.79s-.2-.15-.2-.51-.06-.54-.39-.29a.8.8,0,0,0,0,1.07,2,2,0,0,1,.27.57C29.87,32.17,30.18,32.13,30.25,31.69Zm-4.38,1.22a4.48,4.48,0,0,0,1-1.22.22.22,0,0,0-.1-.15,1.3,1.3,0,0,1-.25-.45c-.17-.44-.31-.48-.47-.13-.06.13-.11.25-.09.25a1.09,1.09,0,0,1-.08.3c-.15.47-.34.39-.29-.12s0-.74-.49-.44a2.18,2.18,0,0,0-.46.36c-.09.16-.08.73,0,.73s.22.24.46.8c.15.37.3.38.72.07Zm2.74.4A1,1,0,0,1,29,33c.19,0,.57-.55.58-.84s0-.27-.08-.27-.13-.13-.2-.28-.15-.28-.2-.28-.13.11-.37.86c-.17.51-.33.32-.28-.33s0-.54-.22-.47a1.33,1.33,0,0,0-.52.35c-.24.26-.25.3-.12.57a1.41,1.41,0,0,1,.15.44c0,.08.05.12.1.08s.1.05.1.19.17.53.33.53A1,1,0,0,0,28.61,33.31Zm-3.82.4c.15-.2.16-.26,0-.7s-.15-.47-.24-.2a3.83,3.83,0,0,0-.16.7C24.33,34,24.49,34.07,24.79,33.71Zm1.92,1.23a3.23,3.23,0,0,1,.62-.51c.17-.1.32-.25.32-.34s0-.17.09-.17.06-.1,0-.22-.1-.22-.15-.22-.07,0,0-.1a.38.38,0,0,0-.25-.49c-.24-.07-.36.1-.37.53s-.22.95-.35.95a1.75,1.75,0,0,1,0-.78,1.72,1.72,0,0,0,0-.77,2.65,2.65,0,0,0-.5.42c-.36.36-.41.47-.35.72s.11.29.16.29.09.06.09.13a2,2,0,0,0,.41.87,1.38,1.38,0,0,0,.35-.31Zm3.09.51.45-.39a5.94,5.94,0,0,0-.1-1.72c0-.06-.14.12-.22.41a1.11,1.11,0,0,1-.2.5c-.05,0-.08.12-.08.27a.38.38,0,0,1-.14.33c-.18.07-.19,0-.05-.49a2.9,2.9,0,0,0,.11-1.21,3.12,3.12,0,0,0-1,.75c-.21.26-.21.3-.06.55s.14.29.11.32.06.19.2.35a1.11,1.11,0,0,1,.25.43c0,.1.1.2.28.25a4.44,4.44,0,0,0,.45-.35ZM25.69,36c.26-.27.26-.27.11-.77-.26-.79-.48-.79-.58,0-.06.49-.12.63-.26.63s-.07-.3,0-.72c0-.61,0-.72-.11-.72s-.16,0-.16.08-.13.15-.28.22a1,1,0,0,0-.41.47.64.64,0,0,0,.1.7,1.78,1.78,0,0,1,.22.51,1,1,0,0,0,.17.4l.16.28.41-.4.67-.67Zm2.23,1.29a1.29,1.29,0,0,1,.42-.34c.05,0,.18-.13.28-.29a1.35,1.35,0,0,0-.11-1.33c-.13-.22-.19-.25-.3-.14a.43.43,0,0,0-.14.32c0,.33-.31,1.24-.4,1.15a1.06,1.06,0,0,1,0-.54,2.35,2.35,0,0,0,0-1.33c-.06,0-.1,0-.1,0s-.17.21-.38.34a2.45,2.45,0,0,0-.55.45c-.17.21-.17.24.11.81a5.2,5.2,0,0,0,.36.65,1.72,1.72,0,0,1,.18.3c.16.33.26.32.64-.08Zm2.58-.31a8.54,8.54,0,0,0-.19-1.15c-.07-.13-.57.2-.71.47s0,.77.19.77.1.08.1.17a1.21,1.21,0,0,0,.19.47,3.57,3.57,0,0,1,.26.52c.08.22.08.22.18,0a2.91,2.91,0,0,0,0-1.26Zm-6.76,1c.46-.48.47-.51.4-1a1.2,1.2,0,0,0-.25-.62c-.14-.12-.19-.1-.33.1a.71.71,0,0,0-.17.39,1,1,0,0,1-.25.44c-.24.3-.33.82-.14.82s.1.08.11.17C23.11,38.57,23.25,38.5,23.74,38Zm2.64.86A5,5,0,0,0,27,38a1.24,1.24,0,0,0-.15-.64c-.31-.66-.61-.55-.73.25s-.21.55-.18-.31c0-.7,0-.82-.14-.82s-.16.05-.16.11a.13.13,0,0,1-.12.12c-.22,0-.65.51-.67.78s.11.77.23.77.07,0,0,.11.05.27.2.48a1.57,1.57,0,0,1,.26.5c0,.23.15.13.76-.51Zm-3.89.34c.33-.37.43-.81.17-.81-.08,0-.17.1-.21.24a1.24,1.24,0,0,1-.35.5c-.31.31-.41.85-.1.57.09-.08.32-.31.49-.5Zm7.05.1c.56-.63.56-.64.41-1-.08-.18-.19-.47-.25-.64s-.16-.31-.32-.28a.28.28,0,0,0-.24.2c0,.09-.05.39-.08.66-.06.45-.33,1.09-.35.83a12.22,12.22,0,0,1,0-1.3c0-.41,0-.44-.53-.17s-.61.62-.26,1.12a1.56,1.56,0,0,1,.27.51c0,.26.34.68.55.68s.43-.25.77-.64ZM25,40.3c.51-.52.53-.66.18-1.26-.21-.35-.38-.17-.53.54-.07.34-.16.55-.25.55s-.14-.2-.13-1c0-1.13-.06-1.23-.55-.66a.8.8,0,0,0-.07,1.11,1.52,1.52,0,0,1,.21.36,2.74,2.74,0,0,0,.15.47c.2.51.41.49,1-.11Zm2.67.85c.51-.44.59-.58.59-.88s0-.36-.08-.36-.13-.15-.2-.33c-.18-.52-.39-.32-.53.5-.17,1-.34.85-.31-.32,0-.83,0-1-.14-1s-.16,0-.16.08-.15.21-.35.35c-.48.37-.59.63-.41,1a1.66,1.66,0,0,0,.19.34,2.49,2.49,0,0,1,.2.39c.17.36.42.7.54.71A3.63,3.63,0,0,0,27.64,41.15Zm2.89.25c.38-.39.42-.48.39-.88s-.38-1.13-.5-1a3.19,3.19,0,0,0-.19.71c-.15.82-.35.93-.31.18a1.41,1.41,0,0,0-.06-.65c-.06-.06-.27,0-.52.24s-.41.38-.35.7a6.21,6.21,0,0,0,.29.86c.22.52.22.52.52.38a3.49,3.49,0,0,0,.73-.57Zm-7,.45c.33-.36.35-.43.29-.8s-.45-1.1-.53-1a1.73,1.73,0,0,0-.07.42c0,.54-.26,1.15-.35,1a3.48,3.48,0,0,1-.09-.85c0-.85-.13-1-.41-.73s-.32.55-.16.7.13.17.1.21,0,.15.1.23a.43.43,0,0,1,.16.29,1.06,1.06,0,0,0,.09.35,1.8,1.8,0,0,1,.16.38c.08.3.32.23.71-.19Zm7.4.93c.14-.14.16-.86,0-.94s-.68.16-.68.3-.11.15-.25.21c-.38.16-.32.53.08.58A1,1,0,0,0,30.91,42.78Zm-2,0c.27-.28.28-.44,0-.87s-.51-.39-.44.14c0,0-.05.13-.13.21a.46.46,0,0,0-.15.29c0,.08,0,.15-.09.15s-.07-.43,0-1c.05-.29-.13-.34-.43-.13a1.37,1.37,0,0,0-.61.83.87.87,0,0,0,.21.42,1.35,1.35,0,0,0,1.57,0Zm-2.1,0c-.09-.11-.28.06-.21.19s.1.07.17,0S26.88,42.76,26.84,42.73Zm-2.28.18a.18.18,0,0,0,.06-.22c-.11-.2.1-.14.35.1a.79.79,0,0,0,.41.22,2.82,2.82,0,0,0,1.06-.58c.15-.13.16-.6,0-.69a.43.43,0,0,1-.1-.29c0-.12-.07-.21-.15-.21A.23.23,0,0,1,26,41.1c-.09-.22-.36.24-.36.6s-.14.51-.27.38a2.76,2.76,0,0,1-.07-.68c0-.68-.12-.76-.52-.36-.25.24-.33.79-.13.92s.14.5,0,.49a.67.67,0,0,1-.43-.42c0-.26-.37-.12-.74.28s-.36.42-.19.56a1.69,1.69,0,0,0,1.23,0ZM22.4,43c.14-.08.16-.17.1-.5s-.44-1.12-.57-1.12a1.11,1.11,0,0,0-.13.54c0,.39-.11.56-.24.6s-.17,0-.13-.64c.05-.82-.09-1-.4-.55s-.29.72.08,1.27.37.5.72.49A1.61,1.61,0,0,0,22.4,43Zm-2.48,0c0-.06,0-.11,0-.11s.12.06.15.14.07.1.14,0,.14-.13.19-.1a.22.22,0,0,0,.23,0c.12-.09.11-.11-.05-.12h-.33c-.08,0-.1-.08-.06-.32.07-.42,0-.42-.32,0s-.3.54-.11.62.19.08.12,0Z"/></g></g></svg>